<?xml version="1.0" encoding="UTF-8"?>
<!DOCTYPE svg PUBLIC "-//W3C//DTD SVG 1.1//EN" "http://www.w3.org/Graphics/SVG/1.1/DTD/svg11.dtd">
<!-- Creator: CorelDRAW 2019 -->
<svg xmlns="http://www.w3.org/2000/svg" xml:space="preserve" width="17.2626mm" height="20.32mm" version="1.1" style="shape-rendering:geometricPrecision; text-rendering:geometricPrecision; image-rendering:optimizeQuality; fill-rule:evenodd; clip-rule:evenodd"
viewBox="0 0 1650.39 1942.69"
 xmlns:xlink="http://www.w3.org/1999/xlink"
 xmlns:xodm="http://www.corel.com/coreldraw/odm/2003">
 <defs>
  <style type="text/css">
   <![CDATA[
    .fil0 {fill:#FA342B}
   ]]>
  </style>
 </defs>
 <g id="Слой_x0020_1">
  <metadata id="CorelCorpID_0Corel-Layer"/>
  <g id="_760118280">
   <path class="fil0" d="M424.86 1239.14c-3.86,14.47 -18.95,33.69 -27.25,45.37l-212.41 309.57c-20.06,30.17 -38.76,55.79 -59.01,86.25l-120.39 179.24c-17.08,42.49 4.64,83.11 51.4,83.11l363.12 0c86.99,0 125.2,-74.33 161.58,-128.9 93.79,-140.68 197.45,-301.28 293.05,-437.74 22.16,-31.63 31.04,-66.29 31.04,-118.74l0 -281.41c0,-123.66 -149.17,-32.77 -293.57,-110.4 -84.62,-45.5 -153.46,-136.88 -122.97,-265.28 24.5,-103.14 114.25,-173.88 221.46,-182.51 125.8,-10.12 270.59,-4.64 403.87,-4.64l28.05 253.37c9.17,82.49 17.6,168.51 27.24,254.18 5.47,48.69 32.23,342.2 44.9,377.23 13.76,38.04 54.32,36.64 104.08,36.64 243.7,0 182.85,20.41 220.47,-251.55 8.04,-58.11 12.09,-118.17 18.8,-171.86 7.4,-59.24 12.77,-116.07 18.68,-171.96 6.85,-64.83 73.39,-643.81 73.39,-689.16 0,-33.15 -25.85,-49.92 -59.01,-49.92l-880.56 0c-240.73,0 -467.44,74.81 -595.54,280.48 -148.09,237.77 -121.36,590.84 51.94,776.02l34.06 38.56c35.78,40.83 157.15,128.6 223.58,144.08l0 0z"/>
   <path class="fil0" d="M1114.79 1511.48l0 358.58c0,43.68 28.93,72.62 72.62,72.62l354.03 0c47.01,0 72.63,-29.15 72.63,-77.16l0 -354.03c0,-62.12 -51.28,-72.62 -113.48,-72.62l-272.33 0c-62.2,0 -113.48,10.5 -113.48,72.62l0.01 0z"/>
  </g>
 </g>
</svg>
