<?xml version="1.0" encoding="UTF-8"?>
<!DOCTYPE svg PUBLIC "-//W3C//DTD SVG 1.1//EN" "http://www.w3.org/Graphics/SVG/1.1/DTD/svg11.dtd">
<!-- Creator: CorelDRAW 2019 -->
<svg xmlns="http://www.w3.org/2000/svg" xml:space="preserve" width="128.27mm" height="150.989mm" version="1.1" style="shape-rendering:geometricPrecision; text-rendering:geometricPrecision; image-rendering:optimizeQuality; fill-rule:evenodd; clip-rule:evenodd"
viewBox="0 0 12331.23 14515.28"
 xmlns:xlink="http://www.w3.org/1999/xlink"
 xmlns:xodm="http://www.corel.com/coreldraw/odm/2003">
 <defs>
  <style type="text/css">
   <![CDATA[
    .fil0 {fill:#FA342B}
   ]]>
  </style>
 </defs>
 <g id="Слой_x0020_1">
  <metadata id="CorelCorpID_0Corel-Layer"/>
  <g id="_760118280">
   <path class="fil0" d="M3174.4 9258.58c-28.85,108.07 -141.61,251.76 -203.6,339.03l-1587.08 2313.05c-149.89,225.46 -289.62,416.84 -440.88,644.37l-899.55 1339.23c-127.55,317.47 34.68,621.02 384.07,621.02l2713.13 0c649.95,0 935.47,-555.44 1207.32,-963.19 700.76,-1051.12 1475.26,-2251.07 2189.57,-3270.62 165.59,-236.36 231.93,-495.34 231.93,-887.24l0 -2102.68c0,-923.88 -1114.59,-244.86 -2193.48,-824.88 -632.31,-339.93 -1146.71,-1022.72 -918.79,-1982.15 183.07,-770.65 853.63,-1299.2 1654.67,-1363.69 939.91,-75.67 2021.76,-34.63 3017.65,-34.63l209.56 1893.11c68.51,616.32 131.55,1259.15 203.51,1899.17 40.91,363.78 240.86,2556.82 335.49,2818.54 102.77,284.23 405.85,273.76 777.58,273.76 1820.84,0 1366.25,152.52 1647.39,-1879.48 60.08,-434.23 90.33,-882.96 140.44,-1284.16 55.29,-442.57 95.41,-867.27 139.54,-1284.86 51.18,-484.36 548.36,-4810.43 548.36,-5149.22 0,-247.7 -193.21,-373.06 -440.88,-373.06l-6579.36 0c-1798.69,0 -3492.6,558.99 -4449.75,2095.69 -1106.53,1776.52 -906.8,4414.57 388.11,5798.26l254.55 288.09c267.34,305.14 1174.11,960.9 1670.5,1076.54z"/>
   <path class="fil0" d="M8329.36 11293.43l0 2679.22c0,326.41 216.23,542.63 542.63,542.63l2645.3 0c351.22,0 542.62,-217.86 542.62,-576.55l0 -2645.3c0,-464.15 -383.16,-542.63 -847.85,-542.63l-2034.85 0c-464.7,0 -847.86,78.48 -847.86,542.63z"/>
  </g>
 </g>
</svg>
