<?xml version="1.0" standalone="no"?>
<!DOCTYPE svg PUBLIC "-//W3C//DTD SVG 1.1//EN" "http://www.w3.org/Graphics/SVG/1.1/DTD/svg11.dtd" >
<svg>
<metadata>
Created by FontForge 20090914 at Sat Mar 21 19:44:05 2020
 By www-data
&#239;&#191;&#189;2009 Commercial Type.
</metadata>
<defs>
<font id="GraphikLCWeb-Black" horiz-adv-x="600" >
  <font-face 
    font-family="Graphik LC Web Black"
    font-weight="800"
    font-stretch="normal"
    units-per-em="1000"
    panose-1="2 11 10 3 3 2 2 6 2 3"
    ascent="818"
    descent="-182"
    x-height="523"
    cap-height="715"
    bbox="-246 -233.001 1217.01 1142"
    underline-thickness="50"
    underline-position="-50"
    unicode-range="U+000D-U+FB02"
  />
<missing-glyph horiz-adv-x="523" 
 />
    <glyph glyph-name="f_f" unicode="ff" horiz-adv-x="731" 
d="M75 391l-63.9971 0.00292969v132h64v33c0 34 5.16699 63.333 15.5 88s24.833 45 43.5 61s41 27.833 67 35.5s55 11.5 87 11.5c17.333 0 32.666 -1 45.999 -3s25.666 -4.66699 36.999 -8v-142c-6 2 -12.5 3.66699 -19.5 5s-15.167 2 -24.5 2
c-19.333 0 -33.333 -4.83301 -42 -14.5s-13 -21.834 -13 -36.501v-32h141v39c0 34 5.16699 63.333 15.5 88s25 45 44 61s41.667 27.833 68 35.5s55.5 11.5 87.5 11.5c17.333 0 32.666 -1 45.999 -3s26.333 -4.66699 39 -8v-141c-6 1.33301 -12.833 2.66602 -20.5 3.99902
s-16.5 2 -26.5 2c-19.333 0 -33.5 -4.83301 -42.5 -14.5s-13.5 -21.834 -13.5 -36.501v-38h102v-132h-102v-391h-197v391h-141v-391h-197v391z" />
    <glyph glyph-name=".notdef" horiz-adv-x="523" 
 />
    <glyph glyph-name="NULL" horiz-adv-x="0" 
 />
    <glyph glyph-name="NULL" horiz-adv-x="0" 
 />
    <glyph glyph-name="nonmarkingreturn" unicode="&#xd;" horiz-adv-x="185" 
 />
    <glyph glyph-name="space" unicode=" " horiz-adv-x="185" 
 />
    <glyph glyph-name="exclam" unicode="!" horiz-adv-x="342" 
d="M171 -12c-16 0 -30.833 2.66699 -44.5 8s-25.667 12.833 -36 22.5s-18.5 20.834 -24.5 33.501s-9 26.334 -9 41.001s3 28.5 9 41.5s14.167 24.167 24.5 33.5s22.333 16.833 36 22.5s28.5 8.5 44.5 8.5s30.833 -2.83301 44.5 -8.5s25.834 -13.167 36.501 -22.5
s19 -20.5 25 -33.5s9 -26.833 9 -41.5s-3 -28.334 -9 -41.001s-14.333 -23.834 -25 -33.501s-22.834 -17.167 -36.501 -22.5s-28.5 -8 -44.5 -8zM61 715h221l-29 -474h-164z" />
    <glyph glyph-name="quotedbl" unicode="&#x22;" horiz-adv-x="478" 
d="M37 715h183l-22 -281h-139zM258 715h183l-22 -281h-139z" />
    <glyph glyph-name="numbersign" unicode="#" horiz-adv-x="589" 
d="M294 234h-57l-20 -135h-130l20 135h-66v154h89l9 65h-75v146h97l18 116h130l-18 -116h56l18 116h131l-18 -116h70v-146h-92l-9 -65h78v-154h-101l-20 -135h-130zM260 388h56l10 65h-57z" />
    <glyph glyph-name="dollar" unicode="$" horiz-adv-x="651" 
d="M289 -10c-87.333 6 -153.167 30.0059 -197.5 72.0059s-68.166 97 -71.499 165h199c2 -21.333 8.33301 -39.5 19 -54.5s27.667 -25.167 51 -30.5v130c-46 6 -85 14.833 -117 26.5s-58.333 26.5 -79 44.5s-35.667 39.833 -45 65.5s-14 56.167 -14 91.5
c0 31.333 5.83301 60 17.5 86s28.5 48.833 50.5 68.5s48.667 35.5 80 47.5s67 19.333 107 22v89h81v-90c74.667 -6 133.5 -26.5 176.5 -61.5s67.167 -87.833 72.5 -158.5h-195c-2 17.333 -6.83301 31.666 -14.5 42.999s-20.834 19.666 -39.501 24.999v-123
c38.667 -5.33301 74 -12.833 106 -22.5s59.333 -22.834 82 -39.501s40.167 -37.667 52.5 -63s18.5 -56.333 18.5 -93c0 -31.333 -5 -60.833 -15 -88.5s-25.5 -52.334 -46.5 -74.001s-47.833 -39.334 -80.5 -53.001s-71.667 -21.834 -117 -24.501v-125h-81v125z
M226.999 517.006c0 -16 4.5 -28.333 13.5 -37s25.167 -15.667 48.5 -21v115c-41.333 -7.33301 -62 -26.333 -62 -57zM429.999 203.006c0 14.667 -4.33301 26.168 -13 34.501s-24.334 15.166 -47.001 20.499v-118c20.667 4.66699 35.834 12.5 45.501 23.5
s14.5 24.167 14.5 39.5z" />
    <glyph glyph-name="percent" unicode="%" horiz-adv-x="835" 
d="M218 472c17.333 0 30.333 6.5 39 19.5s13 30.5 13 52.5s-4.33301 39.333 -13 52s-21.667 19 -39 19s-30.5 -6.33301 -39.5 -19s-13.5 -29.667 -13.5 -51c0 -23.333 4.5 -41.333 13.5 -54s22.167 -19 39.5 -19zM217 360c-31.333 0 -59.002 4.66797 -83.002 14.001
s-44.167 22.333 -60.5 39s-28.833 36.167 -37.5 58.5s-13 46.5 -13 72.5c0 25.333 4.83301 49 14.5 71s23.334 41 41.001 57s38.334 28.5 62.001 37.5s49.5 13.5 77.5 13.5c27.333 0 52.833 -4.33301 76.5 -13s44.167 -20.667 61.5 -36s30.833 -33.833 40.5 -55.5
s14.5 -45.5 14.5 -71.5s-4.5 -50.5 -13.5 -73.5s-21.833 -42.833 -38.5 -59.5s-37 -29.834 -61 -39.501s-51 -14.5 -81 -14.5zM621.998 715.001h102l-508 -715h-101zM617.998 99.001c17.333 0 30.333 6.5 39 19.5s13 30.5 13 52.5s-4.33301 39.333 -13 52s-21.667 19 -39 19
s-30.5 -6.33301 -39.5 -19s-13.5 -29.667 -13.5 -51c0 -23.333 4.5 -41.333 13.5 -54s22.167 -19 39.5 -19zM616.998 -12.999c-31.333 0 -58.832 4.66797 -82.499 14.001s-43.834 22.333 -60.501 39s-29.167 36.167 -37.5 58.5s-12.5 46.5 -12.5 72.5
c0 25.333 4.83301 49 14.5 71s23.167 41 40.5 57s37.833 28.5 61.5 37.5s49.5 13.5 77.5 13.5s53.833 -4.33301 77.5 -13s44.167 -20.667 61.5 -36s30.833 -33.833 40.5 -55.5s14.5 -45.5 14.5 -71.5s-4.5 -50.5 -13.5 -73.5s-21.833 -42.833 -38.5 -59.5
s-37.167 -29.834 -61.5 -39.501s-51.5 -14.5 -81.5 -14.5z" />
    <glyph glyph-name="ampersand" unicode="&#x26;" horiz-adv-x="777" 
d="M649 146l118.999 -146h-255l-37 46c-22.667 -16.667 -48.667 -30.667 -78 -42s-67.333 -17 -114 -17c-39.333 0 -74.666 4.83301 -105.999 14.5s-58.166 24 -80.499 43s-39.5 42 -51.5 69s-18 58.167 -18 93.5c0 44 13.167 83.333 39.5 118s65.166 64 116.499 88
c-14.667 21.333 -25 42.833 -31 64.5s-9 40.5 -9 56.5c0 30.667 6.33301 58 19 82s29.834 44 51.501 60s47.167 28.167 76.5 36.5s60.666 12.5 93.999 12.5c30 0 58.5 -3.5 85.5 -10.5s50.833 -17.667 71.5 -32s37.167 -32.166 49.5 -53.499s18.5 -46 18.5 -74
c0 -38.667 -11.333 -72.334 -34 -101.001s-58.667 -53.667 -108 -75l79 -97l46 91h171zM320.999 145c22 0 40.998 7.33301 56.998 22l-105 127c-9.33301 -7.33301 -17.666 -16 -24.999 -26s-11 -23.333 -11 -40c0 -23.333 6.83301 -43 20.5 -59s34.834 -24 63.501 -24z
M334.997 531c0 -12 3.49902 -23.834 10.499 -35.501s16.5 -24.167 28.5 -37.5c42.667 21.333 64 47.333 64 78c0 15.333 -4.33301 27.833 -13 37.5s-20.667 14.5 -36 14.5s-28.166 -5.16699 -38.499 -15.5s-15.5 -24.166 -15.5 -41.499z" />
    <glyph glyph-name="quotesingle" unicode="'" horiz-adv-x="264" 
d="M37 715h190l-22 -281h-146z" />
    <glyph glyph-name="parenleft" unicode="(" horiz-adv-x="362" 
d="M202 -148c-18.667 22.667 -37.834 48.6631 -57.501 77.9961s-37.667 63 -54 101s-29.666 80.333 -39.999 127s-15.5 98.667 -15.5 156c0 56.667 5.16699 108.334 15.5 155.001s23.666 89 39.999 127s34.333 71.667 54 101s38.834 55.333 57.501 78h150
c-15.333 -25.333 -30.833 -53.666 -46.5 -84.999s-29.667 -66.166 -42 -104.499s-22.333 -80.166 -30 -125.499s-11.5 -94 -11.5 -146c0 -52.667 3.83301 -101.667 11.5 -147s17.667 -87.166 30 -125.499s26.333 -73.333 42 -105s31.167 -59.834 46.5 -84.501h-150v0z" />
    <glyph glyph-name="parenright" unicode=")" horiz-adv-x="362" 
d="M10 -148c15.333 24.667 30.833 52.8379 46.5 84.5049s29.667 66.667 42 105s22.333 80.166 30 125.499s11.5 94 11.5 146c0 52.667 -3.83301 101.667 -11.5 147s-17.667 87.166 -30 125.499s-26.333 73.166 -42 104.499s-31.167 59.666 -46.5 84.999h150
c18.667 -22.667 37.834 -48.667 57.501 -78s37.667 -63 54 -101s29.666 -80.5 39.999 -127.5s15.5 -98.833 15.5 -155.5s-5.16699 -108.334 -15.5 -155.001s-23.666 -89 -39.999 -127s-34.333 -71.667 -54 -101s-38.834 -55.333 -57.501 -78h-150v0z" />
    <glyph glyph-name="asterisk" unicode="*" horiz-adv-x="444" 
d="M52 446l90 86l-116 10l37 134l108 -54l-26 121h154l-26 -121l108 54l36 -134l-116 -10l90 -86l-117 -83l-53 114l-52 -114z" />
    <glyph glyph-name="plus" unicode="+" horiz-adv-x="579" 
d="M211 269h-173v142h173v189h157v-189h174v-142h-174v-190h-157v190z" />
    <glyph glyph-name="comma" unicode="," horiz-adv-x="311" 
d="M13 -79l81 272l182 -63l-148 -252z" />
    <glyph glyph-name="hyphen" unicode="-" horiz-adv-x="390" 
d="M49 360h292v-146h-292v146z" />
    <glyph glyph-name="period" unicode="." horiz-adv-x="302" 
d="M150 -12c-16 0 -30.666 2.83398 -43.999 8.50098s-24.833 13.334 -34.5 23.001s-17.334 21 -23.001 34s-8.5 27.167 -8.5 42.5c0 30 10.333 55.333 31 76s47 31 79 31c16 0 30.833 -2.83301 44.5 -8.5s25.5 -13.334 35.5 -23.001s17.833 -21 23.5 -34
s8.5 -26.833 8.5 -41.5c0 -15.333 -2.83301 -29.5 -8.5 -42.5s-13.5 -24.333 -23.5 -34s-21.833 -17.334 -35.5 -23.001s-28.5 -8.5 -44.5 -8.5z" />
    <glyph glyph-name="slash" unicode="/" horiz-adv-x="440" 
d="M292 776h155l-322 -924h-155z" />
    <glyph glyph-name="zero" unicode="0" horiz-adv-x="741" 
d="M373 162c40 0 68.501 14.8311 85.501 44.498s25.5 75.834 25.5 138.501v26c0 62.667 -8.83301 108.834 -26.5 138.501s-46.5 44.5 -86.5 44.5c-40.667 0 -69.834 -14.667 -87.501 -44s-26.5 -75.333 -26.5 -138v-28c0 -62.667 8.83301 -108.667 26.5 -138
s47.5 -44 89.5 -44zM366.001 -13.002c-51.333 0 -97.6641 7.83301 -138.997 23.5s-76.5 38.667 -105.5 69s-51.167 67.5 -66.5 111.5s-23 94.667 -23 152v28c0 57.333 8.66699 108 26 152s41.166 81 71.499 111s66 52.833 107 68.5s85.5 23.5 133.5 23.5
c47.333 0 91.666 -7.16699 132.999 -21.5s77.166 -36 107.499 -65s54.333 -65.333 72 -109s26.5 -95.167 26.5 -154.5v-27c0 -57.333 -8 -108.5 -24 -153.5s-39 -83 -69 -114s-66.167 -54.5 -108.5 -70.5s-89.5 -24 -141.5 -24z" />
    <glyph glyph-name="one" unicode="1" horiz-adv-x="459" 
d="M163 492l-132 -79v188l164 114h195v-715h-227v492z" />
    <glyph glyph-name="two" unicode="2" horiz-adv-x="626" 
d="M7 31l243.001 257.998c36 38.667 65 73.5 87 104.5s33 61.5 33 91.5c0 20.667 -5.16699 37.667 -15.5 51s-26.833 20 -49.5 20c-23.333 0 -41.833 -8 -55.5 -24s-22.834 -44 -27.501 -84h-204c3.33301 93.333 31.333 163 84 209s124 69 214 69
c45.333 0 85.333 -5.83301 120 -17.5s63.667 -27.667 87 -48s40.833 -44.666 52.5 -72.999s17.5 -59.166 17.5 -92.499c0 -25.333 -3.16699 -48.833 -9.5 -70.5s-15.333 -42.5 -27 -62.5s-25.667 -39.5 -42 -58.5s-34.5 -37.833 -54.5 -56.5l-82 -79h221v-168h-592v31z" />
    <glyph glyph-name="three" unicode="3" horiz-adv-x="661" 
d="M333 -13c-103.333 0 -179.498 21.999 -228.498 65.999s-75.167 106.333 -78.5 187h201c2.66699 -28 10.667 -50.167 24 -66.5s36 -24.5 68 -24.5c28 0 48.5 6.16699 61.5 18.5s19.5 30.166 19.5 53.499c0 24 -6.66699 42.167 -20 54.5s-34.666 18.5 -63.999 18.5h-57v137
h54c30 0 52 6.16699 66 18.5s21 30.166 21 53.499c0 18.667 -6 33.667 -18 45s-30 17 -54 17c-24.667 0 -43.834 -7.16699 -57.501 -21.5s-22.5 -35.166 -26.5 -62.499h-200c2.66699 36.667 10.5 70 23.5 100s31.5 55.833 55.5 77.5s53.5 38.334 88.5 50.001
s75.833 17.5 122.5 17.5c87.333 0 155.5 -17.667 204.5 -53s73.5 -83.666 73.5 -144.999c0 -40 -10.833 -72.833 -32.5 -98.5s-51.834 -44.167 -90.501 -55.5c42 -7.33301 75.833 -25 101.5 -53s38.5 -63.333 38.5 -106c0 -34 -6.33301 -65 -19 -93s-31.334 -52 -56.001 -72
s-55.5 -35.5 -92.5 -46.5s-79.833 -16.5 -128.5 -16.5z" />
    <glyph glyph-name="four" unicode="4" horiz-adv-x="689" 
d="M360 134h-346v86l294 495h270v-426h90v-155h-90v-134h-218v134zM366 289v255l-144 -255h144z" />
    <glyph glyph-name="five" unicode="5" horiz-adv-x="639" 
d="M311 -13c-49.333 0 -91.8301 6.16406 -127.497 18.4971s-65.334 29.5 -89.001 51.5s-41.334 47.833 -53.001 77.5s-17.834 61.5 -18.501 95.5h205c2.66699 -22 9.66699 -39.667 21 -53s31.666 -20 60.999 -20c26 0 44.5 8.66699 55.5 26s16.5 38 16.5 62
c0 28.667 -7.33301 50.834 -22 66.501s-36 23.5 -64 23.5c-27.333 0 -49.833 -4.66699 -67.5 -14s-31.5 -20.666 -41.5 -33.999h-139l18 428h497v-164h-335l-5 -146c6.66699 10 15 19.833 25 29.5s22 18.167 36 25.5s30 13.333 48 18s38.667 7 62 7
c66 0 118.333 -21 157 -63s58 -102.333 58 -181c0 -38 -6.66699 -72.667 -20 -104s-32.666 -58.166 -57.999 -80.499s-56.5 -39.5 -93.5 -51.5s-79.167 -18 -126.5 -18z" />
    <glyph glyph-name="six" unicode="6" horiz-adv-x="685" 
d="M358 -13c-58.667 0 -108.667 8.66895 -150 26.002s-75 41.666 -101 72.999s-45 68.833 -57 112.5s-18 91.5 -18 143.5v19c0 57.333 8.33301 108.5 25 153.5s39.834 83.167 69.501 114.5s64.5 55.333 104.5 72s83 25 129 25c85.333 0 152 -18.333 200 -55
s75.667 -91.334 83 -164.001h-208c-2.66699 15.333 -8.33398 27.833 -17.001 37.5s-24.667 14.5 -48 14.5c-36.667 0 -64.334 -14.667 -83.001 -44s-29 -71.666 -31 -126.999c8 12 16.833 23 26.5 33s21 18.5 34 25.5s27.833 12.5 44.5 16.5s36.334 6 59.001 6
c32 0 62.333 -4.66699 91 -14s54 -23.5 76 -42.5s39.333 -42.833 52 -71.5s19 -62.334 19 -101.001c0 -38 -6.83301 -72.5 -20.5 -103.5s-33.5 -57.5 -59.5 -79.5s-57.5 -39.167 -94.5 -51.5s-78.833 -18.5 -125.5 -18.5zM354 146.002c26 0 46.5 8.83301 61.5 26.5
s22.5 39.834 22.5 66.501c0 26 -7.33301 47.667 -22 65s-35 26 -61 26s-46.667 -8.83301 -62 -26.5s-23 -39.167 -23 -64.5c0 -26.667 7.5 -48.834 22.5 -66.501s35.5 -26.5 61.5 -26.5z" />
    <glyph glyph-name="seven" unicode="7" horiz-adv-x="586" 
d="M297 531h-274v184h557v-23l-244 -692h-231z" />
    <glyph glyph-name="eight" unicode="8" horiz-adv-x="666" 
d="M333 -13c-96 0 -171.333 18.334 -226 55.001s-82 89.667 -82 159c0 40 10.667 75.333 32 106s54 53.667 98 69c-31.333 13.333 -55.833 32 -73.5 56s-26.5 54 -26.5 90c0 32.667 7.33301 61.667 22 87s34.667 46.666 60 63.999s55 30.5 89 39.5s70.333 13.5 109 13.5
c40 0 77 -4.5 111 -13.5s63.5 -22 88.5 -39s44.5 -38 58.5 -63s21 -53.833 21 -86.5c0 -36.667 -9 -67 -27 -91s-42.333 -42.667 -73 -56c43.333 -15.333 75.333 -37.5 96 -66.5s31 -63.5 31 -103.5c0 -34 -7 -64.667 -21 -92s-34.333 -50.5 -61 -69.5s-59 -33.5 -97 -43.5
s-81 -15 -129 -15zM334 145.001c25.333 0 46 7.16699 62 21.5s24 34.166 24 59.499c0 24.667 -7.83301 44.5 -23.5 59.5s-36.5 22.5 -62.5 22.5c-25.333 0 -46.166 -7.16699 -62.499 -21.5s-24.5 -34.5 -24.5 -60.5c0 -25.333 8.16699 -45.166 24.5 -59.499
s37.166 -21.5 62.499 -21.5zM335 431.001c21.333 0 39.5 6.49902 54.5 19.499s22.5 30.5 22.5 52.5s-7.5 39.5 -22.5 52.5s-33.167 19.5 -54.5 19.5c-20.667 0 -38.5 -6.5 -53.5 -19.5s-22.5 -30.5 -22.5 -52.5c0 -21.333 7.5 -38.666 22.5 -51.999s32.833 -20 53.5 -20z
" />
    <glyph glyph-name="nine" unicode="9" horiz-adv-x="685" 
d="M327 -12c-87.333 0 -155.835 18.834 -205.502 56.501s-77.834 91.834 -84.501 162.501h207c2.66699 -15.333 9.33398 -27.833 20.001 -37.5s27.667 -14.5 51 -14.5c40 0 68.5 14.333 85.5 43s26.167 70.667 27.5 126c-8 -12 -16.5 -23 -25.5 -33s-19.667 -18.667 -32 -26
s-26.666 -13 -42.999 -17s-35.5 -6 -57.5 -6c-34 0 -65.833 4.66699 -95.5 14s-55.5 23.5 -77.5 42.5s-39.167 43 -51.5 72s-18.5 62.833 -18.5 101.5c0 38 7 72.5 21 103.5s34 57.833 60 80.5s57.667 40.167 95 52.5s79.333 18.5 126 18.5
c55.333 0 103.333 -8.83301 144 -26.5s74.334 -42.334 101.001 -74.001s46.5 -69.334 59.5 -113.001s19.5 -91.167 19.5 -142.5v-20c0 -116 -28 -205.5 -84 -268.5s-136.667 -94.5 -242 -94.5zM325.998 385.001c26 0 46.832 8.66699 62.499 26s23.5 38.666 23.5 63.999
c0 26.667 -7.66699 48.834 -23 66.501s-36.333 26.5 -63 26.5c-25.333 0 -45.666 -8.83301 -60.999 -26.5s-23 -39.834 -23 -66.501c0 -25.333 7.5 -46.666 22.5 -63.999s35.5 -26 61.5 -26z" />
    <glyph glyph-name="colon" unicode=":" horiz-adv-x="308" 
d="M152 -12c-32 0 -58.167 10.334 -78.5 31.001s-30.5 46.334 -30.5 77.001c0 30 10.167 55.333 30.5 76s46.5 31 78.5 31c16 0 31 -2.83301 45 -8.5s26 -13.334 36 -23.001s17.833 -21 23.5 -34s8.5 -26.833 8.5 -41.5c0 -30.667 -10.667 -56.334 -32 -77.001
s-48.333 -31 -81 -31zM152 272.001c-16 0 -30.667 2.83301 -44 8.5s-24.833 13.167 -34.5 22.5s-17.167 20.5 -22.5 33.5s-8 27.167 -8 42.5c0 14.667 2.66699 28.667 8 42s12.833 24.833 22.5 34.5s21.167 17.334 34.5 23.001s28 8.5 44 8.5s31 -2.83301 45 -8.5
s26 -13.334 36 -23.001s17.833 -21.167 23.5 -34.5s8.5 -27.333 8.5 -42c0 -15.333 -2.83301 -29.5 -8.5 -42.5s-13.5 -24.167 -23.5 -33.5s-22 -16.833 -36 -22.5s-29 -8.5 -45 -8.5z" />
    <glyph glyph-name="semicolon" unicode=";" horiz-adv-x="326" 
d="M8 -79l81 272l182 -63l-148 -252zM178 272c-16 0 -30.667 2.83301 -44 8.5s-24.833 13.167 -34.5 22.5s-17.334 20.5 -23.001 33.5s-8.5 27.167 -8.5 42.5c0 14.667 2.83301 28.667 8.5 42s13.334 24.833 23.001 34.5s21.167 17.334 34.5 23.001s28 8.5 44 8.5
s30.833 -2.83301 44.5 -8.5s25.5 -13.334 35.5 -23.001s17.833 -21.167 23.5 -34.5s8.5 -27.333 8.5 -42c0 -15.333 -2.83301 -29.5 -8.5 -42.5s-13.5 -24.167 -23.5 -33.5s-21.833 -16.833 -35.5 -22.5s-28.5 -8.5 -44.5 -8.5z" />
    <glyph glyph-name="less" unicode="&#x3c;" horiz-adv-x="514" 
d="M40 304v37l428 251v-178l-177 -90l177 -99v-172z" />
    <glyph glyph-name="equal" unicode="=" horiz-adv-x="570" 
d="M38 293h493v-131h-493v131zM38 492h493v-131h-493v131z" />
    <glyph glyph-name="greater" unicode="&#x3e;" horiz-adv-x="514" 
d="M46 231l177 91l-177 99v172l428 -252v-36l-428 -251v177z" />
    <glyph glyph-name="question" unicode="?" horiz-adv-x="569" 
d="M167 254c0 18.667 3.00195 36 9.00195 52s13.667 30.667 23 44s19.666 25.666 30.999 36.999l34 33c17.333 16 32.333 31.333 45 46s19 30.667 19 48c0 34.667 -17.667 52 -53 52c-18.667 0 -34 -7 -46 -21s-19.667 -33.667 -23 -59h-192c1.33301 39.333 9 74 23 104
s33.167 55 57.5 75s53.166 35.167 86.499 45.5s70 15.5 110 15.5c79.333 0 141 -16.5 185 -49.5s66 -80.833 66 -143.5c0 -32 -6.5 -59.667 -19.5 -83s-29.167 -44.666 -48.5 -63.999c-12.667 -12.667 -25.5 -24.667 -38.5 -36s-25.167 -22.5 -36.5 -33.5
s-21 -21.833 -29 -32.5s-13.333 -22 -16 -34v-9h-187v13zM261.002 -12c-16 0 -31.167 2.66699 -45.5 8s-26.666 12.833 -36.999 22.5s-18.5 20.834 -24.5 33.501s-9 26.334 -9 41.001s3 28.5 9 41.5s14.167 24.167 24.5 33.5s22.666 16.833 36.999 22.5s29.5 8.5 45.5 8.5
s30.833 -2.83301 44.5 -8.5s25.667 -13.167 36 -22.5s18.5 -20.5 24.5 -33.5s9 -26.833 9 -41.5s-3 -28.334 -9 -41.001s-14.167 -23.834 -24.5 -33.501s-22.333 -17.167 -36 -22.5s-28.5 -8 -44.5 -8z" />
    <glyph glyph-name="at" unicode="@" horiz-adv-x="922" 
d="M461 -160c-68 0 -128.833 10.4971 -182.5 31.4971s-99.167 50 -136.5 87s-66 80.5 -86 130.5s-30 103.667 -30 161c0 66.667 12.5 127.167 37.5 181.5s58.5 100.666 100.5 138.999s90.333 68 145 89s111.667 31.5 171 31.5s114.333 -8.5 165 -25.5
s94.667 -41.333 132 -73s66.5 -70 87.5 -115s31.5 -95.167 31.5 -150.5c0 -50 -6.33301 -92.5 -19 -127.5s-29.167 -63.667 -49.5 -86s-43.833 -38.5 -70.5 -48.5s-54 -15 -82 -15c-44 0 -78.5 6.66699 -103.5 20s-41.5 33.333 -49.5 60
c-12.667 -26 -29.667 -46.167 -51 -60.5s-48 -21.5 -80 -21.5c-50 0 -89.833 16.833 -119.5 50.5s-44.5 79.5 -44.5 137.5c0 36 5.16699 68.333 15.5 97s24.5 53.334 42.5 74.001s39 36.5 63 47.5s49.667 16.5 77 16.5c30.667 0 54.334 -5.5 71.001 -16.5
s28.667 -24.5 36 -40.5l7 49h159l-34 -276c-3.33301 -19.333 -1.5 -34.833 5.5 -46.5s19.167 -17.5 36.5 -17.5c14 0 27.5 3.83301 40.5 11.5s24.5 19.834 34.5 36.501s18 38 24 64s9 57.667 9 95c0 43.333 -7.83301 82.833 -23.5 118.5s-38 66.334 -67 92.001
s-64 45.5 -105 59.5s-86.5 21 -136.5 21c-51.333 0 -99.5 -8.66699 -144.5 -26s-84.167 -42.166 -117.5 -74.499s-59.666 -71.5 -78.999 -117.5s-29 -97.667 -29 -155c0 -48 7.33301 -92.667 22 -134s36.834 -77 66.501 -107s66.5 -53.667 110.5 -71s95 -26 153 -26
c29.333 0 57.166 2.5 83.499 7.5s50.666 11.5 72.999 19.5s42.333 17.5 60 28.5s32.5 22.5 44.5 34.5h94c-17.333 -24 -38.333 -45.833 -63 -65.5s-52.5 -36.5 -83.5 -50.5s-64.333 -24.833 -100 -32.5s-72.834 -11.5 -111.501 -11.5zM444 174.997
c20.667 0 37.832 10.167 51.499 30.5s20.5 46.5 20.5 78.5c0 19.333 -4.83301 34.666 -14.5 45.999s-24.167 17 -43.5 17c-20.667 0 -37.167 -9.66699 -49.5 -29s-18.5 -44 -18.5 -74c0 -19.333 4.33301 -35.666 13 -48.999s22.334 -20 41.001 -20z" />
    <glyph glyph-name="A" unicode="A" horiz-adv-x="760" 
d="M234 715h293l224 -715h-240l-33 119h-226l-32 -119h-211zM295 273h141l-70 259z" />
    <glyph glyph-name="B" unicode="B" horiz-adv-x="690" 
d="M65 715l338 0.00292969c44 0 81.5 -4.83301 112.5 -14.5s56.167 -22.834 75.5 -39.501s33.5 -36.334 42.5 -59.001s13.5 -47.334 13.5 -74.001v-4c0 -42 -10.667 -75.833 -32 -101.5s-52 -43.167 -92 -52.5c42 -7.33301 76.333 -24.5 103 -51.5s40 -65.5 40 -115.5v-4
c0 -63.333 -21.167 -112.333 -63.5 -147s-109.5 -52 -201.5 -52h-336v715zM358 149.003c29.333 0 50.833 6.5 64.5 19.5s20.5 31.5 20.5 55.5v4c0 23.333 -7 41.333 -21 54s-37 19 -69 19h-67v-152h72zM355 436.003c28 0 48 5 60 15s18 26 18 48v4
c0 21.333 -6.16699 37.333 -18.5 48s-32.5 16 -60.5 16h-68v-131h69z" />
    <glyph glyph-name="C" unicode="C" horiz-adv-x="764" 
d="M408 -13c-64.667 0 -120.836 8.83301 -168.503 26.5s-87.167 42.5 -118.5 74.5s-54.666 70.5 -69.999 115.5s-23 94.833 -23 149.5v8c0 55.333 9.33301 105.5 28 150.5s44.5 83.333 77.5 115s72.167 56.167 117.5 73.5s94.333 26 147 26c48 0 92 -5.66699 132 -17
s74.667 -28.5 104 -51.5s53 -52.167 71 -87.5s29 -77.333 33 -126h-234c-3.33301 33.333 -13.666 58.833 -30.999 76.5s-42 26.5 -74 26.5c-41.333 0 -73.666 -15.667 -96.999 -47s-35 -77.333 -35 -138v-8c0 -60 11.667 -105.833 35 -137.5s57 -47.5 101 -47.5
c32 0 58.667 8.5 80 25.5s34 43.5 38 79.5h226c-3.33301 -47.333 -13.833 -88.833 -31.5 -124.5s-41.5 -65.5 -71.5 -89.5s-65 -42.167 -105 -54.5s-83.667 -18.5 -131 -18.5z" />
    <glyph glyph-name="D" unicode="D" horiz-adv-x="751" 
d="M330 174c56 0 96.334 14.332 121.001 42.999s37 74.334 37 137.001v8c0 65.333 -12.833 111.5 -38.5 138.5s-65.834 40.5 -120.501 40.5h-37v-367h38zM65.001 714.999h273c128.667 0 225.167 -29.667 289.5 -89s96.5 -146 96.5 -260v-7
c0 -114.667 -32.667 -203.167 -98 -265.5s-161.333 -93.5 -288 -93.5h-273v715z" />
    <glyph glyph-name="E" unicode="E" horiz-adv-x="620" 
d="M65 715h508v-174h-282v-101h224v-159h-224v-107h298v-174h-524v715z" />
    <glyph glyph-name="F" unicode="F" horiz-adv-x="585" 
d="M65 715h495v-175h-268v-133h216v-167h-216v-240h-227v715z" />
    <glyph glyph-name="G" unicode="G" horiz-adv-x="791" 
d="M407 -13c-62 0 -116.663 9 -163.996 27s-87 43.167 -119 75.5s-56.167 70.833 -72.5 115.5s-24.5 94 -24.5 148v8c0 54.667 9.66699 104.5 29 149.5s46 83.5 80 115.5s74.167 56.667 120.5 74s96.5 26 150.5 26c43.333 0 84.833 -5.16699 124.5 -15.5s75 -26.333 106 -48
s56.167 -49.5 75.5 -83.5s30.666 -75 33.999 -123h-224c-4 30 -15.333 52.833 -34 68.5s-45.667 23.5 -81 23.5c-45.333 0 -80.833 -16.667 -106.5 -50s-38.5 -80.333 -38.5 -141v-8c0 -26 2.5 -50.667 7.5 -74s13.167 -43.5 24.5 -60.5s26.666 -30.5 45.999 -40.5
s43.666 -15 72.999 -15c22.667 0 41.834 2.5 57.501 7.5s28.667 11.833 39 20.5s18 18.334 23 29.001s8.16699 22 9.5 34h-122v149h343v-92c0 -44.667 -7.33301 -86.334 -22 -125.001s-36.834 -72.5 -66.501 -101.5s-66.834 -51.833 -111.501 -68.5s-97 -25 -157 -25z" />
    <glyph glyph-name="H" unicode="H" horiz-adv-x="794" 
d="M65 715h227v-264h210v264h227v-715h-227v275h-210v-275h-227v715z" />
    <glyph glyph-name="I" unicode="I" horiz-adv-x="366" 
d="M68 715h229v-715h-229v715z" />
    <glyph glyph-name="J" unicode="J" horiz-adv-x="489" 
d="M168 -9c-35.333 0 -63.001 2.33398 -83.001 7.00098s-37.667 10.667 -53 18v167c11.333 -3.33301 23.5 -6.33301 36.5 -9s29.167 -4 48.5 -4c26.667 0 48.334 6.66699 65.001 20s25 37.666 25 72.999v452h227v-453c0 -89.333 -21.833 -156.833 -65.5 -202.5
s-110.5 -68.5 -200.5 -68.5z" />
    <glyph glyph-name="K" unicode="K" horiz-adv-x="745" 
d="M65 715h227v-271l198 271h235l-251 -330l265 -385h-261l-186 286v-286h-227v715z" />
    <glyph glyph-name="L" unicode="L" horiz-adv-x="582" 
d="M65 715h227v-540h260v-175h-487v715z" />
    <glyph glyph-name="M" unicode="M" horiz-adv-x="958" 
d="M65 715h294l121 -347l123 347h288v-715h-225v422l-163 -422h-76l-160 422v-422h-202v715z" />
    <glyph glyph-name="N" unicode="N" horiz-adv-x="787" 
d="M65 715h254l203 -378v378h199v-715h-217l-239 428v-428h-200v715z" />
    <glyph glyph-name="O" unicode="O" horiz-adv-x="820" 
d="M411 165c44.667 0 80.168 16.499 106.501 49.499s39.5 79.5 39.5 139.5v8c0 60.667 -13.333 107 -40 139s-62.667 48 -108 48c-44 0 -79.167 -15.833 -105.5 -47.5s-39.5 -78.167 -39.5 -139.5v-8c0 -61.333 13.167 -108.166 39.5 -140.499s62.166 -48.5 107.499 -48.5z
M405.001 -13.001c-58.667 0 -111.33 8.83301 -157.997 26.5s-86.334 42.667 -119.001 75s-57.667 71 -75 116s-26 94.5 -26 148.5v8c0 55.333 9.83301 105.5 29.5 150.5s46.667 83.333 81 115s74.833 56.167 121.5 73.5s96.667 26 150 26
c54.667 0 105.5 -8.16699 152.5 -24.5s87.667 -39.833 122 -70.5s61.166 -68.167 80.499 -112.5s29 -94.833 29 -151.5v-8c0 -56 -9.16699 -106.833 -27.5 -152.5s-44.5 -84.667 -78.5 -117s-74.833 -57.5 -122.5 -75.5s-100.834 -27 -159.501 -27z" />
    <glyph glyph-name="P" unicode="P" horiz-adv-x="664" 
d="M65 715h284.999c102.667 0 177.334 -21.667 224.001 -65s70 -103.333 70 -180v-4c0 -74.667 -24 -132.167 -72 -172.5s-118.667 -60.5 -212 -60.5h-69v-233h-226v715zM337.999 385c60.667 0 91 26.667 91 80v4c0 28 -7.5 47.833 -22.5 59.5s-37.5 17.5 -67.5 17.5h-48
v-161h47z" />
    <glyph glyph-name="Q" unicode="Q" horiz-adv-x="820" 
d="M487 -6c-13.333 -2 -26.8311 -3.66602 -40.498 -4.99902s-27.5 -2 -41.5 -2c-58.667 0 -111.334 8.83301 -158.001 26.5s-86.334 42.667 -119.001 75s-57.667 71 -75 116s-26 94.5 -26 148.5v8c0 55.333 9.83301 105.333 29.5 150s46.667 82.834 81 114.501
s74.833 56.167 121.5 73.5s96.667 26 150 26c54.667 0 105.5 -8 152.5 -24s87.833 -39.333 122.5 -70s61.667 -68.167 81 -112.5s29 -94.833 29 -151.5v-8c0 -62.667 -11.5 -118.834 -34.5 -168.501s-55.5 -90.834 -97.5 -123.501l67 -67l-124 -126zM263.002 354.001
c0 -49.333 8 -89.334 24 -120.001s38 -51.667 66 -63l110 98l55 -57c26 34 39 81.667 39 143v8c0 60.667 -13.333 106.834 -40 138.501s-62.667 47.5 -108 47.5c-44.667 0 -80.167 -15.667 -106.5 -47s-39.5 -78 -39.5 -140v-8z" />
    <glyph glyph-name="R" unicode="R" horiz-adv-x="710" 
d="M65 715h292c99.333 0 174 -19.5 224 -58.5s75 -96.833 75 -173.5v-4c0 -49.333 -11.333 -88.833 -34 -118.5s-51.667 -52.5 -87 -68.5l163 -292h-238l-133 245h-36v-245h-226v715zM344 391c62 0 93 26 93 78v4c0 26 -7.66699 44.5 -23 55.5s-38.333 16.5 -69 16.5h-54
v-154h53z" />
    <glyph glyph-name="S" unicode="S" horiz-adv-x="653" 
d="M334 -13c-101.333 0 -178.501 20.1689 -231.501 60.502s-80.833 100.833 -83.5 181.5h215c0.666992 -11.333 2.83398 -22 6.50098 -32s9.33398 -18.667 17.001 -26s17.667 -13.166 30 -17.499s27.833 -6.5 46.5 -6.5c26.667 0 46.5 5.5 59.5 16.5s19.5 25.167 19.5 42.5
c0 18.667 -7.33301 32.167 -22 40.5s-41.334 15.166 -80.001 20.499c-51.333 6 -94.666 14.333 -129.999 25s-63.833 25.167 -85.5 43.5s-37.167 40.666 -46.5 66.999s-14 57.833 -14 94.5c0 32.667 6.5 63 19.5 91s31.833 52.167 56.5 72.5s54.667 36.166 90 47.499
s75.333 17 120 17c89.333 0 158.166 -18.333 206.499 -55s75.5 -94.334 81.5 -173.001h-210c-2.66699 22 -10.334 39 -23.001 51s-31 18 -55 18c-23.333 0 -41 -4.83301 -53 -14.5s-18 -22.167 -18 -37.5c0 -8.66699 1.5 -16.167 4.5 -22.5s8.33301 -11.833 16 -16.5
s17.834 -8.66699 30.501 -12s29 -6.33301 49 -9c44.667 -4.66699 84.5 -11.5 119.5 -20.5s64.333 -22 88 -39s41.667 -38.667 54 -65s18.5 -59.5 18.5 -99.5c0 -33.333 -6.5 -64.666 -19.5 -93.999s-32 -55 -57 -77s-55.833 -39.5 -92.5 -52.5s-79 -19.5 -127 -19.5z" />
    <glyph glyph-name="T" unicode="T" horiz-adv-x="629" 
d="M200 541h-180v174h589v-174h-181v-541h-228v541z" />
    <glyph glyph-name="U" unicode="U" horiz-adv-x="776" 
d="M388 -13c-105.333 0 -186.166 25.667 -242.499 77s-84.5 128.333 -84.5 231v420h226v-411c0 -23.333 1.5 -43.666 4.5 -60.999s8.16699 -31.833 15.5 -43.5s17.666 -20.334 30.999 -26.001s30 -8.5 50 -8.5c40 0 66.667 11.5 80 34.5s20 58.167 20 105.5v410h228v-418
c0 -54 -7.66699 -100.5 -23 -139.5s-37.333 -71.167 -66 -96.5s-63.167 -44 -103.5 -56s-85.5 -18 -135.5 -18z" />
    <glyph glyph-name="V" unicode="V" horiz-adv-x="741" 
d="M9 715h245l133 -479l133 479h212l-231 -715h-256z" />
    <glyph glyph-name="W" unicode="W" horiz-adv-x="1009" 
d="M10 715h229l82 -427l86 427h197l97 -432l87 432h210l-166 -715h-229l-100 427l-101 -427h-226z" />
    <glyph glyph-name="X" unicode="X" horiz-adv-x="772" 
d="M236 368l-202 347h259l100 -201l98 201h232l-187 -339l219 -376h-258l-123 235l-123 -235h-233z" />
    <glyph glyph-name="Y" unicode="Y" horiz-adv-x="692" 
d="M237 305l-232 410h246l109 -224l110 224h217l-222 -409v-306h-228v305z" />
    <glyph glyph-name="Z" unicode="Z" horiz-adv-x="627" 
d="M10 24l286 521h-246v170h563v-24l-283 -520h266v-171h-586v24z" />
    <glyph glyph-name="bracketleft" unicode="[" horiz-adv-x="419" 
d="M61 776h321v-142h-122v-640h122v-142h-321v924z" />
    <glyph glyph-name="backslash" unicode="\" horiz-adv-x="440" 
d="M-7 776h154l323 -924h-155z" />
    <glyph glyph-name="bracketright" unicode="]" horiz-adv-x="419" 
d="M38 -6h120v640h-120v142h319v-924h-319v142z" />
    <glyph glyph-name="asciicircum" unicode="^" horiz-adv-x="535" 
d="M183 715h169l164 -324h-166l-84 165l-85 -165h-162z" />
    <glyph glyph-name="underscore" unicode="_" horiz-adv-x="441" 
d="M-1 -72h443v-89h-443v89z" />
    <glyph glyph-name="grave" unicode="`" horiz-adv-x="400" 
d="M32 747h193l52 -169h-141z" />
    <glyph glyph-name="a" unicode="a" horiz-adv-x="585" 
d="M198 -13c-23.333 0 -45.833 3.00195 -67.5 9.00195s-40.667 15.333 -57 28s-29.333 29 -39 49s-14.5 44 -14.5 72c0 61.333 24.167 105.166 72.5 131.499s117.833 39.5 208.5 39.5h45v9c0 10.667 -0.666992 20.667 -2 30s-4.16602 17.5 -8.49902 24.5
s-10.5 12.333 -18.5 16s-18.667 5.5 -32 5.5c-22.667 0 -38.334 -6 -47.001 -18s-13.667 -24.667 -15 -38h-184c2 32 9.5 60 22.5 84s30.667 44.167 53 60.5s49 28.5 80 36.5s65.167 12 102.5 12c76 0 135.667 -16.167 179 -48.5s65 -82.833 65 -151.5v-338h-190v60
c-5.33301 -9.33301 -12.333 -18.333 -21 -27s-19.334 -16.334 -32.001 -23.001s-27.167 -12.167 -43.5 -16.5s-35.166 -6.5 -56.499 -6.5zM269 119.002c22.667 0 41.166 5.83301 55.499 17.5s21.5 27.167 21.5 46.5v27h-42c-33.333 0 -56.666 -3.66699 -69.999 -11
s-20 -20.333 -20 -39c0 -12.667 4.66699 -22.667 14 -30s23 -11 41 -11z" />
    <glyph glyph-name="b" unicode="b" horiz-adv-x="646" 
d="M403 -13c-38.667 0 -71.5 8.49805 -98.5 25.498s-47.167 39.5 -60.5 67.5v-80h-197v750h197v-303c14.667 24.667 35 45.834 61 63.501s59 26.5 99 26.5c30 0 58.167 -5.66699 84.5 -17s49.5 -28.166 69.5 -50.499s35.833 -50.5 47.5 -84.5s17.5 -74 17.5 -120v-8
c0 -46 -5.83301 -85.833 -17.5 -119.5s-27.5 -61.667 -47.5 -84s-43.333 -39 -70 -50s-55 -16.5 -85 -16.5zM331 136.998c30 0 52.833 10.333 68.5 31s23.5 51 23.5 91v8c0 42 -8 73.167 -24 93.5s-39 30.5 -69 30.5c-29.333 0 -51.833 -10.667 -67.5 -32
s-23.5 -52 -23.5 -92v-8c0 -81.333 30.667 -122 92 -122z" />
    <glyph glyph-name="c" unicode="c" horiz-adv-x="586" 
d="M300 -13c-39.333 0 -75.833 5.5 -109.5 16.5s-63 27.667 -88 50s-44.667 50.166 -59 83.499s-21.5 72.333 -21.5 117v8c0 44.667 7.33301 84 22 118s34.834 62.667 60.501 86s55.667 41 90 53s71.166 18 110.499 18c32.667 0 64.167 -3.83301 94.5 -11.5
s57.5 -20 81.5 -37s43.667 -39.667 59 -68s24.333 -62.833 27 -103.5h-185c-3.33301 21.333 -10.166 38.166 -20.499 50.499s-27.5 18.5 -51.5 18.5c-58.667 0 -88 -40 -88 -120v-8c0 -42.667 7.16699 -74.667 21.5 -96s37.5 -32 69.5 -32c22.667 0 41 6.83301 55 20.5
s22.333 33.167 25 58.5h177c-1.33301 -34 -7.83301 -64.667 -19.5 -92s-28.834 -50.666 -51.501 -69.999s-50.5 -34.166 -83.5 -44.499s-71.5 -15.5 -115.5 -15.5z" />
    <glyph glyph-name="d" unicode="d" horiz-adv-x="645" 
d="M241 -13c-29.333 0 -57.167 5.33398 -83.5 16.001s-49.5 27.167 -69.5 49.5s-35.833 50.333 -47.5 84s-17.5 73.5 -17.5 119.5v8c0 45.333 5.83301 85.166 17.5 119.499s27.334 62.833 47.001 85.5s42.667 39.667 69 51s54.5 17 84.5 17
c41.333 0 74.666 -7.66699 99.999 -23s45.333 -36.333 60 -63v299h197v-750h-197v84c-13.333 -27.333 -33.333 -50.333 -60 -69s-60 -28 -100 -28zM313.999 137.001c30 0 52.833 10.332 68.5 30.999s23.5 51.334 23.5 92.001v8c0 40 -7.66699 70.5 -23 91.5
s-38 31.5 -68 31.5c-61.333 0 -92 -41.333 -92 -124v-8c0 -40.667 7.83301 -71.167 23.5 -91.5s38.167 -30.5 67.5 -30.5z" />
    <glyph glyph-name="e" unicode="e" horiz-adv-x="604" 
d="M311 -13c-42 0 -80.668 5.83105 -116.001 17.498s-65.833 28.834 -91.5 51.501s-45.834 50.667 -60.501 84s-22 71.666 -22 114.999v8c0 42.667 7.66699 81 23 115s36 62.833 62 86.5s56.667 41.834 92 54.501s73 19 113 19c36.667 0 71.5 -5.33301 104.5 -16
s61.833 -27.167 86.5 -49.5s44.334 -50.666 59.001 -84.999s22 -74.833 22 -121.5v-48h-363c2.66699 -32 12.667 -56.167 30 -72.5s40 -24.5 68 -24.5s47.833 5.5 59.5 16.5s19.167 24.167 22.5 39.5h184c-8 -60.667 -34.667 -107.5 -80 -140.5
s-109.666 -49.5 -192.999 -49.5zM392.999 320.998c-1.33301 28 -8.66699 50 -22 66s-33.333 24 -60 24c-24 0 -44 -7.5 -60 -22.5s-26 -37.5 -30 -67.5h172z" />
    <glyph glyph-name="f" unicode="f" horiz-adv-x="393" 
d="M75 391l-63.999 0.00195312v132h64v39c0 34 5.16699 63.333 15.5 88s25 45 44 61s41.667 27.833 68 35.5s55.5 11.5 87.5 11.5c17.333 0 32.666 -1 45.999 -3s26.333 -4.66699 39 -8v-141c-6 1.33301 -12.833 2.66602 -20.5 3.99902s-16.5 2 -26.5 2
c-19.333 0 -33.5 -4.83301 -42.5 -14.5s-13.5 -21.834 -13.5 -36.501v-38h102v-132h-102v-391h-197v391z" />
    <glyph glyph-name="g" unicode="g" horiz-adv-x="644" 
d="M299 -194c-90.667 0 -158.329 17.5 -202.996 52.5s-70.334 83.5 -77.001 145.5h195c2 -8 4.66699 -15.667 8 -23s8.16602 -14 14.499 -20s14.666 -10.667 24.999 -14s23.166 -5 38.499 -5c37.333 0 63.333 9.66699 78 29s22 43 22 71v81
c-13.333 -25.333 -33.333 -47 -60 -65s-59.667 -27 -99 -27c-30 0 -58.167 5.33301 -84.5 16s-49.5 26.5 -69.5 47.5s-35.833 46.833 -47.5 77.5s-17.5 66.334 -17.5 107.001v8c0 39.333 5.83301 74.5 17.5 105.5s27.334 57.333 47.001 79s42.667 38.167 69 49.5
s54.5 17 84.5 17c41.333 0 74.666 -7.83301 99.999 -23.5s45.333 -36.834 60 -63.501v72h197v-478c0 -78.667 -25.167 -138.167 -75.5 -178.5s-124.5 -60.5 -222.5 -60.5zM314.005 171c29.333 0 52 9.66797 68 29.001s24 45.666 24 78.999v7c0 32 -7.83301 57.667 -23.5 77
s-38.5 29 -68.5 29s-52.833 -9.5 -68.5 -28.5s-23.5 -45.167 -23.5 -78.5v-8c0 -32 7.83301 -57.667 23.5 -77s38.5 -29 68.5 -29z" />
    <glyph glyph-name="h" unicode="h" horiz-adv-x="629" 
d="M47 750h196.998v-311c14.667 28 36.167 51.333 64.5 70s64.5 28 108.5 28c24.667 0 47.334 -4 68.001 -12s38.334 -20 53.001 -36s26.167 -36 34.5 -60s12.5 -52.333 12.5 -85v-344h-197v300c0 26.667 -5.16699 46.667 -15.5 60s-27.166 20 -50.499 20
c-24.667 0 -43.834 -7.33301 -57.501 -22s-20.5 -37.667 -20.5 -69v-289h-197v750z" />
    <glyph glyph-name="i" unicode="i" horiz-adv-x="303" 
d="M53 523h196v-523h-196v523zM151 562c-30.667 0 -56.167 9.33301 -76.5 28s-30.5 42.334 -30.5 71.001c0 29.333 10.167 53.333 30.5 72s45.833 28 76.5 28c30 0 55.167 -9.33301 75.5 -28s30.5 -42.667 30.5 -72c0 -28.667 -10.167 -52.334 -30.5 -71.001
s-45.5 -28 -75.5 -28z" />
    <glyph glyph-name="j" unicode="j" horiz-adv-x="303" 
d="M-9 -42c21.333 1.33301 36.832 6.33301 46.499 15s14.5 23 14.5 43v507h197v-512c0 -29.333 -4 -55.833 -12 -79.5s-21.667 -44 -41 -61s-45.666 -30.167 -78.999 -39.5s-75.333 -14 -126 -14v141zM150.999 562c-30.667 0 -56.167 9.33301 -76.5 28
s-30.5 42.334 -30.5 71.001c0 29.333 10.167 53.333 30.5 72s45.833 28 76.5 28c30 0 55.167 -9.33301 75.5 -28s30.5 -42.667 30.5 -72c0 -28.667 -10.167 -52.334 -30.5 -71.001s-45.5 -28 -75.5 -28z" />
    <glyph glyph-name="k" unicode="k" horiz-adv-x="589" 
d="M47 750h197v-425l127 198h202l-161 -234l174 -289h-218l-124 218v-218h-197v750z" />
    <glyph glyph-name="l" unicode="l" horiz-adv-x="300" 
d="M52 750h196v-750h-196v750z" />
    <glyph glyph-name="m" unicode="m" horiz-adv-x="935" 
d="M47 523h197v-80c14.667 25.333 35.667 47.333 63 66s61.333 28 102 28c68.667 0 115.334 -28 140.001 -84c23.333 30 49.666 51.5 78.999 64.5s60.333 19.5 93 19.5c50 0 90.833 -16 122.5 -48s47.5 -80 47.5 -144v-345h-196v309c0 23.333 -5.33301 40.833 -16 52.5
s-25 17.5 -43 17.5c-22 0 -39 -6.83301 -51 -20.5s-18 -33.167 -18 -58.5v-300h-195v309c0 23.333 -5.33301 40.833 -16 52.5s-24.667 17.5 -42 17.5c-22.667 0 -40 -6.83301 -52 -20.5s-18 -33.167 -18 -58.5v-300h-197v523z" />
    <glyph glyph-name="n" unicode="n" horiz-adv-x="629" 
d="M47 523h196.998v-84c14.667 28 36.167 51.333 64.5 70s64.5 28 108.5 28c24.667 0 47.334 -4 68.001 -12s38.334 -20 53.001 -36s26.167 -36 34.5 -60s12.5 -52.333 12.5 -85v-344h-197v300c0 26.667 -5.16699 46.667 -15.5 60s-27.166 20 -50.499 20
c-24.667 0 -43.834 -7.33301 -57.501 -22s-20.5 -37.667 -20.5 -69v-289h-197v523z" />
    <glyph glyph-name="o" unicode="o" horiz-adv-x="626" 
d="M314 132c60 0 90.001 42.333 90.001 127v7c0 41.333 -7.33301 72.666 -22 93.999s-37.334 32 -68.001 32c-30 0 -53 -10.167 -69 -30.5s-24 -51.166 -24 -92.499v-8c0 -86 31 -129 93 -129zM313.001 -13c-40.667 0 -78.6689 5.8291 -114.002 17.4961
s-66.166 29 -92.499 52s-47 51 -62 84s-22.5 71.167 -22.5 114.5v8c0 42.667 7.5 80.834 22.5 114.501s35.5 62.334 61.5 86.001s56.833 41.834 92.5 54.501s74.167 19 115.5 19c40.667 0 78.667 -6.16699 114 -18.5s66 -30 92 -53s46.5 -51.167 61.5 -84.5
s22.5 -71 22.5 -113v-8c0 -43.333 -7.5 -81.833 -22.5 -115.5s-35.667 -62.167 -62 -85.5s-57.166 -41.166 -92.499 -53.499s-73.333 -18.5 -114 -18.5z" />
    <glyph glyph-name="p" unicode="p" horiz-adv-x="646" 
d="M47 523l197 -0.00195312v-76c14.667 24.667 35 45.834 61 63.501s59 26.5 99 26.5c30 0 58.167 -5.66699 84.5 -17s49.5 -28.166 69.5 -50.499s35.833 -50.5 47.5 -84.5s17.5 -74 17.5 -120v-8c0 -46 -5.83301 -85.833 -17.5 -119.5s-27.5 -61.667 -47.5 -84
s-43.333 -39 -70 -50s-55 -16.5 -85 -16.5c-38.667 0 -71.5 8.33301 -98.5 25s-47.167 37.667 -60.5 63v-249h-197v697zM331 136.998c30 0 52.833 10.333 68.5 31s23.5 51 23.5 91v8c0 42 -8 73.167 -24 93.5s-39 30.5 -69 30.5c-29.333 0 -51.833 -10.667 -67.5 -32
s-23.5 -52 -23.5 -92v-8c0 -81.333 30.667 -122 92 -122z" />
    <glyph glyph-name="q" unicode="q" horiz-adv-x="645" 
d="M401 79c-13.333 -24.667 -33.334 -46.166 -60.001 -64.499s-60 -27.5 -100 -27.5c-29.333 0 -57.166 5.33301 -83.499 16s-49.5 27.167 -69.5 49.5s-35.833 50.333 -47.5 84s-17.5 73.5 -17.5 119.5v8c0 45.333 5.83301 85.166 17.5 119.499s27.334 62.833 47.001 85.5
s42.667 39.667 69 51s54.5 17 84.5 17c41.333 0 74.666 -7.66699 99.999 -23s45.333 -36.333 60 -63v72h197v-697h-197v253zM313.999 137.001c30 0 52.833 10.332 68.5 30.999s23.5 51.334 23.5 92.001v8c0 40 -7.66699 70.5 -23 91.5s-38 31.5 -68 31.5
c-61.333 0 -92 -41.333 -92 -124v-8c0 -40.667 7.83301 -71.167 23.5 -91.5s38.167 -30.5 67.5 -30.5z" />
    <glyph glyph-name="r" unicode="r" horiz-adv-x="438" 
d="M47 523h197.001v-106c16.667 40.667 39 69.834 67 87.501s61.667 26.167 101 25.5v-184c-54.667 3.33301 -96.334 -3.83398 -125.001 -21.501s-43 -45.5 -43 -83.5v-241h-197v523z" />
    <glyph glyph-name="s" unicode="s" horiz-adv-x="523" 
d="M261 -13c-76.667 0 -136.499 15.333 -179.499 46s-65.167 75.667 -66.5 135h180c3.33301 -17.333 9.33301 -30.666 18 -39.999s24.334 -14 47.001 -14c19.333 0 33.333 3.33301 42 10s13 15.667 13 27s-6.5 20.333 -19.5 27s-37.167 12.334 -72.5 17.001
c-35.333 4 -65.833 9.66699 -91.5 17s-46.667 17.333 -63 30s-28.5 28.667 -36.5 48s-12 43 -12 71c0 30 6.16699 56.167 18.5 78.5s29 40.666 50 54.999s45.667 25.166 74 32.499s58.5 11 90.5 11c34 0 65 -3 93 -9s52.333 -15.833 73 -29.5s37.167 -31.5 49.5 -53.5
s20.166 -49 23.499 -81h-177c-3.33301 15.333 -9.5 27.333 -18.5 36s-22.5 13 -40.5 13s-31.167 -3.5 -39.5 -10.5s-12.5 -15.5 -12.5 -25.5c0 -12 6.33301 -20.833 19 -26.5s33.667 -10.167 63 -13.5c38 -4.66699 70.833 -10.667 98.5 -18s50.5 -17.333 68.5 -30
s31.5 -28.667 40.5 -48s13.5 -43 13.5 -71c0 -32 -5.83301 -59.667 -17.5 -83s-28.334 -42.5 -50.001 -57.5s-47.667 -26 -78 -33s-63.833 -10.5 -100.5 -10.5z" />
    <glyph glyph-name="t" unicode="t" horiz-adv-x="396" 
d="M265 -12c-62 0 -109.666 14.666 -142.999 43.999s-50 77 -50 143v216h-61v132h61v107h197v-107h100v-132h-100v-197c0 -18 4.5 -31 13.5 -39s21.5 -12 37.5 -12c17.333 0 33.666 2.66699 48.999 8v-148c-12 -3.33301 -27 -6.66602 -45 -9.99902s-37.667 -5 -59 -5z" />
    <glyph glyph-name="u" unicode="u" horiz-adv-x="628" 
d="M218 -13c-25.333 0 -48.668 4 -70.001 12s-39.666 20 -54.999 36s-27.5 36 -36.5 60s-13.5 52.333 -13.5 85v343h197v-309c0 -26.667 5.16699 -46.667 15.5 -60s27.166 -20 50.499 -20c24.667 0 43.834 7.33301 57.501 22s20.5 37.667 20.5 69v298h197v-523h-197v81
c-14.667 -28 -35 -50.667 -61 -68s-61 -26 -105 -26z" />
    <glyph glyph-name="v" unicode="v" horiz-adv-x="604" 
d="M5 523h210l99 -318l100 318h185l-191 -523h-211z" />
    <glyph glyph-name="w" unicode="w" horiz-adv-x="854" 
d="M5 523h205l68 -293l80 293h158l70 -293l79 293h184l-166 -523h-185l-73 273l-72 -273h-191z" />
    <glyph glyph-name="x" unicode="x" horiz-adv-x="613" 
d="M180 265l-161 258h226l71 -128l71 128h201l-163 -243l180 -280h-226l-84 146l-88 -146h-199z" />
    <glyph glyph-name="y" unicode="y" 
d="M214 52l-209 471h213l99 -261l92 261h186l-279 -697h-187z" />
    <glyph glyph-name="z" unicode="z" horiz-adv-x="513" 
d="M8 19l214 357h-191v147h471v-20l-224 -357h210v-146h-480v19z" />
    <glyph glyph-name="braceleft" unicode="{" horiz-adv-x="425" 
d="M388 -148c-106 0 -182.331 18.832 -228.998 56.499s-63.334 97.5 -50.001 179.5l13 81c4 22.667 -1.33301 41.334 -16 56.001s-40.334 22 -77.001 22v137c36.667 0 62.334 7.16699 77.001 21.5s20 32.833 16 55.5l-13 80c-14 84.667 2.66699 145.167 50 181.5
s123.666 54.5 228.999 54.5v-143c-36.667 -2 -61 -9 -73 -21s-16 -33.667 -12 -65l12 -99c4 -33.333 -3 -61.5 -21 -84.5s-45.667 -38.833 -83 -47.5c38 -8 65.833 -23.667 83.5 -47s24.5 -52 20.5 -86l-12 -98c-4 -32 0 -54.667 12 -68s36.333 -21 73 -23v-143v0z" />
    <glyph glyph-name="bar" unicode="|" horiz-adv-x="270" 
d="M67 776h136v-924h-136v924z" />
    <glyph glyph-name="braceright" unicode="}" horiz-adv-x="425" 
d="M37 -5c36.667 2 61.002 9.66797 73.002 23.001s16 36 12 68l-12 98c-4 34 2.83301 62.667 20.5 86s45.5 39 83.5 47c-37.333 8.66699 -65 24.5 -83 47.5s-25 51.167 -21 84.5l12 99c4 31.333 0 53 -12 65s-36.333 19 -73 21v143c105.333 0 181.666 -18.167 228.999 -54.5
s64 -96.833 50 -181.5l-13 -80c-4 -22.667 1.16699 -41.167 15.5 -55.5s40.166 -21.5 77.499 -21.5v-137c-37.333 0 -63.166 -7.33301 -77.499 -22s-19.5 -33.334 -15.5 -56.001l13 -81c13.333 -82 -3.33398 -141.833 -50.001 -179.5s-123 -56.5 -229 -56.5v143z" />
    <glyph glyph-name="asciitilde" unicode="~" horiz-adv-x="532" 
d="M25 213c2 38 7.66602 70.333 16.999 97s21 48.5 35 65.5s29.833 29.333 47.5 37s36.167 11.5 55.5 11.5c18 0 34.667 -2.33301 50 -7s29.333 -9.66699 42 -15l35 -15c10.667 -4.66699 20.334 -7 29.001 -7c13.333 0 23.5 4 30.5 12s11.833 19 14.5 33h125
c-1.33301 -35.333 -6.33301 -66.166 -15 -92.499s-20.167 -48.333 -34.5 -66s-30.5 -30.834 -48.5 -39.501s-36.667 -13 -56 -13c-18.667 0 -35.667 2.16699 -51 6.5s-29.166 9.33301 -41.499 15s-23.833 10.667 -34.5 15s-20.334 6.5 -29.001 6.5c-14 0 -24.5 -4 -31.5 -12
s-11.5 -18.667 -13.5 -32h-126v0z" />
    <glyph glyph-name="uni00A0" unicode="&#xa0;" horiz-adv-x="253" 
 />
    <glyph glyph-name="exclamdown" unicode="&#xa1;" horiz-adv-x="343" 
d="M171.011 609.999c15.999 0 30.8311 -2.66602 44.4971 -7.99902s25.665 -12.833 35.998 -22.499s18.499 -20.832 24.498 -33.498c6 -12.666 9 -26.332 9 -40.9971c0 -14.666 -3 -28.499 -9 -41.498c-5.99902 -12.999 -14.165 -24.165 -24.498 -33.498
s-22.332 -16.832 -35.998 -22.498c-13.666 -5.66699 -28.498 -8.5 -44.4971 -8.5s-30.832 2.83301 -44.498 8.5c-13.665 5.66602 -25.8311 13.165 -36.4971 22.498s-18.999 20.499 -24.999 33.498c-5.99902 12.999 -8.99902 26.832 -8.99902 41.498
c0 14.665 3 28.3311 8.99902 40.9971c6 12.666 14.333 23.832 24.999 33.498s22.832 17.166 36.4971 22.499c13.666 5.33301 28.499 7.99902 44.498 7.99902zM281.004 -116.956h-220.986l28.998 473.971h163.99z" />
    <glyph glyph-name="cent" unicode="&#xa2;" 
d="M279 -11c-37.333 2.66699 -71.667 10.333 -103 23s-58.5 30 -81.5 52s-41 49 -54 81s-19.5 68.667 -19.5 110v8c0 40 6.66699 76 20 108s31.5 59.5 54.5 82.5s50.167 41.5 81.5 55.5s65.333 23 102 27v93h75v-93c30.667 -2.66699 59.334 -9 86.001 -19
s50.167 -24 70.5 -42s36.833 -40.167 49.5 -66.5s20 -56.833 22 -91.5h-177c-5.33301 38.667 -22.333 63 -51 73v-266c17.333 5.33301 31.333 14.833 42 28.5s17 32.5 19 56.5h170c-2 -62.667 -22.833 -113.5 -62.5 -152.5s-95.834 -61.5 -168.501 -67.5v-124h-75v124z
M214.999 256.999c0 -37.333 5.33301 -66.668 16 -88.001s26.667 -35.666 48 -42.999v264c-20 -7.33301 -35.667 -21 -47 -41s-17 -48 -17 -84v-8z" />
    <glyph glyph-name="sterling" unicode="&#xa3;" horiz-adv-x="668" 
d="M32 409l47.9932 0.000976562c-7.33301 26 -11 53.667 -11 83c0 38 7.33301 71.5 22 100.5s34.667 53.333 60 73s55.5 34.5 90.5 44.5s72.5 15 112.5 15c48.667 0 90.667 -6 126 -18s64.5 -29 87.5 -51s40.167 -48.333 51.5 -79s18 -64.667 20 -102h-206
c-3.33301 28.667 -10.666 49.334 -21.999 62.001s-27.666 19 -48.999 19s-38.166 -6.83301 -50.499 -20.5s-18.5 -32.5 -18.5 -56.5c0 -11.333 0.5 -22.833 1.5 -34.5s2.16699 -23.5 3.5 -35.5h170v-124h-153c0.666992 -7.33301 1.16699 -15 1.5 -23s0.5 -15.667 0.5 -23
c0 -10.667 -0.666992 -20.334 -2 -29.001s-3.33301 -17.334 -6 -26.001l42.5 -12.5c13 -3.66699 25.167 -5.5 36.5 -5.5c36 0 55.333 18 58 54h204c-1.33301 -32.667 -6.83301 -63 -16.5 -91s-23.667 -52.167 -42 -72.5s-40.666 -36.333 -66.999 -48
s-56.833 -17.5 -91.5 -17.5c-26 0 -49.167 2.66699 -69.5 8s-38.833 11 -55.5 17s-31.667 11.667 -45 17s-26 8 -38 8c-14 0 -24.667 -3.83301 -32 -11.5s-11.666 -17.5 -12.999 -29.5h-166c2.66699 40 12.334 76.5 29.001 109.5s41.334 57.833 74.001 74.5
c2 7.33301 3.66699 15.5 5 24.5s2 19.167 2 30.5c0 8 -0.5 15.833 -1.5 23.5s-2.16699 15.167 -3.5 22.5h-87v124z" />
    <glyph glyph-name="yen" unicode="&#xa5;" horiz-adv-x="659" 
d="M61 370h134l-187 345h245l91 -216l91 216h216l-178 -345h136v-73h-160v-47h160v-74h-160v-176h-228v176h-160v74h160v47h-160v73z" />
    <glyph glyph-name="brokenbar" unicode="&#xa6;" horiz-adv-x="272" 
d="M67 302h136v-450h-136v450zM67 776h136v-403h-136v403z" />
    <glyph glyph-name="section" unicode="&#xa7;" horiz-adv-x="618" 
d="M297 -137c-72.667 0 -128.172 16.668 -166.505 50.001s-58.833 79 -61.5 137h177c1.33301 -17.333 6.33301 -31.166 15 -41.499s22.334 -15.5 41.001 -15.5c33.333 0 50 12.667 50 38c0 14 -7.5 24.5 -22.5 31.5s-41.167 14.833 -78.5 23.5
c-35.333 8.66699 -67.333 18.167 -96 28.5s-53.167 23.166 -73.5 38.499s-36 33.666 -47 54.999s-16.5 47.333 -16.5 78c0 34.667 9.83301 63.167 29.5 85.5s45.5 39.833 77.5 52.5c-14 15.333 -24.333 32.5 -31 51.5s-10 39.5 -10 61.5
c0 29.333 5.83301 55.666 17.5 78.999s28 43 49 59s46 28.333 75 37s61.167 13 96.5 13c72 0 127 -16.667 165 -50s58.333 -79.333 61 -138h-176c-2 18 -7.16699 31.667 -15.5 41s-21.833 14 -40.5 14c-16.667 0 -29 -3.33301 -37 -10s-12 -15.667 -12 -27
c0 -7.33301 1.5 -13.666 4.5 -18.999s8.16699 -10 15.5 -14s17.5 -7.83301 30.5 -11.5s29.167 -7.83398 48.5 -12.501c34.667 -8 66.334 -16.833 95.001 -26.5s53.334 -22 74.001 -37s36.834 -33.333 48.501 -55s17.5 -48.167 17.5 -79.5c0 -34 -9.83301 -62.333 -29.5 -85
s-45.5 -40.667 -77.5 -54c27.333 -29.333 41 -66.666 41 -111.999c0 -28 -5.66699 -53.5 -17 -76.5s-27.5 -42.667 -48.5 -59s-46.167 -28.833 -75.5 -37.5s-61.666 -13 -96.999 -13zM375.995 231.001c13.333 2.66699 22.666 7.16699 27.999 13.5s8 14.833 8 25.5
c0 7.33301 -1.83301 13.5 -5.5 18.5s-9.16699 9.5 -16.5 13.5s-17.166 8.16699 -29.499 12.5s-26.833 9.16602 -43.5 14.499l-73 24c-24 -4 -36 -17 -36 -39c0 -13.333 7.66699 -23.666 23 -30.999s39.333 -16.333 72 -27z" />
    <glyph glyph-name="dieresis" unicode="&#xa8;" horiz-adv-x="400" 
d="M91 570c-12.667 0 -24.5 2.33301 -35.5 7s-20.667 11 -29 19s-14.833 17.5 -19.5 28.5s-7 22.5 -7 34.5s2.33301 23.5 7 34.5s11.167 20.5 19.5 28.5s18 14.333 29 19s22.833 7 35.5 7s24.667 -2.33301 36 -7s21.166 -11 29.499 -19s14.833 -17.5 19.5 -28.5
s7 -22.5 7 -34.5s-2.33301 -23.5 -7 -34.5s-11.167 -20.5 -19.5 -28.5s-18.166 -14.333 -29.499 -19s-23.333 -7 -36 -7zM308 570c-12.667 0 -24.5 2.33301 -35.5 7s-20.5 11 -28.5 19s-14.333 17.5 -19 28.5s-7 22.5 -7 34.5s2.33301 23.5 7 34.5s11 20.5 19 28.5
s17.5 14.333 28.5 19s22.833 7 35.5 7c26 0 47.833 -8.66699 65.5 -26s26.5 -38.333 26.5 -63s-8.83301 -45.667 -26.5 -63s-39.5 -26 -65.5 -26z" />
    <glyph glyph-name="copyright" unicode="&#xa9;" horiz-adv-x="842" 
d="M429 150c-73.333 0 -127.501 18.6709 -162.501 56.0039s-52.5 86.666 -52.5 147.999v8c0 30.667 5.33301 58.667 16 84s25.334 46.666 44.001 63.999s40.834 30.833 66.501 40.5s53.5 14.5 83.5 14.5c54.667 0 99.167 -12.667 133.5 -38s53.833 -66 58.5 -122h-137
c-2 17.333 -7.5 30.666 -16.5 39.999s-21.833 14 -38.5 14c-21.333 0 -38.333 -8 -51 -24s-19 -40.333 -19 -73v-7c0 -66 24 -99 72 -99c17.333 0 31.666 4.66699 42.999 14s18 23.666 20 42.999h132c-1.33301 -26.667 -7 -50.167 -17 -70.5s-23.5 -37.333 -40.5 -51
s-37 -24 -60 -31s-47.833 -10.5 -74.5 -10.5zM419.999 31.0039c44.667 0 86.5 7.83203 125.5 23.499s73.167 38 102.5 67s52.5 63.5 69.5 103.5s25.5 84.667 25.5 134c0 48 -8.33301 92 -25 132s-39.334 74.333 -68.001 103s-62.667 50.834 -102 66.501
s-81.333 23.5 -126 23.5c-45.333 0 -87.666 -8 -126.999 -24s-73.5 -38.333 -102.5 -67s-51.833 -63 -68.5 -103s-25 -84.333 -25 -133c0 -49.333 8.5 -94 25.5 -134s40.167 -74.167 69.5 -102.5s63.333 -50.333 102 -66s80 -23.5 124 -23.5zM419.999 -20.9971
c-53.333 0 -103.501 9.66699 -150.501 29s-88 45.833 -123 79.5s-62.5 73.5 -82.5 119.5s-30 96 -30 150c0 52.667 10 102.167 30 148.5s47.5 86.5 82.5 120.5s76.167 60.833 123.5 80.5s98 29.5 152 29.5c54.667 0 105.667 -9.66699 153 -29s88.333 -46 123 -80
s61.834 -74 81.501 -120s29.5 -95.333 29.5 -148c0 -54 -10.167 -104.167 -30.5 -150.5s-48 -86.5 -83 -120.5s-76.167 -60.667 -123.5 -80s-98 -29 -152 -29z" />
    <glyph glyph-name="ordfeminine" unicode="&#xaa;" horiz-adv-x="495" 
d="M168 287c-18.667 0 -36.501 2.33301 -53.501 7s-32 12 -45 22s-23.333 23 -31 39s-11.5 35 -11.5 57c0 49.333 18 83.833 54 103.5s91.333 29.5 166 29.5h37v13c0 14 -2.5 25.5 -7.5 34.5s-15.833 13.5 -32.5 13.5c-15.333 0 -26 -4.33301 -32 -13
s-9.66699 -17.667 -11 -27h-160c3.33301 50.667 23.5 89.5 60.5 116.5s87.5 40.5 151.5 40.5c64.667 0 114.334 -13.167 149.001 -39.5s52 -66.5 52 -120.5v-265h-166v47c-7.33301 -13.333 -20.5 -26.333 -39.5 -39s-45.833 -19 -80.5 -19zM232.999 401
c15.333 0 27.666 3.83203 36.999 11.499s14 17.834 14 30.501v18h-31c-21.333 0 -36.166 -2.5 -44.499 -7.5s-12.5 -13.167 -12.5 -24.5c0 -18.667 12.333 -28 37 -28z" />
    <glyph glyph-name="guillemotleft" unicode="&#xab;" horiz-adv-x="477" 
d="M25 261l124 194h121l-119 -194l119 -194h-121zM206 261l124 194h121l-119 -194l119 -194h-121z" />
    <glyph glyph-name="uni00AD" unicode="&#xad;" horiz-adv-x="390" 
d="M49 360h292v-146h-292v146z" />
    <glyph glyph-name="registered" unicode="&#xae;" horiz-adv-x="517" 
d="M172 615h91c62 0 93 -24 93 -72v-1c0 -15.333 -3.16699 -27.5 -9.5 -36.5s-14.833 -16.167 -25.5 -21.5l48 -88h-76l-38 73h-10v-73h-73v219zM259 516c17.333 0 26 7.33301 26 22v1c0 13.333 -8.66699 20 -26 20h-14v-43h14zM259 320c26 0 50.333 4.5 73 13.5
s42.334 21.5 59.001 37.5s29.667 35.167 39 57.5s14 47.166 14 74.499c0 26.667 -4.5 51.334 -13.5 74.001s-21.833 42 -38.5 58s-36.334 28.5 -59.001 37.5s-47.334 13.5 -74.001 13.5c-27.333 0 -52.333 -4.5 -75 -13.5s-42.334 -21.667 -59.001 -38
s-29.5 -35.833 -38.5 -58.5s-13.5 -47.334 -13.5 -74.001c0 -27.333 4.83301 -52.166 14.5 -74.499s22.834 -41.5 39.501 -57.5s36.334 -28.333 59.001 -37s47 -13 73 -13zM259 280c-32 0 -62.001 5.66699 -90.001 17s-52.5 27 -73.5 47s-37.5 43.5 -49.5 70.5
s-18 56.167 -18 87.5c0 30.667 6 59.667 18 87s28.333 51.166 49 71.499s45.167 36.333 73.5 48s58.5 17.5 90.5 17.5c32.667 0 63 -5.83301 91 -17.5s52.333 -27.5 73 -47.5s36.834 -43.667 48.501 -71s17.5 -56.333 17.5 -87c0 -31.333 -6 -60.666 -18 -87.999
s-28.333 -51 -49 -71s-45 -35.667 -73 -47s-58 -17 -90 -17z" />
    <glyph glyph-name="macron" unicode="&#xaf;" horiz-adv-x="400" 
d="M42 712h316v-107h-316v107z" />
    <glyph glyph-name="degree" unicode="&#xb0;" horiz-adv-x="457" 
d="M230 448c26.667 0 48.334 9.66699 65.001 29s25 43.333 25 72c0 30 -8.33301 54.667 -25 74s-38.334 29 -65.001 29c-28 0 -50.5 -9.66699 -67.5 -29s-25.5 -44 -25.5 -74c0 -28.667 8.5 -52.667 25.5 -72s39.5 -29 67.5 -29zM230 376
c-25.333 0 -48.833 4.66699 -70.5 14s-40.667 21.833 -57 37.5s-29.166 34 -38.499 55s-14 43.167 -14 66.5c0 24 4.66699 46.667 14 68s22.166 39.833 38.499 55.5s35.333 28.167 57 37.5s45.167 14 70.5 14c24 0 46.833 -4.66699 68.5 -14s40.5 -21.833 56.5 -37.5
s28.667 -34.167 38 -55.5s14 -44 14 -68c0 -23.333 -4.66699 -45.5 -14 -66.5s-22 -39.333 -38 -55s-34.833 -28.167 -56.5 -37.5s-44.5 -14 -68.5 -14z" />
    <glyph glyph-name="plusminus" unicode="&#xb1;" horiz-adv-x="579" 
d="M211 343h-173v142h173v162h157v-162h174v-142h-174v-161h-157v161zM38 126h507v-126h-507v126z" />
    <glyph glyph-name="twosuperior" unicode="&#xb2;" horiz-adv-x="366" 
d="M4 351l129.002 132.001c21.333 22 38.333 41 51 57s19 31.333 19 46c0 9.33301 -2.16699 16.666 -6.5 21.999s-11.5 8 -21.5 8c-20 0 -32 -17 -36 -51h-131c1.33301 52 17.666 91 48.999 117s73.333 39 126 39c55.333 0 96 -12 122 -36s39 -53.333 39 -88
c0 -26.667 -7.33301 -50.5 -22 -71.5s-33.334 -42.167 -56.001 -63.5l-28 -26h108v-103h-342v18z" />
    <glyph glyph-name="threesuperior" unicode="&#xb3;" horiz-adv-x="385" 
d="M193 326c-31.333 0 -57.9971 3.5 -79.9971 10.5s-40 16.5 -54 28.5s-24.333 26.333 -31 43s-10.334 35 -11.001 55h127c1.33301 -10.667 5 -19.667 11 -27s15.667 -11 29 -11c22.667 0 34 10.333 34 31c0 19.333 -13.667 29 -41 29h-31v79h31c28.667 0 43 10.333 43 31
c0 18 -10.333 27 -31 27c-21.333 0 -34 -11.667 -38 -35h-126c3.33301 38.667 18.666 70.667 45.999 96s68 38 122 38c51.333 0 91.166 -9.33301 119.499 -28s42.5 -45 42.5 -79c0 -21.333 -6 -39 -18 -53s-29 -23.667 -51 -29c22.667 -3.33301 41.167 -12.333 55.5 -27
s21.5 -33 21.5 -55c0 -36.667 -13.833 -66.5 -41.5 -89.5s-70.5 -34.5 -128.5 -34.5z" />
    <glyph glyph-name="acute" unicode="&#xb4;" horiz-adv-x="400" 
d="M175 747h193l-104 -169h-141z" />
    <glyph glyph-name="paragraph" unicode="&#xb6;" horiz-adv-x="544" 
d="M253 326h-7.00098c-67.333 0 -121 15.833 -161 47.5s-60 79.5 -60 143.5c0 33.333 5.33301 62.5 16 87.5s25.834 45.667 45.501 62s43 28.5 70 36.5s56.833 12 89.5 12h232v-815h-76v750h-74v-750h-75v426z" />
    <glyph glyph-name="periodcentered" unicode="&#xb7;" horiz-adv-x="302" 
d="M150 219c-16 0 -30.667 2.83301 -44 8.5s-24.833 13.167 -34.5 22.5s-17.334 20.5 -23.001 33.5s-8.5 27.167 -8.5 42.5c0 14.667 2.83301 28.667 8.5 42s13.334 24.833 23.001 34.5s21.167 17.334 34.5 23.001s28 8.5 44 8.5s30.833 -2.83301 44.5 -8.5
s25.5 -13.334 35.5 -23.001s17.833 -21.167 23.5 -34.5s8.5 -27.333 8.5 -42c0 -15.333 -2.83301 -29.5 -8.5 -42.5s-13.5 -24.167 -23.5 -33.5s-21.833 -16.833 -35.5 -22.5s-28.5 -8.5 -44.5 -8.5z" />
    <glyph glyph-name="cedilla" unicode="&#xb8;" horiz-adv-x="400" 
d="M203 -228c-38 0 -68.1641 8.00098 -90.4971 24.001s-36.166 39.333 -41.499 70h90c1.33301 -6.66699 4.66602 -12.667 9.99902 -18s13.666 -8 24.999 -8c9.33301 0 16.666 2.66699 21.999 8s8 12.333 8 21s-2.66699 15.834 -8 21.501s-13.666 8.5 -24.999 8.5
c-14.667 0 -25.334 -4 -32.001 -12l-40 41l48 72h76l-31 -44c14.667 1.33301 29 0.666016 43 -2.00098s26.167 -7.5 36.5 -14.5s18.666 -16.333 24.999 -28s9.5 -25.834 9.5 -42.501c0 -30.667 -11.333 -54.5 -34 -71.5s-53 -25.5 -91 -25.5z" />
    <glyph glyph-name="onesuperior" unicode="&#xb9;" horiz-adv-x="297" 
d="M102 576l-83 -45v116l104 68h124v-382h-145v243z" />
    <glyph glyph-name="ordmasculine" unicode="&#xba;" horiz-adv-x="527" 
d="M264 413c21.333 0 36.666 7.5 45.999 22.5s14 37.5 14 67.5v6c0 29.333 -4.66699 51.5 -14 66.5s-24.666 22.5 -45.999 22.5c-40.667 0 -61 -29 -61 -87v-6c0 -61.333 20.333 -92 61 -92zM263 287c-32.667 0 -63.334 4.5 -92.001 13.5s-53.5 22.333 -74.5 40
s-37.667 39.667 -50 66s-18.5 56.833 -18.5 91.5v6c0 34.667 6.16699 65.5 18.5 92.5s29 49.833 50 68.5s45.833 33 74.5 43s59.667 15 93 15c32.667 0 63.334 -4.83301 92.001 -14.5s53.667 -23.5 75 -41.5s38 -40.167 50 -66.5s18 -56.5 18 -90.5v-6
c0 -34.667 -6.16699 -65.5 -18.5 -92.5s-29.166 -49.667 -50.499 -68s-46.333 -32.333 -75 -42s-59.334 -14.5 -92.001 -14.5z" />
    <glyph glyph-name="guillemotright" unicode="&#xbb;" horiz-adv-x="477" 
d="M145 261l-119 194h121l124 -194l-124 -194h-121zM325 261l-119 194h121l124 -194l-124 -194h-121z" />
    <glyph glyph-name="onequarter" unicode="&#xbc;" horiz-adv-x="817" 
d="M104 576l-83 -45v116l104 68h124v-382h-145v243zM638 715h99l-569 -715h-100zM606 70h-190v54l157 258h172v-218h48v-94h-48v-70h-139v70zM610 164v124l-72 -124h72z" />
    <glyph glyph-name="onehalf" unicode="&#xbd;" horiz-adv-x="831" 
d="M105 576l-83 -45v116l104 68h124v-382h-145v243zM624 715h99l-569 -715h-100zM464 18l129.002 132.001c21.333 22 38.333 41 51 57s19 31.333 19 46c0 9.33301 -2.16699 16.666 -6.5 21.999s-11.5 8 -21.5 8c-20 0 -32 -17 -36 -51h-131c1.33301 52 17.666 91 48.999 117
s73.333 39 126 39c55.333 0 96 -12 122 -36s39 -53.333 39 -88c0 -26.667 -7.33301 -50.5 -22 -71.5s-33.334 -42.167 -56.001 -63.5l-28 -26h108v-103h-342v18z" />
    <glyph glyph-name="threequarters" unicode="&#xbe;" horiz-adv-x="852" 
d="M196 326c-31.333 0 -57.9971 3.5 -79.9971 10.5s-40 16.5 -54 28.5s-24.333 26.333 -31 43s-10.334 35 -11.001 55h127c1.33301 -10.667 5 -19.667 11 -27s15.667 -11 29 -11c22.667 0 34 10.333 34 31c0 19.333 -13.667 29 -41 29h-31v79h31c28.667 0 43 10.333 43 31
c0 18 -10.333 27 -31 27c-21.333 0 -34 -11.667 -38 -35h-126c3.33301 38.667 18.666 70.667 45.999 96s68 38 122 38c51.333 0 91.166 -9.33301 119.499 -28s42.5 -45 42.5 -79c0 -21.333 -6 -39 -18 -53s-29 -23.667 -51 -29c22.667 -3.33301 41.167 -12.333 55.5 -27
s21.5 -33 21.5 -55c0 -36.667 -13.833 -66.5 -41.5 -89.5s-70.5 -34.5 -128.5 -34.5zM688.003 715h99l-569 -715h-100zM640.003 70h-190v54l157 258h172v-218h48v-94h-48v-70h-139v70zM644.003 164v124l-72 -124h72z" />
    <glyph glyph-name="questiondown" unicode="&#xbf;" horiz-adv-x="569" 
d="M402.01 345.016c0 -18.665 -3 -35.9951 -8.99902 -51.9941s-13.665 -30.665 -22.998 -43.998s-19.666 -25.666 -30.999 -36.999l-33.998 -32.998c-17.332 -15.999 -32.3311 -31.3311 -44.9971 -45.9971s-18.999 -30.665 -18.999 -47.9971
c0 -34.665 17.666 -51.9971 52.9971 -51.9971c18.665 0 33.9971 7 45.9961 20.999s19.665 33.6641 22.998 58.9951h191.988c-1.33301 -39.3311 -8.99902 -73.9951 -22.998 -103.993s-33.1641 -54.9961 -57.4961 -74.9951s-53.1641 -35.165 -86.4951 -45.498
s-69.9951 -15.499 -109.992 -15.499c-79.3281 0 -140.991 16.499 -184.988 49.4971s-65.9961 80.8281 -65.9961 143.491c0 31.998 6.5 59.6631 19.499 82.9951s29.165 44.6641 48.498 63.9961c12.665 12.666 25.4971 24.665 38.4961 35.998s25.165 22.499 36.498 33.498
s20.999 21.832 28.998 32.498s13.332 21.999 15.999 33.998v8.99902h186.988v-12.999zM308.016 611.001c15.999 0 31.165 -2.66602 45.4971 -7.99902c14.333 -5.33301 26.666 -12.833 36.999 -22.499s18.499 -20.832 24.499 -33.498
c5.99902 -12.666 8.99902 -26.332 8.99902 -40.9971c0 -14.666 -3 -28.499 -8.99902 -41.498c-6 -12.999 -14.166 -24.165 -24.499 -33.498s-22.666 -16.832 -36.999 -22.498c-14.332 -5.66699 -29.498 -8.5 -45.4971 -8.5s-30.8311 2.83301 -44.4971 8.5
c-13.666 5.66602 -25.665 13.165 -35.998 22.498s-18.499 20.499 -24.498 33.498c-6 12.999 -9 26.832 -9 41.498c0 14.665 3 28.3311 9 40.9971c5.99902 12.666 14.165 23.832 24.498 33.498s22.332 17.166 35.998 22.499s28.498 7.99902 44.4971 7.99902z" />
    <glyph glyph-name="Agrave" unicode="&#xc0;" horiz-adv-x="760" 
d="M234 715h293l224 -715h-240l-33 119h-226l-32 -119h-211zM295 273h141l-70 259zM212 906h202l47 -149h-149z" />
    <glyph glyph-name="Aacute" unicode="&#xc1;" horiz-adv-x="760" 
d="M234 715h293l224 -715h-240l-33 119h-226l-32 -119h-211zM295 273h141l-70 259zM346 906h201l-103 -149h-149z" />
    <glyph glyph-name="Acircumflex" unicode="&#xc2;" horiz-adv-x="760" 
d="M234 715h293l224 -715h-240l-33 119h-226l-32 -119h-211zM295 273h141l-70 259zM298 906h164l110 -149h-142l-54 47l-54 -47h-139z" />
    <glyph glyph-name="Atilde" unicode="&#xc3;" horiz-adv-x="760" 
d="M234 715h293l224 -715h-240l-33 119h-226l-32 -119h-211zM295 273h141l-70 259zM444 755c-14.667 0 -27.667 1.66699 -39 5s-21.833 7 -31.5 11l-26.5 11c-8 3.33301 -16 5 -24 5s-14.667 -2.66699 -20 -8s-8.66602 -12.666 -9.99902 -21.999h-109c2 28 6.66699 52 14 72
s16.666 36.5 27.999 49.5s24.166 22.667 38.499 29s29.5 9.5 45.5 9.5c14 0 26.667 -1.66699 38 -5s22 -7 32 -11l28 -11c8.66699 -3.33301 17.334 -5 26.001 -5s15.334 2.66699 20.001 8s7.66699 12.666 9 21.999h110c-2 -28 -7 -52 -15 -72s-17.833 -36.5 -29.5 -49.5
s-24.834 -22.667 -39.501 -29s-29.667 -9.5 -45 -9.5z" />
    <glyph glyph-name="Adieresis" unicode="&#xc4;" horiz-adv-x="760" 
d="M234 715h293l224 -715h-240l-33 119h-226l-32 -119h-211zM295 273h141l-70 259zM264 752c-12.667 0 -24.5 2.33301 -35.5 7s-20.667 11 -29 19s-14.833 17.5 -19.5 28.5s-7 22.5 -7 34.5c0 12.667 2.33301 24.334 7 35.001s11.167 20 19.5 28s18 14.333 29 19
s22.833 7 35.5 7s24.667 -2.33301 36 -7s21.166 -11 29.499 -19s14.833 -17.333 19.5 -28s7 -22.334 7 -35.001c0 -12 -2.33301 -23.5 -7 -34.5s-11.167 -20.5 -19.5 -28.5s-18.166 -14.333 -29.499 -19s-23.333 -7 -36 -7zM491 752c-12.667 0 -24.5 2.33301 -35.5 7
s-20.667 11 -29 19s-14.833 17.5 -19.5 28.5s-7 22.5 -7 34.5c0 12.667 2.33301 24.334 7 35.001s11.167 20 19.5 28s18 14.333 29 19s22.833 7 35.5 7s24.667 -2.33301 36 -7s21.166 -11 29.499 -19s14.833 -17.333 19.5 -28s7 -22.334 7 -35.001
c0 -12 -2.33301 -23.5 -7 -34.5s-11.167 -20.5 -19.5 -28.5s-18.166 -14.333 -29.499 -19s-23.333 -7 -36 -7z" />
    <glyph glyph-name="Aring" unicode="&#xc5;" horiz-adv-x="760" 
d="M234 715h293l224 -715h-240l-33 119h-226l-32 -119h-211zM295 273h141l-70 259zM378 810c13.333 0 24.166 4.66699 32.499 14s12.5 21.333 12.5 36c0 15.333 -4.16699 27.5 -12.5 36.5s-19.166 13.5 -32.499 13.5s-24.166 -4.5 -32.499 -13.5s-12.5 -21.167 -12.5 -36.5
c0 -14.667 4.16699 -26.667 12.5 -36s19.166 -14 32.499 -14zM378 742c-16.667 0 -32.5 3.16699 -47.5 9.5s-28 14.833 -39 25.5s-19.667 23.167 -26 37.5s-9.5 29.5 -9.5 45.5s3.16699 31.167 9.5 45.5s15 26.833 26 37.5s24 19.167 39 25.5s30.833 9.5 47.5 9.5
s32.5 -3.16699 47.5 -9.5s28 -14.833 39 -25.5s19.667 -23.167 26 -37.5s9.5 -29.5 9.5 -45.5s-3.16699 -31.167 -9.5 -45.5s-15 -26.833 -26 -37.5s-24 -19.167 -39 -25.5s-30.833 -9.5 -47.5 -9.5z" />
    <glyph glyph-name="AE" unicode="&#xc6;" horiz-adv-x="1012" 
d="M320 715h645v-174h-275v-101h217v-159h-217v-107h291v-174h-516v135h-187l-56 -135h-215zM340 285h125v256h-18z" />
    <glyph glyph-name="Ccedilla" unicode="&#xc7;" horiz-adv-x="764" 
d="M379 -228c-38 0 -68.1641 8.00195 -90.4971 24.002s-36.166 39.333 -41.499 70h90c1.33301 -6.66699 4.66602 -12.667 9.99902 -18s13.666 -8 24.999 -8c9.33301 0 16.666 2.66699 21.999 8s8 12.333 8 21s-2.66699 15.834 -8 21.501s-13.666 8.5 -24.999 8.5
c-14.667 0 -25.334 -4 -32.001 -12l-40 41l42 63c-52.667 6 -98.5 18.833 -137.5 38.5s-71.333 45.167 -97 76.5s-44.834 67.833 -57.501 109.5s-19 87.5 -19 137.5v8c0 55.333 9.33301 105.5 28 150.5s44.5 83.333 77.5 115s72.167 56.167 117.5 73.5s94.333 26 147 26
c48 0 92 -5.66699 132 -17s74.667 -28.5 104 -51.5s53 -52.167 71 -87.5s29 -77.333 33 -126h-234c-3.33301 33.333 -13.666 58.833 -30.999 76.5s-42 26.5 -74 26.5c-41.333 0 -73.666 -15.667 -96.999 -47s-35 -77.333 -35 -138v-8c0 -60 11.667 -105.833 35 -137.5
s57 -47.5 101 -47.5c32 0 58.667 8.5 80 25.5s34 43.5 38 79.5h226c-3.33301 -46.667 -13.833 -87.834 -31.5 -123.501s-41.167 -65.5 -70.5 -89.5s-63.833 -42.167 -103.5 -54.5s-82.834 -18.833 -129.501 -19.5l-22 -31c14.667 1.33301 29 0.666016 43 -2.00098
s26.167 -7.5 36.5 -14.5s18.666 -16.333 24.999 -28s9.5 -25.834 9.5 -42.501c0 -30.667 -11.333 -54.5 -34 -71.5s-53 -25.5 -91 -25.5z" />
    <glyph glyph-name="Egrave" unicode="&#xc8;" horiz-adv-x="620" 
d="M65 715h508v-174h-282v-101h224v-159h-224v-107h298v-174h-524v715zM161 906h202l47 -149h-149z" />
    <glyph glyph-name="Eacute" unicode="&#xc9;" horiz-adv-x="620" 
d="M65 715h508v-174h-282v-101h224v-159h-224v-107h298v-174h-524v715zM295 906h201l-103 -149h-149z" />
    <glyph glyph-name="Ecircumflex" unicode="&#xca;" horiz-adv-x="620" 
d="M65 715h508v-174h-282v-101h224v-159h-224v-107h298v-174h-524v715zM247 906h164l110 -149h-142l-54 47l-54 -47h-139z" />
    <glyph glyph-name="Edieresis" unicode="&#xcb;" horiz-adv-x="620" 
d="M65 715h508v-174h-282v-101h224v-159h-224v-107h298v-174h-524v715zM213 752c-12.667 0 -24.5 2.33301 -35.5 7s-20.667 11 -29 19s-14.833 17.5 -19.5 28.5s-7 22.5 -7 34.5c0 12.667 2.33301 24.334 7 35.001s11.167 20 19.5 28s18 14.333 29 19s22.833 7 35.5 7
s24.667 -2.33301 36 -7s21.166 -11 29.499 -19s14.833 -17.333 19.5 -28s7 -22.334 7 -35.001c0 -12 -2.33301 -23.5 -7 -34.5s-11.167 -20.5 -19.5 -28.5s-18.166 -14.333 -29.499 -19s-23.333 -7 -36 -7zM440 752c-12.667 0 -24.5 2.33301 -35.5 7s-20.667 11 -29 19
s-14.833 17.5 -19.5 28.5s-7 22.5 -7 34.5c0 12.667 2.33301 24.334 7 35.001s11.167 20 19.5 28s18 14.333 29 19s22.833 7 35.5 7s24.667 -2.33301 36 -7s21.166 -11 29.499 -19s14.833 -17.333 19.5 -28s7 -22.334 7 -35.001c0 -12 -2.33301 -23.5 -7 -34.5
s-11.167 -20.5 -19.5 -28.5s-18.166 -14.333 -29.499 -19s-23.333 -7 -36 -7z" />
    <glyph glyph-name="Igrave" unicode="&#xcc;" horiz-adv-x="366" 
d="M68 715h229v-715h-229v715zM17 906h202l47 -149h-149z" />
    <glyph glyph-name="Iacute" unicode="&#xcd;" horiz-adv-x="366" 
d="M68 715h229v-715h-229v715zM151 906h201l-103 -149h-149z" />
    <glyph glyph-name="Icircumflex" unicode="&#xce;" horiz-adv-x="366" 
d="M68 715h229v-715h-229v715zM103 906h164l110 -149h-142l-54 47l-54 -47h-139z" />
    <glyph glyph-name="Idieresis" unicode="&#xcf;" horiz-adv-x="366" 
d="M68 715h229v-715h-229v715zM69 752c-12.667 0 -24.5 2.33301 -35.5 7s-20.667 11 -29 19s-14.833 17.5 -19.5 28.5s-7 22.5 -7 34.5c0 12.667 2.33301 24.334 7 35.001s11.167 20 19.5 28s18 14.333 29 19s22.833 7 35.5 7s24.667 -2.33301 36 -7s21.166 -11 29.499 -19
s14.833 -17.333 19.5 -28s7 -22.334 7 -35.001c0 -12 -2.33301 -23.5 -7 -34.5s-11.167 -20.5 -19.5 -28.5s-18.166 -14.333 -29.499 -19s-23.333 -7 -36 -7zM296 752c-12.667 0 -24.5 2.33301 -35.5 7s-20.667 11 -29 19s-14.833 17.5 -19.5 28.5s-7 22.5 -7 34.5
c0 12.667 2.33301 24.334 7 35.001s11.167 20 19.5 28s18 14.333 29 19s22.833 7 35.5 7s24.667 -2.33301 36 -7s21.166 -11 29.499 -19s14.833 -17.333 19.5 -28s7 -22.334 7 -35.001c0 -12 -2.33301 -23.5 -7 -34.5s-11.167 -20.5 -19.5 -28.5
s-18.166 -14.333 -29.499 -19s-23.333 -7 -36 -7z" />
    <glyph glyph-name="Eth" unicode="&#xd0;" horiz-adv-x="785" 
d="M29 435h53.998v280h273c128.667 0 225.334 -29.667 290.001 -89s97 -146 97 -260v-7c0 -114.667 -32.667 -203.167 -98 -265.5s-161.666 -93.5 -288.999 -93.5h-273v284h-54v151zM348.998 174c56 0 96.168 14.332 120.501 42.999s36.5 74.334 36.5 137.001v8
c0 65.333 -12.833 111.5 -38.5 138.5s-65.834 40.5 -120.501 40.5h-41v-106h104v-151h-104v-110h43z" />
    <glyph glyph-name="Ntilde" unicode="&#xd1;" horiz-adv-x="787" 
d="M65 715h254l203 -378v378h199v-715h-217l-239 428v-428h-200v715zM479 755c-14.667 0 -27.667 1.66699 -39 5s-21.833 7 -31.5 11l-26.5 11c-8 3.33301 -16 5 -24 5s-14.667 -2.66699 -20 -8s-8.66602 -12.666 -9.99902 -21.999h-109c2 28 6.66699 52 14 72
s16.666 36.5 27.999 49.5s24.166 22.667 38.499 29s29.5 9.5 45.5 9.5c14 0 26.667 -1.66699 38 -5s22 -7 32 -11l28 -11c8.66699 -3.33301 17.334 -5 26.001 -5s15.334 2.66699 20.001 8s7.66699 12.666 9 21.999h110c-2 -28 -7 -52 -15 -72s-17.833 -36.5 -29.5 -49.5
s-24.834 -22.667 -39.501 -29s-29.667 -9.5 -45 -9.5z" />
    <glyph glyph-name="Ograve" unicode="&#xd2;" horiz-adv-x="820" 
d="M411 165c44.667 0 80.168 16.499 106.501 49.499s39.5 79.5 39.5 139.5v8c0 60.667 -13.333 107 -40 139s-62.667 48 -108 48c-44 0 -79.167 -15.833 -105.5 -47.5s-39.5 -78.167 -39.5 -139.5v-8c0 -61.333 13.167 -108.166 39.5 -140.499s62.166 -48.5 107.499 -48.5z
M405.001 -13.001c-58.667 0 -111.33 8.83301 -157.997 26.5s-86.334 42.667 -119.001 75s-57.667 71 -75 116s-26 94.5 -26 148.5v8c0 55.333 9.83301 105.5 29.5 150.5s46.667 83.333 81 115s74.833 56.167 121.5 73.5s96.667 26 150 26
c54.667 0 105.5 -8.16699 152.5 -24.5s87.667 -39.833 122 -70.5s61.166 -68.167 80.499 -112.5s29 -94.833 29 -151.5v-8c0 -56 -9.16699 -106.833 -27.5 -152.5s-44.5 -84.667 -78.5 -117s-74.833 -57.5 -122.5 -75.5s-100.834 -27 -159.501 -27zM243.005 905.999h202
l47 -149h-149z" />
    <glyph glyph-name="Oacute" unicode="&#xd3;" horiz-adv-x="820" 
d="M411 165c44.667 0 80.168 16.499 106.501 49.499s39.5 79.5 39.5 139.5v8c0 60.667 -13.333 107 -40 139s-62.667 48 -108 48c-44 0 -79.167 -15.833 -105.5 -47.5s-39.5 -78.167 -39.5 -139.5v-8c0 -61.333 13.167 -108.166 39.5 -140.499s62.166 -48.5 107.499 -48.5z
M405.001 -13.001c-58.667 0 -111.33 8.83301 -157.997 26.5s-86.334 42.667 -119.001 75s-57.667 71 -75 116s-26 94.5 -26 148.5v8c0 55.333 9.83301 105.5 29.5 150.5s46.667 83.333 81 115s74.833 56.167 121.5 73.5s96.667 26 150 26
c54.667 0 105.5 -8.16699 152.5 -24.5s87.667 -39.833 122 -70.5s61.166 -68.167 80.499 -112.5s29 -94.833 29 -151.5v-8c0 -56 -9.16699 -106.833 -27.5 -152.5s-44.5 -84.667 -78.5 -117s-74.833 -57.5 -122.5 -75.5s-100.834 -27 -159.501 -27zM377.005 905.999h201
l-103 -149h-149z" />
    <glyph glyph-name="Ocircumflex" unicode="&#xd4;" horiz-adv-x="820" 
d="M411 165c44.667 0 80.168 16.499 106.501 49.499s39.5 79.5 39.5 139.5v8c0 60.667 -13.333 107 -40 139s-62.667 48 -108 48c-44 0 -79.167 -15.833 -105.5 -47.5s-39.5 -78.167 -39.5 -139.5v-8c0 -61.333 13.167 -108.166 39.5 -140.499s62.166 -48.5 107.499 -48.5z
M405.001 -13.001c-58.667 0 -111.33 8.83301 -157.997 26.5s-86.334 42.667 -119.001 75s-57.667 71 -75 116s-26 94.5 -26 148.5v8c0 55.333 9.83301 105.5 29.5 150.5s46.667 83.333 81 115s74.833 56.167 121.5 73.5s96.667 26 150 26
c54.667 0 105.5 -8.16699 152.5 -24.5s87.667 -39.833 122 -70.5s61.166 -68.167 80.499 -112.5s29 -94.833 29 -151.5v-8c0 -56 -9.16699 -106.833 -27.5 -152.5s-44.5 -84.667 -78.5 -117s-74.833 -57.5 -122.5 -75.5s-100.834 -27 -159.501 -27zM329.005 905.999h164
l110 -149h-142l-54 47l-54 -47h-139z" />
    <glyph glyph-name="Otilde" unicode="&#xd5;" horiz-adv-x="820" 
d="M411 165c44.667 0 80.168 16.499 106.501 49.499s39.5 79.5 39.5 139.5v8c0 60.667 -13.333 107 -40 139s-62.667 48 -108 48c-44 0 -79.167 -15.833 -105.5 -47.5s-39.5 -78.167 -39.5 -139.5v-8c0 -61.333 13.167 -108.166 39.5 -140.499s62.166 -48.5 107.499 -48.5z
M405.001 -13.001c-58.667 0 -111.33 8.83301 -157.997 26.5s-86.334 42.667 -119.001 75s-57.667 71 -75 116s-26 94.5 -26 148.5v8c0 55.333 9.83301 105.5 29.5 150.5s46.667 83.333 81 115s74.833 56.167 121.5 73.5s96.667 26 150 26
c54.667 0 105.5 -8.16699 152.5 -24.5s87.667 -39.833 122 -70.5s61.166 -68.167 80.499 -112.5s29 -94.833 29 -151.5v-8c0 -56 -9.16699 -106.833 -27.5 -152.5s-44.5 -84.667 -78.5 -117s-74.833 -57.5 -122.5 -75.5s-100.834 -27 -159.501 -27zM475.005 754.999
c-14.667 0 -27.667 1.66699 -39 5s-21.833 7 -31.5 11l-26.5 11c-8 3.33301 -16 5 -24 5s-14.667 -2.66699 -20 -8s-8.66602 -12.666 -9.99902 -21.999h-109c2 28 6.66699 52 14 72s16.666 36.5 27.999 49.5s24.166 22.667 38.499 29s29.5 9.5 45.5 9.5
c14 0 26.667 -1.66699 38 -5s22 -7 32 -11l28 -11c8.66699 -3.33301 17.334 -5 26.001 -5s15.334 2.66699 20.001 8s7.66699 12.666 9 21.999h110c-2 -28 -7 -52 -15 -72s-17.833 -36.5 -29.5 -49.5s-24.834 -22.667 -39.501 -29s-29.667 -9.5 -45 -9.5z" />
    <glyph glyph-name="Odieresis" unicode="&#xd6;" horiz-adv-x="820" 
d="M411 165c44.667 0 80.168 16.499 106.501 49.499s39.5 79.5 39.5 139.5v8c0 60.667 -13.333 107 -40 139s-62.667 48 -108 48c-44 0 -79.167 -15.833 -105.5 -47.5s-39.5 -78.167 -39.5 -139.5v-8c0 -61.333 13.167 -108.166 39.5 -140.499s62.166 -48.5 107.499 -48.5z
M405.001 -13.001c-58.667 0 -111.33 8.83301 -157.997 26.5s-86.334 42.667 -119.001 75s-57.667 71 -75 116s-26 94.5 -26 148.5v8c0 55.333 9.83301 105.5 29.5 150.5s46.667 83.333 81 115s74.833 56.167 121.5 73.5s96.667 26 150 26
c54.667 0 105.5 -8.16699 152.5 -24.5s87.667 -39.833 122 -70.5s61.166 -68.167 80.499 -112.5s29 -94.833 29 -151.5v-8c0 -56 -9.16699 -106.833 -27.5 -152.5s-44.5 -84.667 -78.5 -117s-74.833 -57.5 -122.5 -75.5s-100.834 -27 -159.501 -27zM295.005 751.999
c-12.667 0 -24.5 2.33301 -35.5 7s-20.667 11 -29 19s-14.833 17.5 -19.5 28.5s-7 22.5 -7 34.5c0 12.667 2.33301 24.334 7 35.001s11.167 20 19.5 28s18 14.333 29 19s22.833 7 35.5 7s24.667 -2.33301 36 -7s21.166 -11 29.499 -19s14.833 -17.333 19.5 -28
s7 -22.334 7 -35.001c0 -12 -2.33301 -23.5 -7 -34.5s-11.167 -20.5 -19.5 -28.5s-18.166 -14.333 -29.499 -19s-23.333 -7 -36 -7zM522.005 751.999c-12.667 0 -24.5 2.33301 -35.5 7s-20.667 11 -29 19s-14.833 17.5 -19.5 28.5s-7 22.5 -7 34.5
c0 12.667 2.33301 24.334 7 35.001s11.167 20 19.5 28s18 14.333 29 19s22.833 7 35.5 7s24.667 -2.33301 36 -7s21.166 -11 29.499 -19s14.833 -17.333 19.5 -28s7 -22.334 7 -35.001c0 -12 -2.33301 -23.5 -7 -34.5s-11.167 -20.5 -19.5 -28.5
s-18.166 -14.333 -29.499 -19s-23.333 -7 -36 -7z" />
    <glyph glyph-name="multiply" unicode="&#xd7;" horiz-adv-x="589" 
d="M40 185l152 152l-155 154l103 104l154 -156l153 152l102 -102l-152 -152l155 -154l-104 -104l-154 156l-152 -152z" />
    <glyph glyph-name="Oslash" unicode="&#xd8;" horiz-adv-x="820" 
d="M34 23l78 81.999c-28 32 -49.167 68.833 -63.5 110.5s-21.5 87.5 -21.5 137.5v8c0 55.333 9.83301 105.333 29.5 150s46.667 82.834 81 114.501s74.833 56.167 121.5 73.5s96.667 26 150 26c44 0 85.5 -5.33301 124.5 -16s74.5 -26 106.5 -46l73 78l57 -56l-68 -72
c29.333 -30 52 -65.5 68 -106.5s24 -87.5 24 -139.5v-8c0 -56 -9.16699 -106.833 -27.5 -152.5s-44.5 -84.667 -78.5 -117s-75 -57.5 -123 -75.5s-101.333 -27 -160 -27c-46.667 0 -89.5 5.5 -128.5 16.5s-73.833 27.167 -104.5 48.5l-81 -85zM410 164.999
c46 0 82.332 16.5 108.999 49.5s40 79.833 40 140.5v8c0 32 -4 60.667 -12 86l-235 -248c24.667 -24 57.334 -36 98.001 -36zM260.999 353.999c0 -32 3.33301 -59 10 -81l231 245c-26 20.667 -57 31 -93 31c-45.333 0 -81.333 -15.667 -108 -47s-40 -78 -40 -140v-8z" />
    <glyph glyph-name="Ugrave" unicode="&#xd9;" horiz-adv-x="776" 
d="M388 -13c-105.333 0 -186.166 25.667 -242.499 77s-84.5 128.333 -84.5 231v420h226v-411c0 -23.333 1.5 -43.666 4.5 -60.999s8.16699 -31.833 15.5 -43.5s17.666 -20.334 30.999 -26.001s30 -8.5 50 -8.5c40 0 66.667 11.5 80 34.5s20 58.167 20 105.5v410h228v-418
c0 -54 -7.66699 -100.5 -23 -139.5s-37.333 -71.167 -66 -96.5s-63.167 -44 -103.5 -56s-85.5 -18 -135.5 -18zM220 906h202l47 -149h-149z" />
    <glyph glyph-name="Uacute" unicode="&#xda;" horiz-adv-x="776" 
d="M388 -13c-105.333 0 -186.166 25.667 -242.499 77s-84.5 128.333 -84.5 231v420h226v-411c0 -23.333 1.5 -43.666 4.5 -60.999s8.16699 -31.833 15.5 -43.5s17.666 -20.334 30.999 -26.001s30 -8.5 50 -8.5c40 0 66.667 11.5 80 34.5s20 58.167 20 105.5v410h228v-418
c0 -54 -7.66699 -100.5 -23 -139.5s-37.333 -71.167 -66 -96.5s-63.167 -44 -103.5 -56s-85.5 -18 -135.5 -18zM354 906h201l-103 -149h-149z" />
    <glyph glyph-name="Ucircumflex" unicode="&#xdb;" horiz-adv-x="776" 
d="M388 -13c-105.333 0 -186.166 25.667 -242.499 77s-84.5 128.333 -84.5 231v420h226v-411c0 -23.333 1.5 -43.666 4.5 -60.999s8.16699 -31.833 15.5 -43.5s17.666 -20.334 30.999 -26.001s30 -8.5 50 -8.5c40 0 66.667 11.5 80 34.5s20 58.167 20 105.5v410h228v-418
c0 -54 -7.66699 -100.5 -23 -139.5s-37.333 -71.167 -66 -96.5s-63.167 -44 -103.5 -56s-85.5 -18 -135.5 -18zM306 906h164l110 -149h-142l-54 47l-54 -47h-139z" />
    <glyph glyph-name="Udieresis" unicode="&#xdc;" horiz-adv-x="776" 
d="M388 -13c-105.333 0 -186.166 25.667 -242.499 77s-84.5 128.333 -84.5 231v420h226v-411c0 -23.333 1.5 -43.666 4.5 -60.999s8.16699 -31.833 15.5 -43.5s17.666 -20.334 30.999 -26.001s30 -8.5 50 -8.5c40 0 66.667 11.5 80 34.5s20 58.167 20 105.5v410h228v-418
c0 -54 -7.66699 -100.5 -23 -139.5s-37.333 -71.167 -66 -96.5s-63.167 -44 -103.5 -56s-85.5 -18 -135.5 -18zM272 752c-12.667 0 -24.5 2.33301 -35.5 7s-20.667 11 -29 19s-14.833 17.5 -19.5 28.5s-7 22.5 -7 34.5c0 12.667 2.33301 24.334 7 35.001s11.167 20 19.5 28
s18 14.333 29 19s22.833 7 35.5 7s24.667 -2.33301 36 -7s21.166 -11 29.499 -19s14.833 -17.333 19.5 -28s7 -22.334 7 -35.001c0 -12 -2.33301 -23.5 -7 -34.5s-11.167 -20.5 -19.5 -28.5s-18.166 -14.333 -29.499 -19s-23.333 -7 -36 -7zM499 752
c-12.667 0 -24.5 2.33301 -35.5 7s-20.667 11 -29 19s-14.833 17.5 -19.5 28.5s-7 22.5 -7 34.5c0 12.667 2.33301 24.334 7 35.001s11.167 20 19.5 28s18 14.333 29 19s22.833 7 35.5 7s24.667 -2.33301 36 -7s21.166 -11 29.499 -19s14.833 -17.333 19.5 -28
s7 -22.334 7 -35.001c0 -12 -2.33301 -23.5 -7 -34.5s-11.167 -20.5 -19.5 -28.5s-18.166 -14.333 -29.499 -19s-23.333 -7 -36 -7z" />
    <glyph glyph-name="Yacute" unicode="&#xdd;" horiz-adv-x="692" 
d="M237 305l-232 410h246l109 -224l110 224h217l-222 -409v-306h-228v305zM321 906h201l-103 -149h-149z" />
    <glyph glyph-name="Thorn" unicode="&#xde;" horiz-adv-x="664" 
d="M65 715h226.001v-114h59c103.333 0 178.166 -19.5 224.499 -58.5s69.5 -97.5 69.5 -175.5v-4c0 -74.667 -24 -132.167 -72 -172.5s-118.667 -60.5 -212 -60.5h-69v-130h-226v715zM338.001 282c60.667 0 91 26.667 91 80v4c0 27.333 -7.5 46.833 -22.5 58.5
s-37.5 17.5 -67.5 17.5h-48v-160h47z" />
    <glyph glyph-name="germandbls" unicode="&#xdf;" horiz-adv-x="644" 
d="M389 -10c-22 0 -41.165 0.998047 -57.498 2.99805s-29.5 4.33301 -39.5 7v147c5.33301 -2 11.5 -3.83301 18.5 -5.5s15.167 -2.5 24.5 -2.5c12 0 23.333 1.66699 34 5s20.167 9.33301 28.5 18s14.833 20 19.5 34s7 31.667 7 53v6c0 23.333 -3.16699 42.333 -9.5 57
s-15.166 26.167 -26.499 34.5s-24.833 14 -40.5 17s-32.834 4.5 -51.501 4.5v137c29.333 0.666992 50.833 8.16699 64.5 22.5s20.5 30.5 20.5 48.5v2c0 20 -5.66699 35.833 -17 47.5s-27.666 17.5 -48.999 17.5c-22 0 -39.333 -7.33301 -52 -22s-19 -36 -19 -64v-557h-197
v540c0 42 7.5 77.5 22.5 106.5s35.167 52.667 60.5 71s55 31.666 89 39.999s70 12.5 108 12.5c74 0 132.5 -15.167 175.5 -45.5s64.5 -76.166 64.5 -137.499v-2c0 -35.333 -11.167 -64.833 -33.5 -88.5s-50.5 -40.5 -84.5 -50.5c22.667 -5.33301 44.667 -13.166 66 -23.499
s40 -24 56 -41s28.833 -37.167 38.5 -60.5s14.5 -50 14.5 -80v-7c0 -40 -5.83301 -75.333 -17.5 -106s-27.834 -56.167 -48.501 -76.5s-45.334 -35.666 -74.001 -45.999s-60.334 -15.5 -95.001 -15.5z" />
    <glyph glyph-name="agrave" unicode="&#xe0;" horiz-adv-x="585" 
d="M198 -13c-23.333 0 -45.833 3.00195 -67.5 9.00195s-40.667 15.333 -57 28s-29.333 29 -39 49s-14.5 44 -14.5 72c0 61.333 24.167 105.166 72.5 131.499s117.833 39.5 208.5 39.5h45v9c0 10.667 -0.666992 20.667 -2 30s-4.16602 17.5 -8.49902 24.5
s-10.5 12.333 -18.5 16s-18.667 5.5 -32 5.5c-22.667 0 -38.334 -6 -47.001 -18s-13.667 -24.667 -15 -38h-184c2 32 9.5 60 22.5 84s30.667 44.167 53 60.5s49 28.5 80 36.5s65.167 12 102.5 12c76 0 135.667 -16.167 179 -48.5s65 -82.833 65 -151.5v-338h-190v60
c-5.33301 -9.33301 -12.333 -18.333 -21 -27s-19.334 -16.334 -32.001 -23.001s-27.167 -12.167 -43.5 -16.5s-35.166 -6.5 -56.499 -6.5zM269 119.002c22.667 0 41.166 5.83301 55.499 17.5s21.5 27.167 21.5 46.5v27h-42c-33.333 0 -56.666 -3.66699 -69.999 -11
s-20 -20.333 -20 -39c0 -12.667 4.66699 -22.667 14 -30s23 -11 41 -11zM124.999 747.002h193l52 -169h-141z" />
    <glyph glyph-name="aacute" unicode="&#xe1;" horiz-adv-x="585" 
d="M198 -13c-23.333 0 -45.833 3.00195 -67.5 9.00195s-40.667 15.333 -57 28s-29.333 29 -39 49s-14.5 44 -14.5 72c0 61.333 24.167 105.166 72.5 131.499s117.833 39.5 208.5 39.5h45v9c0 10.667 -0.666992 20.667 -2 30s-4.16602 17.5 -8.49902 24.5
s-10.5 12.333 -18.5 16s-18.667 5.5 -32 5.5c-22.667 0 -38.334 -6 -47.001 -18s-13.667 -24.667 -15 -38h-184c2 32 9.5 60 22.5 84s30.667 44.167 53 60.5s49 28.5 80 36.5s65.167 12 102.5 12c76 0 135.667 -16.167 179 -48.5s65 -82.833 65 -151.5v-338h-190v60
c-5.33301 -9.33301 -12.333 -18.333 -21 -27s-19.334 -16.334 -32.001 -23.001s-27.167 -12.167 -43.5 -16.5s-35.166 -6.5 -56.499 -6.5zM269 119.002c22.667 0 41.166 5.83301 55.499 17.5s21.5 27.167 21.5 46.5v27h-42c-33.333 0 -56.666 -3.66699 -69.999 -11
s-20 -20.333 -20 -39c0 -12.667 4.66699 -22.667 14 -30s23 -11 41 -11zM271.999 747.002h193l-104 -169h-141z" />
    <glyph glyph-name="acircumflex" unicode="&#xe2;" horiz-adv-x="585" 
d="M198 -13c-23.333 0 -45.833 3.00195 -67.5 9.00195s-40.667 15.333 -57 28s-29.333 29 -39 49s-14.5 44 -14.5 72c0 61.333 24.167 105.166 72.5 131.499s117.833 39.5 208.5 39.5h45v9c0 10.667 -0.666992 20.667 -2 30s-4.16602 17.5 -8.49902 24.5
s-10.5 12.333 -18.5 16s-18.667 5.5 -32 5.5c-22.667 0 -38.334 -6 -47.001 -18s-13.667 -24.667 -15 -38h-184c2 32 9.5 60 22.5 84s30.667 44.167 53 60.5s49 28.5 80 36.5s65.167 12 102.5 12c76 0 135.667 -16.167 179 -48.5s65 -82.833 65 -151.5v-338h-190v60
c-5.33301 -9.33301 -12.333 -18.333 -21 -27s-19.334 -16.334 -32.001 -23.001s-27.167 -12.167 -43.5 -16.5s-35.166 -6.5 -56.499 -6.5zM269 119.002c22.667 0 41.166 5.83301 55.499 17.5s21.5 27.167 21.5 46.5v27h-42c-33.333 0 -56.666 -3.66699 -69.999 -11
s-20 -20.333 -20 -39c0 -12.667 4.66699 -22.667 14 -30s23 -11 41 -11zM224.999 746.002h138l120 -166h-137l-56 53l-56 -53h-134z" />
    <glyph glyph-name="atilde" unicode="&#xe3;" horiz-adv-x="585" 
d="M198 -13c-23.333 0 -45.833 3.00195 -67.5 9.00195s-40.667 15.333 -57 28s-29.333 29 -39 49s-14.5 44 -14.5 72c0 61.333 24.167 105.166 72.5 131.499s117.833 39.5 208.5 39.5h45v9c0 10.667 -0.666992 20.667 -2 30s-4.16602 17.5 -8.49902 24.5
s-10.5 12.333 -18.5 16s-18.667 5.5 -32 5.5c-22.667 0 -38.334 -6 -47.001 -18s-13.667 -24.667 -15 -38h-184c2 32 9.5 60 22.5 84s30.667 44.167 53 60.5s49 28.5 80 36.5s65.167 12 102.5 12c76 0 135.667 -16.167 179 -48.5s65 -82.833 65 -151.5v-338h-190v60
c-5.33301 -9.33301 -12.333 -18.333 -21 -27s-19.334 -16.334 -32.001 -23.001s-27.167 -12.167 -43.5 -16.5s-35.166 -6.5 -56.499 -6.5zM269 119.002c22.667 0 41.166 5.83301 55.499 17.5s21.5 27.167 21.5 46.5v27h-42c-33.333 0 -56.666 -3.66699 -69.999 -11
s-20 -20.333 -20 -39c0 -12.667 4.66699 -22.667 14 -30s23 -11 41 -11zM360.999 581.002c-14.667 0 -27.6689 1.66797 -39.002 5.00098s-21.666 7 -30.999 11l-25.5 11c-7.66699 3.33301 -15.167 5 -22.5 5c-8 0 -14.667 -2.83301 -20 -8.5
s-8.66602 -12.834 -9.99902 -21.501h-104c3.33301 55.333 15.833 96.166 37.5 122.499s48.5 39.5 80.5 39.5c14 0 26.5 -1.66699 37.5 -5s21.333 -7 31 -11l27.5 -11c8.66699 -3.33301 17 -5 25 -5c16.667 0 26.667 10.333 30 31h104c-2 -28 -6.5 -52.167 -13.5 -72.5
s-15.833 -37.166 -26.5 -50.499s-23 -23.333 -37 -30s-28.667 -10 -44 -10z" />
    <glyph glyph-name="adieresis" unicode="&#xe4;" horiz-adv-x="585" 
d="M198 -13c-23.333 0 -45.833 3.00195 -67.5 9.00195s-40.667 15.333 -57 28s-29.333 29 -39 49s-14.5 44 -14.5 72c0 61.333 24.167 105.166 72.5 131.499s117.833 39.5 208.5 39.5h45v9c0 10.667 -0.666992 20.667 -2 30s-4.16602 17.5 -8.49902 24.5
s-10.5 12.333 -18.5 16s-18.667 5.5 -32 5.5c-22.667 0 -38.334 -6 -47.001 -18s-13.667 -24.667 -15 -38h-184c2 32 9.5 60 22.5 84s30.667 44.167 53 60.5s49 28.5 80 36.5s65.167 12 102.5 12c76 0 135.667 -16.167 179 -48.5s65 -82.833 65 -151.5v-338h-190v60
c-5.33301 -9.33301 -12.333 -18.333 -21 -27s-19.334 -16.334 -32.001 -23.001s-27.167 -12.167 -43.5 -16.5s-35.166 -6.5 -56.499 -6.5zM269 119.002c22.667 0 41.166 5.83301 55.499 17.5s21.5 27.167 21.5 46.5v27h-42c-33.333 0 -56.666 -3.66699 -69.999 -11
s-20 -20.333 -20 -39c0 -12.667 4.66699 -22.667 14 -30s23 -11 41 -11zM185.999 570.002c-12.667 0 -24.5 2.33301 -35.5 7s-20.667 11 -29 19s-14.833 17.5 -19.5 28.5s-7 22.5 -7 34.5s2.33301 23.5 7 34.5s11.167 20.5 19.5 28.5s18 14.333 29 19s22.833 7 35.5 7
s24.667 -2.33301 36 -7s21.166 -11 29.499 -19s14.833 -17.5 19.5 -28.5s7 -22.5 7 -34.5s-2.33301 -23.5 -7 -34.5s-11.167 -20.5 -19.5 -28.5s-18.166 -14.333 -29.499 -19s-23.333 -7 -36 -7zM402.999 570.002c-12.667 0 -24.5 2.33301 -35.5 7s-20.5 11 -28.5 19
s-14.333 17.5 -19 28.5s-7 22.5 -7 34.5s2.33301 23.5 7 34.5s11 20.5 19 28.5s17.5 14.333 28.5 19s22.833 7 35.5 7c26 0 47.833 -8.66699 65.5 -26s26.5 -38.333 26.5 -63s-8.83301 -45.667 -26.5 -63s-39.5 -26 -65.5 -26z" />
    <glyph glyph-name="aring" unicode="&#xe5;" horiz-adv-x="585" 
d="M198 -13c-23.333 0 -45.833 3.00195 -67.5 9.00195s-40.667 15.333 -57 28s-29.333 29 -39 49s-14.5 44 -14.5 72c0 61.333 24.167 105.166 72.5 131.499s117.833 39.5 208.5 39.5h45v9c0 10.667 -0.666992 20.667 -2 30s-4.16602 17.5 -8.49902 24.5
s-10.5 12.333 -18.5 16s-18.667 5.5 -32 5.5c-22.667 0 -38.334 -6 -47.001 -18s-13.667 -24.667 -15 -38h-184c2 32 9.5 60 22.5 84s30.667 44.167 53 60.5s49 28.5 80 36.5s65.167 12 102.5 12c76 0 135.667 -16.167 179 -48.5s65 -82.833 65 -151.5v-338h-190v60
c-5.33301 -9.33301 -12.333 -18.333 -21 -27s-19.334 -16.334 -32.001 -23.001s-27.167 -12.167 -43.5 -16.5s-35.166 -6.5 -56.499 -6.5zM269 119.002c22.667 0 41.166 5.83301 55.499 17.5s21.5 27.167 21.5 46.5v27h-42c-33.333 0 -56.666 -3.66699 -69.999 -11
s-20 -20.333 -20 -39c0 -12.667 4.66699 -22.667 14 -30s23 -11 41 -11zM294.999 642.002c13.333 0 24 4.5 32 13.5s12 20.5 12 34.5c0 14.667 -4 26.5 -12 35.5s-18.667 13.5 -32 13.5s-24 -4.5 -32 -13.5s-12 -20.833 -12 -35.5c0 -14 4 -25.5 12 -34.5
s18.667 -13.5 32 -13.5zM294.999 574.002c-16.667 0 -32.167 3 -46.5 9s-27 14.333 -38 25s-19.667 23 -26 37s-9.5 29 -9.5 45s3.16699 31.167 9.5 45.5s15 26.666 26 36.999s23.667 18.666 38 24.999s29.833 9.5 46.5 9.5s32.167 -3.16699 46.5 -9.5
s27 -14.666 38 -24.999s19.667 -22.666 26 -36.999s9.5 -29.5 9.5 -45.5s-3.16699 -31 -9.5 -45s-15 -26.333 -26 -37s-23.667 -19 -38 -25s-29.833 -9 -46.5 -9z" />
    <glyph glyph-name="ae" unicode="&#xe6;" horiz-adv-x="913" 
d="M626 -13c-94 0 -162.661 29.334 -205.994 88.001c-20.667 -27.333 -46.834 -48.833 -78.501 -64.5s-73.167 -23.5 -124.5 -23.5c-27.333 0 -53 3 -77 9s-45 15.333 -63 28s-32.167 29 -42.5 49s-15.5 44 -15.5 72c0 61.333 24 105.666 72 132.999s117.333 41 208 41h49v6
c0 22.667 -4 41 -12 55s-25 21 -51 21c-22.667 0 -38.334 -5.33301 -47.001 -16s-14 -24 -16 -40h-184c2 32 9.5 60 22.5 84s30.667 44.167 53 60.5s48.666 28.5 78.999 36.5s63.5 12 99.5 12c78.667 0 134 -19 166 -57c43.333 38 98.333 57 165 57
c36.667 0 71.167 -5.33301 103.5 -16s60.833 -27 85.5 -49s44.167 -50 58.5 -84s21.5 -75 21.5 -123v-47h-357c5.33301 -65.333 36.666 -98 93.999 -98c28 0 47.667 5.5 59 16.5s18.666 24.167 21.999 39.5h182c-7.33301 -60.667 -33.333 -107.5 -78 -140.5
s-107.334 -49.5 -188.001 -49.5zM703.006 319.001c-1.33301 29.333 -8.50098 52 -21.501 68s-32.5 24 -58.5 24c-24 0 -43.667 -7.83301 -59 -23.5s-24.666 -38.5 -27.999 -68.5h167zM269.005 119.001c24.667 0 44 5.83203 58 17.499s21 27.167 21 46.5v33h-46
c-30.667 0 -53.167 -3.66699 -67.5 -11s-21.5 -20.666 -21.5 -39.999c0 -30.667 18.667 -46 56 -46z" />
    <glyph glyph-name="ccedilla" unicode="&#xe7;" horiz-adv-x="586" 
d="M280 -228c-38 0 -68.1641 8.00195 -90.4971 24.002s-36.166 39.333 -41.499 70h90c1.33301 -6.66699 4.66602 -12.667 9.99902 -18s13.666 -8 24.999 -8c9.33301 0 16.666 2.66699 21.999 8s8 12.333 8 21s-2.66699 15.834 -8 21.501s-13.666 8.5 -24.999 8.5
c-14.667 0 -25.334 -4 -32.001 -12l-40 41l42 64c-32 4.66699 -61.333 13.667 -88 27s-49.667 31 -69 53s-34.333 48.167 -45 78.5s-16 64.833 -16 103.5v8c0 44.667 7.33301 84 22 118s34.834 62.667 60.501 86s55.667 41 90 53s71.166 18 110.499 18
c32.667 0 64.167 -3.83301 94.5 -11.5s57.5 -20 81.5 -37s43.667 -39.667 59 -68s24.333 -62.833 27 -103.5h-185c-3.33301 21.333 -10.166 38.166 -20.499 50.499s-27.5 18.5 -51.5 18.5c-58.667 0 -88 -40 -88 -120v-8c0 -42.667 7.16699 -74.667 21.5 -96
s37.5 -32 69.5 -32c22.667 0 41 6.83301 55 20.5s22.333 33.167 25 58.5h177c-2.66699 -66 -25.334 -119 -68.001 -159s-105.667 -61 -189 -63l-22 -31c14.667 1.33301 29 0.666016 43 -2.00098s26.167 -7.5 36.5 -14.5s18.666 -16.333 24.999 -28s9.5 -25.834 9.5 -42.501
c0 -30.667 -11.333 -54.5 -34 -71.5s-53 -25.5 -91 -25.5z" />
    <glyph glyph-name="egrave" unicode="&#xe8;" horiz-adv-x="604" 
d="M311 -13c-42 0 -80.668 5.83105 -116.001 17.498s-65.833 28.834 -91.5 51.501s-45.834 50.667 -60.501 84s-22 71.666 -22 114.999v8c0 42.667 7.66699 81 23 115s36 62.833 62 86.5s56.667 41.834 92 54.501s73 19 113 19c36.667 0 71.5 -5.33301 104.5 -16
s61.833 -27.167 86.5 -49.5s44.334 -50.666 59.001 -84.999s22 -74.833 22 -121.5v-48h-363c2.66699 -32 12.667 -56.167 30 -72.5s40 -24.5 68 -24.5s47.833 5.5 59.5 16.5s19.167 24.167 22.5 39.5h184c-8 -60.667 -34.667 -107.5 -80 -140.5
s-109.666 -49.5 -192.999 -49.5zM392.999 320.998c-1.33301 28 -8.66699 50 -22 66s-33.333 24 -60 24c-24 0 -44 -7.5 -60 -22.5s-26 -37.5 -30 -67.5h172zM135.998 746.998h193l52 -169h-141z" />
    <glyph glyph-name="eacute" unicode="&#xe9;" horiz-adv-x="604" 
d="M311 -13c-42 0 -80.668 5.83105 -116.001 17.498s-65.833 28.834 -91.5 51.501s-45.834 50.667 -60.501 84s-22 71.666 -22 114.999v8c0 42.667 7.66699 81 23 115s36 62.833 62 86.5s56.667 41.834 92 54.501s73 19 113 19c36.667 0 71.5 -5.33301 104.5 -16
s61.833 -27.167 86.5 -49.5s44.334 -50.666 59.001 -84.999s22 -74.833 22 -121.5v-48h-363c2.66699 -32 12.667 -56.167 30 -72.5s40 -24.5 68 -24.5s47.833 5.5 59.5 16.5s19.167 24.167 22.5 39.5h184c-8 -60.667 -34.667 -107.5 -80 -140.5
s-109.666 -49.5 -192.999 -49.5zM392.999 320.998c-1.33301 28 -8.66699 50 -22 66s-33.333 24 -60 24c-24 0 -44 -7.5 -60 -22.5s-26 -37.5 -30 -67.5h172zM282.998 746.998h193l-104 -169h-141z" />
    <glyph glyph-name="ecircumflex" unicode="&#xea;" horiz-adv-x="604" 
d="M311 -13c-42 0 -80.668 5.83105 -116.001 17.498s-65.833 28.834 -91.5 51.501s-45.834 50.667 -60.501 84s-22 71.666 -22 114.999v8c0 42.667 7.66699 81 23 115s36 62.833 62 86.5s56.667 41.834 92 54.501s73 19 113 19c36.667 0 71.5 -5.33301 104.5 -16
s61.833 -27.167 86.5 -49.5s44.334 -50.666 59.001 -84.999s22 -74.833 22 -121.5v-48h-363c2.66699 -32 12.667 -56.167 30 -72.5s40 -24.5 68 -24.5s47.833 5.5 59.5 16.5s19.167 24.167 22.5 39.5h184c-8 -60.667 -34.667 -107.5 -80 -140.5
s-109.666 -49.5 -192.999 -49.5zM392.999 320.998c-1.33301 28 -8.66699 50 -22 66s-33.333 24 -60 24c-24 0 -44 -7.5 -60 -22.5s-26 -37.5 -30 -67.5h172zM238.998 745.998h138l120 -166h-137l-56 53l-56 -53h-134z" />
    <glyph glyph-name="edieresis" unicode="&#xeb;" horiz-adv-x="604" 
d="M311 -13c-42 0 -80.668 5.83105 -116.001 17.498s-65.833 28.834 -91.5 51.501s-45.834 50.667 -60.501 84s-22 71.666 -22 114.999v8c0 42.667 7.66699 81 23 115s36 62.833 62 86.5s56.667 41.834 92 54.501s73 19 113 19c36.667 0 71.5 -5.33301 104.5 -16
s61.833 -27.167 86.5 -49.5s44.334 -50.666 59.001 -84.999s22 -74.833 22 -121.5v-48h-363c2.66699 -32 12.667 -56.167 30 -72.5s40 -24.5 68 -24.5s47.833 5.5 59.5 16.5s19.167 24.167 22.5 39.5h184c-8 -60.667 -34.667 -107.5 -80 -140.5
s-109.666 -49.5 -192.999 -49.5zM392.999 320.998c-1.33301 28 -8.66699 50 -22 66s-33.333 24 -60 24c-24 0 -44 -7.5 -60 -22.5s-26 -37.5 -30 -67.5h172zM196.998 569.998c-12.667 0 -24.5 2.33301 -35.5 7s-20.667 11 -29 19s-14.833 17.5 -19.5 28.5s-7 22.5 -7 34.5
s2.33301 23.5 7 34.5s11.167 20.5 19.5 28.5s18 14.333 29 19s22.833 7 35.5 7s24.667 -2.33301 36 -7s21.166 -11 29.499 -19s14.833 -17.5 19.5 -28.5s7 -22.5 7 -34.5s-2.33301 -23.5 -7 -34.5s-11.167 -20.5 -19.5 -28.5s-18.166 -14.333 -29.499 -19s-23.333 -7 -36 -7
zM413.998 569.998c-12.667 0 -24.5 2.33301 -35.5 7s-20.5 11 -28.5 19s-14.333 17.5 -19 28.5s-7 22.5 -7 34.5s2.33301 23.5 7 34.5s11 20.5 19 28.5s17.5 14.333 28.5 19s22.833 7 35.5 7c26 0 47.833 -8.66699 65.5 -26s26.5 -38.333 26.5 -63
s-8.83301 -45.667 -26.5 -63s-39.5 -26 -65.5 -26z" />
    <glyph glyph-name="igrave" unicode="&#xec;" horiz-adv-x="303" 
d="M53 523h196v-523h-196v523zM-18 747h193l52 -169h-141z" />
    <glyph glyph-name="iacute" unicode="&#xed;" horiz-adv-x="303" 
d="M53 523h196v-523h-196v523zM129 747h193l-104 -169h-141z" />
    <glyph glyph-name="icircumflex" unicode="&#xee;" horiz-adv-x="303" 
d="M53 523h196v-523h-196v523zM85 746h138l120 -166h-137l-56 53l-56 -53h-134z" />
    <glyph glyph-name="idieresis" unicode="&#xef;" horiz-adv-x="303" 
d="M43 570c-12.667 0 -24.5 2.33301 -35.5 7s-20.667 11 -29 19s-14.833 17.5 -19.5 28.5s-7 22.5 -7 34.5s2.33301 23.5 7 34.5s11.167 20.5 19.5 28.5s18 14.333 29 19s22.833 7 35.5 7s24.667 -2.33301 36 -7s21.166 -11 29.499 -19s14.833 -17.5 19.5 -28.5
s7 -22.5 7 -34.5s-2.33301 -23.5 -7 -34.5s-11.167 -20.5 -19.5 -28.5s-18.166 -14.333 -29.499 -19s-23.333 -7 -36 -7zM258 570c-25.333 0 -46.666 8.66699 -63.999 26s-26 38.333 -26 63s8.66699 45.667 26 63s38.666 26 63.999 26c26 0 47.833 -8.66699 65.5 -26
s26.5 -38.333 26.5 -63s-8.83301 -45.667 -26.5 -63s-39.5 -26 -65.5 -26zM53 523h196v-523h-196v523z" />
    <glyph glyph-name="eth" unicode="&#xf0;" horiz-adv-x="627" 
d="M101 618l111 36.9971c-21.333 18 -42.333 34.833 -63 50.5l-59 43.5h222c9.33301 -5.33301 19 -11.5 29 -18.5l31 -21.5l111 38l23 -62l-73 -25c22 -20 43.333 -42.333 64 -67s39 -51.834 55 -81.501s28.667 -61.667 38 -96s14 -71.166 14 -110.499v-22
c0 -46 -7 -87.333 -21 -124s-33.833 -67.667 -59.5 -93s-56.667 -44.833 -93 -58.5s-76.833 -20.5 -121.5 -20.5c-40.667 0 -78.5 6 -113.5 18s-65.5 29.833 -91.5 53.5s-46.333 52.667 -61 87s-22 73.833 -22 118.5v12c0 40.667 6.83301 76.834 20.5 108.501
s31.5 58.167 53.5 79.5s46.667 37.5 74 48.5s55 16.5 83 16.5c25.333 0 45.5 -3.5 60.5 -10.5s29.833 -17.833 44.5 -32.5c-10.667 20.667 -23.667 40.834 -39 60.501s-32.333 38.834 -51 57.501l-143 -48zM314 131.997c30 0 52.501 10.833 67.501 32.5
s22.5 52.834 22.5 93.501v8c0 41.333 -7.33301 72.666 -22 93.999s-37.334 32 -68.001 32c-61.333 0 -92 -41 -92 -123v-8c0 -86 30.667 -129 92 -129z" />
    <glyph glyph-name="ntilde" unicode="&#xf1;" horiz-adv-x="629" 
d="M47 523h196.998v-84c14.667 28 36.167 51.333 64.5 70s64.5 28 108.5 28c24.667 0 47.334 -4 68.001 -12s38.334 -20 53.001 -36s26.167 -36 34.5 -60s12.5 -52.333 12.5 -85v-344h-197v300c0 26.667 -5.16699 46.667 -15.5 60s-27.166 20 -50.499 20
c-24.667 0 -43.834 -7.33301 -57.501 -22s-20.5 -37.667 -20.5 -69v-289h-197v523zM380.998 581c-14.667 0 -27.6689 1.66797 -39.002 5.00098s-21.666 7 -30.999 11l-25.5 11c-7.66699 3.33301 -15.167 5 -22.5 5c-8 0 -14.667 -2.83301 -20 -8.5
s-8.66602 -12.834 -9.99902 -21.501h-104c3.33301 55.333 15.833 96.166 37.5 122.499s48.5 39.5 80.5 39.5c14 0 26.5 -1.66699 37.5 -5s21.333 -7 31 -11l27.5 -11c8.66699 -3.33301 17 -5 25 -5c16.667 0 26.667 10.333 30 31h104c-2 -28 -6.5 -52.167 -13.5 -72.5
s-15.833 -37.166 -26.5 -50.499s-23 -23.333 -37 -30s-28.667 -10 -44 -10z" />
    <glyph glyph-name="ograve" unicode="&#xf2;" horiz-adv-x="626" 
d="M314 132c60 0 90.001 42.333 90.001 127v7c0 41.333 -7.33301 72.666 -22 93.999s-37.334 32 -68.001 32c-30 0 -53 -10.167 -69 -30.5s-24 -51.166 -24 -92.499v-8c0 -86 31 -129 93 -129zM313.001 -13c-40.667 0 -78.6689 5.8291 -114.002 17.4961
s-66.166 29 -92.499 52s-47 51 -62 84s-22.5 71.167 -22.5 114.5v8c0 42.667 7.5 80.834 22.5 114.501s35.5 62.334 61.5 86.001s56.833 41.834 92.5 54.501s74.167 19 115.5 19c40.667 0 78.667 -6.16699 114 -18.5s66 -30 92 -53s46.5 -51.167 61.5 -84.5
s22.5 -71 22.5 -113v-8c0 -43.333 -7.5 -81.833 -22.5 -115.5s-35.667 -62.167 -62 -85.5s-57.166 -41.166 -92.499 -53.499s-73.333 -18.5 -114 -18.5zM141.999 746.996h193l52 -169h-141z" />
    <glyph glyph-name="oacute" unicode="&#xf3;" horiz-adv-x="626" 
d="M314 132c60 0 90.001 42.333 90.001 127v7c0 41.333 -7.33301 72.666 -22 93.999s-37.334 32 -68.001 32c-30 0 -53 -10.167 -69 -30.5s-24 -51.166 -24 -92.499v-8c0 -86 31 -129 93 -129zM313.001 -13c-40.667 0 -78.6689 5.8291 -114.002 17.4961
s-66.166 29 -92.499 52s-47 51 -62 84s-22.5 71.167 -22.5 114.5v8c0 42.667 7.5 80.834 22.5 114.501s35.5 62.334 61.5 86.001s56.833 41.834 92.5 54.501s74.167 19 115.5 19c40.667 0 78.667 -6.16699 114 -18.5s66 -30 92 -53s46.5 -51.167 61.5 -84.5
s22.5 -71 22.5 -113v-8c0 -43.333 -7.5 -81.833 -22.5 -115.5s-35.667 -62.167 -62 -85.5s-57.166 -41.166 -92.499 -53.499s-73.333 -18.5 -114 -18.5zM288.999 746.996h193l-104 -169h-141z" />
    <glyph glyph-name="ocircumflex" unicode="&#xf4;" horiz-adv-x="626" 
d="M314 132c60 0 90.001 42.333 90.001 127v7c0 41.333 -7.33301 72.666 -22 93.999s-37.334 32 -68.001 32c-30 0 -53 -10.167 -69 -30.5s-24 -51.166 -24 -92.499v-8c0 -86 31 -129 93 -129zM313.001 -13c-40.667 0 -78.6689 5.8291 -114.002 17.4961
s-66.166 29 -92.499 52s-47 51 -62 84s-22.5 71.167 -22.5 114.5v8c0 42.667 7.5 80.834 22.5 114.501s35.5 62.334 61.5 86.001s56.833 41.834 92.5 54.501s74.167 19 115.5 19c40.667 0 78.667 -6.16699 114 -18.5s66 -30 92 -53s46.5 -51.167 61.5 -84.5
s22.5 -71 22.5 -113v-8c0 -43.333 -7.5 -81.833 -22.5 -115.5s-35.667 -62.167 -62 -85.5s-57.166 -41.166 -92.499 -53.499s-73.333 -18.5 -114 -18.5zM244.999 745.996h138l120 -166h-137l-56 53l-56 -53h-134z" />
    <glyph glyph-name="otilde" unicode="&#xf5;" horiz-adv-x="626" 
d="M314 132c60 0 90.001 42.333 90.001 127v7c0 41.333 -7.33301 72.666 -22 93.999s-37.334 32 -68.001 32c-30 0 -53 -10.167 -69 -30.5s-24 -51.166 -24 -92.499v-8c0 -86 31 -129 93 -129zM313.001 -13c-40.667 0 -78.6689 5.8291 -114.002 17.4961
s-66.166 29 -92.499 52s-47 51 -62 84s-22.5 71.167 -22.5 114.5v8c0 42.667 7.5 80.834 22.5 114.501s35.5 62.334 61.5 86.001s56.833 41.834 92.5 54.501s74.167 19 115.5 19c40.667 0 78.667 -6.16699 114 -18.5s66 -30 92 -53s46.5 -51.167 61.5 -84.5
s22.5 -71 22.5 -113v-8c0 -43.333 -7.5 -81.833 -22.5 -115.5s-35.667 -62.167 -62 -85.5s-57.166 -41.166 -92.499 -53.499s-73.333 -18.5 -114 -18.5zM377.999 580.996c-14.667 0 -27.6689 1.66797 -39.002 5.00098s-21.666 7 -30.999 11l-25.5 11
c-7.66699 3.33301 -15.167 5 -22.5 5c-8 0 -14.667 -2.83301 -20 -8.5s-8.66602 -12.834 -9.99902 -21.501h-104c3.33301 55.333 15.833 96.166 37.5 122.499s48.5 39.5 80.5 39.5c14 0 26.5 -1.66699 37.5 -5s21.333 -7 31 -11l27.5 -11c8.66699 -3.33301 17 -5 25 -5
c16.667 0 26.667 10.333 30 31h104c-2 -28 -6.5 -52.167 -13.5 -72.5s-15.833 -37.166 -26.5 -50.499s-23 -23.333 -37 -30s-28.667 -10 -44 -10z" />
    <glyph glyph-name="odieresis" unicode="&#xf6;" horiz-adv-x="626" 
d="M314 132c60 0 90.001 42.333 90.001 127v7c0 41.333 -7.33301 72.666 -22 93.999s-37.334 32 -68.001 32c-30 0 -53 -10.167 -69 -30.5s-24 -51.166 -24 -92.499v-8c0 -86 31 -129 93 -129zM313.001 -13c-40.667 0 -78.6689 5.8291 -114.002 17.4961
s-66.166 29 -92.499 52s-47 51 -62 84s-22.5 71.167 -22.5 114.5v8c0 42.667 7.5 80.834 22.5 114.501s35.5 62.334 61.5 86.001s56.833 41.834 92.5 54.501s74.167 19 115.5 19c40.667 0 78.667 -6.16699 114 -18.5s66 -30 92 -53s46.5 -51.167 61.5 -84.5
s22.5 -71 22.5 -113v-8c0 -43.333 -7.5 -81.833 -22.5 -115.5s-35.667 -62.167 -62 -85.5s-57.166 -41.166 -92.499 -53.499s-73.333 -18.5 -114 -18.5zM202.999 569.996c-12.667 0 -24.5 2.33301 -35.5 7s-20.667 11 -29 19s-14.833 17.5 -19.5 28.5s-7 22.5 -7 34.5
s2.33301 23.5 7 34.5s11.167 20.5 19.5 28.5s18 14.333 29 19s22.833 7 35.5 7s24.667 -2.33301 36 -7s21.166 -11 29.499 -19s14.833 -17.5 19.5 -28.5s7 -22.5 7 -34.5s-2.33301 -23.5 -7 -34.5s-11.167 -20.5 -19.5 -28.5s-18.166 -14.333 -29.499 -19s-23.333 -7 -36 -7
zM419.999 569.996c-12.667 0 -24.5 2.33301 -35.5 7s-20.5 11 -28.5 19s-14.333 17.5 -19 28.5s-7 22.5 -7 34.5s2.33301 23.5 7 34.5s11 20.5 19 28.5s17.5 14.333 28.5 19s22.833 7 35.5 7c26 0 47.833 -8.66699 65.5 -26s26.5 -38.333 26.5 -63
s-8.83301 -45.667 -26.5 -63s-39.5 -26 -65.5 -26z" />
    <glyph glyph-name="divide" unicode="&#xf7;" horiz-adv-x="582" 
d="M291 34c-28 0 -51.667 9.33301 -71 28s-29 42 -29 70c0 13.333 2.66699 26 8 38s12.5 22.333 21.5 31s19.5 15.5 31.5 20.5s25 7.5 39 7.5s27 -2.5 39 -7.5s22.5 -11.833 31.5 -20.5s16.167 -19 21.5 -31s8 -24.667 8 -38c0 -28 -9.66699 -51.333 -29 -70
s-43 -28 -71 -28zM38 407h507v-134h-507v134zM291 450c-14 0 -27 2.5 -39 7.5s-22.5 11.833 -31.5 20.5s-16.167 19 -21.5 31s-8 24.667 -8 38c0 28 9.66699 51.333 29 70s43 28 71 28s51.667 -9.33301 71 -28s29 -42 29 -70c0 -13.333 -2.66699 -26 -8 -38
s-12.5 -22.333 -21.5 -31s-19.5 -15.5 -31.5 -20.5s-25 -7.5 -39 -7.5z" />
    <glyph glyph-name="oslash" unicode="&#xf8;" horiz-adv-x="626" 
d="M22 7l63.999 67.998c-20.667 22.667 -36.667 48.834 -48 78.501s-17 63.5 -17 101.5v8c0 42.667 7.5 81 22.5 115s35.667 62.833 62 86.5s57.333 41.834 93 54.501s74.167 19 115.5 19c63.333 0 119 -14.333 167 -43l65 69l50 -46l-62 -66
c22 -22.667 39.167 -49.5 51.5 -80.5s18.5 -65.5 18.5 -103.5v-8c0 -43.333 -7.5 -81.833 -22.5 -115.5s-35.667 -62.167 -62 -85.5s-57.166 -41.166 -92.499 -53.499s-73.333 -18.5 -114 -18.5c-32.667 0 -63.667 3.66699 -93 11s-56 18.666 -80 33.999l-67 -71z
M313.999 130.998c31.333 0 54.667 10.834 70 32.501s23 53.167 23 94.5v8c0 8.66699 -0.333008 16.667 -1 24s-1.66699 14.666 -3 21.999l-150 -160c14.667 -14 35 -21 61 -21zM219 260.999c0 -15.333 0.999023 -29.333 2.99902 -42l147 157
c-15.333 11.333 -33.666 17 -54.999 17c-63.333 0 -95 -41.333 -95 -124v-8z" />
    <glyph glyph-name="ugrave" unicode="&#xf9;" horiz-adv-x="628" 
d="M218 -13c-25.333 0 -48.668 4 -70.001 12s-39.666 20 -54.999 36s-27.5 36 -36.5 60s-13.5 52.333 -13.5 85v343h197v-309c0 -26.667 5.16699 -46.667 15.5 -60s27.166 -20 50.499 -20c24.667 0 43.834 7.33301 57.501 22s20.5 37.667 20.5 69v298h197v-523h-197v81
c-14.667 -28 -35 -50.667 -61 -68s-61 -26 -105 -26zM141.998 747h193l52 -169h-141z" />
    <glyph glyph-name="uacute" unicode="&#xfa;" horiz-adv-x="628" 
d="M218 -13c-25.333 0 -48.668 4 -70.001 12s-39.666 20 -54.999 36s-27.5 36 -36.5 60s-13.5 52.333 -13.5 85v343h197v-309c0 -26.667 5.16699 -46.667 15.5 -60s27.166 -20 50.499 -20c24.667 0 43.834 7.33301 57.501 22s20.5 37.667 20.5 69v298h197v-523h-197v81
c-14.667 -28 -35 -50.667 -61 -68s-61 -26 -105 -26zM288.998 747h193l-104 -169h-141z" />
    <glyph glyph-name="ucircumflex" unicode="&#xfb;" horiz-adv-x="628" 
d="M218 -13c-25.333 0 -48.668 4 -70.001 12s-39.666 20 -54.999 36s-27.5 36 -36.5 60s-13.5 52.333 -13.5 85v343h197v-309c0 -26.667 5.16699 -46.667 15.5 -60s27.166 -20 50.499 -20c24.667 0 43.834 7.33301 57.501 22s20.5 37.667 20.5 69v298h197v-523h-197v81
c-14.667 -28 -35 -50.667 -61 -68s-61 -26 -105 -26zM244.998 746h138l120 -166h-137l-56 53l-56 -53h-134z" />
    <glyph glyph-name="udieresis" unicode="&#xfc;" horiz-adv-x="628" 
d="M218 -13c-25.333 0 -48.668 4 -70.001 12s-39.666 20 -54.999 36s-27.5 36 -36.5 60s-13.5 52.333 -13.5 85v343h197v-309c0 -26.667 5.16699 -46.667 15.5 -60s27.166 -20 50.499 -20c24.667 0 43.834 7.33301 57.501 22s20.5 37.667 20.5 69v298h197v-523h-197v81
c-14.667 -28 -35 -50.667 -61 -68s-61 -26 -105 -26zM202.998 570c-12.667 0 -24.5 2.33301 -35.5 7s-20.667 11 -29 19s-14.833 17.5 -19.5 28.5s-7 22.5 -7 34.5s2.33301 23.5 7 34.5s11.167 20.5 19.5 28.5s18 14.333 29 19s22.833 7 35.5 7s24.667 -2.33301 36 -7
s21.166 -11 29.499 -19s14.833 -17.5 19.5 -28.5s7 -22.5 7 -34.5s-2.33301 -23.5 -7 -34.5s-11.167 -20.5 -19.5 -28.5s-18.166 -14.333 -29.499 -19s-23.333 -7 -36 -7zM419.998 570c-12.667 0 -24.5 2.33301 -35.5 7s-20.5 11 -28.5 19s-14.333 17.5 -19 28.5
s-7 22.5 -7 34.5s2.33301 23.5 7 34.5s11 20.5 19 28.5s17.5 14.333 28.5 19s22.833 7 35.5 7c26 0 47.833 -8.66699 65.5 -26s26.5 -38.333 26.5 -63s-8.83301 -45.667 -26.5 -63s-39.5 -26 -65.5 -26z" />
    <glyph glyph-name="yacute" unicode="&#xfd;" 
d="M214 52l-209 471h213l99 -261l92 261h186l-279 -697h-187zM288 747h193l-104 -169h-141z" />
    <glyph glyph-name="thorn" unicode="&#xfe;" horiz-adv-x="646" 
d="M47 750l197 -0.00195312v-303c14.667 24.667 35 45.834 61 63.501s59 26.5 99 26.5c30 0 58.167 -5.66699 84.5 -17s49.5 -28.166 69.5 -50.499s35.833 -50.5 47.5 -84.5s17.5 -74 17.5 -120v-8c0 -46 -5.83301 -85.833 -17.5 -119.5s-27.5 -61.667 -47.5 -84
s-43.333 -39 -70 -50s-55 -16.5 -85 -16.5c-38.667 0 -71.5 8.33301 -98.5 25s-47.167 37.667 -60.5 63v-249h-197v924zM331 136.998c30 0 52.833 10.333 68.5 31s23.5 51 23.5 91v8c0 42 -8 73.167 -24 93.5s-39 30.5 -69 30.5c-29.333 0 -51.833 -10.667 -67.5 -32
s-23.5 -52 -23.5 -92v-8c0 -81.333 30.667 -122 92 -122z" />
    <glyph glyph-name="ydieresis" unicode="&#xff;" 
d="M214 52l-209 471h213l99 -261l92 261h186l-279 -697h-187zM202 570c-12.667 0 -24.5 2.33301 -35.5 7s-20.667 11 -29 19s-14.833 17.5 -19.5 28.5s-7 22.5 -7 34.5s2.33301 23.5 7 34.5s11.167 20.5 19.5 28.5s18 14.333 29 19s22.833 7 35.5 7s24.667 -2.33301 36 -7
s21.166 -11 29.499 -19s14.833 -17.5 19.5 -28.5s7 -22.5 7 -34.5s-2.33301 -23.5 -7 -34.5s-11.167 -20.5 -19.5 -28.5s-18.166 -14.333 -29.499 -19s-23.333 -7 -36 -7zM419 570c-12.667 0 -24.5 2.33301 -35.5 7s-20.5 11 -28.5 19s-14.333 17.5 -19 28.5
s-7 22.5 -7 34.5s2.33301 23.5 7 34.5s11 20.5 19 28.5s17.5 14.333 28.5 19s22.833 7 35.5 7c26 0 47.833 -8.66699 65.5 -26s26.5 -38.333 26.5 -63s-8.83301 -45.667 -26.5 -63s-39.5 -26 -65.5 -26z" />
    <glyph glyph-name="Amacron" unicode="&#x100;" horiz-adv-x="760" 
d="M234 715h293l224 -715h-240l-33 119h-226l-32 -119h-211zM295 273h141l-70 259zM211 884h333v-115h-333v115z" />
    <glyph glyph-name="amacron" unicode="&#x101;" horiz-adv-x="585" 
d="M198 -13c-23.333 0 -45.833 3.00195 -67.5 9.00195s-40.667 15.333 -57 28s-29.333 29 -39 49s-14.5 44 -14.5 72c0 61.333 24.167 105.166 72.5 131.499s117.833 39.5 208.5 39.5h45v9c0 10.667 -0.666992 20.667 -2 30s-4.16602 17.5 -8.49902 24.5
s-10.5 12.333 -18.5 16s-18.667 5.5 -32 5.5c-22.667 0 -38.334 -6 -47.001 -18s-13.667 -24.667 -15 -38h-184c2 32 9.5 60 22.5 84s30.667 44.167 53 60.5s49 28.5 80 36.5s65.167 12 102.5 12c76 0 135.667 -16.167 179 -48.5s65 -82.833 65 -151.5v-338h-190v60
c-5.33301 -9.33301 -12.333 -18.333 -21 -27s-19.334 -16.334 -32.001 -23.001s-27.167 -12.167 -43.5 -16.5s-35.166 -6.5 -56.499 -6.5zM269 119.002c22.667 0 41.166 5.83301 55.499 17.5s21.5 27.167 21.5 46.5v27h-42c-33.333 0 -56.666 -3.66699 -69.999 -11
s-20 -20.333 -20 -39c0 -12.667 4.66699 -22.667 14 -30s23 -11 41 -11zM136.999 712.002h316v-107h-316v107z" />
    <glyph glyph-name="Abreve" unicode="&#x102;" horiz-adv-x="760" 
d="M234 715h293l224 -715h-240l-33 119h-226l-32 -119h-211zM295 273h141l-70 259zM378 749c-52 0 -92.667 13.665 -122 40.998s-45.666 66 -48.999 116h124c1.33301 -13.333 6 -23.666 14 -30.999s19 -11 33 -11c13.333 0 24.166 3.83301 32.499 11.5
s13.166 17.834 14.499 30.501h124c-3.33301 -50 -20.166 -88.667 -50.499 -116s-70.5 -41 -120.5 -41z" />
    <glyph glyph-name="abreve" unicode="&#x103;" horiz-adv-x="585" 
d="M198 -13c-23.333 0 -45.833 3.00195 -67.5 9.00195s-40.667 15.333 -57 28s-29.333 29 -39 49s-14.5 44 -14.5 72c0 61.333 24.167 105.166 72.5 131.499s117.833 39.5 208.5 39.5h45v9c0 10.667 -0.666992 20.667 -2 30s-4.16602 17.5 -8.49902 24.5
s-10.5 12.333 -18.5 16s-18.667 5.5 -32 5.5c-22.667 0 -38.334 -6 -47.001 -18s-13.667 -24.667 -15 -38h-184c2 32 9.5 60 22.5 84s30.667 44.167 53 60.5s49 28.5 80 36.5s65.167 12 102.5 12c76 0 135.667 -16.167 179 -48.5s65 -82.833 65 -151.5v-338h-190v60
c-5.33301 -9.33301 -12.333 -18.333 -21 -27s-19.334 -16.334 -32.001 -23.001s-27.167 -12.167 -43.5 -16.5s-35.166 -6.5 -56.499 -6.5zM269 119.002c22.667 0 41.166 5.83301 55.499 17.5s21.5 27.167 21.5 46.5v27h-42c-33.333 0 -56.666 -3.66699 -69.999 -11
s-20 -20.333 -20 -39c0 -12.667 4.66699 -22.667 14 -30s23 -11 41 -11zM294.999 581.002c-50.667 0 -90.8301 13.833 -120.497 41.5s-45.834 68.167 -48.501 121.5h119c1.33301 -14 6.16602 -25 14.499 -33s20.166 -12 35.499 -12c14.667 0 26.5 4 35.5 12
s14.167 19 15.5 33h118c-3.33301 -53.333 -20.333 -93.833 -51 -121.5s-70 -41.5 -118 -41.5z" />
    <glyph glyph-name="Aogonek" unicode="&#x104;" horiz-adv-x="760" 
d="M646 -182c-40 0 -71.3311 7.33398 -93.998 22.001s-34 34.667 -34 60c0 12 2.66699 23 8 33s12.166 19.167 20.499 27.5s17.666 15.666 27.999 21.999s20.5 12.166 30.5 17.499h-94l-33 119h-226l-32 -119h-211l225 715h293l219 -700
c-19.333 -10.667 -34 -22.667 -44 -36s-15 -24.666 -15 -33.999c0 -16 9.33301 -24 28 -24c10.667 0 19 1.33301 25 4v-90c-8.66699 -4.66699 -21 -8.66699 -37 -12s-35 -5 -57 -5zM295.002 273.001h141l-70 259z" />
    <glyph glyph-name="aogonek" unicode="&#x105;" horiz-adv-x="585" 
d="M450 -182c-36.667 0 -65.668 7.1709 -87.001 21.5039s-32 34.166 -32 59.499c0 12.667 2.5 24.167 7.5 34.5s11.667 19.666 20 27.999s17.833 15.5 28.5 21.5s21.334 11.667 32.001 17h-68v60c-5.33301 -9.33301 -12.333 -18.333 -21 -27
s-19.334 -16.334 -32.001 -23.001s-27.167 -12.167 -43.5 -16.5s-35.166 -6.5 -56.499 -6.5c-23.333 0 -45.833 3 -67.5 9s-40.667 15.333 -57 28s-29.333 29 -39 49s-14.5 44 -14.5 72c0 61.333 24.167 105.166 72.5 131.499s117.833 39.5 208.5 39.5h45v9
c0 10.667 -0.666992 20.667 -2 30s-4.16602 17.5 -8.49902 24.5s-10.5 12.333 -18.5 16s-18.667 5.5 -32 5.5c-22.667 0 -38.334 -6 -47.001 -18s-13.667 -24.667 -15 -38h-184c2 32 9.5 60 22.5 84s30.667 44.167 53 60.5s49 28.5 80 36.5s65.167 12 102.5 12
c76 0 135.667 -16.167 179 -48.5s65 -82.833 65 -151.5v-326c-19.333 -14.667 -32.833 -27.667 -40.5 -39s-11.5 -22 -11.5 -32c0 -17.333 9.66699 -26 29 -26c10 0 18.667 1.33301 26 4v-84c-9.33301 -4.66699 -21.5 -8.66699 -36.5 -12s-34.167 -5 -57.5 -5z
M268.999 119.004c22.667 0 41.166 5.83301 55.499 17.5s21.5 27.167 21.5 46.5v27h-42c-33.333 0 -56.666 -3.66699 -69.999 -11s-20 -20.333 -20 -39c0 -12.667 4.66699 -22.667 14 -30s23 -11 41 -11z" />
    <glyph glyph-name="Cacute" unicode="&#x106;" horiz-adv-x="764" 
d="M408 -13c-64.667 0 -120.836 8.83301 -168.503 26.5s-87.167 42.5 -118.5 74.5s-54.666 70.5 -69.999 115.5s-23 94.833 -23 149.5v8c0 55.333 9.33301 105.5 28 150.5s44.5 83.333 77.5 115s72.167 56.167 117.5 73.5s94.333 26 147 26c48 0 92 -5.66699 132 -17
s74.667 -28.5 104 -51.5s53 -52.167 71 -87.5s29 -77.333 33 -126h-234c-3.33301 33.333 -13.666 58.833 -30.999 76.5s-42 26.5 -74 26.5c-41.333 0 -73.666 -15.667 -96.999 -47s-35 -77.333 -35 -138v-8c0 -60 11.667 -105.833 35 -137.5s57 -47.5 101 -47.5
c32 0 58.667 8.5 80 25.5s34 43.5 38 79.5h226c-3.33301 -47.333 -13.833 -88.833 -31.5 -124.5s-41.5 -65.5 -71.5 -89.5s-65 -42.167 -105 -54.5s-83.667 -18.5 -131 -18.5zM363.998 906h201l-103 -149h-149z" />
    <glyph glyph-name="cacute" unicode="&#x107;" horiz-adv-x="586" 
d="M300 -13c-39.333 0 -75.833 5.5 -109.5 16.5s-63 27.667 -88 50s-44.667 50.166 -59 83.499s-21.5 72.333 -21.5 117v8c0 44.667 7.33301 84 22 118s34.834 62.667 60.501 86s55.667 41 90 53s71.166 18 110.499 18c32.667 0 64.167 -3.83301 94.5 -11.5
s57.5 -20 81.5 -37s43.667 -39.667 59 -68s24.333 -62.833 27 -103.5h-185c-3.33301 21.333 -10.166 38.166 -20.499 50.499s-27.5 18.5 -51.5 18.5c-58.667 0 -88 -40 -88 -120v-8c0 -42.667 7.16699 -74.667 21.5 -96s37.5 -32 69.5 -32c22.667 0 41 6.83301 55 20.5
s22.333 33.167 25 58.5h177c-1.33301 -34 -7.83301 -64.667 -19.5 -92s-28.834 -50.666 -51.501 -69.999s-50.5 -34.166 -83.5 -44.499s-71.5 -15.5 -115.5 -15.5zM276 747h193l-104 -169h-141z" />
    <glyph glyph-name="Ccircumflex" unicode="&#x108;" horiz-adv-x="764" 
d="M408 -13c-64.667 0 -120.836 8.83301 -168.503 26.5s-87.167 42.5 -118.5 74.5s-54.666 70.5 -69.999 115.5s-23 94.833 -23 149.5v8c0 55.333 9.33301 105.5 28 150.5s44.5 83.333 77.5 115s72.167 56.167 117.5 73.5s94.333 26 147 26c48 0 92 -5.66699 132 -17
s74.667 -28.5 104 -51.5s53 -52.167 71 -87.5s29 -77.333 33 -126h-234c-3.33301 33.333 -13.666 58.833 -30.999 76.5s-42 26.5 -74 26.5c-41.333 0 -73.666 -15.667 -96.999 -47s-35 -77.333 -35 -138v-8c0 -60 11.667 -105.833 35 -137.5s57 -47.5 101 -47.5
c32 0 58.667 8.5 80 25.5s34 43.5 38 79.5h226c-3.33301 -47.333 -13.833 -88.833 -31.5 -124.5s-41.5 -65.5 -71.5 -89.5s-65 -42.167 -105 -54.5s-83.667 -18.5 -131 -18.5zM315.998 906h164l110 -149h-142l-54 47l-54 -47h-139z" />
    <glyph glyph-name="ccircumflex" unicode="&#x109;" horiz-adv-x="586" 
d="M300 -13c-39.333 0 -75.833 5.5 -109.5 16.5s-63 27.667 -88 50s-44.667 50.166 -59 83.499s-21.5 72.333 -21.5 117v8c0 44.667 7.33301 84 22 118s34.834 62.667 60.501 86s55.667 41 90 53s71.166 18 110.499 18c32.667 0 64.167 -3.83301 94.5 -11.5
s57.5 -20 81.5 -37s43.667 -39.667 59 -68s24.333 -62.833 27 -103.5h-185c-3.33301 21.333 -10.166 38.166 -20.499 50.499s-27.5 18.5 -51.5 18.5c-58.667 0 -88 -40 -88 -120v-8c0 -42.667 7.16699 -74.667 21.5 -96s37.5 -32 69.5 -32c22.667 0 41 6.83301 55 20.5
s22.333 33.167 25 58.5h177c-1.33301 -34 -7.83301 -64.667 -19.5 -92s-28.834 -50.666 -51.501 -69.999s-50.5 -34.166 -83.5 -44.499s-71.5 -15.5 -115.5 -15.5zM233 746h138l120 -166h-137l-56 53l-56 -53h-134z" />
    <glyph glyph-name="Cdotaccent" unicode="&#x10a;" horiz-adv-x="764" 
d="M408 -13c-64.667 0 -120.836 8.83301 -168.503 26.5s-87.167 42.5 -118.5 74.5s-54.666 70.5 -69.999 115.5s-23 94.833 -23 149.5v8c0 55.333 9.33301 105.5 28 150.5s44.5 83.333 77.5 115s72.167 56.167 117.5 73.5s94.333 26 147 26c48 0 92 -5.66699 132 -17
s74.667 -28.5 104 -51.5s53 -52.167 71 -87.5s29 -77.333 33 -126h-234c-3.33301 33.333 -13.666 58.833 -30.999 76.5s-42 26.5 -74 26.5c-41.333 0 -73.666 -15.667 -96.999 -47s-35 -77.333 -35 -138v-8c0 -60 11.667 -105.833 35 -137.5s57 -47.5 101 -47.5
c32 0 58.667 8.5 80 25.5s34 43.5 38 79.5h226c-3.33301 -47.333 -13.833 -88.833 -31.5 -124.5s-41.5 -65.5 -71.5 -89.5s-65 -42.167 -105 -54.5s-83.667 -18.5 -131 -18.5zM395.998 752c-30 0 -54.667 9 -74 27s-29 40.667 -29 68c0 28 9.66699 51 29 69s44 27 74 27
c29.333 0 53.666 -9 72.999 -27s29 -41 29 -69c0 -27.333 -9.66699 -50 -29 -68s-43.666 -27 -72.999 -27z" />
    <glyph glyph-name="cdotaccent" unicode="&#x10b;" horiz-adv-x="586" 
d="M300 -13c-39.333 0 -75.833 5.5 -109.5 16.5s-63 27.667 -88 50s-44.667 50.166 -59 83.499s-21.5 72.333 -21.5 117v8c0 44.667 7.33301 84 22 118s34.834 62.667 60.501 86s55.667 41 90 53s71.166 18 110.499 18c32.667 0 64.167 -3.83301 94.5 -11.5
s57.5 -20 81.5 -37s43.667 -39.667 59 -68s24.333 -62.833 27 -103.5h-185c-3.33301 21.333 -10.166 38.166 -20.499 50.499s-27.5 18.5 -51.5 18.5c-58.667 0 -88 -40 -88 -120v-8c0 -42.667 7.16699 -74.667 21.5 -96s37.5 -32 69.5 -32c22.667 0 41 6.83301 55 20.5
s22.333 33.167 25 58.5h177c-1.33301 -34 -7.83301 -64.667 -19.5 -92s-28.834 -50.666 -51.501 -69.999s-50.5 -34.166 -83.5 -44.499s-71.5 -15.5 -115.5 -15.5zM303 570c-30 0 -54.667 8.83301 -74 26.5s-29 40.5 -29 68.5s9.66699 51 29 69s44 27 74 27
c29.333 0 53.833 -9 73.5 -27s29.5 -41 29.5 -69s-9.83301 -50.833 -29.5 -68.5s-44.167 -26.5 -73.5 -26.5z" />
    <glyph glyph-name="Ccaron" unicode="&#x10c;" horiz-adv-x="764" 
d="M408 -13c-64.667 0 -120.836 8.83301 -168.503 26.5s-87.167 42.5 -118.5 74.5s-54.666 70.5 -69.999 115.5s-23 94.833 -23 149.5v8c0 55.333 9.33301 105.5 28 150.5s44.5 83.333 77.5 115s72.167 56.167 117.5 73.5s94.333 26 147 26c48 0 92 -5.66699 132 -17
s74.667 -28.5 104 -51.5s53 -52.167 71 -87.5s29 -77.333 33 -126h-234c-3.33301 33.333 -13.666 58.833 -30.999 76.5s-42 26.5 -74 26.5c-41.333 0 -73.666 -15.667 -96.999 -47s-35 -77.333 -35 -138v-8c0 -60 11.667 -105.833 35 -137.5s57 -47.5 101 -47.5
c32 0 58.667 8.5 80 25.5s34 43.5 38 79.5h226c-3.33301 -47.333 -13.833 -88.833 -31.5 -124.5s-41.5 -65.5 -71.5 -89.5s-65 -42.167 -105 -54.5s-83.667 -18.5 -131 -18.5zM199.998 906h142l54 -47l54 47h139l-115 -149h-164z" />
    <glyph glyph-name="ccaron" unicode="&#x10d;" horiz-adv-x="586" 
d="M300 -13c-39.333 0 -75.833 5.5 -109.5 16.5s-63 27.667 -88 50s-44.667 50.166 -59 83.499s-21.5 72.333 -21.5 117v8c0 44.667 7.33301 84 22 118s34.834 62.667 60.501 86s55.667 41 90 53s71.166 18 110.499 18c32.667 0 64.167 -3.83301 94.5 -11.5
s57.5 -20 81.5 -37s43.667 -39.667 59 -68s24.333 -62.833 27 -103.5h-185c-3.33301 21.333 -10.166 38.166 -20.499 50.499s-27.5 18.5 -51.5 18.5c-58.667 0 -88 -40 -88 -120v-8c0 -42.667 7.16699 -74.667 21.5 -96s37.5 -32 69.5 -32c22.667 0 41 6.83301 55 20.5
s22.333 33.167 25 58.5h177c-1.33301 -34 -7.83301 -64.667 -19.5 -92s-28.834 -50.666 -51.501 -69.999s-50.5 -34.166 -83.5 -44.499s-71.5 -15.5 -115.5 -15.5zM108 746h137l56 -52l56 52h134l-125 -166h-138z" />
    <glyph glyph-name="Dcaron" unicode="&#x10e;" horiz-adv-x="751" 
d="M330 174c56 0 96.334 14.332 121.001 42.999s37 74.334 37 137.001v8c0 65.333 -12.833 111.5 -38.5 138.5s-65.834 40.5 -120.501 40.5h-37v-367h38zM65.001 714.999h273c128.667 0 225.167 -29.667 289.5 -89s96.5 -146 96.5 -260v-7
c0 -114.667 -32.667 -203.167 -98 -265.5s-161.333 -93.5 -288 -93.5h-273v715zM144.001 905.999h142l54 -47l54 47h139l-115 -149h-164z" />
    <glyph glyph-name="dcaron" unicode="&#x10f;" horiz-adv-x="645" 
d="M241 -13c-29.333 0 -57.167 5.33398 -83.5 16.001s-49.5 27.167 -69.5 49.5s-35.833 50.333 -47.5 84s-17.5 73.5 -17.5 119.5v8c0 45.333 5.83301 85.166 17.5 119.499s27.334 62.833 47.001 85.5s42.667 39.667 69 51s54.5 17 84.5 17
c41.333 0 74.666 -7.66699 99.999 -23s45.333 -36.333 60 -63v299h197v-750h-197v84c-13.333 -27.333 -33.333 -50.333 -60 -69s-60 -28 -100 -28zM313.999 137.001c30 0 52.833 10.332 68.5 30.999s23.5 51.334 23.5 92.001v8c0 40 -7.66699 70.5 -23 91.5
s-38 31.5 -68 31.5c-61.333 0 -92 -41.333 -92 -124v-8c0 -40.667 7.83301 -71.167 23.5 -91.5s38.167 -30.5 67.5 -30.5zM639.999 750h140l-50 -175h-98z" />
    <glyph glyph-name="Dcroat" unicode="&#x110;" horiz-adv-x="785" 
d="M29 435h53.998v280h273c128.667 0 225.334 -29.667 290.001 -89s97 -146 97 -260v-7c0 -114.667 -32.667 -203.167 -98 -265.5s-161.666 -93.5 -288.999 -93.5h-273v284h-54v151zM348.998 174c56 0 96.168 14.332 120.501 42.999s36.5 74.334 36.5 137.001v8
c0 65.333 -12.833 111.5 -38.5 138.5s-65.834 40.5 -120.501 40.5h-41v-106h104v-151h-104v-110h43z" />
    <glyph glyph-name="dcroat" unicode="&#x111;" horiz-adv-x="645" 
d="M250 684l150.999 0.000976562v66h197v-66h53v-103h-53v-581h-197v84c-13.333 -27.333 -33.333 -50.333 -60 -69s-60 -28 -100 -28c-29.333 0 -57.166 5.33301 -83.499 16s-49.5 27.167 -69.5 49.5s-35.833 50.333 -47.5 84s-17.5 73.5 -17.5 119.5v8
c0 45.333 5.83301 85.166 17.5 119.499s27.334 62.833 47.001 85.5s42.667 39.667 69 51s54.5 17 84.5 17c41.333 0 74.666 -7.66699 99.999 -23s45.333 -36.333 60 -63v130h-151v103zM313.999 137.001c30 0 52.833 10.332 68.5 30.999s23.5 51.334 23.5 92.001v8
c0 40 -7.66699 70.5 -23 91.5s-38 31.5 -68 31.5c-61.333 0 -92 -41.333 -92 -124v-8c0 -40.667 7.83301 -71.167 23.5 -91.5s38.167 -30.5 67.5 -30.5z" />
    <glyph glyph-name="Emacron" unicode="&#x112;" horiz-adv-x="620" 
d="M65 715h508v-174h-282v-101h224v-159h-224v-107h298v-174h-524v715zM160 884h333v-115h-333v115z" />
    <glyph glyph-name="emacron" unicode="&#x113;" horiz-adv-x="604" 
d="M311 -13c-42 0 -80.668 5.83105 -116.001 17.498s-65.833 28.834 -91.5 51.501s-45.834 50.667 -60.501 84s-22 71.666 -22 114.999v8c0 42.667 7.66699 81 23 115s36 62.833 62 86.5s56.667 41.834 92 54.501s73 19 113 19c36.667 0 71.5 -5.33301 104.5 -16
s61.833 -27.167 86.5 -49.5s44.334 -50.666 59.001 -84.999s22 -74.833 22 -121.5v-48h-363c2.66699 -32 12.667 -56.167 30 -72.5s40 -24.5 68 -24.5s47.833 5.5 59.5 16.5s19.167 24.167 22.5 39.5h184c-8 -60.667 -34.667 -107.5 -80 -140.5
s-109.666 -49.5 -192.999 -49.5zM392.999 320.998c-1.33301 28 -8.66699 50 -22 66s-33.333 24 -60 24c-24 0 -44 -7.5 -60 -22.5s-26 -37.5 -30 -67.5h172zM147.998 711.998h316v-107h-316v107z" />
    <glyph glyph-name="Ebreve" unicode="&#x114;" horiz-adv-x="620" 
d="M65 715h508v-174h-282v-101h224v-159h-224v-107h298v-174h-524v715zM325 749c-52 0 -92.667 13.665 -122 40.998s-45.666 66 -48.999 116h124c1.33301 -13.333 6 -23.666 14 -30.999s19 -11 33 -11c13.333 0 24.166 3.83301 32.499 11.5s13.166 17.834 14.499 30.501h124
c-3.33301 -50 -20.166 -88.667 -50.499 -116s-70.5 -41 -120.5 -41z" />
    <glyph glyph-name="ebreve" unicode="&#x115;" horiz-adv-x="604" 
d="M311 -13c-42 0 -80.668 5.83105 -116.001 17.498s-65.833 28.834 -91.5 51.501s-45.834 50.667 -60.501 84s-22 71.666 -22 114.999v8c0 42.667 7.66699 81 23 115s36 62.833 62 86.5s56.667 41.834 92 54.501s73 19 113 19c36.667 0 71.5 -5.33301 104.5 -16
s61.833 -27.167 86.5 -49.5s44.334 -50.666 59.001 -84.999s22 -74.833 22 -121.5v-48h-363c2.66699 -32 12.667 -56.167 30 -72.5s40 -24.5 68 -24.5s47.833 5.5 59.5 16.5s19.167 24.167 22.5 39.5h184c-8 -60.667 -34.667 -107.5 -80 -140.5
s-109.666 -49.5 -192.999 -49.5zM392.999 320.998c-1.33301 28 -8.66699 50 -22 66s-33.333 24 -60 24c-24 0 -44 -7.5 -60 -22.5s-26 -37.5 -30 -67.5h172zM300.998 580.998c-50.667 0 -90.8301 13.833 -120.497 41.5s-45.834 68.167 -48.501 121.5h119
c1.33301 -14 6.16602 -25 14.499 -33s20.166 -12 35.499 -12c14.667 0 26.5 4 35.5 12s14.167 19 15.5 33h118c-3.33301 -53.333 -20.333 -93.833 -51 -121.5s-70 -41.5 -118 -41.5z" />
    <glyph glyph-name="Edotaccent" unicode="&#x116;" horiz-adv-x="620" 
d="M65 715h508v-174h-282v-101h224v-159h-224v-107h298v-174h-524v715zM327 752c-30 0 -54.667 9 -74 27s-29 40.667 -29 68c0 28 9.66699 51 29 69s44 27 74 27c29.333 0 53.666 -9 72.999 -27s29 -41 29 -69c0 -27.333 -9.66699 -50 -29 -68s-43.666 -27 -72.999 -27z" />
    <glyph glyph-name="edotaccent" unicode="&#x117;" horiz-adv-x="604" 
d="M311 -13c-42 0 -80.668 5.83105 -116.001 17.498s-65.833 28.834 -91.5 51.501s-45.834 50.667 -60.501 84s-22 71.666 -22 114.999v8c0 42.667 7.66699 81 23 115s36 62.833 62 86.5s56.667 41.834 92 54.501s73 19 113 19c36.667 0 71.5 -5.33301 104.5 -16
s61.833 -27.167 86.5 -49.5s44.334 -50.666 59.001 -84.999s22 -74.833 22 -121.5v-48h-363c2.66699 -32 12.667 -56.167 30 -72.5s40 -24.5 68 -24.5s47.833 5.5 59.5 16.5s19.167 24.167 22.5 39.5h184c-8 -60.667 -34.667 -107.5 -80 -140.5
s-109.666 -49.5 -192.999 -49.5zM392.999 320.998c-1.33301 28 -8.66699 50 -22 66s-33.333 24 -60 24c-24 0 -44 -7.5 -60 -22.5s-26 -37.5 -30 -67.5h172zM306.998 569.998c-30 0 -54.667 8.83301 -74 26.5s-29 40.5 -29 68.5s9.66699 51 29 69s44 27 74 27
c29.333 0 53.833 -9 73.5 -27s29.5 -41 29.5 -69s-9.83301 -50.833 -29.5 -68.5s-44.167 -26.5 -73.5 -26.5z" />
    <glyph glyph-name="Eogonek" unicode="&#x118;" horiz-adv-x="620" 
d="M470 -182c-39.333 0 -69.999 7.33398 -91.999 22.001s-33 34.667 -33 60c0 12 2.5 23 7.5 33s11.667 19.167 20 27.5s17.666 15.666 27.999 21.999s20.5 12.166 30.5 17.499h-366v715h508v-174h-282v-101h224v-159h-224v-107h298v-174h-40
c-12 -10.667 -21 -20.167 -27 -28.5s-9 -17.166 -9 -26.499c0 -16 9.33301 -24 28 -24c10 0 18.667 1.33301 26 4v-90c-9.33301 -4.66699 -22 -8.66699 -38 -12s-35.667 -5 -59 -5z" />
    <glyph glyph-name="eogonek" unicode="&#x119;" horiz-adv-x="604" 
d="M408 -182c-36.667 0 -66.0029 6.8291 -88.0029 20.4961s-33 33.167 -33 58.5c0 10.667 2.5 20.5 7.5 29.5s11.5 17.333 19.5 25s17.167 14.834 27.5 21.501l30.5 19c-8.66699 -1.33301 -18.667 -2.5 -30 -3.5s-21.666 -1.5 -30.999 -1.5c-42 0 -80.667 5.83301 -116 17.5
s-65.833 28.834 -91.5 51.501s-45.834 50.667 -60.501 84s-22 71.666 -22 114.999v8c0 42.667 7.66699 81 23 115s36 62.833 62 86.5s56.667 41.834 92 54.501s73 19 113 19c36.667 0 71.5 -5.33301 104.5 -16s61.833 -27.167 86.5 -49.5s44.334 -50.666 59.001 -84.999
s22 -74.833 22 -121.5v-48h-363c2.66699 -32 12.667 -56.167 30 -72.5s40 -24.5 68 -24.5s47.833 5.5 59.5 16.5s19.167 24.167 22.5 39.5h184c-4 -32.667 -12.833 -59.5 -26.5 -80.5s-27.5 -38.833 -41.5 -53.5c-21.333 -22 -38.5 -40.667 -51.5 -56
s-19.5 -30.666 -19.5 -45.999c0 -17.333 9.66699 -26 29 -26c10 0 18.667 1.33301 26 4v-84c-9.33301 -4.66699 -20.666 -8.66699 -33.999 -12s-32.666 -5 -57.999 -5zM392.997 320.996c-1.33301 28 -8.66699 50 -22 66s-33.333 24 -60 24c-24 0 -44 -7.5 -60 -22.5
s-26 -37.5 -30 -67.5h172z" />
    <glyph glyph-name="Ecaron" unicode="&#x11a;" horiz-adv-x="620" 
d="M65 715h508v-174h-282v-101h224v-159h-224v-107h298v-174h-524v715zM131 906h142l54 -47l54 47h139l-115 -149h-164z" />
    <glyph glyph-name="ecaron" unicode="&#x11b;" horiz-adv-x="604" 
d="M311 -13c-42 0 -80.668 5.83105 -116.001 17.498s-65.833 28.834 -91.5 51.501s-45.834 50.667 -60.501 84s-22 71.666 -22 114.999v8c0 42.667 7.66699 81 23 115s36 62.833 62 86.5s56.667 41.834 92 54.501s73 19 113 19c36.667 0 71.5 -5.33301 104.5 -16
s61.833 -27.167 86.5 -49.5s44.334 -50.666 59.001 -84.999s22 -74.833 22 -121.5v-48h-363c2.66699 -32 12.667 -56.167 30 -72.5s40 -24.5 68 -24.5s47.833 5.5 59.5 16.5s19.167 24.167 22.5 39.5h184c-8 -60.667 -34.667 -107.5 -80 -140.5
s-109.666 -49.5 -192.999 -49.5zM392.999 320.998c-1.33301 28 -8.66699 50 -22 66s-33.333 24 -60 24c-24 0 -44 -7.5 -60 -22.5s-26 -37.5 -30 -67.5h172zM113.998 745.998h137l56 -52l56 52h134l-125 -166h-138z" />
    <glyph glyph-name="Gcircumflex" unicode="&#x11c;" horiz-adv-x="791" 
d="M407 -13c-62 0 -116.663 9 -163.996 27s-87 43.167 -119 75.5s-56.167 70.833 -72.5 115.5s-24.5 94 -24.5 148v8c0 54.667 9.66699 104.5 29 149.5s46 83.5 80 115.5s74.167 56.667 120.5 74s96.5 26 150.5 26c43.333 0 84.833 -5.16699 124.5 -15.5s75 -26.333 106 -48
s56.167 -49.5 75.5 -83.5s30.666 -75 33.999 -123h-224c-4 30 -15.333 52.833 -34 68.5s-45.667 23.5 -81 23.5c-45.333 0 -80.833 -16.667 -106.5 -50s-38.5 -80.333 -38.5 -141v-8c0 -26 2.5 -50.667 7.5 -74s13.167 -43.5 24.5 -60.5s26.666 -30.5 45.999 -40.5
s43.666 -15 72.999 -15c22.667 0 41.834 2.5 57.501 7.5s28.667 11.833 39 20.5s18 18.334 23 29.001s8.16699 22 9.5 34h-122v149h343v-92c0 -44.667 -7.33301 -86.334 -22 -125.001s-36.834 -72.5 -66.501 -101.5s-66.834 -51.833 -111.501 -68.5s-97 -25 -157 -25z
M325.004 906h164l110 -149h-142l-54 47l-54 -47h-139z" />
    <glyph glyph-name="gcircumflex" unicode="&#x11d;" horiz-adv-x="644" 
d="M299 -194c-90.667 0 -158.329 17.5 -202.996 52.5s-70.334 83.5 -77.001 145.5h195c2 -8 4.66699 -15.667 8 -23s8.16602 -14 14.499 -20s14.666 -10.667 24.999 -14s23.166 -5 38.499 -5c37.333 0 63.333 9.66699 78 29s22 43 22 71v81
c-13.333 -25.333 -33.333 -47 -60 -65s-59.667 -27 -99 -27c-30 0 -58.167 5.33301 -84.5 16s-49.5 26.5 -69.5 47.5s-35.833 46.833 -47.5 77.5s-17.5 66.334 -17.5 107.001v8c0 39.333 5.83301 74.5 17.5 105.5s27.334 57.333 47.001 79s42.667 38.167 69 49.5
s54.5 17 84.5 17c41.333 0 74.666 -7.83301 99.999 -23.5s45.333 -36.834 60 -63.501v72h197v-478c0 -78.667 -25.167 -138.167 -75.5 -178.5s-124.5 -60.5 -222.5 -60.5zM314.005 171c29.333 0 52 9.66797 68 29.001s24 45.666 24 78.999v7c0 32 -7.83301 57.667 -23.5 77
s-38.5 29 -68.5 29s-52.833 -9.5 -68.5 -28.5s-23.5 -45.167 -23.5 -78.5v-8c0 -32 7.83301 -57.667 23.5 -77s38.5 -29 68.5 -29zM240.005 746.001h138l120 -166h-137l-56 53l-56 -53h-134z" />
    <glyph glyph-name="Gbreve" unicode="&#x11e;" horiz-adv-x="791" 
d="M407 -13c-62 0 -116.663 9 -163.996 27s-87 43.167 -119 75.5s-56.167 70.833 -72.5 115.5s-24.5 94 -24.5 148v8c0 54.667 9.66699 104.5 29 149.5s46 83.5 80 115.5s74.167 56.667 120.5 74s96.5 26 150.5 26c43.333 0 84.833 -5.16699 124.5 -15.5s75 -26.333 106 -48
s56.167 -49.5 75.5 -83.5s30.666 -75 33.999 -123h-224c-4 30 -15.333 52.833 -34 68.5s-45.667 23.5 -81 23.5c-45.333 0 -80.833 -16.667 -106.5 -50s-38.5 -80.333 -38.5 -141v-8c0 -26 2.5 -50.667 7.5 -74s13.167 -43.5 24.5 -60.5s26.666 -30.5 45.999 -40.5
s43.666 -15 72.999 -15c22.667 0 41.834 2.5 57.501 7.5s28.667 11.833 39 20.5s18 18.334 23 29.001s8.16699 22 9.5 34h-122v149h343v-92c0 -44.667 -7.33301 -86.334 -22 -125.001s-36.834 -72.5 -66.501 -101.5s-66.834 -51.833 -111.501 -68.5s-97 -25 -157 -25z
M405.004 749c-52 0 -92.667 13.665 -122 40.998s-45.666 66 -48.999 116h124c1.33301 -13.333 6 -23.666 14 -30.999s19 -11 33 -11c13.333 0 24.166 3.83301 32.499 11.5s13.166 17.834 14.499 30.501h124c-3.33301 -50 -20.166 -88.667 -50.499 -116s-70.5 -41 -120.5 -41
z" />
    <glyph glyph-name="gbreve" unicode="&#x11f;" horiz-adv-x="644" 
d="M299 -194c-90.667 0 -158.329 17.5 -202.996 52.5s-70.334 83.5 -77.001 145.5h195c2 -8 4.66699 -15.667 8 -23s8.16602 -14 14.499 -20s14.666 -10.667 24.999 -14s23.166 -5 38.499 -5c37.333 0 63.333 9.66699 78 29s22 43 22 71v81
c-13.333 -25.333 -33.333 -47 -60 -65s-59.667 -27 -99 -27c-30 0 -58.167 5.33301 -84.5 16s-49.5 26.5 -69.5 47.5s-35.833 46.833 -47.5 77.5s-17.5 66.334 -17.5 107.001v8c0 39.333 5.83301 74.5 17.5 105.5s27.334 57.333 47.001 79s42.667 38.167 69 49.5
s54.5 17 84.5 17c41.333 0 74.666 -7.83301 99.999 -23.5s45.333 -36.834 60 -63.501v72h197v-478c0 -78.667 -25.167 -138.167 -75.5 -178.5s-124.5 -60.5 -222.5 -60.5zM314.005 171c29.333 0 52 9.66797 68 29.001s24 45.666 24 78.999v7c0 32 -7.83301 57.667 -23.5 77
s-38.5 29 -68.5 29s-52.833 -9.5 -68.5 -28.5s-23.5 -45.167 -23.5 -78.5v-8c0 -32 7.83301 -57.667 23.5 -77s38.5 -29 68.5 -29zM307.005 581.001c-50.667 0 -90.8301 13.833 -120.497 41.5s-45.834 68.167 -48.501 121.5h119c1.33301 -14 6.16602 -25 14.499 -33
s20.166 -12 35.499 -12c14.667 0 26.5 4 35.5 12s14.167 19 15.5 33h118c-3.33301 -53.333 -20.333 -93.833 -51 -121.5s-70 -41.5 -118 -41.5z" />
    <glyph glyph-name="Gdotaccent" unicode="&#x120;" horiz-adv-x="791" 
d="M407 -13c-62 0 -116.663 9 -163.996 27s-87 43.167 -119 75.5s-56.167 70.833 -72.5 115.5s-24.5 94 -24.5 148v8c0 54.667 9.66699 104.5 29 149.5s46 83.5 80 115.5s74.167 56.667 120.5 74s96.5 26 150.5 26c43.333 0 84.833 -5.16699 124.5 -15.5s75 -26.333 106 -48
s56.167 -49.5 75.5 -83.5s30.666 -75 33.999 -123h-224c-4 30 -15.333 52.833 -34 68.5s-45.667 23.5 -81 23.5c-45.333 0 -80.833 -16.667 -106.5 -50s-38.5 -80.333 -38.5 -141v-8c0 -26 2.5 -50.667 7.5 -74s13.167 -43.5 24.5 -60.5s26.666 -30.5 45.999 -40.5
s43.666 -15 72.999 -15c22.667 0 41.834 2.5 57.501 7.5s28.667 11.833 39 20.5s18 18.334 23 29.001s8.16699 22 9.5 34h-122v149h343v-92c0 -44.667 -7.33301 -86.334 -22 -125.001s-36.834 -72.5 -66.501 -101.5s-66.834 -51.833 -111.501 -68.5s-97 -25 -157 -25z
M405.004 752c-30 0 -54.667 9 -74 27s-29 40.667 -29 68c0 28 9.66699 51 29 69s44 27 74 27c29.333 0 53.666 -9 72.999 -27s29 -41 29 -69c0 -27.333 -9.66699 -50 -29 -68s-43.666 -27 -72.999 -27z" />
    <glyph glyph-name="gdotaccent" unicode="&#x121;" horiz-adv-x="644" 
d="M299 -194c-90.667 0 -158.329 17.5 -202.996 52.5s-70.334 83.5 -77.001 145.5h195c2 -8 4.66699 -15.667 8 -23s8.16602 -14 14.499 -20s14.666 -10.667 24.999 -14s23.166 -5 38.499 -5c37.333 0 63.333 9.66699 78 29s22 43 22 71v81
c-13.333 -25.333 -33.333 -47 -60 -65s-59.667 -27 -99 -27c-30 0 -58.167 5.33301 -84.5 16s-49.5 26.5 -69.5 47.5s-35.833 46.833 -47.5 77.5s-17.5 66.334 -17.5 107.001v8c0 39.333 5.83301 74.5 17.5 105.5s27.334 57.333 47.001 79s42.667 38.167 69 49.5
s54.5 17 84.5 17c41.333 0 74.666 -7.83301 99.999 -23.5s45.333 -36.834 60 -63.501v72h197v-478c0 -78.667 -25.167 -138.167 -75.5 -178.5s-124.5 -60.5 -222.5 -60.5zM314.005 171c29.333 0 52 9.66797 68 29.001s24 45.666 24 78.999v7c0 32 -7.83301 57.667 -23.5 77
s-38.5 29 -68.5 29s-52.833 -9.5 -68.5 -28.5s-23.5 -45.167 -23.5 -78.5v-8c0 -32 7.83301 -57.667 23.5 -77s38.5 -29 68.5 -29zM308.005 570.001c-30 0 -54.667 8.83301 -74 26.5s-29 40.5 -29 68.5s9.66699 51 29 69s44 27 74 27c29.333 0 53.833 -9 73.5 -27
s29.5 -41 29.5 -69s-9.83301 -50.833 -29.5 -68.5s-44.167 -26.5 -73.5 -26.5z" />
    <glyph glyph-name="uni0122" unicode="&#x122;" horiz-adv-x="790" 
d="M407 -13c-62 0 -116.663 9 -163.996 27s-87 43.167 -119 75.5s-56.167 70.833 -72.5 115.5s-24.5 94 -24.5 148v8c0 54.667 9.66699 104.5 29 149.5s46 83.5 80 115.5s74.167 56.667 120.5 74s96.5 26 150.5 26c43.333 0 84.833 -5.16699 124.5 -15.5s75 -26.333 106 -48
s56.167 -49.5 75.5 -83.5s30.666 -75 33.999 -123h-224c-4 30 -15.333 52.833 -34 68.5s-45.667 23.5 -81 23.5c-45.333 0 -80.833 -16.667 -106.5 -50s-38.5 -80.333 -38.5 -141v-8c0 -26 2.5 -50.667 7.5 -74s13.167 -43.5 24.5 -60.5s26.666 -30.5 45.999 -40.5
s43.666 -15 72.999 -15c22.667 0 41.834 2.5 57.501 7.5s28.667 11.833 39 20.5s18 18.334 23 29.001s8.16699 22 9.5 34h-122v149h343v-92c0 -44.667 -7.33301 -86.334 -22 -125.001s-36.834 -72.5 -66.501 -101.5s-66.834 -51.833 -111.501 -68.5s-97 -25 -157 -25z
M283.004 -206l39 175l172 -12l-101 -190z" />
    <glyph glyph-name="uni0123" unicode="&#x123;" horiz-adv-x="644" 
d="M299 -194c-90.667 0 -158.329 17.5 -202.996 52.5s-70.334 83.5 -77.001 145.5h195c2 -8 4.66699 -15.667 8 -23s8.16602 -14 14.499 -20s14.666 -10.667 24.999 -14s23.166 -5 38.499 -5c37.333 0 63.333 9.66699 78 29s22 43 22 71v81
c-13.333 -25.333 -33.333 -47 -60 -65s-59.667 -27 -99 -27c-30 0 -58.167 5.33301 -84.5 16s-49.5 26.5 -69.5 47.5s-35.833 46.833 -47.5 77.5s-17.5 66.334 -17.5 107.001v8c0 39.333 5.83301 74.5 17.5 105.5s27.334 57.333 47.001 79s42.667 38.167 69 49.5
s54.5 17 84.5 17c41.333 0 74.666 -7.83301 99.999 -23.5s45.333 -36.834 60 -63.501v72h197v-478c0 -78.667 -25.167 -138.167 -75.5 -178.5s-124.5 -60.5 -222.5 -60.5zM314.005 171c29.333 0 52 9.66797 68 29.001s24 45.666 24 78.999v7c0 32 -7.83301 57.667 -23.5 77
s-38.5 29 -68.5 29s-52.833 -9.5 -68.5 -28.5s-23.5 -45.167 -23.5 -78.5v-8c0 -32 7.83301 -57.667 23.5 -77s38.5 -29 68.5 -29zM227.005 577.001l101 190l110 -27l-39 -175z" />
    <glyph glyph-name="Hcircumflex" unicode="&#x124;" horiz-adv-x="794" 
d="M65 715h227v-264h210v264h227v-715h-227v275h-210v-275h-227v715zM316 906h164l110 -149h-142l-54 47l-54 -47h-139z" />
    <glyph glyph-name="hcircumflex" unicode="&#x125;" horiz-adv-x="629" 
d="M47 750h196.998v-311c14.667 28 36.167 51.333 64.5 70s64.5 28 108.5 28c24.667 0 47.334 -4 68.001 -12s38.334 -20 53.001 -36s26.167 -36 34.5 -60s12.5 -52.333 12.5 -85v-344h-197v300c0 26.667 -5.16699 46.667 -15.5 60s-27.166 20 -50.499 20
c-24.667 0 -43.834 -7.33301 -57.501 -22s-20.5 -37.667 -20.5 -69v-289h-197v750zM237.998 928h164l110 -149h-142l-54 47l-54 -47h-139z" />
    <glyph glyph-name="Hbar" unicode="&#x126;" horiz-adv-x="794" 
d="M7 627h58v88h227v-88h210v88h227v-88h58v-101h-58v-526h-227v275h-210v-275h-227v526h-58v101zM502 451v75h-210v-75h210z" />
    <glyph glyph-name="hbar" unicode="&#x127;" horiz-adv-x="629" 
d="M-6 684h52.998v66h197v-66h151v-103h-151v-142c14.667 28 36.167 51.333 64.5 70s64.5 28 108.5 28c24.667 0 47.334 -4 68.001 -12s38.334 -20 53.001 -36s26.167 -36 34.5 -60s12.5 -52.333 12.5 -85v-344h-197v300c0 26.667 -5.16699 46.667 -15.5 60
s-27.166 20 -50.499 20c-24.667 0 -43.834 -7.33301 -57.501 -22s-20.5 -37.667 -20.5 -69v-289h-197v581h-53v103z" />
    <glyph glyph-name="Itilde" unicode="&#x128;" horiz-adv-x="366" 
d="M68 715h229v-715h-229v715zM249 755c-14.667 0 -27.667 1.66699 -39 5s-21.833 7 -31.5 11l-26.5 11c-8 3.33301 -16 5 -24 5s-14.667 -2.66699 -20 -8s-8.66602 -12.666 -9.99902 -21.999h-109c2 28 6.66699 52 14 72s16.666 36.5 27.999 49.5s24.166 22.667 38.499 29
s29.5 9.5 45.5 9.5c14 0 26.667 -1.66699 38 -5s22 -7 32 -11l28 -11c8.66699 -3.33301 17.334 -5 26.001 -5s15.334 2.66699 20.001 8s7.66699 12.666 9 21.999h110c-2 -28 -7 -52 -15 -72s-17.833 -36.5 -29.5 -49.5s-24.834 -22.667 -39.501 -29s-29.667 -9.5 -45 -9.5z
" />
    <glyph glyph-name="itilde" unicode="&#x129;" horiz-adv-x="303" 
d="M53 523h196v-523h-196v523zM218 581c-14.667 0 -27.6689 1.66797 -39.002 5.00098s-21.666 7 -30.999 11l-25.5 11c-7.66699 3.33301 -15.167 5 -22.5 5c-8 0 -14.667 -2.83301 -20 -8.5s-8.66602 -12.834 -9.99902 -21.501h-104
c3.33301 55.333 15.833 96.166 37.5 122.499s48.5 39.5 80.5 39.5c14 0 26.5 -1.66699 37.5 -5s21.333 -7 31 -11l27.5 -11c8.66699 -3.33301 17 -5 25 -5c16.667 0 26.667 10.333 30 31h104c-2 -28 -6.5 -52.167 -13.5 -72.5s-15.833 -37.166 -26.5 -50.499
s-23 -23.333 -37 -30s-28.667 -10 -44 -10z" />
    <glyph glyph-name="Imacron" unicode="&#x12a;" horiz-adv-x="366" 
d="M68 715h229v-715h-229v715zM16 884h333v-115h-333v115z" />
    <glyph glyph-name="imacron" unicode="&#x12b;" horiz-adv-x="303" 
d="M24 712h255v-107h-255v107zM53 523h196v-523h-196v523z" />
    <glyph glyph-name="Ibreve" unicode="&#x12c;" horiz-adv-x="366" 
d="M68 715h229v-715h-229v715zM183 749c-52 0 -92.667 13.665 -122 40.998s-45.666 66 -48.999 116h124c1.33301 -13.333 6 -23.666 14 -30.999s19 -11 33 -11c13.333 0 24.166 3.83301 32.499 11.5s13.166 17.834 14.499 30.501h124
c-3.33301 -50 -20.166 -88.667 -50.499 -116s-70.5 -41 -120.5 -41z" />
    <glyph glyph-name="ibreve" unicode="&#x12d;" horiz-adv-x="303" 
d="M53 523h196v-523h-196v523zM152 581c-50.667 0 -90.8301 13.833 -120.497 41.5s-45.834 68.167 -48.501 121.5h119c1.33301 -14 6.16602 -25 14.499 -33s20.166 -12 35.499 -12c14.667 0 26.5 4 35.5 12s14.167 19 15.5 33h118
c-3.33301 -53.333 -20.333 -93.833 -51 -121.5s-70 -41.5 -118 -41.5z" />
    <glyph glyph-name="Iogonek" unicode="&#x12e;" horiz-adv-x="366" 
d="M205 -182c-40 0 -71.166 7.33301 -93.499 22s-33.5 34.667 -33.5 60c0 12 2.5 23 7.5 33s11.667 19.167 20 27.5s17.666 15.666 27.999 21.999s20.833 12.166 31.5 17.499h-97v715h229v-702c-15.333 -11.333 -27.5 -22.666 -36.5 -33.999s-13.5 -22.666 -13.5 -33.999
c0 -16 9.33301 -24 28 -24c10.667 0 19 1.33301 25 4v-90c-8.66699 -4.66699 -21 -8.66699 -37 -12s-35.333 -5 -58 -5z" />
    <glyph glyph-name="iogonek" unicode="&#x12f;" horiz-adv-x="303" 
d="M161 -182c-36.667 0 -65.666 7.33398 -86.999 22.001s-32 34.667 -32 60c0 12.667 2.5 24.167 7.5 34.5s11.667 19.5 20 27.5s17.666 15 27.999 21s20.833 11.667 31.5 17h-76v523h196v-513c-18.667 -14.667 -31.5 -27.334 -38.5 -38.001s-10.5 -21 -10.5 -31
c0 -17.333 9.66699 -26 29 -26c10.667 0 19 1.33301 25 4v-84c-8.66699 -4.66699 -20.167 -8.66699 -34.5 -12s-33.833 -5 -58.5 -5zM151.001 562.001c-30.667 0 -56.167 9.33301 -76.5 28s-30.5 42.334 -30.5 71.001c0 29.333 10.167 53.333 30.5 72s45.833 28 76.5 28
c30 0 55.167 -9.33301 75.5 -28s30.5 -42.667 30.5 -72c0 -28.667 -10.167 -52.334 -30.5 -71.001s-45.5 -28 -75.5 -28z" />
    <glyph glyph-name="Idotaccent" unicode="&#x130;" horiz-adv-x="366" 
d="M68 715h229v-715h-229v715zM184 752c-30 0 -54.667 9 -74 27s-29 40.667 -29 68c0 28 9.66699 51 29 69s44 27 74 27c29.333 0 53.666 -9 72.999 -27s29 -41 29 -69c0 -27.333 -9.66699 -50 -29 -68s-43.666 -27 -72.999 -27z" />
    <glyph glyph-name="dotlessi" unicode="&#x131;" horiz-adv-x="303" 
d="M53 523h196v-523h-196v523z" />
    <glyph glyph-name="IJ" unicode="&#x132;" horiz-adv-x="830" 
d="M68 715h229v-715h-229v715zM509 -9c-35.333 0 -63.001 2.33398 -83.001 7.00098s-37.667 10.667 -53 18v167c11.333 -3.33301 23.5 -6.33301 36.5 -9s29.167 -4 48.5 -4c26.667 0 48.334 6.66699 65.001 20s25 37.666 25 72.999v452h227v-453
c0 -89.333 -21.833 -156.833 -65.5 -202.5s-110.5 -68.5 -200.5 -68.5z" />
    <glyph glyph-name="ij" unicode="&#x133;" horiz-adv-x="303" 
d="M53 523h196v-523h-196v523zM151 562c-30.667 0 -56.167 9.33301 -76.5 28s-30.5 42.334 -30.5 71.001c0 29.333 10.167 53.333 30.5 72s45.833 28 76.5 28c30 0 55.167 -9.33301 75.5 -28s30.5 -42.667 30.5 -72c0 -28.667 -10.167 -52.334 -30.5 -71.001
s-45.5 -28 -75.5 -28zM293 -42c21.333 1.33301 36.832 6.33301 46.499 15s14.5 23 14.5 43v507h197v-512c0 -29.333 -4 -55.833 -12 -79.5s-21.667 -44 -41 -61s-45.666 -30.167 -78.999 -39.5s-75.333 -14 -126 -14v141zM452.999 562c-30.667 0 -56.167 9.33301 -76.5 28
s-30.5 42.334 -30.5 71.001c0 29.333 10.167 53.333 30.5 72s45.833 28 76.5 28c30 0 55.167 -9.33301 75.5 -28s30.5 -42.667 30.5 -72c0 -28.667 -10.167 -52.334 -30.5 -71.001s-45.5 -28 -75.5 -28z" />
    <glyph glyph-name="Jcircumflex" unicode="&#x134;" horiz-adv-x="489" 
d="M168 -9c-35.333 0 -63.001 2.33398 -83.001 7.00098s-37.667 10.667 -53 18v167c11.333 -3.33301 23.5 -6.33301 36.5 -9s29.167 -4 48.5 -4c26.667 0 48.334 6.66699 65.001 20s25 37.666 25 72.999v452h227v-453c0 -89.333 -21.833 -156.833 -65.5 -202.5
s-110.5 -68.5 -200.5 -68.5zM238.999 906.001h164l110 -149h-142l-54 47l-54 -47h-139z" />
    <glyph glyph-name="jcircumflex" unicode="&#x135;" horiz-adv-x="303" 
d="M-9 -42c21.333 1.33301 36.832 6.33301 46.499 15s14.5 23 14.5 43v507h197v-512c0 -29.333 -4 -55.833 -12 -79.5s-21.667 -44 -41 -61s-45.666 -30.167 -78.999 -39.5s-75.333 -14 -126 -14v141zM83.999 746h138l120 -166h-137l-56 53l-56 -53h-134z" />
    <glyph glyph-name="uni0136" unicode="&#x136;" horiz-adv-x="745" 
d="M65 715h227v-271l198 271h235l-251 -330l265 -385h-261l-186 286v-286h-227v715zM260 -206l39 175l172 -12l-101 -190z" />
    <glyph glyph-name="uni0137" unicode="&#x137;" horiz-adv-x="589" 
d="M47 750h197v-425l127 198h202l-161 -234l174 -289h-218l-124 218v-218h-197v750zM185 -206l39 175l172 -12l-101 -190z" />
    <glyph glyph-name="Lacute" unicode="&#x139;" horiz-adv-x="582" 
d="M65 715h227v-540h260v-175h-487v715zM150 906h201l-103 -149h-149z" />
    <glyph glyph-name="lacute" unicode="&#x13a;" horiz-adv-x="300" 
d="M52 750h196v-750h-196v750zM122 928h201l-103 -149h-149z" />
    <glyph glyph-name="uni013B" unicode="&#x13b;" horiz-adv-x="582" 
d="M65 715h227v-540h260v-175h-487v715zM183 -206l39 175l172 -12l-101 -190z" />
    <glyph glyph-name="uni013C" unicode="&#x13c;" horiz-adv-x="300" 
d="M52 750h196v-750h-196v750zM29 -206l39 175l172 -12l-101 -190z" />
    <glyph glyph-name="Lcaron" unicode="&#x13d;" horiz-adv-x="582" 
d="M368 715h158l-61 -180h-112zM65 715h227v-540h260v-175h-487v715z" />
    <glyph glyph-name="lcaron" unicode="&#x13e;" horiz-adv-x="300" 
d="M52 750h196v-750h-196v750zM291 750h140l-50 -175h-98z" />
    <glyph glyph-name="Ldot" unicode="&#x13f;" horiz-adv-x="613" 
d="M65 715h227v-540h260v-175h-487v715zM488 297c-16 0 -30.667 2.83301 -44 8.5s-24.833 13.167 -34.5 22.5s-17.334 20.5 -23.001 33.5s-8.5 27.167 -8.5 42.5c0 14.667 2.83301 28.667 8.5 42s13.334 24.833 23.001 34.5s21.167 17.334 34.5 23.001s28 8.5 44 8.5
s30.833 -2.83301 44.5 -8.5s25.5 -13.334 35.5 -23.001s17.833 -21.167 23.5 -34.5s8.5 -27.333 8.5 -42c0 -15.333 -2.83301 -29.5 -8.5 -42.5s-13.5 -24.167 -23.5 -33.5s-21.833 -16.833 -35.5 -22.5s-28.5 -8.5 -44.5 -8.5z" />
    <glyph glyph-name="ldot" unicode="&#x140;" horiz-adv-x="479" 
d="M52 750h196v-750h-196v750zM387 251c-16 0 -30.667 2.83301 -44 8.5s-24.833 13.167 -34.5 22.5s-17.334 20.5 -23.001 33.5s-8.5 27.167 -8.5 42.5c0 14.667 2.83301 28.667 8.5 42s13.334 24.833 23.001 34.5s21.167 17.334 34.5 23.001s28 8.5 44 8.5
s30.833 -2.83301 44.5 -8.5s25.5 -13.334 35.5 -23.001s17.833 -21.167 23.5 -34.5s8.5 -27.333 8.5 -42c0 -15.333 -2.83301 -29.5 -8.5 -42.5s-13.5 -24.167 -23.5 -33.5s-21.833 -16.833 -35.5 -22.5s-28.5 -8.5 -44.5 -8.5z" />
    <glyph glyph-name="Lslash" unicode="&#x141;" 
d="M22 340l61 21v354h228v-276l176 61v-116l-176 -61v-148h260v-175h-488v245l-61 -21v116z" />
    <glyph glyph-name="lslash" unicode="&#x142;" horiz-adv-x="344" 
d="M16 376l58 27v347h196v-256l61 29v-123l-61 -29v-371h-196v279l-58 -27v124z" />
    <glyph glyph-name="Nacute" unicode="&#x143;" horiz-adv-x="787" 
d="M65 715h254l203 -378v378h199v-715h-217l-239 428v-428h-200v715zM381 906h201l-103 -149h-149z" />
    <glyph glyph-name="nacute" unicode="&#x144;" horiz-adv-x="629" 
d="M47 523h196.998v-84c14.667 28 36.167 51.333 64.5 70s64.5 28 108.5 28c24.667 0 47.334 -4 68.001 -12s38.334 -20 53.001 -36s26.167 -36 34.5 -60s12.5 -52.333 12.5 -85v-344h-197v300c0 26.667 -5.16699 46.667 -15.5 60s-27.166 20 -50.499 20
c-24.667 0 -43.834 -7.33301 -57.501 -22s-20.5 -37.667 -20.5 -69v-289h-197v523zM291.998 747h193l-104 -169h-141z" />
    <glyph glyph-name="uni0145" unicode="&#x145;" horiz-adv-x="787" 
d="M65 715h254l203 -378v378h199v-715h-217l-239 428v-428h-200v715zM269 -206l39 175l172 -12l-101 -190z" />
    <glyph glyph-name="uni0146" unicode="&#x146;" horiz-adv-x="629" 
d="M47 523h196.998v-84c14.667 28 36.167 51.333 64.5 70s64.5 28 108.5 28c24.667 0 47.334 -4 68.001 -12s38.334 -20 53.001 -36s26.167 -36 34.5 -60s12.5 -52.333 12.5 -85v-344h-197v300c0 26.667 -5.16699 46.667 -15.5 60s-27.166 20 -50.499 20
c-24.667 0 -43.834 -7.33301 -57.501 -22s-20.5 -37.667 -20.5 -69v-289h-197v523zM192.998 -206l39 175l172 -12l-101 -190z" />
    <glyph glyph-name="Ncaron" unicode="&#x147;" horiz-adv-x="787" 
d="M65 715h254l203 -378v378h199v-715h-217l-239 428v-428h-200v715zM217 906h142l54 -47l54 47h139l-115 -149h-164z" />
    <glyph glyph-name="ncaron" unicode="&#x148;" horiz-adv-x="629" 
d="M47 523h196.998v-84c14.667 28 36.167 51.333 64.5 70s64.5 28 108.5 28c24.667 0 47.334 -4 68.001 -12s38.334 -20 53.001 -36s26.167 -36 34.5 -60s12.5 -52.333 12.5 -85v-344h-197v300c0 26.667 -5.16699 46.667 -15.5 60s-27.166 20 -50.499 20
c-24.667 0 -43.834 -7.33301 -57.501 -22s-20.5 -37.667 -20.5 -69v-289h-197v523zM122.998 746h137l56 -52l56 52h134l-125 -166h-138z" />
    <glyph glyph-name="napostrophe" unicode="&#x149;" horiz-adv-x="769" 
d="M186 523h196.998v-84c14.667 28 36.167 51.333 64.5 70s64.5 28 108.5 28c24.667 0 47.334 -4 68.001 -12s38.334 -20 53.001 -36s26.167 -36 34.5 -60s12.5 -52.333 12.5 -85v-344h-197v300c0 26.667 -5.16699 46.667 -15.5 60s-27.166 20 -50.499 20
c-24.667 0 -43.834 -7.33301 -57.501 -22s-20.5 -37.667 -20.5 -69v-289h-197v523zM-28.002 459l78 269l171 -55l-140 -256z" />
    <glyph glyph-name="Eng" unicode="&#x14a;" horiz-adv-x="787" 
d="M473 -192c-32.667 0 -58.333 2.16602 -77 6.49902s-35.667 9.83301 -51 16.5v159c11.333 -3.33301 22.333 -6.33301 33 -9s24.667 -4 42 -4c19.333 0 35.5 3.33301 48.5 10s21.833 17.334 26.5 32.001l-227 420v-439h-203v715h257l197 -384v384h202v-689
c0 -32 -5 -61.333 -15 -88s-25.333 -49.667 -46 -69s-46.5 -34.333 -77.5 -45s-67.5 -16 -109.5 -16z" />
    <glyph glyph-name="eng" unicode="&#x14b;" horiz-adv-x="629" 
d="M328 -42c21.333 1.33301 36.665 6.33301 45.998 15s14 23 14 43v284c0 26.667 -5.16699 46.667 -15.5 60s-27.166 20 -50.499 20c-24.667 0 -43.834 -7.33301 -57.501 -22s-20.5 -37.667 -20.5 -69v-289h-197v523h197v-84c14.667 28 36.167 51.333 64.5 70
s64.5 28 108.5 28c24.667 0 47.334 -4 68.001 -12s38.334 -20 53.001 -36s26.167 -36 34.5 -60s12.5 -52.333 12.5 -85v-333c0 -29.333 -4 -55.833 -12 -79.5s-21.667 -44 -41 -61s-45.5 -30.167 -78.5 -39.5s-74.833 -14 -125.5 -14v141z" />
    <glyph glyph-name="Omacron" unicode="&#x14c;" horiz-adv-x="820" 
d="M411 165c44.667 0 80.168 16.499 106.501 49.499s39.5 79.5 39.5 139.5v8c0 60.667 -13.333 107 -40 139s-62.667 48 -108 48c-44 0 -79.167 -15.833 -105.5 -47.5s-39.5 -78.167 -39.5 -139.5v-8c0 -61.333 13.167 -108.166 39.5 -140.499s62.166 -48.5 107.499 -48.5z
M405.001 -13.001c-58.667 0 -111.33 8.83301 -157.997 26.5s-86.334 42.667 -119.001 75s-57.667 71 -75 116s-26 94.5 -26 148.5v8c0 55.333 9.83301 105.5 29.5 150.5s46.667 83.333 81 115s74.833 56.167 121.5 73.5s96.667 26 150 26
c54.667 0 105.5 -8.16699 152.5 -24.5s87.667 -39.833 122 -70.5s61.166 -68.167 80.499 -112.5s29 -94.833 29 -151.5v-8c0 -56 -9.16699 -106.833 -27.5 -152.5s-44.5 -84.667 -78.5 -117s-74.833 -57.5 -122.5 -75.5s-100.834 -27 -159.501 -27zM242.005 883.999h333
v-115h-333v115z" />
    <glyph glyph-name="omacron" unicode="&#x14d;" horiz-adv-x="626" 
d="M314 132c60 0 90.001 42.333 90.001 127v7c0 41.333 -7.33301 72.666 -22 93.999s-37.334 32 -68.001 32c-30 0 -53 -10.167 -69 -30.5s-24 -51.166 -24 -92.499v-8c0 -86 31 -129 93 -129zM313.001 -13c-40.667 0 -78.6689 5.8291 -114.002 17.4961
s-66.166 29 -92.499 52s-47 51 -62 84s-22.5 71.167 -22.5 114.5v8c0 42.667 7.5 80.834 22.5 114.501s35.5 62.334 61.5 86.001s56.833 41.834 92.5 54.501s74.167 19 115.5 19c40.667 0 78.667 -6.16699 114 -18.5s66 -30 92 -53s46.5 -51.167 61.5 -84.5
s22.5 -71 22.5 -113v-8c0 -43.333 -7.5 -81.833 -22.5 -115.5s-35.667 -62.167 -62 -85.5s-57.166 -41.166 -92.499 -53.499s-73.333 -18.5 -114 -18.5zM153.999 711.996h316v-107h-316v107z" />
    <glyph glyph-name="Obreve" unicode="&#x14e;" horiz-adv-x="820" 
d="M411 165c44.667 0 80.168 16.499 106.501 49.499s39.5 79.5 39.5 139.5v8c0 60.667 -13.333 107 -40 139s-62.667 48 -108 48c-44 0 -79.167 -15.833 -105.5 -47.5s-39.5 -78.167 -39.5 -139.5v-8c0 -61.333 13.167 -108.166 39.5 -140.499s62.166 -48.5 107.499 -48.5z
M405.001 -13.001c-58.667 0 -111.33 8.83301 -157.997 26.5s-86.334 42.667 -119.001 75s-57.667 71 -75 116s-26 94.5 -26 148.5v8c0 55.333 9.83301 105.5 29.5 150.5s46.667 83.333 81 115s74.833 56.167 121.5 73.5s96.667 26 150 26
c54.667 0 105.5 -8.16699 152.5 -24.5s87.667 -39.833 122 -70.5s61.166 -68.167 80.499 -112.5s29 -94.833 29 -151.5v-8c0 -56 -9.16699 -106.833 -27.5 -152.5s-44.5 -84.667 -78.5 -117s-74.833 -57.5 -122.5 -75.5s-100.834 -27 -159.501 -27zM409.005 748.999
c-52 0 -92.667 13.665 -122 40.998s-45.666 66 -48.999 116h124c1.33301 -13.333 6 -23.666 14 -30.999s19 -11 33 -11c13.333 0 24.166 3.83301 32.499 11.5s13.166 17.834 14.499 30.501h124c-3.33301 -50 -20.166 -88.667 -50.499 -116s-70.5 -41 -120.5 -41z" />
    <glyph glyph-name="obreve" unicode="&#x14f;" horiz-adv-x="626" 
d="M314 132c60 0 90.001 42.333 90.001 127v7c0 41.333 -7.33301 72.666 -22 93.999s-37.334 32 -68.001 32c-30 0 -53 -10.167 -69 -30.5s-24 -51.166 -24 -92.499v-8c0 -86 31 -129 93 -129zM313.001 -13c-40.667 0 -78.6689 5.8291 -114.002 17.4961
s-66.166 29 -92.499 52s-47 51 -62 84s-22.5 71.167 -22.5 114.5v8c0 42.667 7.5 80.834 22.5 114.501s35.5 62.334 61.5 86.001s56.833 41.834 92.5 54.501s74.167 19 115.5 19c40.667 0 78.667 -6.16699 114 -18.5s66 -30 92 -53s46.5 -51.167 61.5 -84.5
s22.5 -71 22.5 -113v-8c0 -43.333 -7.5 -81.833 -22.5 -115.5s-35.667 -62.167 -62 -85.5s-57.166 -41.166 -92.499 -53.499s-73.333 -18.5 -114 -18.5zM311.999 580.996c-50.667 0 -90.8301 13.833 -120.497 41.5s-45.834 68.167 -48.501 121.5h119
c1.33301 -14 6.16602 -25 14.499 -33s20.166 -12 35.499 -12c14.667 0 26.5 4 35.5 12s14.167 19 15.5 33h118c-3.33301 -53.333 -20.333 -93.833 -51 -121.5s-70 -41.5 -118 -41.5z" />
    <glyph glyph-name="Ohungarumlaut" unicode="&#x150;" horiz-adv-x="820" 
d="M411 165c44.667 0 80.168 16.499 106.501 49.499s39.5 79.5 39.5 139.5v8c0 60.667 -13.333 107 -40 139s-62.667 48 -108 48c-44 0 -79.167 -15.833 -105.5 -47.5s-39.5 -78.167 -39.5 -139.5v-8c0 -61.333 13.167 -108.166 39.5 -140.499s62.166 -48.5 107.499 -48.5z
M405.001 -13.001c-58.667 0 -111.33 8.83301 -157.997 26.5s-86.334 42.667 -119.001 75s-57.667 71 -75 116s-26 94.5 -26 148.5v8c0 55.333 9.83301 105.5 29.5 150.5s46.667 83.333 81 115s74.833 56.167 121.5 73.5s96.667 26 150 26
c54.667 0 105.5 -8.16699 152.5 -24.5s87.667 -39.833 122 -70.5s61.166 -68.167 80.499 -112.5s29 -94.833 29 -151.5v-8c0 -56 -9.16699 -106.833 -27.5 -152.5s-44.5 -84.667 -78.5 -117s-74.833 -57.5 -122.5 -75.5s-100.834 -27 -159.501 -27zM272.005 905.999h163
l-75 -149h-130zM473.005 905.999h164l-75 -149h-130z" />
    <glyph glyph-name="ohungarumlaut" unicode="&#x151;" horiz-adv-x="626" 
d="M314 132c60 0 90.001 42.333 90.001 127v7c0 41.333 -7.33301 72.666 -22 93.999s-37.334 32 -68.001 32c-30 0 -53 -10.167 -69 -30.5s-24 -51.166 -24 -92.499v-8c0 -86 31 -129 93 -129zM313.001 -13c-40.667 0 -78.6689 5.8291 -114.002 17.4961
s-66.166 29 -92.499 52s-47 51 -62 84s-22.5 71.167 -22.5 114.5v8c0 42.667 7.5 80.834 22.5 114.501s35.5 62.334 61.5 86.001s56.833 41.834 92.5 54.501s74.167 19 115.5 19c40.667 0 78.667 -6.16699 114 -18.5s66 -30 92 -53s46.5 -51.167 61.5 -84.5
s22.5 -71 22.5 -113v-8c0 -43.333 -7.5 -81.833 -22.5 -115.5s-35.667 -62.167 -62 -85.5s-57.166 -41.166 -92.499 -53.499s-73.333 -18.5 -114 -18.5zM194.999 746.996h148l-78 -169h-114zM375.999 746.996h148l-77 -169h-115z" />
    <glyph glyph-name="OE" unicode="&#x152;" horiz-adv-x="983" 
d="M27 356c0 114.667 32.833 203.167 98.5 265.5s161.167 93.5 286.5 93.5h525v-174h-268v-101h209v-159h-209v-107h283v-174h-540c-127.333 0 -223.333 29.667 -288 89s-97 146 -97 260v7zM419 541c-55.333 0 -95 -14.332 -119 -42.999s-36 -74.334 -36 -137.001v-8
c0 -32.667 3 -60.334 9 -83.001s15.333 -41.167 28 -55.5s29 -24.666 49 -30.999s43.667 -9.5 71 -9.5h23v367h-25z" />
    <glyph glyph-name="oe" unicode="&#x153;" horiz-adv-x="984" 
d="M313 -13c-40.667 0 -78.8359 5.83203 -114.503 17.499s-66.667 29 -93 52s-47 51 -62 84s-22.5 71.167 -22.5 114.5v8c0 42.667 7.5 81 22.5 115s35.667 62.833 62 86.5s57.333 41.834 93 54.501s74.167 19 115.5 19c39.333 0 74.833 -6.33301 106.5 -19
s59.167 -30.667 82.5 -54c23.333 23.333 51 41.333 83 54s67 19 105 19c36.667 0 71.5 -5.33301 104.5 -16s61.833 -27.167 86.5 -49.5s44.334 -50.5 59.001 -84.5s22 -74.333 22 -121v-48h-363c2.66699 -32.667 12.667 -57.167 30 -73.5s40 -24.5 68 -24.5
s47.833 5.5 59.5 16.5s19.167 24.167 22.5 39.5h183c-7.33301 -60.667 -33.666 -107.5 -78.999 -140.5s-109.666 -49.5 -192.999 -49.5c-80.667 0 -144.667 23 -192 69c-47.333 -46 -109.333 -69 -186 -69zM313.998 131.999c30 0 52.501 10.833 67.501 32.5
s22.5 52.834 22.5 93.501v8c0 41.333 -7.33301 72.666 -22 93.999s-37.334 32 -68.001 32c-61.333 0 -92 -41 -92 -123v-8c0 -86 30.667 -129 92 -129zM772.999 321.999c-1.33301 27.333 -8.66699 49 -22 65s-33.333 24 -60 24c-24 0 -44 -7.5 -60 -22.5
s-26 -37.167 -30 -66.5h172z" />
    <glyph glyph-name="Racute" unicode="&#x154;" horiz-adv-x="710" 
d="M65 715h292c99.333 0 174 -19.5 224 -58.5s75 -96.833 75 -173.5v-4c0 -49.333 -11.333 -88.833 -34 -118.5s-51.667 -52.5 -87 -68.5l163 -292h-238l-133 245h-36v-245h-226v715zM344 391c62 0 93 26 93 78v4c0 26 -7.66699 44.5 -23 55.5s-38.333 16.5 -69 16.5h-54
v-154h53zM310 906h201l-103 -149h-149z" />
    <glyph glyph-name="racute" unicode="&#x155;" horiz-adv-x="438" 
d="M47 523h197.001v-106c16.667 40.667 39 69.834 67 87.501s61.667 26.167 101 25.5v-184c-54.667 3.33301 -96.334 -3.83398 -125.001 -21.501s-43 -45.5 -43 -83.5v-241h-197v523zM217.001 747h193l-104 -169h-141z" />
    <glyph glyph-name="uni0156" unicode="&#x156;" horiz-adv-x="710" 
d="M65 715h292c99.333 0 174 -19.5 224 -58.5s75 -96.833 75 -173.5v-4c0 -49.333 -11.333 -88.833 -34 -118.5s-51.667 -52.5 -87 -68.5l163 -292h-238l-133 245h-36v-245h-226v715zM344 391c62 0 93 26 93 78v4c0 26 -7.66699 44.5 -23 55.5s-38.333 16.5 -69 16.5h-54
v-154h53zM255 -206l39 175l172 -12l-101 -190z" />
    <glyph glyph-name="uni0157" unicode="&#x157;" horiz-adv-x="438" 
d="M47 523h197.001v-106c16.667 40.667 39 69.834 67 87.501s61.667 26.167 101 25.5v-184c-54.667 3.33301 -96.334 -3.83398 -125.001 -21.501s-43 -45.5 -43 -83.5v-241h-197v523zM28.001 -206l39 175l172 -12l-101 -190z" />
    <glyph glyph-name="Rcaron" unicode="&#x158;" horiz-adv-x="710" 
d="M65 715h292c99.333 0 174 -19.5 224 -58.5s75 -96.833 75 -173.5v-4c0 -49.333 -11.333 -88.833 -34 -118.5s-51.667 -52.5 -87 -68.5l163 -292h-238l-133 245h-36v-245h-226v715zM344 391c62 0 93 26 93 78v4c0 26 -7.66699 44.5 -23 55.5s-38.333 16.5 -69 16.5h-54
v-154h53zM146 906h142l54 -47l54 47h139l-115 -149h-164z" />
    <glyph glyph-name="rcaron" unicode="&#x159;" horiz-adv-x="438" 
d="M47 523h197.001v-106c16.667 40.667 39 69.834 67 87.501s61.667 26.167 101 25.5v-184c-54.667 3.33301 -96.334 -3.83398 -125.001 -21.501s-43 -45.5 -43 -83.5v-241h-197v523zM48.001 746h137l56 -52l56 52h134l-125 -166h-138z" />
    <glyph glyph-name="Sacute" unicode="&#x15a;" horiz-adv-x="653" 
d="M334 -13c-101.333 0 -178.501 20.1689 -231.501 60.502s-80.833 100.833 -83.5 181.5h215c0.666992 -11.333 2.83398 -22 6.50098 -32s9.33398 -18.667 17.001 -26s17.667 -13.166 30 -17.499s27.833 -6.5 46.5 -6.5c26.667 0 46.5 5.5 59.5 16.5s19.5 25.167 19.5 42.5
c0 18.667 -7.33301 32.167 -22 40.5s-41.334 15.166 -80.001 20.499c-51.333 6 -94.666 14.333 -129.999 25s-63.833 25.167 -85.5 43.5s-37.167 40.666 -46.5 66.999s-14 57.833 -14 94.5c0 32.667 6.5 63 19.5 91s31.833 52.167 56.5 72.5s54.667 36.166 90 47.499
s75.333 17 120 17c89.333 0 158.166 -18.333 206.499 -55s75.5 -94.334 81.5 -173.001h-210c-2.66699 22 -10.334 39 -23.001 51s-31 18 -55 18c-23.333 0 -41 -4.83301 -53 -14.5s-18 -22.167 -18 -37.5c0 -8.66699 1.5 -16.167 4.5 -22.5s8.33301 -11.833 16 -16.5
s17.834 -8.66699 30.501 -12s29 -6.33301 49 -9c44.667 -4.66699 84.5 -11.5 119.5 -20.5s64.333 -22 88 -39s41.667 -38.667 54 -65s18.5 -59.5 18.5 -99.5c0 -33.333 -6.5 -64.666 -19.5 -93.999s-32 -55 -57 -77s-55.833 -39.5 -92.5 -52.5s-79 -19.5 -127 -19.5z
M291.999 906.002h201l-103 -149h-149z" />
    <glyph glyph-name="sacute" unicode="&#x15b;" horiz-adv-x="523" 
d="M261 -13c-76.667 0 -136.499 15.333 -179.499 46s-65.167 75.667 -66.5 135h180c3.33301 -17.333 9.33301 -30.666 18 -39.999s24.334 -14 47.001 -14c19.333 0 33.333 3.33301 42 10s13 15.667 13 27s-6.5 20.333 -19.5 27s-37.167 12.334 -72.5 17.001
c-35.333 4 -65.833 9.66699 -91.5 17s-46.667 17.333 -63 30s-28.5 28.667 -36.5 48s-12 43 -12 71c0 30 6.16699 56.167 18.5 78.5s29 40.666 50 54.999s45.667 25.166 74 32.499s58.5 11 90.5 11c34 0 65 -3 93 -9s52.333 -15.833 73 -29.5s37.167 -31.5 49.5 -53.5
s20.166 -49 23.499 -81h-177c-3.33301 15.333 -9.5 27.333 -18.5 36s-22.5 13 -40.5 13s-31.167 -3.5 -39.5 -10.5s-12.5 -15.5 -12.5 -25.5c0 -12 6.33301 -20.833 19 -26.5s33.667 -10.167 63 -13.5c38 -4.66699 70.833 -10.667 98.5 -18s50.5 -17.333 68.5 -30
s31.5 -28.667 40.5 -48s13.5 -43 13.5 -71c0 -32 -5.83301 -59.667 -17.5 -83s-28.334 -42.5 -50.001 -57.5s-47.667 -26 -78 -33s-63.833 -10.5 -100.5 -10.5zM236.001 747h193l-104 -169h-141z" />
    <glyph glyph-name="Scircumflex" unicode="&#x15c;" horiz-adv-x="653" 
d="M334 -13c-101.333 0 -178.501 20.1689 -231.501 60.502s-80.833 100.833 -83.5 181.5h215c0.666992 -11.333 2.83398 -22 6.50098 -32s9.33398 -18.667 17.001 -26s17.667 -13.166 30 -17.499s27.833 -6.5 46.5 -6.5c26.667 0 46.5 5.5 59.5 16.5s19.5 25.167 19.5 42.5
c0 18.667 -7.33301 32.167 -22 40.5s-41.334 15.166 -80.001 20.499c-51.333 6 -94.666 14.333 -129.999 25s-63.833 25.167 -85.5 43.5s-37.167 40.666 -46.5 66.999s-14 57.833 -14 94.5c0 32.667 6.5 63 19.5 91s31.833 52.167 56.5 72.5s54.667 36.166 90 47.499
s75.333 17 120 17c89.333 0 158.166 -18.333 206.499 -55s75.5 -94.334 81.5 -173.001h-210c-2.66699 22 -10.334 39 -23.001 51s-31 18 -55 18c-23.333 0 -41 -4.83301 -53 -14.5s-18 -22.167 -18 -37.5c0 -8.66699 1.5 -16.167 4.5 -22.5s8.33301 -11.833 16 -16.5
s17.834 -8.66699 30.501 -12s29 -6.33301 49 -9c44.667 -4.66699 84.5 -11.5 119.5 -20.5s64.333 -22 88 -39s41.667 -38.667 54 -65s18.5 -59.5 18.5 -99.5c0 -33.333 -6.5 -64.666 -19.5 -93.999s-32 -55 -57 -77s-55.833 -39.5 -92.5 -52.5s-79 -19.5 -127 -19.5z
M243.999 906.002h164l110 -149h-142l-54 47l-54 -47h-139z" />
    <glyph glyph-name="scircumflex" unicode="&#x15d;" horiz-adv-x="523" 
d="M261 -13c-76.667 0 -136.499 15.333 -179.499 46s-65.167 75.667 -66.5 135h180c3.33301 -17.333 9.33301 -30.666 18 -39.999s24.334 -14 47.001 -14c19.333 0 33.333 3.33301 42 10s13 15.667 13 27s-6.5 20.333 -19.5 27s-37.167 12.334 -72.5 17.001
c-35.333 4 -65.833 9.66699 -91.5 17s-46.667 17.333 -63 30s-28.5 28.667 -36.5 48s-12 43 -12 71c0 30 6.16699 56.167 18.5 78.5s29 40.666 50 54.999s45.667 25.166 74 32.499s58.5 11 90.5 11c34 0 65 -3 93 -9s52.333 -15.833 73 -29.5s37.167 -31.5 49.5 -53.5
s20.166 -49 23.499 -81h-177c-3.33301 15.333 -9.5 27.333 -18.5 36s-22.5 13 -40.5 13s-31.167 -3.5 -39.5 -10.5s-12.5 -15.5 -12.5 -25.5c0 -12 6.33301 -20.833 19 -26.5s33.667 -10.167 63 -13.5c38 -4.66699 70.833 -10.667 98.5 -18s50.5 -17.333 68.5 -30
s31.5 -28.667 40.5 -48s13.5 -43 13.5 -71c0 -32 -5.83301 -59.667 -17.5 -83s-28.334 -42.5 -50.001 -57.5s-47.667 -26 -78 -33s-63.833 -10.5 -100.5 -10.5zM190.001 746h138l120 -166h-137l-56 53l-56 -53h-134z" />
    <glyph glyph-name="uni015E" unicode="&#x15e;" horiz-adv-x="653" 
d="M307 -228c-38 0 -68.166 8.00391 -90.499 24.0039s-36.166 39.333 -41.499 70h90c1.33301 -6.66699 4.66602 -12.667 9.99902 -18s13.666 -8 24.999 -8c9.33301 0 16.666 2.66699 21.999 8s8 12.333 8 21s-2.66699 15.834 -8 21.501s-13.666 8.5 -24.999 8.5
c-14.667 0 -25.334 -4 -32.001 -12l-40 41l41 63c-79.333 8 -139.833 31.833 -181.5 71.5s-63.5 95.167 -65.5 166.5h215c0.666992 -11.333 2.83398 -22 6.50098 -32s9.33398 -18.667 17.001 -26s17.667 -13.166 30 -17.499s27.833 -6.5 46.5 -6.5
c26.667 0 46.5 5.5 59.5 16.5s19.5 25.167 19.5 42.5c0 18.667 -7.33301 32.167 -22 40.5s-41.334 15.166 -80.001 20.499c-51.333 6 -94.666 14.333 -129.999 25s-63.833 25.167 -85.5 43.5s-37.167 40.666 -46.5 66.999s-14 57.833 -14 94.5c0 32.667 6.5 63 19.5 91
s31.833 52.167 56.5 72.5s54.667 36.166 90 47.499s75.333 17 120 17c89.333 0 158.166 -18.333 206.499 -55s75.5 -94.334 81.5 -173.001h-210c-2.66699 22 -10.334 39 -23.001 51s-31 18 -55 18c-23.333 0 -41 -4.83301 -53 -14.5s-18 -22.167 -18 -37.5
c0 -8.66699 1.5 -16.167 4.5 -22.5s8.33301 -11.833 16 -16.5s17.834 -8.66699 30.501 -12s29 -6.33301 49 -9c44.667 -4.66699 84.5 -11.5 119.5 -20.5s64.333 -22 88 -39s41.667 -38.667 54 -65s18.5 -59.5 18.5 -99.5c0 -33.333 -6.33301 -64.5 -19 -93.5
s-31.167 -54.5 -55.5 -76.5s-54.666 -39.5 -90.999 -52.5s-77.833 -19.833 -124.5 -20.5l-22 -31c14.667 1.33301 29 0.666016 43 -2.00098s26.167 -7.5 36.5 -14.5s18.666 -16.333 24.999 -28s9.5 -25.834 9.5 -42.501c0 -30.667 -11.333 -54.5 -34 -71.5
s-53 -25.5 -91 -25.5z" />
    <glyph glyph-name="uni015F" unicode="&#x15f;" horiz-adv-x="523" 
d="M243 -228c-38 0 -68.166 8.00195 -90.499 24.002s-36.166 39.333 -41.499 70h90c1.33301 -6.66699 4.66602 -12.667 9.99902 -18s13.666 -8 24.999 -8c9.33301 0 16.666 2.66699 21.999 8s8 12.333 8 21s-2.66699 15.834 -8 21.501s-13.666 8.5 -24.999 8.5
c-14.667 0 -25.334 -4 -32.001 -12l-40 41l41 63c-58.667 7.33301 -104.167 25.833 -136.5 55.5s-49.166 70.167 -50.499 121.5h180c3.33301 -17.333 9.33301 -30.666 18 -39.999s24.334 -14 47.001 -14c19.333 0 33.333 3.33301 42 10s13 15.667 13 27
s-6.5 20.333 -19.5 27s-37.167 12.334 -72.5 17.001c-35.333 4 -65.833 9.66699 -91.5 17s-46.667 17.333 -63 30s-28.5 28.667 -36.5 48s-12 43 -12 71c0 30 6.16699 56.167 18.5 78.5s29 40.666 50 54.999s45.667 25.166 74 32.499s58.5 11 90.5 11c34 0 65 -3 93 -9
s52.333 -15.833 73 -29.5s37.167 -31.5 49.5 -53.5s20.166 -49 23.499 -81h-177c-3.33301 15.333 -9.5 27.333 -18.5 36s-22.5 13 -40.5 13s-31.167 -3.5 -39.5 -10.5s-12.5 -15.5 -12.5 -25.5c0 -12 6.33301 -20.833 19 -26.5s33.667 -10.167 63 -13.5
c38 -4.66699 70.833 -10.667 98.5 -18s50.5 -17.333 68.5 -30s31.5 -28.667 40.5 -48s13.5 -43 13.5 -71c0 -31.333 -5.5 -58.333 -16.5 -81s-26.667 -41.5 -47 -56.5s-44.666 -26.333 -72.999 -34s-59.833 -11.834 -94.5 -12.501l-22 -31
c14.667 1.33301 29 0.666016 43 -2.00098s26.167 -7.5 36.5 -14.5s18.666 -16.333 24.999 -28s9.5 -25.834 9.5 -42.501c0 -30.667 -11.333 -54.5 -34 -71.5s-53 -25.5 -91 -25.5z" />
    <glyph glyph-name="Scaron" unicode="&#x160;" horiz-adv-x="653" 
d="M334 -13c-101.333 0 -178.501 20.1689 -231.501 60.502s-80.833 100.833 -83.5 181.5h215c0.666992 -11.333 2.83398 -22 6.50098 -32s9.33398 -18.667 17.001 -26s17.667 -13.166 30 -17.499s27.833 -6.5 46.5 -6.5c26.667 0 46.5 5.5 59.5 16.5s19.5 25.167 19.5 42.5
c0 18.667 -7.33301 32.167 -22 40.5s-41.334 15.166 -80.001 20.499c-51.333 6 -94.666 14.333 -129.999 25s-63.833 25.167 -85.5 43.5s-37.167 40.666 -46.5 66.999s-14 57.833 -14 94.5c0 32.667 6.5 63 19.5 91s31.833 52.167 56.5 72.5s54.667 36.166 90 47.499
s75.333 17 120 17c89.333 0 158.166 -18.333 206.499 -55s75.5 -94.334 81.5 -173.001h-210c-2.66699 22 -10.334 39 -23.001 51s-31 18 -55 18c-23.333 0 -41 -4.83301 -53 -14.5s-18 -22.167 -18 -37.5c0 -8.66699 1.5 -16.167 4.5 -22.5s8.33301 -11.833 16 -16.5
s17.834 -8.66699 30.501 -12s29 -6.33301 49 -9c44.667 -4.66699 84.5 -11.5 119.5 -20.5s64.333 -22 88 -39s41.667 -38.667 54 -65s18.5 -59.5 18.5 -99.5c0 -33.333 -6.5 -64.666 -19.5 -93.999s-32 -55 -57 -77s-55.833 -39.5 -92.5 -52.5s-79 -19.5 -127 -19.5z
M127.999 906.002h142l54 -47l54 47h139l-115 -149h-164z" />
    <glyph glyph-name="scaron" unicode="&#x161;" horiz-adv-x="523" 
d="M261 -13c-76.667 0 -136.499 15.333 -179.499 46s-65.167 75.667 -66.5 135h180c3.33301 -17.333 9.33301 -30.666 18 -39.999s24.334 -14 47.001 -14c19.333 0 33.333 3.33301 42 10s13 15.667 13 27s-6.5 20.333 -19.5 27s-37.167 12.334 -72.5 17.001
c-35.333 4 -65.833 9.66699 -91.5 17s-46.667 17.333 -63 30s-28.5 28.667 -36.5 48s-12 43 -12 71c0 30 6.16699 56.167 18.5 78.5s29 40.666 50 54.999s45.667 25.166 74 32.499s58.5 11 90.5 11c34 0 65 -3 93 -9s52.333 -15.833 73 -29.5s37.167 -31.5 49.5 -53.5
s20.166 -49 23.499 -81h-177c-3.33301 15.333 -9.5 27.333 -18.5 36s-22.5 13 -40.5 13s-31.167 -3.5 -39.5 -10.5s-12.5 -15.5 -12.5 -25.5c0 -12 6.33301 -20.833 19 -26.5s33.667 -10.167 63 -13.5c38 -4.66699 70.833 -10.667 98.5 -18s50.5 -17.333 68.5 -30
s31.5 -28.667 40.5 -48s13.5 -43 13.5 -71c0 -32 -5.83301 -59.667 -17.5 -83s-28.334 -42.5 -50.001 -57.5s-47.667 -26 -78 -33s-63.833 -10.5 -100.5 -10.5zM62.001 746h137l56 -52l56 52h134l-125 -166h-138z" />
    <glyph glyph-name="Tcommaaccent" unicode="&#x162;" horiz-adv-x="629" 
d="M200 541h-180v174h589v-174h-181v-541h-228v541zM191 -206l39 175l172 -12l-101 -190z" />
    <glyph glyph-name="tcommaaccent" unicode="&#x163;" horiz-adv-x="396" 
d="M265 -12c-62 0 -109.666 14.666 -142.999 43.999s-50 77 -50 143v216h-61v132h61v107h197v-107h100v-132h-100v-197c0 -18 4.5 -31 13.5 -39s21.5 -12 37.5 -12c17.333 0 33.666 2.66699 48.999 8v-148c-12 -3.33301 -27 -6.66602 -45 -9.99902s-37.667 -5 -59 -5z
M90.001 -206.001l39 175l172 -12l-101 -190z" />
    <glyph glyph-name="Tcaron" unicode="&#x164;" horiz-adv-x="629" 
d="M200 541h-180v174h589v-174h-181v-541h-228v541zM117 906h142l54 -47l54 47h139l-115 -149h-164z" />
    <glyph glyph-name="tcaron" unicode="&#x165;" horiz-adv-x="396" 
d="M265 -12c-62 0 -109.666 14.666 -142.999 43.999s-50 77 -50 143v216h-61v132h61v107h197v-107h100v-132h-100v-197c0 -18 4.5 -31 13.5 -39s21.5 -12 37.5 -12c17.333 0 33.666 2.66699 48.999 8v-148c-12 -3.33301 -27 -6.66602 -45 -9.99902s-37.667 -5 -59 -5z
M318.001 749.999h140l-50 -175h-98z" />
    <glyph glyph-name="Tbar" unicode="&#x166;" horiz-adv-x="629" 
d="M78 408h122v133h-180v174h589v-174h-181v-133h123v-140h-123v-268h-228v268h-122v140z" />
    <glyph glyph-name="tbar" unicode="&#x167;" horiz-adv-x="396" 
d="M12 331l60.001 0.000976562v60h-60v132h60v107h197v-107h100v-132h-100v-60h100v-96h-100v-42c0 -34 17 -51 51 -51c9.33301 0 17.666 0.666992 24.999 2s15 3.66602 23 6.99902v-148c-12 -3.33301 -26.833 -6.83301 -44.5 -10.5s-37.167 -5.5 -58.5 -5.5
c-62 0 -109.667 14.833 -143 44.5s-50 77.5 -50 143.5v60h-60v96z" />
    <glyph glyph-name="Utilde" unicode="&#x168;" horiz-adv-x="776" 
d="M388 -13c-105.333 0 -186.166 25.667 -242.499 77s-84.5 128.333 -84.5 231v420h226v-411c0 -23.333 1.5 -43.666 4.5 -60.999s8.16699 -31.833 15.5 -43.5s17.666 -20.334 30.999 -26.001s30 -8.5 50 -8.5c40 0 66.667 11.5 80 34.5s20 58.167 20 105.5v410h228v-418
c0 -54 -7.66699 -100.5 -23 -139.5s-37.333 -71.167 -66 -96.5s-63.167 -44 -103.5 -56s-85.5 -18 -135.5 -18zM452 755c-14.667 0 -27.667 1.66699 -39 5s-21.833 7 -31.5 11l-26.5 11c-8 3.33301 -16 5 -24 5s-14.667 -2.66699 -20 -8s-8.66602 -12.666 -9.99902 -21.999
h-109c2 28 6.66699 52 14 72s16.666 36.5 27.999 49.5s24.166 22.667 38.499 29s29.5 9.5 45.5 9.5c14 0 26.667 -1.66699 38 -5s22 -7 32 -11l28 -11c8.66699 -3.33301 17.334 -5 26.001 -5s15.334 2.66699 20.001 8s7.66699 12.666 9 21.999h110c-2 -28 -7 -52 -15 -72
s-17.833 -36.5 -29.5 -49.5s-24.834 -22.667 -39.501 -29s-29.667 -9.5 -45 -9.5z" />
    <glyph glyph-name="utilde" unicode="&#x169;" horiz-adv-x="628" 
d="M218 -13c-25.333 0 -48.668 4 -70.001 12s-39.666 20 -54.999 36s-27.5 36 -36.5 60s-13.5 52.333 -13.5 85v343h197v-309c0 -26.667 5.16699 -46.667 15.5 -60s27.166 -20 50.499 -20c24.667 0 43.834 7.33301 57.501 22s20.5 37.667 20.5 69v298h197v-523h-197v81
c-14.667 -28 -35 -50.667 -61 -68s-61 -26 -105 -26zM377.998 581c-14.667 0 -27.6689 1.66797 -39.002 5.00098s-21.666 7 -30.999 11l-25.5 11c-7.66699 3.33301 -15.167 5 -22.5 5c-8 0 -14.667 -2.83301 -20 -8.5s-8.66602 -12.834 -9.99902 -21.501h-104
c3.33301 55.333 15.833 96.166 37.5 122.499s48.5 39.5 80.5 39.5c14 0 26.5 -1.66699 37.5 -5s21.333 -7 31 -11l27.5 -11c8.66699 -3.33301 17 -5 25 -5c16.667 0 26.667 10.333 30 31h104c-2 -28 -6.5 -52.167 -13.5 -72.5s-15.833 -37.166 -26.5 -50.499
s-23 -23.333 -37 -30s-28.667 -10 -44 -10z" />
    <glyph glyph-name="Umacron" unicode="&#x16a;" horiz-adv-x="776" 
d="M388 -13c-105.333 0 -186.166 25.667 -242.499 77s-84.5 128.333 -84.5 231v420h226v-411c0 -23.333 1.5 -43.666 4.5 -60.999s8.16699 -31.833 15.5 -43.5s17.666 -20.334 30.999 -26.001s30 -8.5 50 -8.5c40 0 66.667 11.5 80 34.5s20 58.167 20 105.5v410h228v-418
c0 -54 -7.66699 -100.5 -23 -139.5s-37.333 -71.167 -66 -96.5s-63.167 -44 -103.5 -56s-85.5 -18 -135.5 -18zM219 884h333v-115h-333v115z" />
    <glyph glyph-name="umacron" unicode="&#x16b;" horiz-adv-x="628" 
d="M218 -13c-25.333 0 -48.668 4 -70.001 12s-39.666 20 -54.999 36s-27.5 36 -36.5 60s-13.5 52.333 -13.5 85v343h197v-309c0 -26.667 5.16699 -46.667 15.5 -60s27.166 -20 50.499 -20c24.667 0 43.834 7.33301 57.501 22s20.5 37.667 20.5 69v298h197v-523h-197v81
c-14.667 -28 -35 -50.667 -61 -68s-61 -26 -105 -26zM153.998 712h316v-107h-316v107z" />
    <glyph glyph-name="Ubreve" unicode="&#x16c;" horiz-adv-x="776" 
d="M388 -13c-105.333 0 -186.166 25.667 -242.499 77s-84.5 128.333 -84.5 231v420h226v-411c0 -23.333 1.5 -43.666 4.5 -60.999s8.16699 -31.833 15.5 -43.5s17.666 -20.334 30.999 -26.001s30 -8.5 50 -8.5c40 0 66.667 11.5 80 34.5s20 58.167 20 105.5v410h228v-418
c0 -54 -7.66699 -100.5 -23 -139.5s-37.333 -71.167 -66 -96.5s-63.167 -44 -103.5 -56s-85.5 -18 -135.5 -18zM386 749c-52 0 -92.667 13.665 -122 40.998s-45.666 66 -48.999 116h124c1.33301 -13.333 6 -23.666 14 -30.999s19 -11 33 -11
c13.333 0 24.166 3.83301 32.499 11.5s13.166 17.834 14.499 30.501h124c-3.33301 -50 -20.166 -88.667 -50.499 -116s-70.5 -41 -120.5 -41z" />
    <glyph glyph-name="ubreve" unicode="&#x16d;" horiz-adv-x="628" 
d="M218 -13c-25.333 0 -48.668 4 -70.001 12s-39.666 20 -54.999 36s-27.5 36 -36.5 60s-13.5 52.333 -13.5 85v343h197v-309c0 -26.667 5.16699 -46.667 15.5 -60s27.166 -20 50.499 -20c24.667 0 43.834 7.33301 57.501 22s20.5 37.667 20.5 69v298h197v-523h-197v81
c-14.667 -28 -35 -50.667 -61 -68s-61 -26 -105 -26zM311.998 581c-50.667 0 -90.8301 13.833 -120.497 41.5s-45.834 68.167 -48.501 121.5h119c1.33301 -14 6.16602 -25 14.499 -33s20.166 -12 35.499 -12c14.667 0 26.5 4 35.5 12s14.167 19 15.5 33h118
c-3.33301 -53.333 -20.333 -93.833 -51 -121.5s-70 -41.5 -118 -41.5z" />
    <glyph glyph-name="Uring" unicode="&#x16e;" horiz-adv-x="776" 
d="M388 -13c-105.333 0 -186.166 25.667 -242.499 77s-84.5 128.333 -84.5 231v420h226v-411c0 -23.333 1.5 -43.666 4.5 -60.999s8.16699 -31.833 15.5 -43.5s17.666 -20.334 30.999 -26.001s30 -8.5 50 -8.5c40 0 66.667 11.5 80 34.5s20 58.167 20 105.5v410h228v-418
c0 -54 -7.66699 -100.5 -23 -139.5s-37.333 -71.167 -66 -96.5s-63.167 -44 -103.5 -56s-85.5 -18 -135.5 -18zM386 790c13.333 0 24.166 4.66699 32.499 14s12.5 21.333 12.5 36c0 15.333 -4.16699 27.5 -12.5 36.5s-19.166 13.5 -32.499 13.5s-24.166 -4.5 -32.499 -13.5
s-12.5 -21.167 -12.5 -36.5c0 -14.667 4.16699 -26.667 12.5 -36s19.166 -14 32.499 -14zM386 722c-16.667 0 -32.5 3.16699 -47.5 9.5s-28 14.833 -39 25.5s-19.667 23.167 -26 37.5s-9.5 29.5 -9.5 45.5s3.16699 31.167 9.5 45.5s15 26.833 26 37.5s24 19.167 39 25.5
s30.833 9.5 47.5 9.5s32.5 -3.16699 47.5 -9.5s28 -14.833 39 -25.5s19.667 -23.167 26 -37.5s9.5 -29.5 9.5 -45.5s-3.16699 -31.167 -9.5 -45.5s-15 -26.833 -26 -37.5s-24 -19.167 -39 -25.5s-30.833 -9.5 -47.5 -9.5z" />
    <glyph glyph-name="uring" unicode="&#x16f;" horiz-adv-x="628" 
d="M218 -13c-25.333 0 -48.668 4 -70.001 12s-39.666 20 -54.999 36s-27.5 36 -36.5 60s-13.5 52.333 -13.5 85v343h197v-309c0 -26.667 5.16699 -46.667 15.5 -60s27.166 -20 50.499 -20c24.667 0 43.834 7.33301 57.501 22s20.5 37.667 20.5 69v298h197v-523h-197v81
c-14.667 -28 -35 -50.667 -61 -68s-61 -26 -105 -26zM310.998 620c13.333 0 24 4.5 32 13.5s12 20.5 12 34.5c0 14.667 -4 26.5 -12 35.5s-18.667 13.5 -32 13.5s-24 -4.5 -32 -13.5s-12 -20.833 -12 -35.5c0 -14 4 -25.5 12 -34.5s18.667 -13.5 32 -13.5zM310.998 552
c-16.667 0 -32.167 3 -46.5 9s-27 14.333 -38 25s-19.667 23 -26 37s-9.5 29 -9.5 45s3.16699 31.167 9.5 45.5s15 26.666 26 36.999s23.667 18.666 38 24.999s29.833 9.5 46.5 9.5s32.167 -3.16699 46.5 -9.5s27 -14.666 38 -24.999s19.667 -22.666 26 -36.999
s9.5 -29.5 9.5 -45.5s-3.16699 -31 -9.5 -45s-15 -26.333 -26 -37s-23.667 -19 -38 -25s-29.833 -9 -46.5 -9z" />
    <glyph glyph-name="Uhungarumlaut" unicode="&#x170;" horiz-adv-x="776" 
d="M388 -13c-105.333 0 -186.166 25.667 -242.499 77s-84.5 128.333 -84.5 231v420h226v-411c0 -23.333 1.5 -43.666 4.5 -60.999s8.16699 -31.833 15.5 -43.5s17.666 -20.334 30.999 -26.001s30 -8.5 50 -8.5c40 0 66.667 11.5 80 34.5s20 58.167 20 105.5v410h228v-418
c0 -54 -7.66699 -100.5 -23 -139.5s-37.333 -71.167 -66 -96.5s-63.167 -44 -103.5 -56s-85.5 -18 -135.5 -18zM249 906h163l-75 -149h-130zM450 906h164l-75 -149h-130z" />
    <glyph glyph-name="uhungarumlaut" unicode="&#x171;" horiz-adv-x="628" 
d="M218 -13c-25.333 0 -48.668 4 -70.001 12s-39.666 20 -54.999 36s-27.5 36 -36.5 60s-13.5 52.333 -13.5 85v343h197v-309c0 -26.667 5.16699 -46.667 15.5 -60s27.166 -20 50.499 -20c24.667 0 43.834 7.33301 57.501 22s20.5 37.667 20.5 69v298h197v-523h-197v81
c-14.667 -28 -35 -50.667 -61 -68s-61 -26 -105 -26zM194.998 747h148l-78 -169h-114zM375.998 747h148l-77 -169h-115z" />
    <glyph glyph-name="Uogonek" unicode="&#x172;" horiz-adv-x="776" 
d="M426 -182c-38 0 -67.9971 7.16602 -89.9971 21.499s-33 33.833 -33 58.5c0 20.667 6.5 38.167 19.5 52.5s27.833 26.833 44.5 37.5c-98.667 3.33301 -174.334 30.5 -227.001 81.5s-79 126.167 -79 225.5v420h226v-411c0 -23.333 1.5 -43.666 4.5 -60.999
s8.16699 -31.833 15.5 -43.5s17.666 -20.334 30.999 -26.001s30 -8.5 50 -8.5c40 0 66.667 11.5 80 34.5s20 58.167 20 105.5v410h228v-418c0 -73.333 -14 -132.666 -42 -177.999s-66.667 -79.333 -116 -102c-22.667 -10 -42.834 -20 -60.501 -30s-26.5 -23.667 -26.5 -41
c0 -16.667 9.66699 -25 29 -25c10.667 0 19 1.33301 25 4v-90c-8.66699 -4.66699 -21.167 -8.66699 -37.5 -12s-36.833 -5 -61.5 -5z" />
    <glyph glyph-name="uogonek" unicode="&#x173;" horiz-adv-x="628" 
d="M490 -182c-36.667 0 -65.6689 7.33203 -87.002 21.999s-32 34.667 -32 60c0 12.667 2.5 24.167 7.5 34.5s11.667 19.5 20 27.5s17.833 15 28.5 21s21.334 11.667 32.001 17h-75v81c-14.667 -28 -35 -50.667 -61 -68s-61 -26 -105 -26c-25.333 0 -48.666 4 -69.999 12
s-39.666 20 -54.999 36s-27.5 36 -36.5 60s-13.5 52.333 -13.5 85v343h197v-309c0 -26.667 5.16699 -46.667 15.5 -60s27.166 -20 50.499 -20c24.667 0 43.834 7.33301 57.501 22s20.5 37.667 20.5 69v298h197v-510c-19.333 -15.333 -32.833 -28.666 -40.5 -39.999
s-11.5 -22 -11.5 -32c0 -8.66699 2.66699 -15.167 8 -19.5s12.666 -6.5 21.999 -6.5c10.667 0 19 1.33301 25 4v-84c-9.33301 -4.66699 -21.5 -8.66699 -36.5 -12s-34.167 -5 -57.5 -5z" />
    <glyph glyph-name="Wcircumflex" unicode="&#x174;" horiz-adv-x="1009" 
d="M10 715h229l82 -427l86 427h197l97 -432l87 432h210l-166 -715h-229l-100 427l-101 -427h-226zM425 906h164l110 -149h-142l-54 47l-54 -47h-139z" />
    <glyph glyph-name="wcircumflex" unicode="&#x175;" horiz-adv-x="854" 
d="M5 523h205l68 -293l80 293h158l70 -293l79 293h184l-166 -523h-185l-73 273l-72 -273h-191zM359 746h138l120 -166h-137l-56 53l-56 -53h-134z" />
    <glyph glyph-name="Ycircumflex" unicode="&#x176;" horiz-adv-x="692" 
d="M237 305l-232 410h246l109 -224l110 224h217l-222 -409v-306h-228v305zM273 906h164l110 -149h-142l-54 47l-54 -47h-139z" />
    <glyph glyph-name="ycircumflex" unicode="&#x177;" 
d="M214 52l-209 471h213l99 -261l92 261h186l-279 -697h-187zM242 746h138l120 -166h-137l-56 53l-56 -53h-134z" />
    <glyph glyph-name="Ydieresis" unicode="&#x178;" horiz-adv-x="692" 
d="M237 305l-232 410h246l109 -224l110 224h217l-222 -409v-306h-228v305zM239 752c-12.667 0 -24.5 2.33301 -35.5 7s-20.667 11 -29 19s-14.833 17.5 -19.5 28.5s-7 22.5 -7 34.5c0 12.667 2.33301 24.334 7 35.001s11.167 20 19.5 28s18 14.333 29 19s22.833 7 35.5 7
s24.667 -2.33301 36 -7s21.166 -11 29.499 -19s14.833 -17.333 19.5 -28s7 -22.334 7 -35.001c0 -12 -2.33301 -23.5 -7 -34.5s-11.167 -20.5 -19.5 -28.5s-18.166 -14.333 -29.499 -19s-23.333 -7 -36 -7zM466 752c-12.667 0 -24.5 2.33301 -35.5 7s-20.667 11 -29 19
s-14.833 17.5 -19.5 28.5s-7 22.5 -7 34.5c0 12.667 2.33301 24.334 7 35.001s11.167 20 19.5 28s18 14.333 29 19s22.833 7 35.5 7s24.667 -2.33301 36 -7s21.166 -11 29.499 -19s14.833 -17.333 19.5 -28s7 -22.334 7 -35.001c0 -12 -2.33301 -23.5 -7 -34.5
s-11.167 -20.5 -19.5 -28.5s-18.166 -14.333 -29.499 -19s-23.333 -7 -36 -7z" />
    <glyph glyph-name="Zacute" unicode="&#x179;" horiz-adv-x="627" 
d="M10 24l286 521h-246v170h563v-24l-283 -520h266v-171h-586v24zM288 906h201l-103 -149h-149z" />
    <glyph glyph-name="zacute" unicode="&#x17a;" horiz-adv-x="513" 
d="M8 19l214 357h-191v147h471v-20l-224 -357h210v-146h-480v19zM239 747h193l-104 -169h-141z" />
    <glyph glyph-name="Zdotaccent" unicode="&#x17b;" horiz-adv-x="627" 
d="M10 24l286 521h-246v170h563v-24l-283 -520h266v-171h-586v24zM321 752c-30 0 -54.667 9 -74 27s-29 40.667 -29 68c0 28 9.66699 51 29 69s44 27 74 27c29.333 0 53.666 -9 72.999 -27s29 -41 29 -69c0 -27.333 -9.66699 -50 -29 -68s-43.666 -27 -72.999 -27z" />
    <glyph glyph-name="zdotaccent" unicode="&#x17c;" horiz-adv-x="513" 
d="M8 19l214 357h-191v147h471v-20l-224 -357h210v-146h-480v19zM263 570c-30 0 -54.667 8.83301 -74 26.5s-29 40.5 -29 68.5s9.66699 51 29 69s44 27 74 27c29.333 0 53.833 -9 73.5 -27s29.5 -41 29.5 -69s-9.83301 -50.833 -29.5 -68.5s-44.167 -26.5 -73.5 -26.5z" />
    <glyph glyph-name="Zcaron" unicode="&#x17d;" horiz-adv-x="627" 
d="M10 24l286 521h-246v170h563v-24l-283 -520h266v-171h-586v24zM124 906h142l54 -47l54 47h139l-115 -149h-164z" />
    <glyph glyph-name="zcaron" unicode="&#x17e;" horiz-adv-x="513" 
d="M8 19l214 357h-191v147h471v-20l-224 -357h210v-146h-480v19zM70 746h137l56 -52l56 52h134l-125 -166h-138z" />
    <glyph glyph-name="uni0192" unicode="&#x192;" horiz-adv-x="456" 
d="M22 415h88.999l17 119c4.66699 34.667 13.5 64.167 26.5 88.5s29.333 44 49 59s42.5 26 68.5 33s54.667 10.5 86 10.5c16.667 0 30.834 -0.833008 42.501 -2.5s24.167 -4.5 37.5 -8.5v-146c-7.33301 2.66699 -14.5 4.5 -21.5 5.5s-16.167 1.5 -27.5 1.5
c-39.333 0 -62 -19.333 -68 -58l-15 -102h111v-132h-129l-65 -465h-195l65 465h-71v132z" />
    <glyph glyph-name="Aringacute" unicode="&#x1fa;" horiz-adv-x="760" 
d="M234 715h293l224 -715h-240l-33 119h-226l-32 -119h-211zM295 273h141l-70 259zM381 808c13.333 0 24.166 4.66699 32.499 14s12.5 21.333 12.5 36c0 15.333 -4.16699 27.5 -12.5 36.5s-19.166 13.5 -32.499 13.5s-24.166 -4.5 -32.499 -13.5s-12.5 -21.167 -12.5 -36.5
c0 -14.667 4.16699 -26.667 12.5 -36s19.166 -14 32.499 -14zM381 740c-16.667 0 -32.5 3.16699 -47.5 9.5s-28 14.833 -39 25.5s-19.667 23.167 -26 37.5s-9.5 29.5 -9.5 45.5s3.16699 31.167 9.5 45.5s15 26.833 26 37.5s24 19.167 39 25.5s30.833 9.5 47.5 9.5
s32.5 -3.16699 47.5 -9.5s28 -14.833 39 -25.5s19.667 -23.167 26 -37.5s9.5 -29.5 9.5 -45.5s-3.16699 -31.167 -9.5 -45.5s-15 -26.833 -26 -37.5s-24 -19.167 -39 -25.5s-30.833 -9.5 -47.5 -9.5zM357 1142h201l-103 -149h-149z" />
    <glyph glyph-name="aringacute" unicode="&#x1fb;" horiz-adv-x="585" 
d="M198 -13c-23.333 0 -45.833 3.00195 -67.5 9.00195s-40.667 15.333 -57 28s-29.333 29 -39 49s-14.5 44 -14.5 72c0 61.333 24.167 105.166 72.5 131.499s117.833 39.5 208.5 39.5h45v9c0 10.667 -0.666992 20.667 -2 30s-4.16602 17.5 -8.49902 24.5
s-10.5 12.333 -18.5 16s-18.667 5.5 -32 5.5c-22.667 0 -38.334 -6 -47.001 -18s-13.667 -24.667 -15 -38h-184c2 32 9.5 60 22.5 84s30.667 44.167 53 60.5s49 28.5 80 36.5s65.167 12 102.5 12c76 0 135.667 -16.167 179 -48.5s65 -82.833 65 -151.5v-338h-190v60
c-5.33301 -9.33301 -12.333 -18.333 -21 -27s-19.334 -16.334 -32.001 -23.001s-27.167 -12.167 -43.5 -16.5s-35.166 -6.5 -56.499 -6.5zM269 119.002c22.667 0 41.166 5.83301 55.499 17.5s21.5 27.167 21.5 46.5v27h-42c-33.333 0 -56.666 -3.66699 -69.999 -11
s-20 -20.333 -20 -39c0 -12.667 4.66699 -22.667 14 -30s23 -11 41 -11zM294.999 638.002c13.333 0 24 4.5 32 13.5s12 20.5 12 34.5c0 14.667 -4 26.5 -12 35.5s-18.667 13.5 -32 13.5s-24 -4.5 -32 -13.5s-12 -20.833 -12 -35.5c0 -14 4 -25.5 12 -34.5
s18.667 -13.5 32 -13.5zM294.999 570.002c-16.667 0 -32.167 3 -46.5 9s-27 14.333 -38 25s-19.667 23 -26 37s-9.5 29 -9.5 45s3.16699 31.167 9.5 45.5s15 26.666 26 36.999s23.667 18.666 38 24.999s29.833 9.5 46.5 9.5s32.167 -3.16699 46.5 -9.5
s27 -14.666 38 -24.999s19.667 -22.666 26 -36.999s9.5 -29.5 9.5 -45.5s-3.16699 -31 -9.5 -45s-15 -26.333 -26 -37s-23.667 -19 -38 -25s-29.833 -9 -46.5 -9zM275.999 978.002h201l-103 -149h-149z" />
    <glyph glyph-name="AEacute" unicode="&#x1fc;" horiz-adv-x="1012" 
d="M320 715h645v-174h-275v-101h217v-159h-217v-107h291v-174h-516v135h-187l-56 -135h-215zM340 285h125v256h-18zM582 906h201l-103 -149h-149z" />
    <glyph glyph-name="aeacute" unicode="&#x1fd;" horiz-adv-x="913" 
d="M626 -13c-94 0 -162.661 29.334 -205.994 88.001c-20.667 -27.333 -46.834 -48.833 -78.501 -64.5s-73.167 -23.5 -124.5 -23.5c-27.333 0 -53 3 -77 9s-45 15.333 -63 28s-32.167 29 -42.5 49s-15.5 44 -15.5 72c0 61.333 24 105.666 72 132.999s117.333 41 208 41h49v6
c0 22.667 -4 41 -12 55s-25 21 -51 21c-22.667 0 -38.334 -5.33301 -47.001 -16s-14 -24 -16 -40h-184c2 32 9.5 60 22.5 84s30.667 44.167 53 60.5s48.666 28.5 78.999 36.5s63.5 12 99.5 12c78.667 0 134 -19 166 -57c43.333 38 98.333 57 165 57
c36.667 0 71.167 -5.33301 103.5 -16s60.833 -27 85.5 -49s44.167 -50 58.5 -84s21.5 -75 21.5 -123v-47h-357c5.33301 -65.333 36.666 -98 93.999 -98c28 0 47.667 5.5 59 16.5s18.666 24.167 21.999 39.5h182c-7.33301 -60.667 -33.333 -107.5 -78 -140.5
s-107.334 -49.5 -188.001 -49.5zM703.006 319.001c-1.33301 29.333 -8.50098 52 -21.501 68s-32.5 24 -58.5 24c-24 0 -43.667 -7.83301 -59 -23.5s-24.666 -38.5 -27.999 -68.5h167zM269.005 119.001c24.667 0 44 5.83203 58 17.499s21 27.167 21 46.5v33h-46
c-30.667 0 -53.167 -3.66699 -67.5 -11s-21.5 -20.666 -21.5 -39.999c0 -30.667 18.667 -46 56 -46zM451.005 747h193l-104 -169h-141z" />
    <glyph glyph-name="Oslashacute" unicode="&#x1fe;" horiz-adv-x="820" 
d="M34 23l78 81.999c-28 32 -49.167 68.833 -63.5 110.5s-21.5 87.5 -21.5 137.5v8c0 55.333 9.83301 105.333 29.5 150s46.667 82.834 81 114.501s74.833 56.167 121.5 73.5s96.667 26 150 26c44 0 85.5 -5.33301 124.5 -16s74.5 -26 106.5 -46l73 78l57 -56l-68 -72
c29.333 -30 52 -65.5 68 -106.5s24 -87.5 24 -139.5v-8c0 -56 -9.16699 -106.833 -27.5 -152.5s-44.5 -84.667 -78.5 -117s-75 -57.5 -123 -75.5s-101.333 -27 -160 -27c-46.667 0 -89.5 5.5 -128.5 16.5s-73.833 27.167 -104.5 48.5l-81 -85zM410 164.999
c46 0 82.332 16.5 108.999 49.5s40 79.833 40 140.5v8c0 32 -4 60.667 -12 86l-235 -248c24.667 -24 57.334 -36 98.001 -36zM260.999 353.999c0 -32 3.33301 -59 10 -81l231 245c-26 20.667 -57 31 -93 31c-45.333 0 -81.333 -15.667 -108 -47s-40 -78 -40 -140v-8z
M376.999 905.999h201l-103 -149h-149z" />
    <glyph glyph-name="oslashacute" unicode="&#x1ff;" horiz-adv-x="626" 
d="M22 7l63.999 67.998c-20.667 22.667 -36.667 48.834 -48 78.501s-17 63.5 -17 101.5v8c0 42.667 7.5 81 22.5 115s35.667 62.833 62 86.5s57.333 41.834 93 54.501s74.167 19 115.5 19c63.333 0 119 -14.333 167 -43l65 69l50 -46l-62 -66
c22 -22.667 39.167 -49.5 51.5 -80.5s18.5 -65.5 18.5 -103.5v-8c0 -43.333 -7.5 -81.833 -22.5 -115.5s-35.667 -62.167 -62 -85.5s-57.166 -41.166 -92.499 -53.499s-73.333 -18.5 -114 -18.5c-32.667 0 -63.667 3.66699 -93 11s-56 18.666 -80 33.999l-67 -71z
M313.999 130.998c31.333 0 54.667 10.834 70 32.501s23 53.167 23 94.5v8c0 8.66699 -0.333008 16.667 -1 24s-1.66699 14.666 -3 21.999l-150 -160c14.667 -14 35 -21 61 -21zM219 260.999c0 -15.333 0.999023 -29.333 2.99902 -42l147 157
c-15.333 11.333 -33.666 17 -54.999 17c-63.333 0 -95 -41.333 -95 -124v-8zM288.999 746.999h193l-104 -169h-141z" />
    <glyph glyph-name="uni0218" unicode="&#x218;" horiz-adv-x="655" 
d="M334 -13c-101.333 0 -178.501 20.1689 -231.501 60.502s-80.833 100.833 -83.5 181.5h215c0.666992 -11.333 2.83398 -22 6.50098 -32s9.33398 -18.667 17.001 -26s17.667 -13.166 30 -17.499s27.833 -6.5 46.5 -6.5c26.667 0 46.5 5.5 59.5 16.5s19.5 25.167 19.5 42.5
c0 18.667 -7.33301 32.167 -22 40.5s-41.334 15.166 -80.001 20.499c-51.333 6 -94.666 14.333 -129.999 25s-63.833 25.167 -85.5 43.5s-37.167 40.666 -46.5 66.999s-14 57.833 -14 94.5c0 32.667 6.5 63 19.5 91s31.833 52.167 56.5 72.5s54.667 36.166 90 47.499
s75.333 17 120 17c89.333 0 158.166 -18.333 206.499 -55s75.5 -94.334 81.5 -173.001h-210c-2.66699 22 -10.334 39 -23.001 51s-31 18 -55 18c-23.333 0 -41 -4.83301 -53 -14.5s-18 -22.167 -18 -37.5c0 -8.66699 1.5 -16.167 4.5 -22.5s8.33301 -11.833 16 -16.5
s17.834 -8.66699 30.501 -12s29 -6.33301 49 -9c44.667 -4.66699 84.5 -11.5 119.5 -20.5s64.333 -22 88 -39s41.667 -38.667 54 -65s18.5 -59.5 18.5 -99.5c0 -33.333 -6.5 -64.666 -19.5 -93.999s-32 -55 -57 -77s-55.833 -39.5 -92.5 -52.5s-79 -19.5 -127 -19.5z
M201.999 -205.998l39 175l172 -12l-101 -190z" />
    <glyph glyph-name="uni0219" unicode="&#x219;" horiz-adv-x="521" 
d="M259 -13c-76.667 0 -136.499 15.333 -179.499 46s-65.167 75.667 -66.5 135h180c3.33301 -17.333 9.33301 -30.666 18 -39.999s24.334 -14 47.001 -14c19.333 0 33.333 3.33301 42 10s13 15.667 13 27s-6.5 20.333 -19.5 27s-37.167 12.334 -72.5 17.001
c-35.333 4 -65.833 9.66699 -91.5 17s-46.667 17.333 -63 30s-28.5 28.667 -36.5 48s-12 43 -12 71c0 30 6.16699 56.167 18.5 78.5s29 40.666 50 54.999s45.667 25.166 74 32.499s58.5 11 90.5 11c34 0 65 -3 93 -9s52.333 -15.833 73 -29.5s37.167 -31.5 49.5 -53.5
s20.166 -49 23.499 -81h-177c-3.33301 15.333 -9.5 27.333 -18.5 36s-22.5 13 -40.5 13s-31.167 -3.5 -39.5 -10.5s-12.5 -15.5 -12.5 -25.5c0 -12 6.33301 -20.833 19 -26.5s33.667 -10.167 63 -13.5c38 -4.66699 70.833 -10.667 98.5 -18s50.5 -17.333 68.5 -30
s31.5 -28.667 40.5 -48s13.5 -43 13.5 -71c0 -32 -5.83301 -59.667 -17.5 -83s-28.334 -42.5 -50.001 -57.5s-47.667 -26 -78 -33s-63.833 -10.5 -100.5 -10.5zM135.001 -206l39 175l172 -12l-101 -190z" />
    <glyph glyph-name="uni021A" unicode="&#x21a;" horiz-adv-x="629" 
d="M200 541h-180v174h589v-174h-181v-541h-228v541zM191 -206l39 175l172 -12l-101 -190z" />
    <glyph glyph-name="uni021B" unicode="&#x21b;" horiz-adv-x="396" 
d="M265 -12c-62 0 -109.666 14.666 -142.999 43.999s-50 77 -50 143v216h-61v132h61v107h197v-107h100v-132h-100v-197c0 -18 4.5 -31 13.5 -39s21.5 -12 37.5 -12c17.333 0 33.666 2.66699 48.999 8v-148c-12 -3.33301 -27 -6.66602 -45 -9.99902s-37.667 -5 -59 -5z
M90.001 -206.001l39 175l172 -12l-101 -190z" />
    <glyph glyph-name="uni0237" unicode="&#x237;" horiz-adv-x="303" 
d="M-9 -42c21.333 1.33301 36.832 6.33301 46.499 15s14.5 23 14.5 43v507h197v-512c0 -29.333 -4 -55.833 -12 -79.5s-21.667 -44 -41 -61s-45.666 -30.167 -78.999 -39.5s-75.333 -14 -126 -14v141z" />
    <glyph glyph-name="uni02BC" unicode="&#x2bc;" horiz-adv-x="321" 
d="M42 459l78 269l171 -55l-140 -256z" />
    <glyph glyph-name="circumflex" unicode="&#x2c6;" horiz-adv-x="400" 
d="M133 746h138l120 -166h-137l-56 53l-56 -53h-134z" />
    <glyph glyph-name="caron" unicode="&#x2c7;" horiz-adv-x="400" 
d="M8 746h137l56 -52l56 52h134l-125 -166h-138z" />
    <glyph glyph-name="breve" unicode="&#x2d8;" horiz-adv-x="400" 
d="M200 581c-50.667 0 -90.8301 13.833 -120.497 41.5s-45.834 68.167 -48.501 121.5h119c1.33301 -14 6.16602 -25 14.499 -33s20.166 -12 35.499 -12c14.667 0 26.5 4 35.5 12s14.167 19 15.5 33h118c-3.33301 -53.333 -20.333 -93.833 -51 -121.5s-70 -41.5 -118 -41.5z
" />
    <glyph glyph-name="dotaccent" unicode="&#x2d9;" horiz-adv-x="400" 
d="M200 570c-30 0 -54.667 8.83301 -74 26.5s-29 40.5 -29 68.5s9.66699 51 29 69s44 27 74 27c29.333 0 53.833 -9 73.5 -27s29.5 -41 29.5 -69s-9.83301 -50.833 -29.5 -68.5s-44.167 -26.5 -73.5 -26.5z" />
    <glyph glyph-name="ring" unicode="&#x2da;" horiz-adv-x="400" 
d="M200 642c13.333 0 24 4.5 32 13.5s12 20.5 12 34.5c0 14.667 -4 26.5 -12 35.5s-18.667 13.5 -32 13.5s-24 -4.5 -32 -13.5s-12 -20.833 -12 -35.5c0 -14 4 -25.5 12 -34.5s18.667 -13.5 32 -13.5zM200 574c-16.667 0 -32.167 3 -46.5 9s-27 14.333 -38 25
s-19.667 23 -26 37s-9.5 29 -9.5 45s3.16699 31.167 9.5 45.5s15 26.666 26 36.999s23.667 18.666 38 24.999s29.833 9.5 46.5 9.5s32.167 -3.16699 46.5 -9.5s27 -14.666 38 -24.999s19.667 -22.666 26 -36.999s9.5 -29.5 9.5 -45.5s-3.16699 -31 -9.5 -45
s-15 -26.333 -26 -37s-23.667 -19 -38 -25s-29.833 -9 -46.5 -9z" />
    <glyph glyph-name="ogonek" unicode="&#x2db;" horiz-adv-x="400" 
d="M194 -182c-16 0 -31.332 1.66406 -45.999 4.99707s-27.334 8.33301 -38.001 15s-19.167 14.834 -25.5 24.501s-9.5 20.834 -9.5 33.501s2.5 24.334 7.5 35.001s11.667 20.334 20 29.001s17.833 16.167 28.5 22.5s21.334 12.166 32.001 17.499h108
c-12.667 -10.667 -22.167 -20.667 -28.5 -30s-9.5 -19 -9.5 -29c0 -8.66699 2.66699 -15.167 8 -19.5s12.666 -6.5 21.999 -6.5c10.667 0 19 1.33301 25 4v-84c-9.33301 -4.66699 -22 -8.66699 -38 -12s-34.667 -5 -56 -5z" />
    <glyph glyph-name="tilde" unicode="&#x2dc;" horiz-adv-x="400" 
d="M266 581c-14.667 0 -27.6689 1.66797 -39.002 5.00098s-21.666 7 -30.999 11l-25.5 11c-7.66699 3.33301 -15.167 5 -22.5 5c-8 0 -14.667 -2.83301 -20 -8.5s-8.66602 -12.834 -9.99902 -21.501h-104c3.33301 55.333 15.833 96.166 37.5 122.499s48.5 39.5 80.5 39.5
c14 0 26.5 -1.66699 37.5 -5s21.333 -7 31 -11l27.5 -11c8.66699 -3.33301 17 -5 25 -5c16.667 0 26.667 10.333 30 31h104c-2 -28 -6.5 -52.167 -13.5 -72.5s-15.833 -37.166 -26.5 -50.499s-23 -23.333 -37 -30s-28.667 -10 -44 -10z" />
    <glyph glyph-name="hungarumlaut" unicode="&#x2dd;" horiz-adv-x="400" 
d="M91 747h148l-78 -169h-114zM272 747h148l-77 -169h-115z" />
    <glyph glyph-name="uni037E" unicode="&#x37e;" horiz-adv-x="326" 
d="M8 -79l81 272l182 -63l-148 -252zM178 272c-16 0 -30.667 2.83301 -44 8.5s-24.833 13.167 -34.5 22.5s-17.334 20.5 -23.001 33.5s-8.5 27.167 -8.5 42.5c0 14.667 2.83301 28.667 8.5 42s13.334 24.833 23.001 34.5s21.167 17.334 34.5 23.001s28 8.5 44 8.5
s30.833 -2.83301 44.5 -8.5s25.5 -13.334 35.5 -23.001s17.833 -21.167 23.5 -34.5s8.5 -27.333 8.5 -42c0 -15.333 -2.83301 -29.5 -8.5 -42.5s-13.5 -24.167 -23.5 -33.5s-21.833 -16.833 -35.5 -22.5s-28.5 -8.5 -44.5 -8.5z" />
    <glyph glyph-name="uni0401" unicode="&#x401;" horiz-adv-x="620" 
d="M65 715h508v-174h-282v-101h224v-159h-224v-107h298v-174h-524v715zM213 752c-12.667 0 -24.5 2.33301 -35.5 7s-20.667 11 -29 19s-14.833 17.5 -19.5 28.5s-7 22.5 -7 34.5c0 12.667 2.33301 24.334 7 35.001s11.167 20 19.5 28s18 14.333 29 19s22.833 7 35.5 7
s24.667 -2.33301 36 -7s21.166 -11 29.499 -19s14.833 -17.333 19.5 -28s7 -22.334 7 -35.001c0 -12 -2.33301 -23.5 -7 -34.5s-11.167 -20.5 -19.5 -28.5s-18.166 -14.333 -29.499 -19s-23.333 -7 -36 -7zM440 752c-12.667 0 -24.5 2.33301 -35.5 7s-20.667 11 -29 19
s-14.833 17.5 -19.5 28.5s-7 22.5 -7 34.5c0 12.667 2.33301 24.334 7 35.001s11.167 20 19.5 28s18 14.333 29 19s22.833 7 35.5 7s24.667 -2.33301 36 -7s21.166 -11 29.499 -19s14.833 -17.333 19.5 -28s7 -22.334 7 -35.001c0 -12 -2.33301 -23.5 -7 -34.5
s-11.167 -20.5 -19.5 -28.5s-18.166 -14.333 -29.499 -19s-23.333 -7 -36 -7z" />
    <glyph glyph-name="uni0402" unicode="&#x402;" horiz-adv-x="855" 
d="M428 410c12 7.33301 26.001 14.332 42.001 20.999c13.333 5.33301 30 10.333 50 15s43.333 7 70 7c38.667 0 72.667 -5.66699 102 -17s54 -27.5 74 -48.5s35.167 -46 45.5 -75s15.5 -60.833 15.5 -95.5c0 -36.667 -4.66699 -69.834 -14 -99.501s-23.666 -55 -42.999 -76
s-43.833 -37.167 -73.5 -48.5s-64.5 -17 -104.5 -17c-30 0 -54.333 2.83301 -73 8.5s-32.667 10.834 -42 15.501v156c2.66699 -1.33301 9 -3.83301 19 -7.5s24 -5.5 42 -5.5c21.333 0 37.166 6.5 47.499 19.5s15.5 30.167 15.5 51.5c0 20 -5.83301 36.333 -17.5 49
s-32.834 19 -63.501 19c-15.333 0 -28.5 -1.66699 -39.5 -5s-20.5 -6.66602 -28.5 -9.99902c-9.33301 -4 -17.333 -8.66699 -24 -14v-253h-228v541h-180v174h589v-174h-181v-131z" />
    <glyph glyph-name="uni0403" unicode="&#x403;" horiz-adv-x="574" 
d="M65 715h485v-175h-257v-540h-228v715zM279 906h201l-103 -149h-149z" />
    <glyph glyph-name="uni0404" unicode="&#x404;" horiz-adv-x="764" 
d="M746 258c-6 -44.667 -18.3359 -84 -37.0029 -118s-42.5 -62.333 -71.5 -85s-63.167 -39.667 -102.5 -51s-82.333 -17 -129 -17c-64 0 -119.667 8.83301 -167 26.5s-86.666 42.5 -117.999 74.5s-54.666 70.5 -69.999 115.5s-23 94.833 -23 149.5v8
c0 55.333 9.33301 105.5 28 150.5s44.5 83.333 77.5 115s72.167 56.167 117.5 73.5s94.333 26 147 26c94 0 170.5 -21 229.5 -63s95.167 -109 108.5 -201h-234c-10 58 -44.333 87 -103 87c-31.333 0 -57.666 -9 -78.999 -27s-36.333 -45 -45 -81h219v-159h-221
c7.33301 -38 22.166 -66.667 44.499 -86s50.833 -29 85.5 -29c30 0 55.333 7.16699 76 21.5s34.334 37.5 41.001 69.5h226z" />
    <glyph glyph-name="uni0405" unicode="&#x405;" horiz-adv-x="653" 
d="M334 -13c-101.333 0 -178.501 20.1689 -231.501 60.502s-80.833 100.833 -83.5 181.5h215c0.666992 -11.333 2.83398 -22 6.50098 -32s9.33398 -18.667 17.001 -26s17.667 -13.166 30 -17.499s27.833 -6.5 46.5 -6.5c26.667 0 46.5 5.5 59.5 16.5s19.5 25.167 19.5 42.5
c0 18.667 -7.33301 32.167 -22 40.5s-41.334 15.166 -80.001 20.499c-51.333 6 -94.666 14.333 -129.999 25s-63.833 25.167 -85.5 43.5s-37.167 40.666 -46.5 66.999s-14 57.833 -14 94.5c0 32.667 6.5 63 19.5 91s31.833 52.167 56.5 72.5s54.667 36.166 90 47.499
s75.333 17 120 17c89.333 0 158.166 -18.333 206.499 -55s75.5 -94.334 81.5 -173.001h-210c-2.66699 22 -10.334 39 -23.001 51s-31 18 -55 18c-23.333 0 -41 -4.83301 -53 -14.5s-18 -22.167 -18 -37.5c0 -8.66699 1.5 -16.167 4.5 -22.5s8.33301 -11.833 16 -16.5
s17.834 -8.66699 30.501 -12s29 -6.33301 49 -9c44.667 -4.66699 84.5 -11.5 119.5 -20.5s64.333 -22 88 -39s41.667 -38.667 54 -65s18.5 -59.5 18.5 -99.5c0 -33.333 -6.5 -64.666 -19.5 -93.999s-32 -55 -57 -77s-55.833 -39.5 -92.5 -52.5s-79 -19.5 -127 -19.5z" />
    <glyph glyph-name="uni0406" unicode="&#x406;" horiz-adv-x="366" 
d="M68 715h229v-715h-229v715z" />
    <glyph glyph-name="uni0407" unicode="&#x407;" horiz-adv-x="366" 
d="M68 715h229v-715h-229v715zM69 752c-12.667 0 -24.5 2.33301 -35.5 7s-20.667 11 -29 19s-14.833 17.5 -19.5 28.5s-7 22.5 -7 34.5c0 12.667 2.33301 24.334 7 35.001s11.167 20 19.5 28s18 14.333 29 19s22.833 7 35.5 7s24.667 -2.33301 36 -7s21.166 -11 29.499 -19
s14.833 -17.333 19.5 -28s7 -22.334 7 -35.001c0 -12 -2.33301 -23.5 -7 -34.5s-11.167 -20.5 -19.5 -28.5s-18.166 -14.333 -29.499 -19s-23.333 -7 -36 -7zM296 752c-12.667 0 -24.5 2.33301 -35.5 7s-20.667 11 -29 19s-14.833 17.5 -19.5 28.5s-7 22.5 -7 34.5
c0 12.667 2.33301 24.334 7 35.001s11.167 20 19.5 28s18 14.333 29 19s22.833 7 35.5 7s24.667 -2.33301 36 -7s21.166 -11 29.499 -19s14.833 -17.333 19.5 -28s7 -22.334 7 -35.001c0 -12 -2.33301 -23.5 -7 -34.5s-11.167 -20.5 -19.5 -28.5
s-18.166 -14.333 -29.499 -19s-23.333 -7 -36 -7z" />
    <glyph glyph-name="uni0408" unicode="&#x408;" horiz-adv-x="489" 
d="M168 -9c-35.333 0 -63.001 2.33398 -83.001 7.00098s-37.667 10.667 -53 18v167c11.333 -3.33301 23.5 -6.33301 36.5 -9s29.167 -4 48.5 -4c26.667 0 48.334 6.66699 65.001 20s25 37.666 25 72.999v452h227v-453c0 -89.333 -21.833 -156.833 -65.5 -202.5
s-110.5 -68.5 -200.5 -68.5z" />
    <glyph glyph-name="uni0409" unicode="&#x409;" horiz-adv-x="1056" 
d="M464 540h-131.998l-4 -122.5c-1.33301 -39.667 -3.66602 -76.834 -6.99902 -111.501c-4 -48.667 -10.667 -92.667 -20 -132s-22.833 -72.833 -40.5 -100.5s-39.834 -49 -66.501 -64s-59.667 -22.5 -99 -22.5c-23.333 0 -41.833 2.16699 -55.5 6.5
s-20.834 6.5 -21.501 6.5v172c1.33301 -1.33301 3.33301 -2.33301 6 -3c5.33301 -1.33301 12 -2 20 -2c25.333 0 44.166 14.833 56.499 44.5s21.166 72.5 26.499 128.5c2 18.667 3.5 41.5 4.5 68.5s1.83301 56.667 2.5 89s1.16699 67 1.5 104s0.5 74.833 0.5 113.5h555v-239
h60c93.333 0 164 -19.667 212 -59s72 -96.666 72 -171.999v-4c0 -76 -23.167 -135.167 -69.5 -177.5s-121.166 -63.5 -224.499 -63.5h-277v540zM730.002 167c29.333 0 51.667 5.33301 67 16s23 29.667 23 57v4c0 52 -30.333 78 -91 78h-38v-155h39z" />
    <glyph glyph-name="uni040A" unicode="&#x40a;" horiz-adv-x="1070" 
d="M744 167c30 0 52.5 5.33301 67.5 16s22.5 29.667 22.5 57v4c0 52 -30.333 78 -91 78h-38v-155h39zM479 275l-186.001 -0.000976562v-275h-228v715h228v-264h186v264h226v-239h60c93.333 0 164 -19.667 212 -59s72 -96.666 72 -171.999v-4
c0 -76 -23.167 -135.167 -69.5 -177.5s-121.166 -63.5 -224.499 -63.5h-276v275z" />
    <glyph glyph-name="uni040B" unicode="&#x40b;" horiz-adv-x="865" 
d="M428 410c12 7.33301 26 14.332 42 20.999c13.333 5.33301 30 10.333 50 15s43.333 7 70 7c82 0 142 -23 180 -69s57 -109.333 57 -190v-194h-226v186c0 32 -6 56 -18 72s-34.667 24 -68 24c-14 0 -26.5 -1.66699 -37.5 -5s-20.167 -6.66602 -27.5 -9.99902
c-8.66699 -4 -16 -8.66699 -22 -14v-253h-228v541h-180v174h589v-174h-181v-131z" />
    <glyph glyph-name="uni040C" unicode="&#x40c;" horiz-adv-x="746" 
d="M352 906h201l-103 -149h-149zM65 715h227v-271l198 271h235l-251 -330l265 -385h-261l-186 286v-286h-227v715z" />
    <glyph glyph-name="uni040D" unicode="&#x40d;" horiz-adv-x="809" 
d="M65 0v715h228v-412l227 412h224v-715h-227v416l-227 -416h-225zM239 906h202l47 -149h-149z" />
    <glyph glyph-name="uni040E" unicode="&#x40e;" horiz-adv-x="679" 
d="M357 749c-54 0 -95.5 13.833 -124.5 41.5s-45.167 66.167 -48.5 115.5h130c1.33301 -13.333 5 -24.833 11 -34.5s16.667 -14.5 32 -14.5s26 5 32 15s10 21.333 12 34h129c-4 -49.333 -21 -87.833 -51 -115.5s-70.667 -41.5 -122 -41.5zM204 -11
c-25.333 0 -46.501 2.16699 -63.501 6.5s-27.167 7.16602 -30.5 8.49902v173c3.33301 -1.33301 9.83301 -3.16602 19.5 -5.49902s24.167 -3.5 43.5 -3.5c29.333 0 54 13.667 74 41l-241 506h235l118 -273l107 273h213l-219 -511
c-15.333 -35.333 -30.666 -66.333 -45.999 -93s-32.833 -49 -52.5 -67s-42.167 -31.667 -67.5 -41s-55.333 -14 -90 -14z" />
    <glyph glyph-name="uni040F" unicode="&#x40f;" horiz-adv-x="784" 
d="M65 0v715h228v-540h199v540h227v-715h-231l-5 -130h-185l-5 130h-228z" />
    <glyph glyph-name="uni0410" unicode="&#x410;" horiz-adv-x="760" 
d="M234 715h293l224 -715h-240l-33 119h-226l-32 -119h-211zM295 273h141l-70 259z" />
    <glyph glyph-name="uni0411" unicode="&#x411;" horiz-adv-x="670" 
d="M651 232c0 -74 -22.5 -131.167 -67.5 -171.5s-116.5 -60.5 -214.5 -60.5h-304v715h515v-174h-291v-87h85c92.667 0 162 -19.333 208 -58s69 -92 69 -160v-4zM344 160c58.667 0 88 24 88 72v4c0 23.333 -7.33301 41.333 -22 54s-37 19 -67 19h-54v-149h55z" />
    <glyph glyph-name="uni0412" unicode="&#x412;" horiz-adv-x="690" 
d="M65 715l338 0.00292969c44 0 81.5 -4.83301 112.5 -14.5s56.167 -22.834 75.5 -39.501s33.5 -36.334 42.5 -59.001s13.5 -47.334 13.5 -74.001v-4c0 -42 -10.667 -75.833 -32 -101.5s-52 -43.167 -92 -52.5c42 -7.33301 76.333 -24.5 103 -51.5s40 -65.5 40 -115.5v-4
c0 -63.333 -21.167 -112.333 -63.5 -147s-109.5 -52 -201.5 -52h-336v715zM358 149.003c29.333 0 50.833 6.5 64.5 19.5s20.5 31.5 20.5 55.5v4c0 23.333 -7 41.333 -21 54s-37 19 -69 19h-67v-152h72zM355 436.003c28 0 48 5 60 15s18 26 18 48v4
c0 21.333 -6.16699 37.333 -18.5 48s-32.5 16 -60.5 16h-68v-131h69z" />
    <glyph glyph-name="uni0413" unicode="&#x413;" horiz-adv-x="574" 
d="M65 715h485v-175h-257v-540h-228v715z" />
    <glyph glyph-name="uni0414" unicode="&#x414;" horiz-adv-x="776" 
d="M304 322c-3.33301 -30 -7.50098 -57.1689 -12.501 -81.502s-12.167 -46.166 -21.5 -65.499h194v366h-149l-4 -116c-1.33301 -37.333 -3.66602 -71.666 -6.99902 -102.999zM188.999 -130.002h-196v305h47c20 9.33301 35.5 27.833 46.5 55.5s19.167 65.5 24.5 113.5
c2 16.667 3.5 38 4.5 64s1.83301 55.333 2.5 88s1.16699 67.667 1.5 105s0.5 75.333 0.5 114h569v-540h87v-305h-196l-7 130h-377z" />
    <glyph glyph-name="uni0415" unicode="&#x415;" horiz-adv-x="620" 
d="M65 715h508v-174h-282v-101h224v-159h-224v-107h298v-174h-524v715z" />
    <glyph glyph-name="uni0416" unicode="&#x416;" horiz-adv-x="1045" 
d="M411 300l-166 -300h-237l225 377l-215 338h227l166 -285v285h221v-283l167 283h224l-216 -327l230 -388h-247l-158 299v-299h-221v300z" />
    <glyph glyph-name="uni0417" unicode="&#x417;" horiz-adv-x="668" 
d="M330 -12c-42.667 0 -82.1709 5.33496 -118.504 16.002s-68.166 26.834 -95.499 48.501s-49.666 48.667 -66.999 81s-28.666 70.5 -33.999 114.5h214c5.33301 -27.333 15.833 -49 31.5 -65s38.834 -24 69.501 -24c54.667 0 82 23.333 82 70c0 22 -6 38.5 -18 49.5
s-31 16.5 -57 16.5h-68v144h66c23.333 0 40.333 4.66699 51 14s16 24.666 16 45.999c0 19.333 -6.83301 33.666 -20.5 42.999s-30.167 14 -49.5 14c-15.333 0 -28.5 -2.16699 -39.5 -6.5s-20.167 -10.5 -27.5 -18.5s-13 -17.333 -17 -28s-7 -22 -9 -34h-209
c10 83.333 41.833 147 95.5 191s125.167 66 214.5 66c44 0 83.5 -5.16699 118.5 -15.5s64.833 -24.5 89.5 -42.5s43.667 -39.167 57 -63.5s20 -50.5 20 -78.5c0 -42.667 -10.5 -77 -31.5 -103s-51.5 -44 -91.5 -54c42 -6.66699 76.333 -23.334 103 -50.001s40 -64 40 -112
c0 -33.333 -7.66699 -63.5 -23 -90.5s-37 -50 -65 -69s-61.333 -33.667 -100 -44s-81 -15.5 -127 -15.5z" />
    <glyph glyph-name="uni0418" unicode="&#x418;" horiz-adv-x="809" 
d="M65 0v715h228v-412l227 412h224v-715h-227v416l-227 -416h-225z" />
    <glyph glyph-name="uni0419" unicode="&#x419;" horiz-adv-x="809" 
d="M399 749c-53.333 0 -94.498 13.833 -123.498 41.5s-45.167 66.167 -48.5 115.5h130c1.33301 -13.333 4.83301 -24.833 10.5 -34.5s16.167 -14.5 31.5 -14.5s26.166 5 32.499 15s10.166 21.333 11.499 34h129c-4 -49.333 -21 -87.833 -51 -115.5s-70.667 -41.5 -122 -41.5
zM65.002 0v715h228v-412l227 412h224v-715h-227v416l-227 -416h-225z" />
    <glyph glyph-name="uni041A" unicode="&#x41a;" horiz-adv-x="746" 
d="M65 715h227v-271l198 271h235l-251 -330l265 -385h-261l-186 286v-286h-227v715z" />
    <glyph glyph-name="uni041B" unicode="&#x41b;" horiz-adv-x="760" 
d="M317 268c-5.33301 -42.667 -12.8311 -81.335 -22.498 -116.002s-23.167 -64.167 -40.5 -88.5s-39 -43.166 -65 -56.499s-57.333 -20 -94 -20c-23.333 0 -41.833 2.16699 -55.5 6.5s-20.834 6.5 -21.501 6.5v172c1.33301 -1.33301 3.33301 -2.33301 6 -3
c5.33301 -1.33301 12 -2 20 -2c24 0 42.167 13.5 54.5 40.5s21.166 66.5 26.499 118.5c2 19.333 3.66699 42.833 5 70.5s2.5 58.334 3.5 92.001s1.66699 69.667 2 108s0.5 77.833 0.5 118.5h559v-715h-227v540h-136c-1.33301 -49.333 -3 -97 -5 -143s-5.33301 -89 -10 -129z
" />
    <glyph glyph-name="uni041C" unicode="&#x41c;" horiz-adv-x="958" 
d="M65 715h294l121 -347l123 347h288v-715h-225v422l-163 -422h-76l-160 422v-422h-202v715z" />
    <glyph glyph-name="uni041D" unicode="&#x41d;" horiz-adv-x="794" 
d="M65 715h227v-264h210v264h227v-715h-227v275h-210v-275h-227v715z" />
    <glyph glyph-name="uni041E" unicode="&#x41e;" horiz-adv-x="820" 
d="M411 165c44.667 0 80.168 16.499 106.501 49.499s39.5 79.5 39.5 139.5v8c0 60.667 -13.333 107 -40 139s-62.667 48 -108 48c-44 0 -79.167 -15.833 -105.5 -47.5s-39.5 -78.167 -39.5 -139.5v-8c0 -61.333 13.167 -108.166 39.5 -140.499s62.166 -48.5 107.499 -48.5z
M405.001 -13.001c-58.667 0 -111.33 8.83301 -157.997 26.5s-86.334 42.667 -119.001 75s-57.667 71 -75 116s-26 94.5 -26 148.5v8c0 55.333 9.83301 105.5 29.5 150.5s46.667 83.333 81 115s74.833 56.167 121.5 73.5s96.667 26 150 26
c54.667 0 105.5 -8.16699 152.5 -24.5s87.667 -39.833 122 -70.5s61.166 -68.167 80.499 -112.5s29 -94.833 29 -151.5v-8c0 -56 -9.16699 -106.833 -27.5 -152.5s-44.5 -84.667 -78.5 -117s-74.833 -57.5 -122.5 -75.5s-100.834 -27 -159.501 -27z" />
    <glyph glyph-name="uni041F" unicode="&#x41f;" horiz-adv-x="784" 
d="M492 539h-199v-539h-228v715h654v-715h-227v539z" />
    <glyph glyph-name="uni0420" unicode="&#x420;" horiz-adv-x="665" 
d="M65 715h284.999c102.667 0 177.334 -21.667 224.001 -65s70 -103.333 70 -180v-4c0 -74.667 -24 -132.167 -72 -172.5s-118.667 -60.5 -212 -60.5h-69v-233h-226v715zM337.999 385c60.667 0 91 26.667 91 80v4c0 28 -7.5 47.833 -22.5 59.5s-37.5 17.5 -67.5 17.5h-48
v-161h47z" />
    <glyph glyph-name="uni0421" unicode="&#x421;" horiz-adv-x="764" 
d="M408 -13c-64.667 0 -120.836 8.83301 -168.503 26.5s-87.167 42.5 -118.5 74.5s-54.666 70.5 -69.999 115.5s-23 94.833 -23 149.5v8c0 55.333 9.33301 105.5 28 150.5s44.5 83.333 77.5 115s72.167 56.167 117.5 73.5s94.333 26 147 26c48 0 92 -5.66699 132 -17
s74.667 -28.5 104 -51.5s53 -52.167 71 -87.5s29 -77.333 33 -126h-234c-3.33301 33.333 -13.666 58.833 -30.999 76.5s-42 26.5 -74 26.5c-41.333 0 -73.666 -15.667 -96.999 -47s-35 -77.333 -35 -138v-8c0 -60 11.667 -105.833 35 -137.5s57 -47.5 101 -47.5
c32 0 58.667 8.5 80 25.5s34 43.5 38 79.5h226c-3.33301 -47.333 -13.833 -88.833 -31.5 -124.5s-41.5 -65.5 -71.5 -89.5s-65 -42.167 -105 -54.5s-83.667 -18.5 -131 -18.5z" />
    <glyph glyph-name="uni0422" unicode="&#x422;" horiz-adv-x="629" 
d="M200 541h-180v174h589v-174h-181v-541h-228v541z" />
    <glyph glyph-name="uni0423" unicode="&#x423;" horiz-adv-x="679" 
d="M204 -11c-25.333 0 -46.501 2.16699 -63.501 6.5s-27.167 7.16602 -30.5 8.49902v173c3.33301 -1.33301 9.83301 -3.16602 19.5 -5.49902s24.167 -3.5 43.5 -3.5c29.333 0 54 13.667 74 41l-241 506h235l118 -273l107 273h213l-219 -511
c-15.333 -35.333 -30.666 -66.333 -45.999 -93s-32.833 -49 -52.5 -67s-42.167 -31.667 -67.5 -41s-55.333 -14 -90 -14z" />
    <glyph glyph-name="uni0424" unicode="&#x424;" horiz-adv-x="940" 
d="M583 649c50 -1.33301 95.502 -8.66602 136.502 -21.999s76 -32 105 -56s51.5 -53.333 67.5 -88s24 -74 24 -118v-8c0 -44.667 -8.66699 -84.167 -26 -118.5s-41 -63.333 -71 -87s-65.333 -41.834 -106 -54.501s-84 -19.667 -130 -21v-86h-226v86
c-50 1.33301 -95.5 8.5 -136.5 21.5s-76 31.5 -105 55.5s-51.5 53.333 -67.5 88s-24 74 -24 118v8c0 44.667 8.66699 84.167 26 118.5s41.166 63.333 71.499 87s65.666 42 105.999 55s83.5 20.167 129.5 21.5v86h226v-86zM357.002 494
c-15.333 -0.666992 -30.001 -3.66992 -44.001 -9.00293s-26.333 -13.166 -37 -23.499s-19 -23.166 -25 -38.499s-9 -33.666 -9 -54.999v-8c0 -22 3 -41 9 -57s14.333 -29.167 25 -39.5s22.834 -18 36.501 -23s28.5 -7.83301 44.5 -8.5v262zM583.001 229.997
c15.333 0.666992 30.001 3.66699 44.001 9s26.167 13 36.5 23s18.666 22.833 24.999 38.5s9.5 34.167 9.5 55.5v8c0 22 -3 41 -9 57s-14.167 29.167 -24.5 39.5s-22.5 18 -36.5 23s-29 7.83301 -45 8.5v-262z" />
    <glyph glyph-name="uni0425" unicode="&#x425;" horiz-adv-x="773" 
d="M236 368l-202 347h259l100 -201l98 201h232l-187 -339l219 -376h-258l-123 235l-123 -235h-233z" />
    <glyph glyph-name="uni0426" unicode="&#x426;" horiz-adv-x="805" 
d="M609 -130l-7 130h-537v715h228v-540h199v540h227v-540h86v-305h-196z" />
    <glyph glyph-name="uni0427" unicode="&#x427;" horiz-adv-x="753" 
d="M462 0l-0.00195312 266c-3.33301 -1.33301 -8.66602 -4 -15.999 -8s-17.166 -8 -29.499 -12s-26.833 -7.5 -43.5 -10.5s-35.667 -4.5 -57 -4.5c-93.333 0 -162.333 24.5 -207 73.5s-67 123.833 -67 224.5v186h226v-192c0 -43.333 8 -74.5 24 -93.5s41.667 -28.5 77 -28.5
c14 0 26.333 1.33301 37 4s20 5.5 28 8.5s14.333 6 19 9s7.66699 4.83301 9 5.5v287h226v-715h-226z" />
    <glyph glyph-name="uni0428" unicode="&#x428;" horiz-adv-x="1087" 
d="M65 715h224v-540h143v540h224v-540h143v540h223v-715h-957v715z" />
    <glyph glyph-name="uni0429" unicode="&#x429;" horiz-adv-x="1112" 
d="M916 -130l-7 130h-844v715h224v-540h143v540h224v-540h143v540h223v-540h90v-305h-196z" />
    <glyph glyph-name="uni042A" unicode="&#x42a;" horiz-adv-x="776" 
d="M177 541l-159 0.000976562v174h385v-232h69c93.333 0 163.833 -20.333 211.5 -61s71.5 -98.334 71.5 -173.001v-4c0 -76.667 -23.167 -136.667 -69.5 -180s-120.833 -65 -223.5 -65h-285v541zM451 167.001c29.333 0 51.667 6 67 18s23 31.667 23 59v4
c0 53.333 -30.333 80 -91 80h-47v-161h48z" />
    </font>
</defs>
</svg>
