<?xml version="1.0" standalone="no"?>
<!DOCTYPE svg PUBLIC "-//W3C//DTD SVG 1.1//EN" "http://www.w3.org/Graphics/SVG/1.1/DTD/svg11.dtd" >
<svg>
<metadata>
Created by FontForge 20090914 at Sat Mar 21 19:50:52 2020
 By www-data
&#194;&#169;2009 Commercial Type.
</metadata>
<defs>
<font id="GraphikLCWeb-RegularItalic" horiz-adv-x="612" >
  <font-face 
    font-family="Graphik LC Web Regular"
    font-weight="400"
    font-style="italic"
    font-stretch="normal"
    units-per-em="1000"
    panose-1="2 11 5 3 3 2 2 13 2 3"
    ascent="818"
    descent="-182"
    x-height="523"
    cap-height="715"
    bbox="-257 -220 1090 1113"
    underline-thickness="50"
    underline-position="-50"
    slope="-8"
    unicode-range="U+000D-U+FB02"
  />
<missing-glyph horiz-adv-x="500" 
 />
    <glyph glyph-name="f_f" unicode="ff" horiz-adv-x="632" 
d="M416 453l-202.002 0.00195312l-71 -453h-83l71 453h-74l11 70h74l15 92c8 50 27.333 87.667 58 113s68 38 112 38c17.333 0 31.166 -1.16699 41.499 -3.5s19.5 -5.5 27.5 -9.5l-10 -66c-15.333 6.66699 -33.666 10 -54.999 10c-27.333 0 -48.166 -7.33301 -62.499 -22
s-23.833 -35.334 -28.5 -62.001l-15 -90h202l16 102c8 50 27.333 87.667 58 113s68 38 112 38c17.333 0 31.166 -1.16699 41.499 -3.5s19.5 -5.5 27.5 -9.5l-10 -66c-15.333 6.66699 -33.666 10 -54.999 10c-27.333 0 -48.166 -7.33301 -62.499 -22
s-23.833 -35.334 -28.5 -62.001l-16 -100h128l-11 -70h-128l-72 -453h-83z" />
    <glyph glyph-name=".notdef" horiz-adv-x="500" 
 />
    <glyph glyph-name="NULL" horiz-adv-x="0" 
 />
    <glyph glyph-name="NULL" horiz-adv-x="0" 
 />
    <glyph glyph-name="nonmarkingreturn" unicode="&#xd;" horiz-adv-x="265" 
 />
    <glyph glyph-name="space" unicode=" " horiz-adv-x="265" 
 />
    <glyph glyph-name="exclam" unicode="!" horiz-adv-x="298" 
d="M175 715h92l-96 -513h-64zM119 -5c-17.333 0 -32.332 6.16699 -44.999 18.5s-19 27.5 -19 45.5s6.16699 33.167 18.5 45.5s27.166 18.5 44.499 18.5s32.5 -6.16699 45.5 -18.5s19.5 -27.5 19.5 -45.5s-6.33301 -33.167 -19 -45.5s-27.667 -18.5 -45 -18.5z" />
    <glyph glyph-name="quotedbl" unicode="&#x22;" horiz-adv-x="387" 
d="M137 715h90l-52 -245h-60zM300 715h90l-52 -245h-60z" />
    <glyph glyph-name="numbersign" unicode="#" horiz-adv-x="515" 
d="M295 282h-97l-43 -183h-68l43 183h-87l11 70h92l31 132h-88l11 70h94l38 161h68l-38 -161h97l38 161h68l-38 -161h88l-11 -70h-94l-31 -132h90l-11 -70h-95l-43 -183h-68zM214 352h97l31 132h-97z" />
    <glyph glyph-name="dollar" unicode="$" horiz-adv-x="629" 
d="M301 -9l-20.001 -125.999h-59l20 131c-34.667 5.33301 -64.667 15 -90 29s-46.5 31 -63.5 51s-29.667 42.167 -38 66.5s-12.5 49.5 -12.5 75.5h84c0.666992 -17.333 3.5 -34 8.5 -50s12.833 -30.833 23.5 -44.5s24 -25.667 40 -36s35.667 -17.833 59 -22.5l44 274
c-30 9.33301 -56.167 19.5 -78.5 30.5s-41.166 23.833 -56.499 38.5s-26.833 31.5 -34.5 50.5s-11.5 41.5 -11.5 67.5c0 26.667 5.83301 52 17.5 76s28.167 45 49.5 63s46.833 32.333 76.5 43s62.5 16 98.5 16l14 89h59l-15 -94c52.667 -8.66699 95 -29.334 127 -62.001
s48.667 -76 50 -130h-78c-3.33301 37.333 -15 65.5 -35 84.5s-45 31.833 -75 38.5l-40 -251c32.667 -10 61.167 -20.833 85.5 -32.5s44.5 -24.834 60.5 -39.501s28 -31.667 36 -51s12 -41.666 12 -66.999c0 -31.333 -5.83301 -60.333 -17.5 -87s-28.334 -49.667 -50.001 -69
s-48.167 -34.5 -79.5 -45.5s-66.666 -16.5 -105.999 -16.5h-5zM474.999 201.001c0 14.667 -1.83301 27.833 -5.5 39.5s-10.167 22.167 -19.5 31.5s-21.833 18 -37.5 26s-35.5 16 -59.5 24l-41 -262c52.667 0.666992 93 13.667 121 39s42 59.333 42 102zM197.999 529
c0 -12.667 1.66895 -24 5.00195 -34s9.16602 -19.5 17.499 -28.5s19.666 -17.5 33.999 -25.5s32.5 -16 54.5 -24l38 238c-50.667 -0.666992 -88.167 -13.167 -112.5 -37.5s-36.5 -53.833 -36.5 -88.5z" />
    <glyph glyph-name="percent" unicode="%" horiz-adv-x="796" 
d="M155 535c0 -11.333 1.33398 -22.168 4.00098 -32.501s7 -19.666 13 -27.999s14.167 -15 24.5 -20s23.166 -7.5 38.499 -7.5c30 0 53.333 11.167 70 33.5s25 50.5 25 84.5c0 10.667 -1.33301 21.5 -4 32.5s-7 21 -13 30s-14.167 16.167 -24.5 21.5s-22.833 8 -37.5 8
c-16 0 -30 -3.16699 -42 -9.5s-22 -15 -30 -26s-14 -24 -18 -39s-6 -30.833 -6 -47.5zM233.001 382.998c-23.333 0 -44.333 3.99805 -63 11.998s-34.834 19 -48.501 33s-24.167 30.5 -31.5 49.5s-11 39.5 -11 61.5c0 24 4.5 47 13.5 69s21.333 41.333 37 58
s34.167 30 55.5 40s44.333 15 69 15c23.333 0 44.5 -4.16699 63.5 -12.5s35 -19.666 48 -33.999s23 -31.166 30 -50.499s10.5 -40 10.5 -62c0 -24 -4.5 -46.833 -13.5 -68.5s-21.167 -40.667 -36.5 -57s-33.666 -29.333 -54.999 -39s-44 -14.5 -68 -14.5zM649.001 714.996
h79l-547 -715h-79zM499.001 143.996c0 -11.333 1.33398 -22.168 4.00098 -32.501s7 -19.666 13 -27.999s14.167 -15 24.5 -20s23.166 -7.5 38.499 -7.5c30 0 53.333 11.167 70 33.5s25 50.5 25 84.5c0 10.667 -1.33301 21.5 -4 32.5s-7 21 -13 30s-14.167 16.167 -24.5 21.5
s-22.833 8 -37.5 8c-16 0 -30 -3.16699 -42 -9.5s-22 -15 -30 -26s-14 -24 -18 -39s-6 -30.833 -6 -47.5zM577.002 -8.00586c-23.333 0 -44.333 3.99805 -63 11.998s-34.834 19 -48.501 33s-24.167 30.5 -31.5 49.5s-11 39.5 -11 61.5c0 24 4.5 47 13.5 69
s21.333 41.333 37 58s34.167 30 55.5 40s44.333 15 69 15c23.333 0 44.5 -4.16699 63.5 -12.5s35 -19.666 48 -33.999s23 -31.166 30 -50.499s10.5 -40 10.5 -62c0 -24 -4.5 -46.833 -13.5 -68.5s-21.167 -40.667 -36.5 -57s-33.666 -29.333 -54.999 -39
s-44 -14.5 -68 -14.5z" />
    <glyph glyph-name="ampersand" unicode="&#x26;" horiz-adv-x="692" 
d="M512 0l-57.002 84.9971c-23.333 -24 -52.166 -45 -86.499 -63s-71.833 -27.333 -112.5 -28c-25.333 0 -50.666 3.16699 -75.999 9.5s-48 16.833 -68 31.5s-36.333 33.834 -49 57.501s-19 52.834 -19 87.501c0 30 5 56.667 15 80s24 44.166 42 62.499s39 34.333 63 48
s50 26.167 78 37.5c-13.333 23.333 -23.666 46 -30.999 68s-11 43.333 -11 64c0 27.333 4.66699 52 14 74s22 40.833 38 56.5s34.833 27.667 56.5 36s44.834 12.5 69.501 12.5c21.333 0 41.5 -3.16699 60.5 -9.5s35.5 -15.666 49.5 -27.999s25 -27.333 33 -45
s12 -37.5 12 -59.5c0 -26 -5 -49 -15 -69s-23.333 -37.5 -40 -52.5s-35.834 -28.167 -57.501 -39.5s-43.834 -21.666 -66.501 -30.999l119 -181l108 165h80l-148 -224l96 -145h-97zM129.998 181.997c0 -38.667 11.667 -68.4971 35 -89.4971s54.666 -31.5 93.999 -31.5
c28 0 56 6.66699 84 20s53.667 32.666 77 57.999l-146 219c-18.667 -7.33301 -36.667 -15.833 -54 -25.5s-32.666 -21.334 -45.999 -35.001s-24 -29.834 -32 -48.501s-12 -41 -12 -67zM375.998 655c-28 0 -50.833 -9.33594 -68.5 -28.0029s-26.5 -45 -26.5 -79
c0 -16.667 3.66699 -34 11 -52s17.666 -38 30.999 -60c16 6 31.833 12.833 47.5 20.5s29.667 16.834 42 27.501s22.333 23.334 30 38.001s11.5 32.334 11.5 53.001s-6.16699 39.167 -18.5 55.5s-32.166 24.5 -59.499 24.5z" />
    <glyph glyph-name="quotesingle" unicode="'" horiz-adv-x="224" 
d="M137 715h90l-52 -245h-60z" />
    <glyph glyph-name="parenleft" unicode="(" horiz-adv-x="334" 
d="M161 -148c-32 46.667 -57.499 99.001 -76.499 157.001s-28.5 122.333 -28.5 193c0 58.667 6 114.5 18 167.5s28.667 103.167 50 150.5s47.166 92.166 77.499 134.499s63.833 81.833 100.5 118.5h91c-38 -39.333 -72.333 -80 -103 -122s-57 -86.5 -79 -133.5
s-39 -96.667 -51 -149s-18 -107.833 -18 -166.5c0 -66 8.5 -127.833 25.5 -185.5s41.5 -112.5 73.5 -164.5h-80z" />
    <glyph glyph-name="parenright" unicode=")" horiz-adv-x="334" 
d="M187 773c32 -46.667 57.499 -99.001 76.499 -157.001s28.5 -122.333 28.5 -193c0 -58.667 -6 -114.5 -18 -167.5s-28.667 -103.167 -50 -150.5s-47.166 -92.166 -77.499 -134.499s-63.833 -81.833 -100.5 -118.5h-91c38 38.667 72.333 79.167 103 121.5s57 87 79 134
s39 96.667 51 149s18 107.833 18 166.5c0 66 -8.5 127.833 -25.5 185.5s-41.5 112.5 -73.5 164.5h80z" />
    <glyph glyph-name="asterisk" unicode="*" horiz-adv-x="434" 
d="M118 460l99 105l-118 36l33 65l110 -54l14 131h73l-28 -134l125 40l11 -67l-129 -22l67 -115l-63 -37l-56 123l-88 -115z" />
    <glyph glyph-name="plus" unicode="+" horiz-adv-x="531" 
d="M235 307h-187l11 70h187l32 202h73l-32 -202h187l-11 -70h-187l-32 -202h-73z" />
    <glyph glyph-name="comma" unicode="," horiz-adv-x="294" 
d="M-3 -95l118 219l75 -38l-143 -209z" />
    <glyph glyph-name="hyphen" unicode="-" horiz-adv-x="347" 
d="M73 314h214l-12 -78h-214z" />
    <glyph glyph-name="period" unicode="." horiz-adv-x="294" 
d="M114 -5c-17.333 0 -32.332 6.16699 -44.999 18.5s-19 27.5 -19 45.5s6.16699 33.167 18.5 45.5s27.166 18.5 44.499 18.5s32.5 -6.16699 45.5 -18.5s19.5 -27.5 19.5 -45.5s-6.33301 -33.167 -19 -45.5s-27.667 -18.5 -45 -18.5z" />
    <glyph glyph-name="slash" unicode="/" horiz-adv-x="415" 
d="M381 776h78l-435 -924h-77z" />
    <glyph glyph-name="zero" unicode="0" horiz-adv-x="693" 
d="M324 -9c-43.333 0 -80.665 7.16602 -111.998 21.499s-57.333 34 -78 59s-36 54.167 -46 87.5s-15 69 -15 107c0 15.333 0.5 30.5 1.5 45.5s2.83301 29.5 5.5 43.5l6 37c8 50.667 21.333 96.334 40 137.001s41.667 75.5 69 104.5s58.666 51.333 93.999 67
s73.666 23.5 114.999 23.5c42.667 0 79.5 -7.33301 110.5 -22s56.333 -34.667 76 -60s34.167 -54.833 43.5 -88.5s14 -69.5 14 -107.5c0 -14 -0.5 -28.5 -1.5 -43.5s-2.83301 -29.833 -5.5 -44.5l-6 -37c-8 -49.333 -21 -94.333 -39 -135s-40.167 -75.5 -66.5 -104.5
s-56.833 -51.333 -91.5 -67s-72.667 -23.5 -114 -23.5zM329.001 62.999c58.667 0 106.499 22.833 143.499 68.5s62.5 112.167 76.5 199.5l6 37c2 12 3.5 24.667 4.5 38s1.5 26.666 1.5 39.999c0 26 -2.5 51.333 -7.5 76s-13.667 46.834 -26 66.501s-28.833 35.5 -49.5 47.5
s-47 18 -79 18c-58 0 -106.667 -23.333 -146 -70s-66 -112.667 -80 -198l-6 -37c-2 -12.667 -3.66699 -26.167 -5 -40.5s-2 -28.833 -2 -43.5c0 -25.333 2.5 -50 7.5 -74s13.833 -45.5 26.5 -64.5s29.834 -34.333 51.501 -46s49.5 -17.5 83.5 -17.5z" />
    <glyph glyph-name="one" unicode="1" horiz-adv-x="411" 
d="M256 627l-178 -115l13 83l185 120h81l-113 -715h-87z" />
    <glyph glyph-name="two" unicode="2" horiz-adv-x="566" 
d="M-24 20l341.001 296.003c16.667 14.667 32.834 30 48.501 46s29.667 33.167 42 51.5s22.166 37.666 29.499 57.999s11 42.166 11 65.499c0 15.333 -2.33301 30.166 -7 44.499s-11.834 26.833 -21.501 37.5s-21.667 19.167 -36 25.5s-30.833 9.5 -49.5 9.5
c-20 0 -38.667 -2.5 -56 -7.5s-33.333 -13.667 -48 -26s-27.5 -28.833 -38.5 -49.5s-20.167 -46 -27.5 -76h-82c6 38.667 16.667 72.5 32 101.5s34.333 53 57 72s48.167 33 76.5 42s58.833 13.5 91.5 13.5c27.333 0 53 -4.16699 77 -12.5s44.833 -20.333 62.5 -36
s31.667 -35 42 -58s15.5 -49.167 15.5 -78.5s-4.66699 -56.5 -14 -81.5s-22.166 -48.833 -38.499 -71.5s-35.333 -44.5 -57 -65.5s-44.834 -41.833 -69.501 -62.5l-221 -187h337l-11 -71h-489z" />
    <glyph glyph-name="three" unicode="3" horiz-adv-x="616" 
d="M277 -9c-36.667 0 -69.834 5.1709 -99.501 15.5039s-55 25 -76 44s-37.167 42.167 -48.5 69.5s-17 57.666 -17 90.999h82c0.666992 -20.667 4 -40 10 -58s15.5 -33.833 28.5 -47.5s29.667 -24.5 50 -32.5s45.166 -12 74.499 -12c53.333 0 94.833 12.833 124.5 38.5
s44.5 65.5 44.5 119.5c0 35.333 -10.833 64 -32.5 86s-56.5 33 -104.5 33h-46l12 73h62c18.667 0 36.5 2.33301 53.5 7s31.833 12.334 44.5 23.001s22.667 24.167 30 40.5s11 36.166 11 59.499c0 36 -10.667 63.667 -32 83s-51 29 -89 29
c-43.333 0 -79.666 -11.333 -108.999 -34s-49.333 -56.334 -60 -101.001h-77c4.66699 30.667 14.167 58.667 28.5 84s32.5 47 54.5 65s47.333 32 76 42s59.334 15 92.001 15c24.667 0 49.167 -3.5 73.5 -10.5s46 -17.833 65 -32.5s34.333 -33.334 46 -56.001
s17.5 -49.667 17.5 -81c0 -41.333 -12 -77.333 -36 -108s-57.333 -52 -100 -64c34.667 -11.333 61.5 -30 80.5 -56s28.5 -58.333 28.5 -97c0 -35.333 -6.5 -67 -19.5 -95s-31 -51.833 -54 -71.5s-50.5 -34.834 -82.5 -45.501s-67.333 -16 -106 -16z" />
    <glyph glyph-name="four" unicode="4" horiz-adv-x="629" 
d="M384 150h-356l5 28l410 537h116l-78 -494h99l-12 -71h-99l-23 -150h-85zM396 221l66 420l-313 -420h247z" />
    <glyph glyph-name="five" unicode="5" horiz-adv-x="599" 
d="M264 -9c-32 0 -61.333 4.33203 -88 12.999s-50 21.5 -70 38.5s-36 38 -48 63s-18.667 54.167 -20 87.5h84c2.66699 -40 15.167 -72 37.5 -96s57.5 -36 105.5 -36c54.667 0 97.834 17.833 129.501 53.5s47.5 84.167 47.5 145.5c0 41.333 -11.5 75.166 -34.5 101.499
s-58.833 39.5 -107.5 39.5c-38 0 -70 -6.66699 -96 -20s-49.333 -29.666 -70 -48.999h-32l61 383h402l-12 -75h-330l-34 -214c16 12.667 35.667 23.334 59 32.001s50.333 13 81 13c30 0 57.5 -5 82.5 -15s46.5 -24 64.5 -42s31.833 -39.833 41.5 -65.5
s14.5 -53.834 14.5 -84.501c0 -38.667 -6.5 -74.667 -19.5 -108s-31.333 -62.166 -55 -86.499s-51.834 -43.5 -84.501 -57.5s-69 -21 -109 -21z" />
    <glyph glyph-name="six" unicode="6" horiz-adv-x="631" 
d="M305 -9c-78 0 -137.169 21.168 -177.502 63.501s-60.5 103.5 -60.5 183.5c0 15.333 0.833008 31 2.5 47s3.83398 32.667 6.50098 50l5 31c6.66699 43.333 17.5 86.333 32.5 129s35.167 81 60.5 115s56.333 61.5 93 82.5s80.667 31.5 132 31.5
c62.667 0 110.834 -15.333 144.501 -46s51.834 -73 54.501 -127h-82c-2 15.333 -5.5 29.166 -10.5 41.499s-12.167 23 -21.5 32s-21.333 16 -36 21s-32.667 7.5 -54 7.5c-34 0 -63.667 -7.83301 -89 -23.5s-47 -36.334 -65 -62.001s-32.667 -55.167 -44 -88.5
s-20.333 -67.666 -27 -102.999c22 28.667 48.5 50.5 79.5 65.5s65.833 22.5 104.5 22.5c30 0 58 -5 84 -15s48.5 -24 67.5 -42s33.833 -39.833 44.5 -65.5s16 -54.167 16 -85.5c0 -37.333 -6.33301 -72 -19 -104s-30.334 -60 -53.001 -84s-50 -42.833 -82 -56.5
s-67.333 -20.5 -106 -20.5zM151.998 211.001c0 -20.667 2.99902 -40.1631 8.99902 -58.4961s15.333 -34.5 28 -48.5s28.667 -25 48 -33s42.333 -12 69 -12c26 0 49.333 5 70 15s38.5 23.667 53.5 41s26.5 37.666 34.5 60.999s12 48.666 12 75.999
c0 19.333 -2.83301 37.666 -8.5 54.999s-14.5 32.666 -26.5 45.999s-27.333 23.833 -46 31.5s-41 11.5 -67 11.5c-25.333 0 -48.666 -4.83301 -69.999 -14.5s-39.833 -22.667 -55.5 -39s-28 -35.833 -37 -58.5s-13.5 -47 -13.5 -73z" />
    <glyph glyph-name="seven" unicode="7" horiz-adv-x="537" 
d="M451 645h-357l11 70h471l-2 -12l-389 -703h-91z" />
    <glyph glyph-name="eight" unicode="8" horiz-adv-x="619" 
d="M293 -9c-29.333 0 -58.166 4.16699 -86.499 12.5s-53.666 20.666 -75.999 36.999s-40.333 36.666 -54 60.999s-20.5 52.5 -20.5 84.5c0 52.667 15.167 96.667 45.5 132s70.166 60.333 119.499 75c-28 12.667 -49.667 31 -65 55s-23 50.333 -23 79
c0 29.333 6.16699 56 18.5 80s29 44.667 50 62s45.5 30.833 73.5 40.5s58 14.5 90 14.5c26 0 51.333 -4 76 -12s46.667 -19.667 66 -35s34.833 -34 46.5 -56s17.5 -47 17.5 -75c0 -44.667 -12.167 -79.5 -36.5 -104.5s-56.5 -44.167 -96.5 -57.5
c34.667 -14 62.167 -35.667 82.5 -65s30.5 -62.666 30.5 -99.999c0 -36.667 -6.83301 -69.167 -20.5 -97.5s-32.334 -52.166 -56.001 -71.499s-51.167 -34 -82.5 -44s-64.333 -15 -99 -15zM145 197c0 -20.667 3.83203 -39.3311 11.499 -55.998
s18.334 -30.834 32.001 -42.501s29.834 -20.667 48.501 -27s39 -9.5 61 -9.5c48.667 0 88.167 13.5 118.5 40.5s45.5 65.5 45.5 115.5c0 20 -3.66699 38.167 -11 54.5s-17.5 30.333 -30.5 42s-28.333 20.5 -46 26.5s-36.834 9 -57.501 9c-24.667 0 -47.5 -3.33301 -68.5 -10
s-39.167 -16.334 -54.5 -29.001s-27.333 -28.667 -36 -48s-13 -41.333 -13 -66zM219.999 530.003c0 -31.333 11.8359 -57.668 35.5029 -79.001s55.167 -32 94.5 -32c17.333 0 34 2.33301 50 7s30.333 11.834 43 21.501s22.667 22.334 30 38.001s11 34.5 11 56.5
c0 16 -3 31 -9 45s-14.5 26 -25.5 36s-24.333 18 -40 24s-32.834 9 -51.501 9c-18 0 -35.333 -2.5 -52 -7.5s-31.334 -12.833 -44.001 -23.5s-22.834 -23.834 -30.501 -39.501s-11.5 -34.167 -11.5 -55.5z" />
    <glyph glyph-name="nine" unicode="9" horiz-adv-x="632" 
d="M266 -8c-29.333 0 -56.6709 3.50195 -82.0039 10.502s-47.666 18 -66.999 33s-35 34.167 -47 57.5s-19.333 51 -22 83h85c6 -42.667 20.667 -72.167 44 -88.5s55.333 -24.5 96 -24.5c54 0 99.5 22.333 136.5 67s63.167 113.334 78.5 206.001
c-20 -26.667 -46.167 -47.334 -78.5 -62.001s-67.5 -22 -105.5 -22c-28.667 0 -55.667 4.66699 -81 14s-47.666 22.666 -66.999 39.999s-34.666 38.833 -45.999 64.5s-17 55.167 -17 88.5c0 38 6.66699 73.167 20 105.5s31.833 60.5 55.5 84.5s51.834 42.667 84.501 56
s68.667 20 108 20c74.667 0 131 -21.333 169 -64s57.333 -102.334 58 -179.001c0 -15.333 -0.5 -31.333 -1.5 -48s-3.16699 -34 -6.5 -52l-7 -44c-19.333 -117.333 -55 -204.333 -107 -261s-118.667 -85 -200 -85zM181.995 463.002c0 -42 11.335 -76.333 34.002 -103
s56 -40 100 -40c26 0 50.5 3.83301 73.5 11.5s43 19.167 60 34.5s30.5 34.5 40.5 57.5s15 49.833 15 80.5c0 20 -2.66699 39.167 -8 57.5s-13.833 34.5 -25.5 48.5s-26.834 25.333 -45.501 34s-41.334 13 -68.001 13c-26 0 -49.833 -4.83301 -71.5 -14.5
s-40.167 -23 -55.5 -40s-27.333 -37.5 -36 -61.5s-13 -50 -13 -78z" />
    <glyph glyph-name="colon" unicode=":" horiz-adv-x="304" 
d="M118 -5c-17.333 0 -32.332 6.16699 -44.999 18.5s-19 27.5 -19 45.5s6.16699 33.167 18.5 45.5s27.166 18.5 44.499 18.5s32.5 -6.16699 45.5 -18.5s19.5 -27.5 19.5 -45.5s-6.33301 -33.167 -19 -45.5s-27.667 -18.5 -45 -18.5zM166.001 292
c-17.333 0 -32.332 6.16699 -44.999 18.5s-19 27.5 -19 45.5s6.16699 33.167 18.5 45.5s27.166 18.5 44.499 18.5s32.5 -6.16699 45.5 -18.5s19.5 -27.5 19.5 -45.5s-6.33301 -33.167 -19 -45.5s-27.667 -18.5 -45 -18.5z" />
    <glyph glyph-name="semicolon" unicode=";" horiz-adv-x="304" 
d="M-18 -95l118 219l75 -38l-143 -209zM174 292c-17.333 0 -32.332 6.16699 -44.999 18.5s-19 27.5 -19 45.5s6.16699 33.167 18.5 45.5s27.166 18.5 44.499 18.5s32.5 -6.16699 45.5 -18.5s19.5 -27.5 19.5 -45.5s-6.33301 -33.167 -19 -45.5s-27.667 -18.5 -45 -18.5z" />
    <glyph glyph-name="less" unicode="&#x3c;" horiz-adv-x="516" 
d="M66 316l3 20l418 213l-12 -82l-288 -143l241 -151l-12 -78z" />
    <glyph glyph-name="equal" unicode="=" horiz-adv-x="496" 
d="M46 268h404l-11 -72h-404zM74 448h404l-11 -72h-404z" />
    <glyph glyph-name="greater" unicode="&#x3e;" horiz-adv-x="516" 
d="M467 328l-3 -20l-418 -213l12 84l288 143l-241 151l12 76z" />
    <glyph glyph-name="question" unicode="?" horiz-adv-x="501" 
d="M182 253c4 24 10.668 45.002 20.001 63.002s20.5 34 33.5 48s27 26.667 42 38l43.5 33c12 9.33301 23.167 18.5 33.5 27.5s19.333 18.5 27 28.5s13.5 21 17.5 33s6 25.667 6 41c0 28 -9 50 -27 66s-44 24 -78 24c-35.333 0 -65.666 -11 -90.999 -33
s-41.666 -54.333 -48.999 -97h-79c4 32 12.833 60.333 26.5 85s30.5 45.5 50.5 62.5s42.833 29.833 68.5 38.5s53.167 13 82.5 13c31.333 0 58.5 -4.33301 81.5 -13s41.833 -20.334 56.5 -35.001s25.5 -31.5 32.5 -50.5s10.5 -38.833 10.5 -59.5c0 -24 -3.5 -45 -10.5 -63
s-16.5 -34 -28.5 -48s-25.667 -26.833 -41 -38.5l-48 -35.5l-36.5 -27.5c-11.667 -9 -22.334 -18.833 -32.001 -29.5s-17.834 -22.334 -24.501 -35.001s-11.334 -27 -14.001 -43l-7 -44h-74zM194.001 -4.99805c-17.333 0 -32.332 6.16699 -44.999 18.5s-19 27.5 -19 45.5
s6.16699 33.167 18.5 45.5s27.166 18.5 44.499 18.5s32.5 -6.16699 45.5 -18.5s19.5 -27.5 19.5 -45.5s-6.33301 -33.167 -19 -45.5s-27.667 -18.5 -45 -18.5z" />
    <glyph glyph-name="at" unicode="@" horiz-adv-x="927" 
d="M641 206c-6.66699 -52.667 9.33594 -78.999 48.0029 -78.999c14 0 28.167 3.66699 42.5 11s27.333 18.833 39 34.5s21 35.667 28 60s10.5 53.5 10.5 87.5c0 44.667 -7.33301 85.5 -22 122.5s-36 68.833 -64 95.5s-62.167 47.334 -102.5 62.001s-86.166 22 -137.499 22
c-50.667 0 -97.334 -8.83301 -140.001 -26.5s-79.5 -42.334 -110.5 -74.001s-55.333 -69.667 -73 -114s-26.5 -92.833 -26.5 -145.5c0 -45.333 7.16699 -88.833 21.5 -130.5s35.5 -78.167 63.5 -109.5s63 -56.333 105 -75s91 -28 147 -28c27.333 0 52 1.66699 74 5
s42.5 8.5 61.5 15.5s36.667 15.5 53 25.5s32.166 21.667 47.499 35h77c-12.667 -22 -29.334 -42 -50.001 -60s-44.5 -33.5 -71.5 -46.5s-56.667 -23 -89 -30s-66.5 -10.5 -102.5 -10.5c-66.667 0 -125.834 11.167 -177.501 33.5s-95 52.333 -130 90s-61.5 81 -79.5 130
s-27 100.167 -27 153.5c0 61.333 11.333 118.166 34 170.499s53.5 97.5 92.5 135.5s84.333 67.833 136 89.5s106.5 32.5 164.5 32.5c60 0 114.333 -9.33301 163 -28s90.5 -44.5 125.5 -77.5s62 -71.833 81 -116.5s28.5 -92.667 28.5 -144
c0 -47.333 -6.33301 -87.166 -19 -119.499s-28.5 -58.5 -47.5 -78.5s-39.833 -34.5 -62.5 -43.5s-44 -13.5 -64 -13.5c-39.333 0 -67.666 8.16699 -84.999 24.5s-28 36.833 -32 61.5c-14 -26.667 -33 -48.834 -57 -66.501s-54 -26.5 -90 -26.5c-48 0 -86.667 15 -116 45
s-44 72 -44 126c0 34 5.16699 65.333 15.5 94s24.666 53.5 42.999 74.5s40 37.333 65 49s51.833 17.5 80.5 17.5c18 0 33.667 -2 47 -6s24.833 -9.16699 34.5 -15.5s17.5 -13.5 23.5 -21.5s10.667 -16.333 14 -25l10 60h83zM440.003 124.001
c16.667 0 32.833 4.00293 48.5 12.0029s29.667 19.333 42 34s22.333 32.667 30 54s11.5 45 11.5 71c0 35.333 -8.83301 61.666 -26.5 78.999s-40.834 26 -69.501 26c-18 0 -34.667 -3.83301 -50 -11.5s-28.666 -18.834 -39.999 -33.501s-20.333 -32.667 -27 -54
s-10 -45.333 -10 -72c0 -34.667 8.66699 -60.834 26 -78.501s39 -26.5 65 -26.5z" />
    <glyph glyph-name="A" unicode="A" horiz-adv-x="662" 
d="M469 206h-295l-102 -206h-84l359 715h114l129 -715h-84zM208 275h248l-66 368z" />
    <glyph glyph-name="B" unicode="B" horiz-adv-x="634" 
d="M167 715l204 0.000976562c66 0 117.5 -13.167 154.5 -39.5s55.167 -68.833 54.5 -127.5c0 -44.667 -10.833 -81.5 -32.5 -110.5s-55.834 -50.833 -102.501 -65.5c80.667 -20 121.334 -72 122.001 -156c0 -33.333 -6 -63.333 -18 -90s-29 -49.334 -51 -68.001
s-48.5 -33 -79.5 -43s-65.5 -15 -103.5 -15h-261zM315 68.001c56.667 0 98.666 14 125.999 42s41 64 41 108c0 38 -11.667 67 -35 87s-62.666 30 -117.999 30h-137l-43 -267h166zM333.999 403.001c107.333 0 161 47 161 141c0 35.333 -9.83301 61.333 -29.5 78
s-52.167 25 -97.5 25h-127l-39 -244h132z" />
    <glyph glyph-name="C" unicode="C" horiz-adv-x="740" 
d="M392 -9c-49.333 0 -93.6699 7.33008 -133.003 21.9971s-72.666 35.667 -99.999 63s-48.333 60.333 -63 99s-22 81.667 -22 129c0 58.667 9.33301 113.667 28 165s44.667 96 78 134s73.333 68 120 90s98 33 154 33c36 0 69.667 -5 101 -15s58.833 -24.833 82.5 -44.5
s42.667 -44 57 -73s22.833 -62.833 25.5 -101.5h-82c-8.66699 54 -27.834 95 -57.501 123s-73.167 42 -130.5 42c-45.333 0 -85.666 -9.16699 -120.999 -27.5s-65.166 -43.333 -89.499 -75s-43 -69 -56 -112s-19.5 -89.167 -19.5 -138.5c0 -77.333 19 -137.166 57 -179.499
s95.333 -63.5 172 -63.5c58 0 105.667 16.167 143 48.5s64.333 74.833 81 127.5h83c-9.33301 -38 -23.666 -72.167 -42.999 -102.5s-42.333 -56.166 -69 -77.499s-56.5 -37.666 -89.5 -48.999s-68.5 -17 -106.5 -17z" />
    <glyph glyph-name="D" unicode="D" horiz-adv-x="710" 
d="M167 715l174 -0.000976562c58.667 0 109.167 -7.66699 151.5 -23s77 -36.666 104 -63.999s46.833 -59.5 59.5 -96.5s19 -77.5 19 -121.5c0 -56.667 -8.83301 -110 -26.5 -160s-44 -93.5 -79 -130.5s-78.167 -66.167 -129.5 -87.5s-110.333 -32 -177 -32h-209zM260 70.999
c51.333 0 97.168 7.66699 137.501 23s74.5 37.5 102.5 66.5s49.333 64.5 64 106.5s22 89.333 22 142c0 34 -4.5 65.333 -13.5 94s-23.5 53.5 -43.5 74.5s-45.833 37.5 -77.5 49.5s-69.834 18 -114.501 18h-94l-91 -574h108z" />
    <glyph glyph-name="E" unicode="E" horiz-adv-x="584" 
d="M167 715h413l-12 -71h-326l-38 -243h266l-11 -71h-266l-41 -259h348l-11 -71h-435z" />
    <glyph glyph-name="F" unicode="F" horiz-adv-x="568" 
d="M167 715h418l-12 -71h-331l-40 -253h258l-11 -71h-258l-50 -320h-87z" />
    <glyph glyph-name="G" unicode="G" horiz-adv-x="782" 
d="M400 -9c-52 0 -98.168 8.1709 -138.501 24.5039s-74.333 39 -102 68s-48.667 63.167 -63 102.5s-21.5 82 -21.5 128c0 56 9.33301 108.833 28 158.5s44.667 93.167 78 130.5s72.833 66.833 118.5 88.5s95.5 32.5 149.5 32.5c36 0 70.333 -4.5 103 -13.5
s61.667 -22.833 87 -41.5s45.833 -42.167 61.5 -70.5s24.834 -61.5 27.501 -99.5h-86c-5.33301 54 -25.833 93.5 -61.5 118.5s-80.167 37.5 -133.5 37.5c-44 0 -83.333 -9 -118 -27s-64.167 -42.333 -88.5 -73s-43 -66.834 -56 -108.501s-19.5 -85.834 -19.5 -132.501
c0 -38 5 -72.667 15 -104s24.833 -58 44.5 -80s44.334 -39 74.001 -51s64.167 -18 103.5 -18c36 0 67.667 5.66699 95 17s50.833 27.166 70.5 47.499s35.5 44.333 47.5 72s20.667 58.167 26 91.5h-212l12 72h295c-5.33301 -64.667 -16.833 -120.334 -34.5 -167.001
s-40.834 -85 -69.501 -115s-62.5 -52.167 -101.5 -66.5s-82.5 -21.5 -130.5 -21.5z" />
    <glyph glyph-name="H" unicode="H" horiz-adv-x="742" 
d="M167 715h87l-52 -324h376l52 324h87l-113 -715h-87l50 318h-376l-50 -318h-87z" />
    <glyph glyph-name="I" unicode="I" horiz-adv-x="291" 
d="M172 715h87l-113 -715h-87z" />
    <glyph glyph-name="J" unicode="J" horiz-adv-x="432" 
d="M119 -9c-34 0 -59.334 3.00098 -76.001 9.00098s-29.667 11.667 -39 17l11 70c12.667 -6 26.834 -11.667 42.501 -17s35.167 -8 58.5 -8c36 0 64.333 10 85 30s34.667 52 42 96l83 527h87l-85 -535c-10.667 -66.667 -35 -114.834 -73 -144.501s-83.333 -44.5 -136 -44.5z
" />
    <glyph glyph-name="K" unicode="K" horiz-adv-x="628" 
d="M167 715h87l-54 -340l363 340h101l-373 -345l272 -370h-97l-268 359l-57 -359h-87z" />
    <glyph glyph-name="L" unicode="L" horiz-adv-x="547" 
d="M167 715h87l-102 -644h327l-11 -71h-414z" />
    <glyph glyph-name="M" unicode="M" horiz-adv-x="868" 
d="M167 715h118l133 -557l302 557h123l-113 -715h-87l95 602l-332 -602h-27l-150 602l-95 -602h-80z" />
    <glyph glyph-name="N" unicode="N" horiz-adv-x="736" 
d="M167 715h111l256 -591l94 591h83l-113 -715h-98l-266 613l-97 -613h-83z" />
    <glyph glyph-name="O" unicode="O" horiz-adv-x="823" 
d="M779 402c0 -59.333 -9.83398 -114.166 -29.501 -164.499s-46.5 -93.666 -80.5 -129.999s-74 -64.833 -120 -85.5s-95.333 -31 -148 -31c-49.333 0 -94.166 8.16699 -134.499 24.5s-74.833 38.666 -103.5 66.999s-50.667 62.166 -66 101.499s-23 82 -23 128
c0 56.667 9.83301 110.167 29.5 160.5s46.667 94 81 131s75 66.333 122 88s97.5 32.5 151.5 32.5c51.333 0 97 -8.5 137 -25.5s73.667 -40.167 101 -69.5s48 -63.5 62 -102.5s21 -80.5 21 -124.5zM688.999 402c0 34.667 -5 67.332 -15 97.999s-24.833 57.334 -44.5 80.001
s-44 40.667 -73 54s-62.167 20 -99.5 20c-45.333 0 -86 -9.16699 -122 -27.5s-66.667 -43 -92 -74s-44.833 -67.333 -58.5 -109s-20.5 -85.5 -20.5 -131.5c0 -39.333 5.83301 -74.333 17.5 -105s28 -56.834 49 -78.501s46.167 -38.167 75.5 -49.5s61.333 -17 96 -17
c42.667 0 81.5 8.5 116.5 25.5s65.167 40.667 90.5 71s45 66.333 59 108s21 86.834 21 135.501z" />
    <glyph glyph-name="P" unicode="P" horiz-adv-x="593" 
d="M167 715l198.999 -0.00195312c32.667 0 62.5 -3.83301 89.5 -11.5s50.167 -19.167 69.5 -34.5s34.333 -34.666 45 -57.999s16 -50.666 16 -81.999c0 -44 -7.66699 -81 -23 -111s-35.666 -54.5 -60.999 -73.5s-54.5 -32.667 -87.5 -41s-66.833 -12.5 -101.5 -12.5h-126
l-46 -291h-87zM317.999 359.998c60.667 0 106.167 14.499 136.5 43.499s45.5 70.5 45.5 124.5c0 40.667 -11.833 70.334 -35.5 89.001s-59.5 28 -107.5 28h-114l-45 -285h120z" />
    <glyph glyph-name="Q" unicode="Q" horiz-adv-x="823" 
d="M779 402c0 -74.667 -15.167 -141.665 -45.5 -200.998s-70.5 -107 -120.5 -143l80 -98l-60 -49l-89 109c-44.667 -19.333 -92.334 -29 -143.001 -29c-49.333 0 -94.166 8.16699 -134.499 24.5s-74.833 38.666 -103.5 66.999s-50.667 62.166 -66 101.499s-23 82 -23 128
c0 56.667 9.83301 110.167 29.5 160.5s46.667 94 81 131s75 66.333 122 88s97.5 32.5 151.5 32.5c51.333 0 97 -8.5 137 -25.5s73.667 -40.167 101 -69.5s48 -63.5 62 -102.5s21 -80.5 21 -124.5zM689 402.002c0 34.667 -5.00098 67.333 -15.001 98
s-24.833 57.334 -44.5 80.001s-44 40.667 -73 54s-62.167 20 -99.5 20c-45.333 0 -86 -9.16699 -122 -27.5s-66.667 -43 -92 -74s-44.833 -67.333 -58.5 -109s-20.5 -85.5 -20.5 -131.5c0 -39.333 5.83301 -74.333 17.5 -105s28 -56.834 49 -78.501
s46.167 -38.167 75.5 -49.5s61.333 -17 96 -17c35.333 0 67 5.33301 95 16l-75 93l60 49l84 -104c38.667 30 68.834 69.667 90.501 119s32.5 105 32.5 167z" />
    <glyph glyph-name="R" unicode="R" horiz-adv-x="640" 
d="M167 715l210.999 0.000976562c31.333 0 60.333 -3.83301 87 -11.5s49.834 -19 69.501 -34s35 -34 46 -57s16.167 -49.5 15.5 -79.5c0 -32.667 -5.33301 -61.5 -16 -86.5s-25.167 -46.333 -43.5 -64s-40 -31.834 -65 -42.501s-51.5 -18 -79.5 -22l175 -318h-94l-170 311
h-113l-49 -311h-87zM334.999 380.001c116.667 0 175 51 175 153c0.666992 40 -11 68.667 -35 86s-58 26 -102 26h-130l-42 -265h134z" />
    <glyph glyph-name="S" unicode="S" horiz-adv-x="639" 
d="M306 -9c-45.333 0 -84.498 6.33301 -117.498 19s-60.5 29.5 -82.5 50.5s-38.5 45.167 -49.5 72.5s-16.5 55.666 -16.5 84.999h86c0.666992 -20 4.66699 -39.5 12 -58.5s18.333 -35.667 33 -50s33.5 -26 56.5 -35s50.833 -13.5 83.5 -13.5
c54 -0.666992 95.5 11.833 124.5 37.5s43.5 60.167 43.5 103.5c0 16 -2.33301 30.333 -7 43s-13 24 -25 34s-27.833 19.333 -47.5 28s-44.5 17.334 -74.5 26.001c-34 10 -63.833 20.5 -89.5 31.5s-47.334 23.833 -65.001 38.5s-31 32 -40 52s-13.5 43.667 -13.5 71
c0 26.667 5.66699 52 17 76s27.333 45 48 63s45.834 32.333 75.501 43s62.834 16 99.501 16c34.667 0 66 -4.33301 94 -13s52 -21.334 72 -38.001s35.667 -37.167 47 -61.5s17.333 -52.5 18 -84.5h-80c-4.66699 47.333 -21.167 80.333 -49.5 99s-64.833 28 -109.5 28
c-26 0 -48.333 -3.16699 -67 -9.5s-34 -15.166 -46 -26.499s-21 -24.666 -27 -39.999s-9 -31.666 -9 -48.999c0 -14 2.33301 -26.5 7 -37.5s12.667 -21.167 24 -30.5s27 -18.333 47 -27s45.667 -17.667 77 -27c35.333 -10.667 66.166 -21.834 92.499 -33.501
s48.166 -25.167 65.499 -40.5s30.166 -32.833 38.499 -52.5s12.5 -42.834 12.5 -69.501c0 -31.333 -6 -60.5 -18 -87.5s-29.167 -50.333 -51.5 -70s-49.333 -35 -81 -46s-67.5 -16.5 -107.5 -16.5z" />
    <glyph glyph-name="T" unicode="T" horiz-adv-x="573" 
d="M301 644h-208l12 71h503l-12 -71h-208l-101 -644h-87z" />
    <glyph glyph-name="U" unicode="U" horiz-adv-x="708" 
d="M331 -9c-90.667 0 -157 24.3311 -199 72.998s-55.333 121.667 -40 219l69 432h87l-69 -433c-12.667 -79.333 -5.66699 -135.666 21 -168.999s71.667 -50 135 -50c53.333 0 96.333 15 129 45s54.667 81 66 153l72 454h87l-74 -466
c-6 -39.333 -16.167 -74.833 -30.5 -106.5s-33.166 -58.667 -56.499 -81s-51.333 -39.666 -84 -51.999s-70.334 -18.5 -113.001 -18.5z" />
    <glyph glyph-name="V" unicode="V" horiz-adv-x="648" 
d="M98 715h85l113 -631l313 631h83l-360 -715h-104z" />
    <glyph glyph-name="W" unicode="W" horiz-adv-x="902" 
d="M99 715h87l54 -583l253 583h56l78 -585l235 585h83l-295 -715h-81l-72 561l-247 -561h-78z" />
    <glyph glyph-name="X" unicode="X" horiz-adv-x="619" 
d="M279 373l-163 342h90l137 -285l217 285h90l-274 -355l172 -360h-94l-144 303l-233 -303h-90z" />
    <glyph glyph-name="Y" unicode="Y" horiz-adv-x="604" 
d="M272 312l-175 403h93l138 -332l232 332h89l-291 -410l-48 -305h-87z" />
    <glyph glyph-name="Z" unicode="Z" horiz-adv-x="607" 
d="M-6 14l501 633h-365l11 68h489l-2 -13l-492 -631h386l-11 -71h-519z" />
    <glyph glyph-name="bracketleft" unicode="[" horiz-adv-x="368" 
d="M174 776h224l-10 -66h-141l-125 -792h141l-11 -66h-224z" />
    <glyph glyph-name="backslash" unicode="\" horiz-adv-x="415" 
d="M116 776h74l147 -924h-74z" />
    <glyph glyph-name="bracketright" unicode="]" horiz-adv-x="368" 
d="M-5 -82h141l125 792h-141l10 66h224l-146 -924h-224z" />
    <glyph glyph-name="asciicircum" unicode="^" horiz-adv-x="519" 
d="M285 715h85l121 -307h-81l-93 236l-160 -236h-85z" />
    <glyph glyph-name="underscore" unicode="_" horiz-adv-x="406" 
d="M-51 -92h395l-11 -66h-395z" />
    <glyph glyph-name="grave" unicode="`" horiz-adv-x="412" 
d="M151 760h102l47 -147h-61z" />
    <glyph glyph-name="a" unicode="a" horiz-adv-x="550" 
d="M203 -8c-54 0 -95.667 13.5 -125 40.5s-44 62.833 -44 107.5c0 32 6.83301 58.833 20.5 80.5s32 38.834 55 51.501s50 21.667 81 27s63.5 8 97.5 8h101l6 38c6.66699 40 2.5 69.667 -12.5 89s-43.5 29 -85.5 29c-34 0 -61.5 -7.5 -82.5 -22.5
s-35.167 -38.833 -42.5 -71.5h-83c6 31.333 16.5 57.5 31.5 78.5s32.167 37.667 51.5 50s40.166 21.166 62.499 26.499s44.166 8 65.499 8c29.333 0 56 -3.5 80 -10.5s44.167 -18.167 60.5 -33.5s27.833 -35.333 34.5 -60s7.33398 -54.667 2.00098 -90l-29 -182
c-5.33301 -34 -8.83301 -63 -10.5 -87s-1.16699 -47 1.5 -69h-78c-1.33301 14 -2.16602 28.5 -2.49902 43.5s0.166992 28.167 1.5 39.5c-18.667 -30 -41.5 -52.667 -68.5 -68s-56.5 -23 -88.5 -23zM214 57c39.333 0 73.334 10.833 102.001 32.5s46.667 55.5 54 101.5l9 57
h-89c-58.667 0 -102.334 -8 -131.001 -24s-43 -44 -43 -84c0 -23.333 7.83301 -43 23.5 -59s40.5 -24 74.5 -24z" />
    <glyph glyph-name="b" unicode="b" horiz-adv-x="639" 
d="M331 -9c-26.667 0 -50.168 3.16699 -70.501 9.5s-38 14.666 -53 24.999s-27.333 21.833 -37 34.5s-17.5 25.334 -23.5 38.001l-16 -98h-83l122 773h83l-54 -342c17.333 29.333 42.5 53.5 75.5 72.5s68.833 28.5 107.5 28.5c30.667 0 58.834 -5.5 84.501 -16.5
s47.834 -26.5 66.501 -46.5s33.167 -44.167 43.5 -72.5s15.5 -59.833 15.5 -94.5c0 -42 -5.83301 -81.833 -17.5 -119.5s-28.834 -70.667 -51.501 -99s-50.167 -50.833 -82.5 -67.5s-68.833 -25 -109.5 -25zM325.999 59c28.667 0 54.001 6 76.001 18s40.5 28.667 55.5 50
s26.5 46.5 34.5 75.5s12 60.5 12 94.5c0 54 -12.333 95.333 -37 124s-58.334 43 -101.001 43c-28 0 -54.333 -5.5 -79 -16.5s-46 -27 -64 -48s-32.167 -46.5 -42.5 -76.5s-15.5 -63.667 -15.5 -101c0 -50.667 14.333 -90.5 43 -119.5s68 -43.5 118 -43.5z" />
    <glyph glyph-name="c" unicode="c" horiz-adv-x="566" 
d="M289 -8c-39.333 0 -74.1641 5.83105 -104.497 17.498s-55.833 28 -76.5 49s-36.334 46 -47.001 75s-16 61.167 -16 96.5c0 48 7.5 90.833 22.5 128.5s35 69.167 60 94.5s53.833 44.666 86.5 57.999s66.667 20 102 20c28.667 0 55.5 -3.66699 80.5 -11s47 -18.5 66 -33.5
s34.167 -34 45.5 -57s18 -50.5 20 -82.5h-79c-2.66699 22.667 -7.83398 41.334 -15.501 56.001s-17.5 26.334 -29.5 35.001s-25.833 14.834 -41.5 18.501s-32.5 5.5 -50.5 5.5c-26 0 -50.167 -5 -72.5 -15s-41.5 -24.833 -57.5 -44.5s-28.667 -43.834 -38 -72.501
s-14 -62 -14 -100c0 -55.333 13.333 -97.5 40 -126.5s67 -43.5 121 -43.5c36.667 0 69.167 10.833 97.5 32.5s46.166 52.834 53.499 93.501h78c-11.333 -62.667 -38 -110.667 -80 -144s-92.333 -50 -151 -50z" />
    <glyph glyph-name="d" unicode="d" horiz-adv-x="634" 
d="M267 -9c-32.667 0 -62.498 5.50391 -89.498 16.5039s-50.333 26.5 -70 46.5s-34.834 44.167 -45.501 72.5s-16 60.166 -16 95.499c0 42 6.16699 81.667 18.5 119s30.333 70.166 54 98.499s52.167 50.833 85.5 67.5s71 25 113 25c24.667 0 46.667 -3 66 -9s36 -14 50 -24
s25.833 -21.167 35.5 -33.5s17.5 -24.833 23.5 -37.5l54 345h83l-97 -617c-5.33301 -35.333 -8.83301 -64.833 -10.5 -88.5s-1.83398 -46.167 -0.500977 -67.5h-79c-1.33301 15.333 -1.5 31.166 -0.5 47.499s2.5 32.166 4.5 47.499c-18.667 -31.333 -43.5 -56.5 -74.5 -75.5
s-65.833 -28.5 -104.5 -28.5zM277.002 60.0039c28 0 53.833 5.00098 77.5 15.001s44.334 25.167 62.001 45.5s31.5 45.666 41.5 75.999s15 65.833 15 106.5c0 50 -14.333 89.167 -43 117.5s-65.334 42.5 -110.001 42.5c-29.333 0 -55.5 -6 -78.5 -18
s-42.5 -28.5 -58.5 -49.5s-28.167 -46 -36.5 -75s-12.5 -60.5 -12.5 -94.5c0 -52 12.5 -92.667 37.5 -122s60.167 -44 105.5 -44z" />
    <glyph glyph-name="e" unicode="e" horiz-adv-x="565" 
d="M129 211c0 -48 11.501 -85.168 34.501 -111.501s59.5 -39.5 109.5 -39.5c36.667 0 67.334 7.66699 92.001 23s42 38 52 68h83c-8 -27.333 -19.5 -51 -34.5 -71s-32.5 -36.5 -52.5 -49.5s-42.167 -22.833 -66.5 -29.5s-49.833 -10 -76.5 -10c-35.333 0 -67 5.5 -95 16.5
s-51.667 26.5 -71 46.5s-34.166 43.667 -44.499 71s-15.5 57.333 -15.5 90c0 46 7 88.333 21 127s33.167 72 57.5 100s53.166 49.833 86.499 65.5s69.333 23.5 108 23.5c35.333 0 67.166 -5.5 95.499 -16.5s51.666 -27.667 69.999 -50s30.833 -50.166 37.5 -83.499
s6.66699 -72.333 0 -117l-3 -19h-387c-0.666992 -5.33301 -1 -11 -1 -17v-17zM312.001 462.999c-18.667 0 -36.832 -2.83301 -54.499 -8.5s-34.167 -14.667 -49.5 -27s-28.833 -28 -40.5 -47s-20.834 -41.833 -27.501 -68.5h303c4 52.667 -4.83301 91 -26.5 115
s-56.5 36 -104.5 36z" />
    <glyph glyph-name="f" unicode="f" horiz-adv-x="348" 
d="M68 523l74.999 0.000976562l16 102c8 50 27.333 87.667 58 113s68 38 112 38c17.333 0 31.166 -1.16699 41.499 -3.5s19.5 -5.5 27.5 -9.5l-10 -66c-15.333 6.66699 -33.666 10 -54.999 10c-27.333 0 -48.166 -7.33301 -62.499 -22s-23.833 -35.334 -28.5 -62.001
l-16 -100h128l-11 -70h-128l-72 -453h-83l72 453h-75z" />
    <glyph glyph-name="g" unicode="g" horiz-adv-x="635" 
d="M278 86c26 0 50.8291 5.16797 74.4961 15.501s44.334 25.166 62.001 44.499s31.834 42.833 42.501 70.5s16 59.167 16 94.5c0 24 -3.83301 45.333 -11.5 64s-18.5 34.5 -32.5 47.5s-30.5 23 -49.5 30s-39.5 10.5 -61.5 10.5c-28 0 -53.167 -5.83301 -75.5 -17.5
s-41.166 -27.5 -56.499 -47.5s-27.166 -43.167 -35.499 -69.5s-12.5 -53.833 -12.5 -82.5c0 -47.333 11.833 -85.833 35.5 -115.5s58.5 -44.5 104.5 -44.5zM511.996 26.001c-11.333 -72.667 -39.333 -126.83 -84 -162.497s-103.334 -53.5 -176.001 -53.5
c-42 0 -77.333 4.83301 -106 14.5s-52 22.167 -70 37.5s-31.333 32.5 -40 51.5s-14.334 37.833 -17.001 56.5h84c5.33301 -26.667 19.5 -48.334 42.5 -65.001s57.833 -25 104.5 -25c56 0 97.667 13 125 39s45.333 64.333 54 115l12 73
c-19.333 -28 -43.166 -49.667 -71.499 -65s-61.833 -23 -100.5 -23c-32 0 -61.333 5.5 -88 16.5s-49.667 26.167 -69 45.5s-34.333 42.666 -45 69.999s-16 57.666 -16 90.999c0 39.333 6.5 76.5 19.5 111.5s31.333 65.833 55 92.5s51.667 47.667 84 63s67.5 23 105.5 23
c24.667 0 46.667 -3 66 -9s36.333 -14 51 -24s26.834 -21.167 36.501 -33.5s17.5 -24.833 23.5 -37.5l15 95h83z" />
    <glyph glyph-name="h" unicode="h" horiz-adv-x="604" 
d="M170 773l83 0.00195312l-54 -343c8 12.667 17.667 25.167 29 37.5s24.333 23.166 39 32.499s31 17 49 23s37.667 9 59 9c27.333 0 51.833 -4 73.5 -12s39.334 -20.833 53.001 -38.5s22.834 -40.334 27.501 -68.001s4 -61.167 -2 -100.5l-50 -313h-83l53 332
c7.33301 44 3.16602 76.5 -12.501 97.5s-41.5 31.5 -77.5 31.5c-22 0 -42.833 -3.5 -62.5 -10.5s-37.334 -17.333 -53.001 -31s-29 -30.167 -40 -49.5s-18.5 -41.333 -22.5 -66l-48 -304h-83z" />
    <glyph glyph-name="i" unicode="i" horiz-adv-x="267" 
d="M198 632c-15.333 0 -28.332 5.16699 -38.999 15.5s-16 23.166 -16 38.499s5.5 28.5 16.5 39.5s24.167 16.5 39.5 16.5s28.166 -5.16699 38.499 -15.5s15.5 -23.166 15.5 -38.499s-5.33301 -28.5 -16 -39.5s-23.667 -16.5 -39 -16.5zM133.001 523h83l-83 -523h-83z" />
    <glyph glyph-name="j" unicode="j" horiz-adv-x="267" 
d="M-46 -121c30 1.33301 51.499 8.83105 64.499 22.498s21.5 32.834 25.5 57.501l89 564h83l-90 -569c-7.33301 -45.333 -25.166 -80.666 -53.499 -105.999s-71.5 -38 -129.5 -38zM197.999 631.998c-15.333 0 -28.332 5.16699 -38.999 15.5s-16 23.166 -16 38.499
s5.5 28.5 16.5 39.5s24.167 16.5 39.5 16.5s28.166 -5.16699 38.499 -15.5s15.5 -23.166 15.5 -38.499s-5.33301 -28.5 -16 -39.5s-23.667 -16.5 -39 -16.5z" />
    <glyph glyph-name="k" unicode="k" horiz-adv-x="523" 
d="M170 773h83l-76 -481l249 231h103l-264 -240l195 -283h-95l-190 279l-44 -279h-83z" />
    <glyph glyph-name="l" unicode="l" horiz-adv-x="268" 
d="M172 773h84l-122 -773h-84z" />
    <glyph glyph-name="m" unicode="m" horiz-adv-x="909" 
d="M106 367c5.33301 35.333 8.83008 64.6689 10.4971 88.002s2.83398 46 3.50098 68h78c0 -14.667 -0.333008 -30.5 -1 -47.5s-2 -34.167 -4 -51.5c18.667 33.333 42.334 59.666 71.001 78.999s60.334 29 95.001 29c36.667 0 67.834 -8.83301 93.501 -26.5
s42.167 -46.834 49.5 -87.501c11.333 20.667 24.5 38.334 39.5 53.001s30.5 26.5 46.5 35.5s32.167 15.5 48.5 19.5s31.833 6 46.5 6c24.667 0 47.667 -3.83301 69 -11.5s39 -20.334 53 -38.001s23.667 -40.5 29 -68.5s4.66602 -62.333 -2.00098 -103l-49 -311h-83l51 324
c7.33301 48 4 82.833 -10 104.5s-39.333 32.5 -76 32.5c-17.333 0 -34.5 -3 -51.5 -9s-32.667 -15.167 -47 -27.5s-27 -28 -38 -47s-18.5 -41.5 -22.5 -67.5l-49 -310h-83l52 330c7.33301 44 3.5 76.833 -11.5 98.5s-40.167 32.5 -75.5 32.5
c-18 0 -35.5 -3.16699 -52.5 -9.5s-32.833 -15.833 -47.5 -28.5s-27.167 -28.5 -37.5 -47.5s-17.5 -40.833 -21.5 -65.5l-49 -310h-83z" />
    <glyph glyph-name="n" unicode="n" horiz-adv-x="604" 
d="M106 367c5.33301 35.333 8.83008 64.6689 10.4971 88.002s2.83398 46 3.50098 68h78c0 -14.667 -0.5 -31.334 -1.5 -50.001s-2.5 -36.667 -4.5 -54c18 32 42.333 58.833 73 80.5s67.334 32.5 110.001 32.5c27.333 0 51.833 -4 73.5 -12s39.334 -20.833 53.001 -38.5
s22.834 -40.334 27.501 -68.001s4 -61.167 -2 -100.5l-50 -313h-83l53 332c14 86 -16 129 -90 129c-22 0 -42.833 -3.5 -62.5 -10.5s-37.334 -17.333 -53.001 -31s-29 -30.167 -40 -49.5s-18.5 -41.333 -22.5 -66l-48 -304h-83z" />
    <glyph glyph-name="o" unicode="o" horiz-adv-x="601" 
d="M277 -8c-36 0 -68.499 5.83496 -97.499 17.502s-53.5 27.834 -73.5 48.501s-35.333 45.167 -46 73.5s-16 59.166 -16 92.499c0 44 7.16699 84.667 21.5 122s34 69.666 59 96.999s54.333 48.833 88 64.5s70.167 23.5 109.5 23.5c36 0 68.5 -5.66699 97.5 -17
s53.667 -27.166 74 -47.499s35.833 -44.5 46.5 -72.5s16 -59 16 -93c0 -44.667 -6.83301 -85.834 -20.5 -123.501s-32.834 -70.334 -57.501 -98.001s-54.167 -49.167 -88.5 -64.5s-71.833 -23 -112.5 -23zM281.001 60.002c29.333 0 55.667 6 79 18s43 28.833 59 50.5
s28.333 47 37 76s13 60.5 13 94.5c0 50 -12.833 89.833 -38.5 119.5s-63.5 44.5 -113.5 44.5c-28 0 -53.5 -6 -76.5 -18s-42.667 -28.833 -59 -50.5s-29 -47 -38 -76s-13.5 -60.5 -13.5 -94.5c0 -50 12.333 -89.833 37 -119.5s62.667 -44.5 114 -44.5z" />
    <glyph glyph-name="p" unicode="p" horiz-adv-x="639" 
d="M382 532c30.667 0 58.8301 -5.49902 84.4971 -16.499s47.834 -26.5 66.501 -46.5s33.167 -44.167 43.5 -72.5s15.5 -59.833 15.5 -94.5c0 -42 -5.83301 -81.833 -17.5 -119.5s-28.834 -70.667 -51.501 -99s-50.167 -50.833 -82.5 -67.5s-68.833 -25 -109.5 -25
c-26.667 0 -50.167 3.16699 -70.5 9.5s-38 14.666 -53 24.999s-27.333 21.833 -37 34.5s-17.5 25.334 -23.5 38.001l-45 -280h-83l87 549c5.33301 35.333 8.83301 64.666 10.5 87.999s2.83398 46 3.50098 68h78c0 -14.667 -0.5 -31.167 -1.5 -49.5s-2.5 -35.833 -4.5 -52.5
c18.667 34 45.334 61 80.001 81s71.334 30 110.001 30zM325.996 59.001c28.667 0 54.001 6 76.001 18s40.5 28.667 55.5 50s26.5 46.5 34.5 75.5s12 60.5 12 94.5c0 54 -12.333 95.333 -37 124s-58.334 43 -101.001 43c-28 0 -54.333 -5.5 -79 -16.5s-46 -27 -64 -48
s-32.167 -46.5 -42.5 -76.5s-15.5 -63.667 -15.5 -101c0 -50.667 14.333 -90.5 43 -119.5s68 -43.5 118 -43.5z" />
    <glyph glyph-name="q" unicode="q" horiz-adv-x="639" 
d="M437 81c-19.333 -28 -42.8311 -49.998 -70.498 -65.998s-60.834 -24 -99.501 -24c-32.667 0 -62.5 5.5 -89.5 16.5s-50.333 26.5 -70 46.5s-34.834 44.167 -45.501 72.5s-16 60.166 -16 95.499c0 42 6.16699 81.667 18.5 119s30.333 70.166 54 98.499
s52.167 50.833 85.5 67.5s71 25 113 25c24.667 0 46.667 -3 66 -9s36 -14 50 -24s25.833 -21.167 35.5 -33.5s17.5 -24.833 23.5 -37.5l15 95h83l-112 -705h-83zM277.002 60.002c28 0 53.833 5.00098 77.5 15.001s44.334 25.167 62.001 45.5s31.5 45.666 41.5 75.999
s15 65.833 15 106.5c0 50 -14.333 89.167 -43 117.5s-65.334 42.5 -110.001 42.5c-29.333 0 -55.5 -6 -78.5 -18s-42.5 -28.5 -58.5 -49.5s-28.167 -46 -36.5 -75s-12.5 -60.5 -12.5 -94.5c0 -52 12.5 -92.667 37.5 -122s60.167 -44 105.5 -44z" />
    <glyph glyph-name="r" unicode="r" horiz-adv-x="386" 
d="M106 367c5.33301 35.333 8.83105 64.666 10.498 87.999s2.83398 46 3.50098 68h78c0 -14.667 -0.5 -31.167 -1.5 -49.5s-2.5 -37.5 -4.5 -57.5c10.667 17.333 22 33 34 47s25.5 26 40.5 36s32 17.833 51 23.5s41.5 8.83398 67.5 9.50098l-12 -78
c-26 -1.33301 -50.167 -5.33301 -72.5 -12s-42 -17 -59 -31s-31.167 -32.333 -42.5 -55s-19.666 -50.667 -24.999 -84l-43 -272h-83z" />
    <glyph glyph-name="s" unicode="s" horiz-adv-x="492" 
d="M235 -9c-34.667 0 -64.6729 4.66797 -90.0059 14.001s-46.333 21.833 -63 37.5s-29.167 33.667 -37.5 54s-12.833 41.833 -13.5 64.5h81c0.666992 -14 3.33398 -27.167 8.00098 -39.5s11.834 -23 21.501 -32s22.334 -16.167 38.001 -21.5s35.167 -8 58.5 -8
c36.667 0 63.667 7.5 81 22.5s26 36.167 26 63.5c0 22.667 -7.83301 40 -23.5 52s-43.167 23 -82.5 33c-29.333 7.33301 -54.166 15.5 -74.499 24.5s-36.666 19.5 -48.999 31.5s-21.333 25.5 -27 40.5s-8.5 32.5 -8.5 52.5c0 24.667 5 46.5 15 65.5s23.5 35 40.5 48
s36.5 22.667 58.5 29s44.667 9.5 68 9.5c25.333 0 49 -2.83301 71 -8.5s41.167 -14.667 57.5 -27s29.5 -28 39.5 -47s15.667 -41.833 17 -68.5h-78c-1.33301 25.333 -11.666 45.333 -30.999 60s-45.333 22 -78 22s-57.834 -6.83301 -75.501 -20.5
s-26.5 -32.834 -26.5 -57.501c0 -10 1.66699 -18.833 5 -26.5s9 -14.667 17 -21s18.833 -12.166 32.5 -17.499s30.834 -10.333 51.501 -15c26 -6.66699 49 -14 69 -22s37 -17.833 51 -29.5s24.5 -25.834 31.5 -42.501s10.5 -37 10.5 -61c0 -48 -17.167 -86.5 -51.5 -115.5
s-80.833 -43.5 -139.5 -43.5z" />
    <glyph glyph-name="t" unicode="t" horiz-adv-x="355" 
d="M210 -7c-26 0 -47.833 3.83496 -65.5 11.502s-31.5 18.167 -41.5 31.5s-16.667 29.166 -20 47.499s-3.33301 38.166 0 59.499l49 310h-75l11 70h75l19 119h83l-19 -119h119l-11 -70h-119l-50 -313c-4.66699 -28.667 -2 -48.667 8 -60s26.667 -17 50 -17
c21.333 0 42 3.66699 62 11l-11 -69c-18 -8 -39.333 -12 -64 -12z" />
    <glyph glyph-name="u" unicode="u" horiz-adv-x="600" 
d="M493 156c-5.33301 -35.333 -8.83496 -64.834 -10.502 -88.501s-1.83398 -46.167 -0.500977 -67.5h-79c-1.33301 15.333 -1.5 32.166 -0.5 50.499s2.83301 36.166 5.5 53.499c-18.667 -32 -43 -58.833 -73 -80.5s-66.333 -32.5 -109 -32.5
c-27.333 0 -51.666 4.33301 -72.999 13s-38.666 21.834 -51.999 39.501s-22.333 40.334 -27 68.001s-4 60.5 2 98.5l50 313h83l-53 -332c-6.66699 -41.333 -2.66699 -73.166 12 -95.499s40 -33.5 76 -33.5c22 0 42.667 3.5 62 10.5s36.833 17.333 52.5 31
s28.834 30.167 39.501 49.5s18 41.333 22 66l48 304h83z" />
    <glyph glyph-name="v" unicode="v" horiz-adv-x="526" 
d="M66 523h88l81 -443l219 443h88l-267 -523h-106z" />
    <glyph glyph-name="w" unicode="w" horiz-adv-x="779" 
d="M70 523h88l48 -426l192 426h72l50 -426l184 426h87l-240 -523h-92l-45 397l-182 -397h-91z" />
    <glyph glyph-name="x" unicode="x" horiz-adv-x="504" 
d="M204 276l-133 247h93l98 -187l153 187h93l-209 -256l144 -267h-94l-107 209l-172 -209h-93z" />
    <glyph glyph-name="y" unicode="y" horiz-adv-x="517" 
d="M190 59l-124 464h85l94 -375l199 375h89l-395 -705h-88z" />
    <glyph glyph-name="z" unicode="z" horiz-adv-x="487" 
d="M-13 12l366 441h-269l11 70h399l-3 -15l-357 -435h288l-12 -73h-425z" />
    <glyph glyph-name="braceleft" unicode="{" horiz-adv-x="393" 
d="M277 -148c-74.667 4 -126.165 24.6631 -154.498 61.9961s-30.166 91 -5.49902 161l33 91c6 16.667 9 32.334 9 47.001s-3.83301 27.334 -11.5 38.001s-19.334 19.334 -35.001 26.001s-36.167 10.334 -61.5 11.001l8 61c50.667 -1.33301 86.167 8 106.5 28
s30.166 49.667 29.499 89l-3 106c-1.33301 38.667 2.66699 71.167 12 97.5s23.833 47.666 43.5 63.999s44.167 28 73.5 35s63.666 10.167 102.999 9.5l-10 -62c-27.333 0 -50.333 -2.5 -69 -7.5s-33.667 -13.167 -45 -24.5s-19.333 -26.5 -24 -45.5
s-6.66699 -42.833 -6 -71.5l2 -101c0.666992 -46.667 -10 -81.5 -32 -104.5s-50.667 -38.833 -86 -47.5c35.333 -9.33301 59.333 -27.666 72 -54.999s11.334 -63 -3.99902 -107l-29 -81c-19.333 -55.333 -21.333 -94.5 -6 -117.5s48.666 -35.833 99.999 -38.5z" />
    <glyph glyph-name="bar" unicode="|" horiz-adv-x="265" 
d="M114 776h67v-924h-67v924z" />
    <glyph glyph-name="braceright" unicode="}" horiz-adv-x="393" 
d="M131 778c74.667 -4 126.167 -24.668 154.5 -62.001s30.166 -91 5.49902 -161l-33 -93c-6 -16 -9 -31.333 -9 -46s3.66699 -27.667 11 -39s19 -20.833 35 -28.5s36.667 -12.5 62 -14.5l-8 -61c-51.333 4 -87.166 -3 -107.499 -21s-29.833 -47.333 -28.5 -88l3 -106
c0.666992 -38.667 -3.5 -71.167 -12.5 -97.5s-23.333 -47.666 -43 -63.999s-44.167 -28 -73.5 -35s-63.666 -10.167 -102.999 -9.5l10 62c27.333 0 50.333 2.5 69 7.5s33.667 13.167 45 24.5s19.333 26.5 24 45.5s6.66699 42.833 6 71.5l-2 107c0 24 2.83301 44.333 8.5 61
s13.667 30.5 24 41.5s22.833 19.667 37.5 26s30.667 10.833 48 13.5c-35.333 11.333 -59.5 31 -72.5 59s-12.5 61.333 1.5 100l32 88c9.33301 28 14.5 51.5 15.5 70.5s-2.33301 34.667 -10 47s-19.834 21.5 -36.501 27.5s-37.667 9.66699 -63 11z" />
    <glyph glyph-name="asciitilde" unicode="~" horiz-adv-x="457" 
d="M46 223c8 44 22.501 76.332 43.501 96.999s44.167 31 69.5 31c16.667 0 31.667 -2.66699 45 -8s25.666 -11.166 36.999 -17.499l31 -17.5c9.33301 -5.33301 18 -8 26 -8c10.667 0 21.167 4.33301 31.5 13s17.166 22 20.499 40h66c-4 -22 -9.83301 -41.167 -17.5 -57.5
s-16.5 -29.666 -26.5 -39.999s-20.833 -18 -32.5 -23s-23.5 -7.5 -35.5 -7.5c-17.333 0 -32.833 2.66699 -46.5 8s-26.167 11.166 -37.5 17.499l-31 17.5c-9.33301 5.33301 -18 8 -26 8c-11.333 0 -21.666 -4.5 -30.999 -13.5s-16 -22.167 -20 -39.5h-66z" />
    <glyph glyph-name="uni00A0" unicode="&#xa0;" horiz-adv-x="280" 
 />
    <glyph glyph-name="exclamdown" unicode="&#xa1;" horiz-adv-x="300" 
d="M135.011 -115.956h-91.9941l95.9941 512.969h63.9961zM191.007 604c17.333 0 32.333 -6.16602 44.999 -18.499c12.665 -12.333 18.998 -27.499 18.998 -45.498s-6.16602 -33.165 -18.498 -45.4971c-12.333 -12.333 -27.166 -18.499 -44.499 -18.499
c-17.332 0 -32.498 6.16602 -45.4971 18.499c-12.999 12.332 -19.499 27.498 -19.499 45.4971s6.33301 33.165 18.999 45.498s27.665 18.499 44.9971 18.499z" />
    <glyph glyph-name="cent" unicode="&#xa2;" horiz-adv-x="574" 
d="M286 -8l-19.999 -127h-59l21 133c-58.667 11.333 -103.834 37.333 -135.501 78s-47.5 91.334 -47.5 152.001c0 47.333 7.33301 89.5 22 126.5s34.334 68.333 59.001 94s53.167 45.5 85.5 59.5s65.833 21.667 100.5 23l16 98h59l-16 -102c22.667 -4 43.667 -10.5 63 -19.5
s36.166 -20.833 50.499 -35.5s26 -32.5 35 -53.5s14.5 -44.833 16.5 -71.5h-79c-3.33301 34.667 -13.833 60.5 -31.5 77.5s-39.5 28.167 -65.5 33.5l-63 -398c16.667 0 33 2.16699 49 6.5s30.833 11.5 44.5 21.5s25.667 23 36 39s17.833 35.667 22.5 59h78
c-6 -34 -16.333 -63.167 -31 -87.5s-32.5 -44.333 -53.5 -60s-44.333 -27.334 -70 -35.001s-52.167 -11.5 -79.5 -11.5h-7zM130.001 228c0 -90.667 36.335 -144.667 109.002 -162l62 395c-24 -2 -46.333 -8.5 -67 -19.5s-38.834 -26.333 -54.501 -46
s-27.834 -43.5 -36.501 -71.5s-13 -60 -13 -96z" />
    <glyph glyph-name="sterling" unicode="&#xa3;" horiz-adv-x="608" 
d="M73 377l69.9922 -0.00390625c-1.33301 15.333 -2.33301 30.833 -3 46.5s-1 31.5 -1 47.5c0 34.667 4.83301 67.334 14.5 98.001s24.5 57.5 44.5 80.5s45 41.167 75 54.5s65.667 20 107 20c60.667 0 109.334 -15.5 146.001 -46.5s55.334 -78.5 56.001 -142.5h-85
c-1.33301 17.333 -4.16602 33.166 -8.49902 47.499s-11.166 26.833 -20.499 37.5s-21.5 18.834 -36.5 24.501s-33.5 8.5 -55.5 8.5c-28.667 0 -52.667 -5 -72 -15s-34.833 -23.333 -46.5 -40s-20 -36 -25 -58s-7.5 -45.333 -7.5 -70c0 -17.333 0.166992 -33.333 0.5 -48
s0.833008 -29.667 1.5 -45h211l-10 -62h-197c0.666992 -10.667 1 -21.667 1 -33v-36c0 -25.333 -2.16699 -48.666 -6.5 -69.999s-12.166 -41.666 -23.499 -60.999c16 -4 31.833 -8.83301 47.5 -14.5l46 -17c15 -5.66699 29 -10.334 42 -14.001s25.167 -5.5 36.5 -5.5
c24 0 44.333 6.16699 61 18.5s27.667 34.833 33 67.5h74c-3.33301 -24 -9.33301 -45.667 -18 -65s-20 -36 -34 -50s-30.833 -24.833 -50.5 -32.5s-42.5 -11.5 -68.5 -11.5c-21.333 0 -42.166 3.33301 -62.499 10s-40.166 13.834 -59.499 21.501l-55 21.5
c-17.333 6.66699 -33 10 -47 10c-20 0 -35.167 -5.66699 -45.5 -17s-17.166 -23.666 -20.499 -36.999h-72c2 12 6 24.667 12 38s13.833 25.833 23.5 37.5s21.167 21.667 34.5 30s28.333 13.833 45 16.5c18.667 31.333 28 70 28 116c0 11.333 -0.333008 23.5 -1 36.5
s-1.66699 26.5 -3 40.5h-85z" />
    <glyph glyph-name="yen" unicode="&#xa5;" horiz-adv-x="588" 
d="M100 339h156l-151 376h91l123 -324l219 324h87l-260 -376h156l-9 -58h-168l-12 -78h167l-9 -58h-167l-23 -145h-85l23 145h-169l9 58h169l12 78h-168z" />
    <glyph glyph-name="brokenbar" unicode="&#xa6;" horiz-adv-x="265" 
d="M114 297h67v-445h-67v445zM114 776h67v-409h-67v409z" />
    <glyph glyph-name="section" unicode="&#xa7;" horiz-adv-x="551" 
d="M223 -137c-24 0 -47.332 3.16699 -69.999 9.5s-42.5 16.333 -59.5 30s-30.333 30.667 -40 51s-13.834 44.5 -12.501 72.5h84c0.666992 -30 9.16699 -53 25.5 -69s42.833 -24 79.5 -24c14.667 0 28.5 2.16699 41.5 6.5s24.333 10.5 34 18.5s17.334 18 23.001 30
s8.5 26 8.5 42c0 11.333 -2 21.5 -6 30.5s-10.833 17.833 -20.5 26.5s-22.667 17 -39 25s-37.166 16.667 -62.499 26c-24 8.66699 -45.667 18 -65 28s-35.833 21.5 -49.5 34.5s-24.334 27.667 -32.001 44s-11.5 35.5 -11.5 57.5c0 20 3.66699 38 11 54s17.166 30 29.499 42
s26.666 22 42.999 30s33.833 14 52.5 18c-13.333 13.333 -23.666 28 -30.999 44s-11 36.667 -11 62c0 26 5.33301 49.667 16 71s25 39.5 43 54.5s39 26.5 63 34.5s49.333 12 76 12c24 0 46.167 -3 66.5 -9s38 -15.5 53 -28.5s27 -29.333 36 -49s13.833 -43.167 14.5 -70.5
h-85c-0.666992 58 -31.667 87 -93 87c-14.667 0 -28.5 -1.83301 -41.5 -5.5s-24.5 -9.33398 -34.5 -17.001s-17.833 -17.667 -23.5 -30s-8.5 -27.166 -8.5 -44.499c0 -11.333 1.83301 -21.5 5.5 -30.5s9.83398 -17.5 18.501 -25.5s20.5 -16 35.5 -24s34.167 -16 57.5 -24
c24 -8.66699 46 -18 66 -28s37.333 -21.5 52 -34.5s26 -28.333 34 -46s12 -38.167 12 -61.5c0 -20 -3.33301 -37.667 -10 -53s-16 -28.5 -28 -39.5s-26.167 -20.333 -42.5 -28s-33.833 -14.167 -52.5 -19.5c13.333 -12 24.166 -27.5 32.499 -46.5s12.5 -38.833 12.5 -59.5
c0 -28 -5.16699 -52.667 -15.5 -74s-24.333 -39.5 -42 -54.5s-38.5 -26.333 -62.5 -34s-49.667 -11.5 -77 -11.5zM319.001 180c12.667 2.66699 25.167 6.16895 37.5 10.502s23.5 10.333 33.5 18s18.167 17 24.5 28s9.5 24.5 9.5 40.5c0 23.333 -9.33301 43.166 -28 59.499
s-44 30.166 -76 41.499l-82 30c-12 -2 -24 -5.33301 -36 -10s-23 -11 -33 -19s-18.167 -17.833 -24.5 -29.5s-9.5 -25.167 -9.5 -40.5c0 -22 8.16699 -40.333 24.5 -55s41.5 -28.667 75.5 -42z" />
    <glyph glyph-name="dieresis" unicode="&#xa8;" horiz-adv-x="412" 
d="M178 634c-14.667 0 -27.168 5 -37.501 15s-15.5 22.333 -15.5 37s5.33301 27.334 16 38.001s23.334 16 38.001 16s27 -5 37 -15s15 -22.333 15 -37s-5.16699 -27.334 -15.5 -38.001s-22.833 -16 -37.5 -16zM365.999 634c-14.667 0 -27.168 5 -37.501 15
s-15.5 22.333 -15.5 37s5.33301 27.334 16 38.001s23.334 16 38.001 16s27 -5 37 -15s15 -22.333 15 -37s-5.16699 -27.334 -15.5 -38.001s-22.833 -16 -37.5 -16z" />
    <glyph glyph-name="copyright" unicode="&#xa9;" horiz-adv-x="856" 
d="M440 155c-60.667 0 -107.836 17.8311 -141.503 53.498s-50.5 83.834 -50.5 144.501v8c0 30 4.83301 57.167 14.5 81.5s23 45.166 40 62.499s37.167 30.833 60.5 40.5s49 14.5 77 14.5c22.667 0 43.834 -2.83301 63.501 -8.5s37 -14.167 52 -25.5
s27.167 -25.666 36.5 -42.999s15 -37.666 17 -60.999h-76c-8 52 -39 78 -93 78c-34.667 0 -62.167 -12.167 -82.5 -36.5s-30.5 -58.5 -30.5 -102.5v-7c0 -44 9.83301 -78 29.5 -102s47.5 -36 83.5 -36c27.333 0 50 6.83301 68 20.5s29 34.5 33 62.5h72
c-5.33301 -48 -23.666 -84 -54.999 -108s-70.666 -36 -117.999 -36zM437.998 32.998c42.667 0 83.335 8.00098 122.002 24.001s72.667 38.333 102 67s52.666 63 69.999 103s26 84 26 132c0 47.333 -8.5 90.833 -25.5 130.5s-40 73.667 -69 102s-62.667 50.5 -101 66.5
s-79.166 24 -122.499 24c-44 0 -85.333 -8 -124 -24s-72.5 -38.333 -101.5 -67s-52 -62.834 -69 -102.501s-25.5 -83.5 -25.5 -131.5s8.66699 -92 26 -132s40.666 -74.167 69.999 -102.5s63.166 -50.333 101.499 -66s78.5 -23.5 120.5 -23.5zM437.999 -9.00098
c-50.667 0 -98.335 9.33203 -143.002 27.999s-83.5 44.5 -116.5 77.5s-59 71.667 -78 116s-28.5 92.5 -28.5 144.5c0 50.667 9.5 98.334 28.5 143.001s45 83.667 78 117s72 59.5 117 78.5s93.167 28.5 144.5 28.5c52 0 100.333 -9.5 145 -28.5s83.334 -45 116.001 -78
s58.334 -71.667 77.001 -116s28 -91.833 28 -142.5c0 -52 -9.5 -100.5 -28.5 -145.5s-45 -84 -78 -117s-72 -58.833 -117 -77.5s-93.167 -28 -144.5 -28z" />
    <glyph glyph-name="ordfeminine" unicode="&#xaa;" horiz-adv-x="431" 
d="M190 290c-42 0 -74.333 10.668 -97 32.001s-34 49.333 -34 84c0 26 5.5 47.833 16.5 65.5s26 32 45 43s41.167 18.833 66.5 23.5s52.666 7 81.999 7h73l4 26c4.66699 30 1.5 52.5 -9.5 67.5s-32.5 22.5 -64.5 22.5c-50.667 0 -81 -22.667 -91 -68h-78
c4.66699 24.667 13 45.334 25 62.001s26 30.167 42 40.5s33.167 17.666 51.5 21.999s36.5 6.5 54.5 6.5c24.667 0 47 -3 67 -9s36.667 -15.333 50 -28s22.833 -29.167 28.5 -49.5s6.16699 -44.5 1.5 -72.5l-22 -140c-4.66699 -28 -7.33398 -51.833 -8.00098 -71.5
s0 -38.167 2 -55.5h-75c-1.33301 11.333 -2.16602 21 -2.49902 29s-0.166016 16.667 0.500977 26c-16 -22.667 -35 -38.834 -57 -48.501s-45.667 -14.5 -71 -14.5zM207 350.001c31.333 0 57.833 7.66504 79.5 22.998s35.167 40 40.5 74l7 44h-68
c-44 0 -76.5 -6.16699 -97.5 -18.5s-31.5 -33.166 -31.5 -62.499c0 -17.333 5.83301 -31.666 17.5 -42.999s29.167 -17 52.5 -17z" />
    <glyph glyph-name="guillemotleft" unicode="&#xab;" horiz-adv-x="512" 
d="M64 262l158 177h85l-156 -181l95 -175h-80zM242 262l158 177h85l-156 -181l95 -175h-80z" />
    <glyph glyph-name="uni00AD" unicode="&#xad;" horiz-adv-x="347" 
d="M73 314h214l-12 -78h-214z" />
    <glyph glyph-name="registered" unicode="&#xae;" horiz-adv-x="526" 
d="M221 615l77 0.000976562c25.333 0 45.666 -5.33301 60.999 -16s23 -27.334 23 -50.001v-1c0 -16.667 -4.16699 -29.667 -12.5 -39s-19.166 -16 -32.499 -20l58 -93h-50l-53 85h-23v-85h-48v219zM297 514.001c25.333 0 38 10.667 38 32v1c0 11.333 -3.33301 19.333 -10 24
s-16 7 -28 7h-28v-64h28zM297 318.001c26 0 50.0039 4.50098 72.0039 13.501s41.167 21.667 57.5 38s29.166 35.833 38.499 58.5s14 47.667 14 75s-4.5 52.333 -13.5 75s-21.5 42.167 -37.5 58.5s-35.167 29 -57.5 38s-46.833 13.5 -73.5 13.5s-51.167 -4.5 -73.5 -13.5
s-41.5 -21.833 -57.5 -38.5s-28.5 -36.334 -37.5 -59.001s-13.5 -47.667 -13.5 -75s4.66699 -52.333 14 -75s22.166 -42 38.499 -58s35.666 -28.5 57.999 -37.5s46.166 -13.5 71.499 -13.5zM297.004 282.002c-30.667 0 -59.5 5.66602 -86.5 16.999s-50.5 26.833 -70.5 46.5
s-35.833 42.834 -47.5 69.501s-17.5 55.667 -17.5 87c0 30.667 5.66699 59.5 17 86.5s27 50.5 47 70.5s43.5 35.833 70.5 47.5s56.167 17.5 87.5 17.5s60.5 -5.66699 87.5 -17s50.5 -27 70.5 -47s35.667 -43.5 47 -70.5s17 -55.833 17 -86.5
c0 -31.333 -5.83301 -60.5 -17.5 -87.5s-27.5 -50.333 -47.5 -70s-43.5 -35.167 -70.5 -46.5s-55.833 -17 -86.5 -17z" />
    <glyph glyph-name="macron" unicode="&#xaf;" horiz-adv-x="412" 
d="M145 712h262l-10 -64h-262z" />
    <glyph glyph-name="degree" unicode="&#xb0;" horiz-adv-x="439" 
d="M263 464c26.667 0 48.499 9.33301 65.499 28s25.5 44 25.5 76c0 27.333 -8.16699 50.5 -24.5 69.5s-37.166 28.5 -62.499 28.5c-27.333 0 -50 -9.5 -68 -28.5s-27 -44.5 -27 -76.5c0 -27.333 8.66699 -50.333 26 -69s39 -28 65 -28zM260.999 406
c-22 0 -42.833 4.00195 -62.5 12.002s-36.667 18.833 -51 32.5s-25.666 29.834 -33.999 48.501s-12.5 38.667 -12.5 60c0 23.333 4.16699 45 12.5 65s20 37.5 35 52.5s32.833 26.667 53.5 35s43 12.5 67 12.5c22.667 0 43.667 -4 63 -12s36.166 -19 50.499 -33
s25.5 -30.333 33.5 -49s12 -39 12 -61c0 -22.667 -4.16699 -43.834 -12.5 -63.501s-20 -36.834 -35 -51.501s-32.667 -26.334 -53 -35.001s-42.5 -13 -66.5 -13z" />
    <glyph glyph-name="plusminus" unicode="&#xb1;" horiz-adv-x="531" 
d="M238 327h-187l11 70h187l29 182h73l-29 -182h187l-11 -70h-187l-29 -182h-73zM11 70h447l-11 -70h-447z" />
    <glyph glyph-name="twosuperior" unicode="&#xb2;" horiz-adv-x="298" 
d="M32 385l148 131c24 21.333 42 39.5 54 54.5s18 32.167 18 51.5c0 15.333 -4.5 26.666 -13.5 33.999s-19.833 11 -32.5 11c-16 0 -29.833 -5.16699 -41.5 -15.5s-20.167 -27.166 -25.5 -50.499h-62c6 38 21.167 67.167 45.5 87.5s53.5 30.5 87.5 30.5
c14 0 27.5 -1.83301 40.5 -5.5s24.5 -9.33398 34.5 -17.001s18.167 -17.667 24.5 -30s9.5 -26.833 9.5 -43.5c0 -13.333 -2.16699 -25.5 -6.5 -36.5s-10.5 -21.667 -18.5 -32s-18.167 -21.166 -30.5 -32.499l-42.5 -38l-69 -60h138l-8 -51h-252z" />
    <glyph glyph-name="threesuperior" unicode="&#xb3;" horiz-adv-x="323" 
d="M189 368c-16.667 0 -32.6699 1.83203 -48.0029 5.49902s-29 9.83398 -41 18.501s-21.667 20.167 -29 34.5s-11 31.833 -11 52.5h63c1.33301 -17.333 7.16602 -31.833 17.499 -43.5s26.166 -17.5 47.499 -17.5c16.667 0 31.834 4.66699 45.501 14s20.5 24.333 20.5 45
c0 32.667 -18.333 49 -55 49h-24l7 47h27c18 0 32.5 4.16699 43.5 12.5s16.5 20.833 16.5 37.5c0 14 -3.83301 25.167 -11.5 33.5s-20.167 12.5 -37.5 12.5s-32 -4.83301 -44 -14.5s-20 -23.167 -24 -40.5h-60c4 33.333 18.333 59.166 43 77.499s53.667 27.5 87 27.5
c14.667 0 28.834 -1.66699 42.501 -5s25.667 -8.5 36 -15.5s18.5 -16.167 24.5 -27.5s9 -25.333 9 -42c0 -18.667 -6 -35 -18 -49s-28.333 -24.333 -49 -31c15.333 -3.33301 28.5 -11.166 39.5 -23.499s16.5 -29.5 16.5 -51.5c0 -17.333 -3.66699 -32.5 -11 -45.5
s-17.166 -24 -29.499 -33s-26.666 -15.833 -42.999 -20.5s-33.166 -7 -50.499 -7z" />
    <glyph glyph-name="acute" unicode="&#xb4;" horiz-adv-x="412" 
d="M299 760h108l-121 -147h-66z" />
    <glyph glyph-name="paragraph" unicode="&#xb6;" horiz-adv-x="600" 
d="M294 346h-3c-30 0 -57.167 3.5 -81.5 10.5s-45.333 17.333 -63 31s-31.334 30.667 -41.001 51s-14.5 43.833 -14.5 70.5c0 34 6.16699 63.833 18.5 89.5s29.333 47.167 51 64.5s46.834 30.333 75.501 39s59 13 91 13h244l-129 -815h-69l120 758h-81l-120 -758h-68z" />
    <glyph glyph-name="periodcentered" unicode="&#xb7;" horiz-adv-x="294" 
d="M156 263c-17.333 0 -32.332 6.16699 -44.999 18.5s-19 27.5 -19 45.5s6.16699 33.167 18.5 45.5s27.166 18.5 44.499 18.5s32.5 -6.16699 45.5 -18.5s19.5 -27.5 19.5 -45.5s-6.33301 -33.167 -19 -45.5s-27.667 -18.5 -45 -18.5z" />
    <glyph glyph-name="cedilla" unicode="&#xb8;" horiz-adv-x="412" 
d="M149 -214c-26 0 -48.3311 6.83105 -66.998 20.498s-29.334 34.834 -32.001 63.501h56c1.33301 -10 5.5 -18.5 12.5 -25.5s16.833 -10.5 29.5 -10.5c10.667 0 20 2.83301 28 8.5s12 15.5 12 29.5c0 10 -3.33301 17.833 -10 23.5s-15 8.5 -25 8.5
c-6 0 -11 -0.833008 -15 -2.5s-7.66699 -3.5 -11 -5.5l-27 30l57 74h53l-40 -53c20 2 38.5 -3.16699 55.5 -15.5s25.5 -31.166 25.5 -56.499c0 -29.333 -9.33301 -51.5 -28 -66.5s-43.334 -22.5 -74.001 -22.5z" />
    <glyph glyph-name="onesuperior" unicode="&#xb9;" horiz-adv-x="243" 
d="M171 647l-89 -54l9 61l99 61h60l-54 -342h-68z" />
    <glyph glyph-name="ordmasculine" unicode="&#xba;" horiz-adv-x="505" 
d="M270 290c-29.333 0 -55.666 4.50098 -78.999 13.501s-43.166 21.833 -59.499 38.5s-28.833 36.334 -37.5 59.001s-13 47.667 -13 75c0 35.333 5.83301 68.166 17.5 98.499s27.667 56.5 48 78.5s44.333 39.333 72 52s57.5 19 89.5 19c29.333 0 55.666 -4.5 78.999 -13.5
s43.166 -21.833 59.499 -38.5s28.833 -36.334 37.5 -59.001s13 -47.667 13 -75c0 -36 -5.66699 -69.167 -17 -99.5s-27 -56.5 -47 -78.5s-44 -39.167 -72 -51.5s-58.333 -18.5 -91 -18.5zM274 354.001c22.667 0 42.8311 4.66797 60.498 14.001s32.5 22.166 44.5 38.499
s21.167 35.666 27.5 57.999s9.5 46.5 9.5 72.5c0 38 -9.33301 68 -28 90s-47 33 -85 33c-21.333 0 -40.666 -4.66699 -57.999 -14s-32.166 -22.166 -44.499 -38.499s-21.833 -35.833 -28.5 -58.5s-10 -47 -10 -73c0 -38 9.16699 -67.833 27.5 -89.5s46.5 -32.5 84.5 -32.5z
" />
    <glyph glyph-name="guillemotright" unicode="&#xbb;" horiz-adv-x="512" 
d="M446 260l-158 -177h-85l156 181l-95 175h80zM268 260l-158 -177h-85l156 181l-95 175h80z" />
    <glyph glyph-name="onequarter" unicode="&#xbc;" horiz-adv-x="696" 
d="M174 647l-89 -54l9 61l99 61h60l-54 -342h-68zM623 715h69l-597 -715h-69zM527 69h-172l4 24l192 249h84l-36 -224h46l-8 -49h-45l-11 -69h-65zM536 118l26 169l-125 -169h99z" />
    <glyph glyph-name="onehalf" unicode="&#xbd;" horiz-adv-x="709" 
d="M174 647l-89 -54l9 61l99 61h60l-54 -342h-68zM610 715h69l-597 -715h-69zM381 12l148 131c24 21.333 42 39.5 54 54.5s18 32.167 18 51.5c0 15.333 -4.5 26.666 -13.5 33.999s-19.833 11 -32.5 11c-16 0 -29.833 -5.16699 -41.5 -15.5s-20.167 -27.166 -25.5 -50.499
h-62c6 38 21.167 67.167 45.5 87.5s53.5 30.5 87.5 30.5c14 0 27.5 -1.83301 40.5 -5.5s24.5 -9.33398 34.5 -17.001s18.167 -17.667 24.5 -30s9.5 -26.833 9.5 -43.5c0 -13.333 -2.16699 -25.5 -6.5 -36.5s-10.5 -21.667 -18.5 -32s-18.167 -21.166 -30.5 -32.499
l-42.5 -38l-69 -60h138l-8 -51h-252z" />
    <glyph glyph-name="threequarters" unicode="&#xbe;" horiz-adv-x="722" 
d="M192 368c-16.667 0 -32.6699 1.83203 -48.0029 5.49902s-29 9.83398 -41 18.501s-21.667 20.167 -29 34.5s-11 31.833 -11 52.5h63c1.33301 -17.333 7.16602 -31.833 17.499 -43.5s26.166 -17.5 47.499 -17.5c16.667 0 31.834 4.66699 45.501 14s20.5 24.333 20.5 45
c0 32.667 -18.333 49 -55 49h-24l7 47h27c18 0 32.5 4.16699 43.5 12.5s16.5 20.833 16.5 37.5c0 14 -3.83301 25.167 -11.5 33.5s-20.167 12.5 -37.5 12.5s-32 -4.83301 -44 -14.5s-20 -23.167 -24 -40.5h-60c4 33.333 18.333 59.166 43 77.499s53.667 27.5 87 27.5
c14.667 0 28.834 -1.66699 42.501 -5s25.667 -8.5 36 -15.5s18.5 -16.167 24.5 -27.5s9 -25.333 9 -42c0 -18.667 -6 -35 -18 -49s-28.333 -24.333 -49 -31c15.333 -3.33301 28.5 -11.166 39.5 -23.499s16.5 -29.5 16.5 -51.5c0 -17.333 -3.66699 -32.5 -11 -45.5
s-17.166 -24 -29.499 -33s-26.666 -15.833 -42.999 -20.5s-33.166 -7 -50.499 -7zM662.997 714.999h69l-597 -715h-69zM552.997 68.999h-172l4 24l192 249h84l-36 -224h46l-8 -49h-45l-11 -69h-65zM561.997 117.999l26 169l-125 -169h99z" />
    <glyph glyph-name="questiondown" unicode="&#xbf;" horiz-adv-x="501" 
d="M326.011 346.016c-3.99902 -23.999 -10.665 -44.999 -19.998 -62.998s-20.499 -33.998 -33.498 -47.9971s-26.998 -26.665 -41.9971 -37.998l-43.4971 -32.998c-11.999 -9.33301 -23.165 -18.499 -33.498 -27.498s-19.332 -18.498 -26.998 -28.4971
s-13.499 -20.998 -17.499 -32.9971s-6 -25.665 -6 -40.998c0 -27.998 9 -49.9971 26.999 -65.9961s43.9971 -23.998 77.9951 -23.998c35.3311 0 65.6621 10.999 90.9941 32.998s41.6641 54.3301 48.9971 96.9941h78.9951c-4 -31.998 -12.833 -60.3301 -26.498 -84.9951
c-13.666 -24.665 -30.498 -45.4971 -50.4971 -62.4961s-42.8311 -29.832 -68.4961 -38.499c-25.665 -8.66602 -53.1631 -12.999 -82.4951 -12.999c-31.3311 0 -58.4961 4.33301 -81.4951 12.999c-22.998 8.66699 -41.8301 20.333 -56.4961 34.998
c-14.666 14.666 -25.499 31.498 -32.498 50.4971s-10.499 38.8311 -10.499 59.4961c0 23.999 3.5 44.998 10.499 62.9971s16.498 33.998 28.4971 47.9971s25.665 26.832 40.998 38.498l47.9971 35.498l36.4971 27.498c11.666 8.99902 22.332 18.832 31.998 29.498
s17.832 22.332 24.499 34.998c6.66602 12.666 11.332 26.998 13.999 42.9971l7 43.998h73.9951zM314.012 603.999c17.332 0 32.3311 -6.16602 44.9971 -18.499s18.999 -27.499 18.999 -45.498s-6.16602 -33.165 -18.499 -45.4971
c-12.333 -12.333 -27.165 -18.499 -44.4971 -18.499s-32.498 6.16602 -45.4971 18.499c-12.999 12.332 -19.499 27.498 -19.499 45.4971s6.33301 33.165 18.999 45.498s27.665 18.499 44.9971 18.499z" />
    <glyph glyph-name="Agrave" unicode="&#xc0;" horiz-adv-x="662" 
d="M469 206h-295l-102 -206h-84l359 715h114l129 -715h-84zM208 275h248l-66 368zM305 898h101l39 -127h-60z" />
    <glyph glyph-name="Aacute" unicode="&#xc1;" horiz-adv-x="662" 
d="M469 206h-295l-102 -206h-84l359 715h114l129 -715h-84zM208 275h248l-66 368zM438 898h106l-108 -127h-66z" />
    <glyph glyph-name="Acircumflex" unicode="&#xc2;" horiz-adv-x="662" 
d="M469 206h-295l-102 -206h-84l359 715h114l129 -715h-84zM208 275h248l-66 368zM381 898h75l91 -127h-58l-77 58l-93 -58h-62z" />
    <glyph glyph-name="Atilde" unicode="&#xc3;" horiz-adv-x="662" 
d="M469 206h-295l-102 -206h-84l359 715h114l129 -715h-84zM208 275h248l-66 368zM471 774c-12 0 -23.166 2.16699 -33.499 6.5s-20 9.33301 -29 15s-17.5 10.667 -25.5 15s-15.667 6.5 -23 6.5c-9.33301 0 -18.5 -4 -27.5 -12s-15.167 -19 -18.5 -33h-60
c7.33301 36.667 20.5 65.167 39.5 85.5s41.5 30.5 67.5 30.5c11.333 0 22.166 -2.16699 32.499 -6.5s20 -9.33301 29 -15s17.5 -10.667 25.5 -15s15.667 -6.5 23 -6.5c9.33301 0 18.333 4 27 12s14.667 19 18 33h60c-7.33301 -36.667 -20.333 -65.167 -39 -85.5
s-40.667 -30.5 -66 -30.5z" />
    <glyph glyph-name="Adieresis" unicode="&#xc4;" horiz-adv-x="662" 
d="M469 206h-295l-102 -206h-84l359 715h114l129 -715h-84zM208 275h248l-66 368zM311 789c-14.667 0 -27.168 5 -37.501 15s-15.5 22.333 -15.5 37s5.33301 27.334 16 38.001s23.334 16 38.001 16s27 -5 37 -15s15 -22.333 15 -37s-5.16699 -27.334 -15.5 -38.001
s-22.833 -16 -37.5 -16zM513.999 789c-14.667 0 -27.168 5 -37.501 15s-15.5 22.333 -15.5 37s5.33301 27.334 16 38.001s23.334 16 38.001 16s27 -5 37 -15s15 -22.333 15 -37s-5.16699 -27.334 -15.5 -38.001s-22.833 -16 -37.5 -16z" />
    <glyph glyph-name="Aring" unicode="&#xc5;" horiz-adv-x="662" 
d="M469 206h-295l-102 -206h-84l359 715h114l129 -715h-84zM208 275h248l-66 368zM411 805c15.333 0 28.333 5.66699 39 17s16 25.666 16 42.999c0 16.667 -4.66699 30.167 -14 40.5s-21.666 15.5 -36.999 15.5s-28.333 -5.66699 -39 -17s-16 -25.666 -16 -42.999
c0 -16.667 4.66699 -30.167 14 -40.5s21.666 -15.5 36.999 -15.5zM411 759c-14.667 0 -28.334 2.66699 -41.001 8s-23.834 12.5 -33.501 21.5s-17.167 19.833 -22.5 32.5s-8 26 -8 40c0 14.667 2.83301 28.5 8.5 41.5s13.5 24.167 23.5 33.5s21.667 16.833 35 22.5
s27.333 8.5 42 8.5s28.334 -2.66699 41.001 -8s23.834 -12.5 33.501 -21.5s17.167 -19.833 22.5 -32.5s8 -26 8 -40c0 -14.667 -2.83301 -28.5 -8.5 -41.5s-13.5 -24.167 -23.5 -33.5s-21.667 -16.833 -35 -22.5s-27.333 -8.5 -42 -8.5z" />
    <glyph glyph-name="AE" unicode="&#xc6;" horiz-adv-x="962" 
d="M459 715h505l-12 -71h-326l-38 -243h266l-11 -71h-266l-41 -259h348l-11 -71h-435l32 207h-253l-133 -207h-91zM261 275h220l58 369h-40z" />
    <glyph glyph-name="Ccedilla" unicode="&#xc7;" horiz-adv-x="740" 
d="M308 -214c-26 0 -48.333 6.82812 -67 20.4951s-29.334 34.834 -32.001 63.501h56c1.33301 -10 5.5 -18.5 12.5 -25.5s16.833 -10.5 29.5 -10.5c10.667 0 20 2.83301 28 8.5s12 15.5 12 29.5c0 10 -3.33301 17.833 -10 23.5s-15 8.5 -25 8.5c-6 0 -11 -0.833008 -15 -2.5
s-7.66699 -3.5 -11 -5.5l-27 30l55 72c-37.333 6.66699 -70.833 18.834 -100.5 36.501s-54.834 39.5 -75.501 65.5s-36.5 56.167 -47.5 90.5s-16.5 72.166 -16.5 113.499c0 58.667 9.33301 113.667 28 165s44.667 96 78 134s73.333 68 120 90s98 33 154 33
c36 0 69.667 -5 101 -15s58.833 -24.833 82.5 -44.5s42.667 -44 57 -73s22.833 -62.833 25.5 -101.5h-82c-8.66699 54 -27.834 95 -57.501 123s-73.167 42 -130.5 42c-45.333 0 -85.666 -9.16699 -120.999 -27.5s-65.166 -43.333 -89.499 -75s-43 -69 -56 -112
s-19.5 -89.167 -19.5 -138.5c0 -77.333 19 -137.166 57 -179.499s95.333 -63.5 172 -63.5c58 0 105.667 16.167 143 48.5s64.333 74.833 81 127.5h83c-9.33301 -38 -23.666 -72.167 -42.999 -102.5s-42.333 -56.166 -69 -77.499s-56.5 -37.666 -89.5 -48.999
s-68.5 -17 -106.5 -17h-13c-3.33301 0 -8.66602 0.333008 -15.999 1l-34 -45c20 2 38.5 -3.16699 55.5 -15.5s25.5 -31.166 25.5 -56.499c0 -29.333 -9.33301 -51.5 -28 -66.5s-43.334 -22.5 -74.001 -22.5z" />
    <glyph glyph-name="Egrave" unicode="&#xc8;" horiz-adv-x="584" 
d="M167 715h413l-12 -71h-326l-38 -243h266l-11 -71h-266l-41 -259h348l-11 -71h-435zM287 898h101l39 -127h-60z" />
    <glyph glyph-name="Eacute" unicode="&#xc9;" horiz-adv-x="584" 
d="M167 715h413l-12 -71h-326l-38 -243h266l-11 -71h-266l-41 -259h348l-11 -71h-435zM407 898h106l-108 -127h-66z" />
    <glyph glyph-name="Ecircumflex" unicode="&#xca;" horiz-adv-x="584" 
d="M167 715h413l-12 -71h-326l-38 -243h266l-11 -71h-266l-41 -259h348l-11 -71h-435zM352 898h75l91 -127h-58l-77 58l-93 -58h-62z" />
    <glyph glyph-name="Edieresis" unicode="&#xcb;" horiz-adv-x="584" 
d="M167 715h413l-12 -71h-326l-38 -243h266l-11 -71h-266l-41 -259h348l-11 -71h-435zM284 789c-14.667 0 -27.168 5 -37.501 15s-15.5 22.333 -15.5 37s5.33301 27.334 16 38.001s23.334 16 38.001 16s27 -5 37 -15s15 -22.333 15 -37s-5.16699 -27.334 -15.5 -38.001
s-22.833 -16 -37.5 -16zM486.999 789c-14.667 0 -27.168 5 -37.501 15s-15.5 22.333 -15.5 37s5.33301 27.334 16 38.001s23.334 16 38.001 16s27 -5 37 -15s15 -22.333 15 -37s-5.16699 -27.334 -15.5 -38.001s-22.833 -16 -37.5 -16z" />
    <glyph glyph-name="Igrave" unicode="&#xcc;" horiz-adv-x="291" 
d="M172 715h87l-113 -715h-87zM120 898h101l39 -127h-60z" />
    <glyph glyph-name="Iacute" unicode="&#xcd;" horiz-adv-x="291" 
d="M172 715h87l-113 -715h-87zM253 898h106l-108 -127h-66z" />
    <glyph glyph-name="Icircumflex" unicode="&#xce;" horiz-adv-x="291" 
d="M172 715h87l-113 -715h-87zM198 898h75l91 -127h-58l-77 58l-93 -58h-62z" />
    <glyph glyph-name="Idieresis" unicode="&#xcf;" horiz-adv-x="291" 
d="M172 715h87l-113 -715h-87zM133 789c-14.667 0 -27.168 5 -37.501 15s-15.5 22.333 -15.5 37s5.33301 27.334 16 38.001s23.334 16 38.001 16s27 -5 37 -15s15 -22.333 15 -37s-5.16699 -27.334 -15.5 -38.001s-22.833 -16 -37.5 -16zM335.999 789
c-14.667 0 -27.168 5 -37.501 15s-15.5 22.333 -15.5 37s5.33301 27.334 16 38.001s23.334 16 38.001 16s27 -5 37 -15s15 -22.333 15 -37s-5.16699 -27.334 -15.5 -38.001s-22.833 -16 -37.5 -16z" />
    <glyph glyph-name="Eth" unicode="&#xd0;" horiz-adv-x="730" 
d="M60 392l76 -0.000976562l51 323h174c58.667 0 109.167 -7.66699 151.5 -23s77 -36.666 104 -63.999s46.833 -59.5 59.5 -96.5s19 -77.5 19 -121.5c0 -56.667 -8.83301 -110 -26.5 -160s-44 -93.5 -79 -130.5s-78.167 -66.167 -129.5 -87.5s-110.333 -32 -177 -32h-209
l51 325h-76zM280 70.999c51.333 0 97.168 7.66699 137.501 23s74.5 37.5 102.5 66.5s49.333 64.5 64 106.5s22 89.333 22 142c0 34 -4.5 65.333 -13.5 94s-23.5 53.5 -43.5 74.5s-45.833 37.5 -77.5 49.5s-69.834 18 -114.501 18h-94l-40 -253h207l-11 -67h-207l-40 -254
h108z" />
    <glyph glyph-name="Ntilde" unicode="&#xd1;" horiz-adv-x="736" 
d="M167 715h111l256 -591l94 591h83l-113 -715h-98l-266 613l-97 -613h-83zM520 774c-12 0 -23.166 2.16699 -33.499 6.5s-20 9.33301 -29 15s-17.5 10.667 -25.5 15s-15.667 6.5 -23 6.5c-9.33301 0 -18.5 -4 -27.5 -12s-15.167 -19 -18.5 -33h-60
c7.33301 36.667 20.5 65.167 39.5 85.5s41.5 30.5 67.5 30.5c11.333 0 22.166 -2.16699 32.499 -6.5s20 -9.33301 29 -15s17.5 -10.667 25.5 -15s15.667 -6.5 23 -6.5c9.33301 0 18.333 4 27 12s14.667 19 18 33h60c-7.33301 -36.667 -20.333 -65.167 -39 -85.5
s-40.667 -30.5 -66 -30.5z" />
    <glyph glyph-name="Ograve" unicode="&#xd2;" horiz-adv-x="823" 
d="M779 402c0 -59.333 -9.83398 -114.166 -29.501 -164.499s-46.5 -93.666 -80.5 -129.999s-74 -64.833 -120 -85.5s-95.333 -31 -148 -31c-49.333 0 -94.166 8.16699 -134.499 24.5s-74.833 38.666 -103.5 66.999s-50.667 62.166 -66 101.499s-23 82 -23 128
c0 56.667 9.83301 110.167 29.5 160.5s46.667 94 81 131s75 66.333 122 88s97.5 32.5 151.5 32.5c51.333 0 97 -8.5 137 -25.5s73.667 -40.167 101 -69.5s48 -63.5 62 -102.5s21 -80.5 21 -124.5zM688.999 402c0 34.667 -5 67.332 -15 97.999s-24.833 57.334 -44.5 80.001
s-44 40.667 -73 54s-62.167 20 -99.5 20c-45.333 0 -86 -9.16699 -122 -27.5s-66.667 -43 -92 -74s-44.833 -67.333 -58.5 -109s-20.5 -85.5 -20.5 -131.5c0 -39.333 5.83301 -74.333 17.5 -105s28 -56.834 49 -78.501s46.167 -38.167 75.5 -49.5s61.333 -17 96 -17
c42.667 0 81.5 8.5 116.5 25.5s65.167 40.667 90.5 71s45 66.333 59 108s21 86.834 21 135.501zM371.999 897.998h101l39 -127h-60z" />
    <glyph glyph-name="Oacute" unicode="&#xd3;" horiz-adv-x="823" 
d="M779 402c0 -59.333 -9.83398 -114.166 -29.501 -164.499s-46.5 -93.666 -80.5 -129.999s-74 -64.833 -120 -85.5s-95.333 -31 -148 -31c-49.333 0 -94.166 8.16699 -134.499 24.5s-74.833 38.666 -103.5 66.999s-50.667 62.166 -66 101.499s-23 82 -23 128
c0 56.667 9.83301 110.167 29.5 160.5s46.667 94 81 131s75 66.333 122 88s97.5 32.5 151.5 32.5c51.333 0 97 -8.5 137 -25.5s73.667 -40.167 101 -69.5s48 -63.5 62 -102.5s21 -80.5 21 -124.5zM688.999 402c0 34.667 -5 67.332 -15 97.999s-24.833 57.334 -44.5 80.001
s-44 40.667 -73 54s-62.167 20 -99.5 20c-45.333 0 -86 -9.16699 -122 -27.5s-66.667 -43 -92 -74s-44.833 -67.333 -58.5 -109s-20.5 -85.5 -20.5 -131.5c0 -39.333 5.83301 -74.333 17.5 -105s28 -56.834 49 -78.501s46.167 -38.167 75.5 -49.5s61.333 -17 96 -17
c42.667 0 81.5 8.5 116.5 25.5s65.167 40.667 90.5 71s45 66.333 59 108s21 86.834 21 135.501zM507.999 897.998h106l-108 -127h-66z" />
    <glyph glyph-name="Ocircumflex" unicode="&#xd4;" horiz-adv-x="823" 
d="M779 402c0 -59.333 -9.83398 -114.166 -29.501 -164.499s-46.5 -93.666 -80.5 -129.999s-74 -64.833 -120 -85.5s-95.333 -31 -148 -31c-49.333 0 -94.166 8.16699 -134.499 24.5s-74.833 38.666 -103.5 66.999s-50.667 62.166 -66 101.499s-23 82 -23 128
c0 56.667 9.83301 110.167 29.5 160.5s46.667 94 81 131s75 66.333 122 88s97.5 32.5 151.5 32.5c51.333 0 97 -8.5 137 -25.5s73.667 -40.167 101 -69.5s48 -63.5 62 -102.5s21 -80.5 21 -124.5zM688.999 402c0 34.667 -5 67.332 -15 97.999s-24.833 57.334 -44.5 80.001
s-44 40.667 -73 54s-62.167 20 -99.5 20c-45.333 0 -86 -9.16699 -122 -27.5s-66.667 -43 -92 -74s-44.833 -67.333 -58.5 -109s-20.5 -85.5 -20.5 -131.5c0 -39.333 5.83301 -74.333 17.5 -105s28 -56.834 49 -78.501s46.167 -38.167 75.5 -49.5s61.333 -17 96 -17
c42.667 0 81.5 8.5 116.5 25.5s65.167 40.667 90.5 71s45 66.333 59 108s21 86.834 21 135.501zM459.999 897.998h75l91 -127h-58l-77 58l-93 -58h-62z" />
    <glyph glyph-name="Otilde" unicode="&#xd5;" horiz-adv-x="823" 
d="M779 402c0 -59.333 -9.83398 -114.166 -29.501 -164.499s-46.5 -93.666 -80.5 -129.999s-74 -64.833 -120 -85.5s-95.333 -31 -148 -31c-49.333 0 -94.166 8.16699 -134.499 24.5s-74.833 38.666 -103.5 66.999s-50.667 62.166 -66 101.499s-23 82 -23 128
c0 56.667 9.83301 110.167 29.5 160.5s46.667 94 81 131s75 66.333 122 88s97.5 32.5 151.5 32.5c51.333 0 97 -8.5 137 -25.5s73.667 -40.167 101 -69.5s48 -63.5 62 -102.5s21 -80.5 21 -124.5zM688.999 402c0 34.667 -5 67.332 -15 97.999s-24.833 57.334 -44.5 80.001
s-44 40.667 -73 54s-62.167 20 -99.5 20c-45.333 0 -86 -9.16699 -122 -27.5s-66.667 -43 -92 -74s-44.833 -67.333 -58.5 -109s-20.5 -85.5 -20.5 -131.5c0 -39.333 5.83301 -74.333 17.5 -105s28 -56.834 49 -78.501s46.167 -38.167 75.5 -49.5s61.333 -17 96 -17
c42.667 0 81.5 8.5 116.5 25.5s65.167 40.667 90.5 71s45 66.333 59 108s21 86.834 21 135.501zM540.999 773.998c-12 0 -23.166 2.16699 -33.499 6.5s-20 9.33301 -29 15s-17.5 10.667 -25.5 15s-15.667 6.5 -23 6.5c-9.33301 0 -18.5 -4 -27.5 -12s-15.167 -19 -18.5 -33
h-60c7.33301 36.667 20.5 65.167 39.5 85.5s41.5 30.5 67.5 30.5c11.333 0 22.166 -2.16699 32.499 -6.5s20 -9.33301 29 -15s17.5 -10.667 25.5 -15s15.667 -6.5 23 -6.5c9.33301 0 18.333 4 27 12s14.667 19 18 33h60c-7.33301 -36.667 -20.333 -65.167 -39 -85.5
s-40.667 -30.5 -66 -30.5z" />
    <glyph glyph-name="Odieresis" unicode="&#xd6;" horiz-adv-x="823" 
d="M779 402c0 -59.333 -9.83398 -114.166 -29.501 -164.499s-46.5 -93.666 -80.5 -129.999s-74 -64.833 -120 -85.5s-95.333 -31 -148 -31c-49.333 0 -94.166 8.16699 -134.499 24.5s-74.833 38.666 -103.5 66.999s-50.667 62.166 -66 101.499s-23 82 -23 128
c0 56.667 9.83301 110.167 29.5 160.5s46.667 94 81 131s75 66.333 122 88s97.5 32.5 151.5 32.5c51.333 0 97 -8.5 137 -25.5s73.667 -40.167 101 -69.5s48 -63.5 62 -102.5s21 -80.5 21 -124.5zM688.999 402c0 34.667 -5 67.332 -15 97.999s-24.833 57.334 -44.5 80.001
s-44 40.667 -73 54s-62.167 20 -99.5 20c-45.333 0 -86 -9.16699 -122 -27.5s-66.667 -43 -92 -74s-44.833 -67.333 -58.5 -109s-20.5 -85.5 -20.5 -131.5c0 -39.333 5.83301 -74.333 17.5 -105s28 -56.834 49 -78.501s46.167 -38.167 75.5 -49.5s61.333 -17 96 -17
c42.667 0 81.5 8.5 116.5 25.5s65.167 40.667 90.5 71s45 66.333 59 108s21 86.834 21 135.501zM383.999 788.998c-14.667 0 -27.168 5 -37.501 15s-15.5 22.333 -15.5 37s5.33301 27.334 16 38.001s23.334 16 38.001 16s27 -5 37 -15s15 -22.333 15 -37
s-5.16699 -27.334 -15.5 -38.001s-22.833 -16 -37.5 -16zM586.998 788.998c-14.667 0 -27.168 5 -37.501 15s-15.5 22.333 -15.5 37s5.33301 27.334 16 38.001s23.334 16 38.001 16s27 -5 37 -15s15 -22.333 15 -37s-5.16699 -27.334 -15.5 -38.001s-22.833 -16 -37.5 -16z
" />
    <glyph glyph-name="multiply" unicode="&#xd7;" horiz-adv-x="481" 
d="M30 181l172 154l-132 153l50 47l134 -154l172 154l45 -50l-174 -155l134 -153l-52 -46l-133 153l-173 -153z" />
    <glyph glyph-name="Oslash" unicode="&#xd8;" horiz-adv-x="823" 
d="M36 12l99.999 101.999c-20 27.333 -35.333 57.666 -46 90.999s-16 69 -16 107c0 56.667 9.83301 110.167 29.5 160.5s46.667 94 81 131s75 66.333 122 88s97.5 32.5 151.5 32.5c42.667 0 81.334 -6 116.001 -18s65 -28.667 91 -50l84 86l43 -45l-83 -84
c23.333 -28.667 40.833 -61 52.5 -97s17.5 -74 17.5 -114c0 -59.333 -9.83301 -114.166 -29.5 -164.499s-46.5 -93.666 -80.5 -129.999s-74 -64.833 -120 -85.5s-95.333 -31 -148 -31c-46 0 -87.667 6.66699 -125 20s-70 32.333 -98 57l-99 -101zM688.999 401.999
c0 59.333 -12.668 109.666 -38.001 150.999l-419 -429c42.667 -41.333 99.334 -62 170.001 -62c42.667 0 81.5 8.5 116.5 25.5s65.167 40.667 90.5 71s45 66.333 59 108s21 86.834 21 135.501zM163.998 311.999c0 -54 10.333 -100 31 -138l417 427
c-19.333 17.333 -42 30.5 -68 39.5s-55 13.5 -87 13.5c-45.333 0 -86 -9.16699 -122 -27.5s-66.667 -43 -92 -74s-44.833 -67.333 -58.5 -109s-20.5 -85.5 -20.5 -131.5z" />
    <glyph glyph-name="Ugrave" unicode="&#xd9;" horiz-adv-x="708" 
d="M331 -9c-90.667 0 -157 24.3311 -199 72.998s-55.333 121.667 -40 219l69 432h87l-69 -433c-12.667 -79.333 -5.66699 -135.666 21 -168.999s71.667 -50 135 -50c53.333 0 96.333 15 129 45s54.667 81 66 153l72 454h87l-74 -466
c-6 -39.333 -16.167 -74.833 -30.5 -106.5s-33.166 -58.667 -56.499 -81s-51.333 -39.666 -84 -51.999s-70.334 -18.5 -113.001 -18.5zM324 897.998h101l39 -127h-60z" />
    <glyph glyph-name="Uacute" unicode="&#xda;" horiz-adv-x="708" 
d="M331 -9c-90.667 0 -157 24.3311 -199 72.998s-55.333 121.667 -40 219l69 432h87l-69 -433c-12.667 -79.333 -5.66699 -135.666 21 -168.999s71.667 -50 135 -50c53.333 0 96.333 15 129 45s54.667 81 66 153l72 454h87l-74 -466
c-6 -39.333 -16.167 -74.833 -30.5 -106.5s-33.166 -58.667 -56.499 -81s-51.333 -39.666 -84 -51.999s-70.334 -18.5 -113.001 -18.5zM457 897.998h106l-108 -127h-66z" />
    <glyph glyph-name="Ucircumflex" unicode="&#xdb;" horiz-adv-x="708" 
d="M331 -9c-90.667 0 -157 24.3311 -199 72.998s-55.333 121.667 -40 219l69 432h87l-69 -433c-12.667 -79.333 -5.66699 -135.666 21 -168.999s71.667 -50 135 -50c53.333 0 96.333 15 129 45s54.667 81 66 153l72 454h87l-74 -466
c-6 -39.333 -16.167 -74.833 -30.5 -106.5s-33.166 -58.667 -56.499 -81s-51.333 -39.666 -84 -51.999s-70.334 -18.5 -113.001 -18.5zM402 897.998h75l91 -127h-58l-77 58l-93 -58h-62z" />
    <glyph glyph-name="Udieresis" unicode="&#xdc;" horiz-adv-x="708" 
d="M331 -9c-90.667 0 -157 24.3311 -199 72.998s-55.333 121.667 -40 219l69 432h87l-69 -433c-12.667 -79.333 -5.66699 -135.666 21 -168.999s71.667 -50 135 -50c53.333 0 96.333 15 129 45s54.667 81 66 153l72 454h87l-74 -466
c-6 -39.333 -16.167 -74.833 -30.5 -106.5s-33.166 -58.667 -56.499 -81s-51.333 -39.666 -84 -51.999s-70.334 -18.5 -113.001 -18.5zM337 788.998c-14.667 0 -27.168 5 -37.501 15s-15.5 22.333 -15.5 37s5.33301 27.334 16 38.001s23.334 16 38.001 16s27 -5 37 -15
s15 -22.333 15 -37s-5.16699 -27.334 -15.5 -38.001s-22.833 -16 -37.5 -16zM539.999 788.998c-14.667 0 -27.168 5 -37.501 15s-15.5 22.333 -15.5 37s5.33301 27.334 16 38.001s23.334 16 38.001 16s27 -5 37 -15s15 -22.333 15 -37s-5.16699 -27.334 -15.5 -38.001
s-22.833 -16 -37.5 -16z" />
    <glyph glyph-name="Yacute" unicode="&#xdd;" horiz-adv-x="604" 
d="M272 312l-175 403h93l138 -332l232 332h89l-291 -410l-48 -305h-87zM407 898h106l-108 -127h-66z" />
    <glyph glyph-name="Thorn" unicode="&#xde;" horiz-adv-x="593" 
d="M233 581l113.999 0.00195312c32.667 0 62.5 -3.83301 89.5 -11.5s50.167 -19.167 69.5 -34.5s34.333 -34.333 45 -57s16 -49 16 -79c0 -42.667 -7.66699 -78.834 -23 -108.501s-35.5 -53.834 -60.5 -72.501s-53.667 -32.167 -86 -40.5s-65.166 -12.5 -98.499 -12.5h-132
l-26 -165h-87l113 715h87zM221.999 511.002l-44 -277h126c58 0 102 14.167 132 42.5s45 68.833 45 121.5c0.666992 39.333 -11 68 -35 86s-60 27 -108 27h-116z" />
    <glyph glyph-name="germandbls" unicode="&#xdf;" horiz-adv-x="605" 
d="M321 -9c-25.333 0 -46.999 2.33398 -64.999 7.00098s-33.667 10.667 -47 18l11 67c14.667 -7.33301 29.834 -13.166 45.501 -17.499s32.834 -6.5 51.501 -6.5c23.333 0 44 4.33301 62 13s33.167 20.5 45.5 35.5s21.666 33 27.999 54s9.5 43.5 9.5 67.5
c0 51.333 -15 91.5 -45 120.5s-72.333 43.5 -127 43.5l12 70c22.667 0 44.167 2.5 64.5 7.5s38.333 13 54 24s28.167 25.333 37.5 43s14 39.167 14 64.5c0 34 -10.167 60.167 -30.5 78.5s-48.5 27.5 -84.5 27.5c-38 0 -68.333 -12 -91 -36s-37.334 -56.333 -44.001 -97
l-91 -575h-83l91 580c4.66699 30 13.5 57.167 26.5 81.5s29.333 44.833 49 61.5s41.667 29.5 66 38.5s50.5 13.5 78.5 13.5c24.667 0 48.5 -3.66699 71.5 -11s43.5 -18.333 61.5 -33s32.333 -32.834 43 -54.501s16 -46.834 16 -75.501c0 -44 -13.167 -80.833 -39.5 -110.5
s-61.5 -51.167 -105.5 -64.5c44.667 -14.667 79.5 -39.5 104.5 -74.5s37.5 -77.167 37.5 -126.5c0 -35.333 -5.33301 -67.5 -16 -96.5s-25.834 -53.667 -45.501 -74s-43.5 -36 -71.5 -47s-59.333 -16.5 -94 -16.5z" />
    <glyph glyph-name="agrave" unicode="&#xe0;" horiz-adv-x="550" 
d="M203 -8c-54 0 -95.667 13.5 -125 40.5s-44 62.833 -44 107.5c0 32 6.83301 58.833 20.5 80.5s32 38.834 55 51.501s50 21.667 81 27s63.5 8 97.5 8h101l6 38c6.66699 40 2.5 69.667 -12.5 89s-43.5 29 -85.5 29c-34 0 -61.5 -7.5 -82.5 -22.5
s-35.167 -38.833 -42.5 -71.5h-83c6 31.333 16.5 57.5 31.5 78.5s32.167 37.667 51.5 50s40.166 21.166 62.499 26.499s44.166 8 65.499 8c29.333 0 56 -3.5 80 -10.5s44.167 -18.167 60.5 -33.5s27.833 -35.333 34.5 -60s7.33398 -54.667 2.00098 -90l-29 -182
c-5.33301 -34 -8.83301 -63 -10.5 -87s-1.16699 -47 1.5 -69h-78c-1.33301 14 -2.16602 28.5 -2.49902 43.5s0.166992 28.167 1.5 39.5c-18.667 -30 -41.5 -52.667 -68.5 -68s-56.5 -23 -88.5 -23zM214 57c39.333 0 73.334 10.833 102.001 32.5s46.667 55.5 54 101.5l9 57
h-89c-58.667 0 -102.334 -8 -131.001 -24s-43 -44 -43 -84c0 -23.333 7.83301 -43 23.5 -59s40.5 -24 74.5 -24zM200.001 760h102l47 -147h-61z" />
    <glyph glyph-name="aacute" unicode="&#xe1;" horiz-adv-x="550" 
d="M203 -8c-54 0 -95.667 13.5 -125 40.5s-44 62.833 -44 107.5c0 32 6.83301 58.833 20.5 80.5s32 38.834 55 51.501s50 21.667 81 27s63.5 8 97.5 8h101l6 38c6.66699 40 2.5 69.667 -12.5 89s-43.5 29 -85.5 29c-34 0 -61.5 -7.5 -82.5 -22.5
s-35.167 -38.833 -42.5 -71.5h-83c6 31.333 16.5 57.5 31.5 78.5s32.167 37.667 51.5 50s40.166 21.166 62.499 26.499s44.166 8 65.499 8c29.333 0 56 -3.5 80 -10.5s44.167 -18.167 60.5 -33.5s27.833 -35.333 34.5 -60s7.33398 -54.667 2.00098 -90l-29 -182
c-5.33301 -34 -8.83301 -63 -10.5 -87s-1.16699 -47 1.5 -69h-78c-1.33301 14 -2.16602 28.5 -2.49902 43.5s0.166992 28.167 1.5 39.5c-18.667 -30 -41.5 -52.667 -68.5 -68s-56.5 -23 -88.5 -23zM214 57c39.333 0 73.334 10.833 102.001 32.5s46.667 55.5 54 101.5l9 57
h-89c-58.667 0 -102.334 -8 -131.001 -24s-43 -44 -43 -84c0 -23.333 7.83301 -43 23.5 -59s40.5 -24 74.5 -24zM354.001 760h108l-121 -147h-66z" />
    <glyph glyph-name="acircumflex" unicode="&#xe2;" horiz-adv-x="550" 
d="M203 -8c-54 0 -95.667 13.5 -125 40.5s-44 62.833 -44 107.5c0 32 6.83301 58.833 20.5 80.5s32 38.834 55 51.501s50 21.667 81 27s63.5 8 97.5 8h101l6 38c6.66699 40 2.5 69.667 -12.5 89s-43.5 29 -85.5 29c-34 0 -61.5 -7.5 -82.5 -22.5
s-35.167 -38.833 -42.5 -71.5h-83c6 31.333 16.5 57.5 31.5 78.5s32.167 37.667 51.5 50s40.166 21.166 62.499 26.499s44.166 8 65.499 8c29.333 0 56 -3.5 80 -10.5s44.167 -18.167 60.5 -33.5s27.833 -35.333 34.5 -60s7.33398 -54.667 2.00098 -90l-29 -182
c-5.33301 -34 -8.83301 -63 -10.5 -87s-1.16699 -47 1.5 -69h-78c-1.33301 14 -2.16602 28.5 -2.49902 43.5s0.166992 28.167 1.5 39.5c-18.667 -30 -41.5 -52.667 -68.5 -68s-56.5 -23 -88.5 -23zM214 57c39.333 0 73.334 10.833 102.001 32.5s46.667 55.5 54 101.5l9 57
h-89c-58.667 0 -102.334 -8 -131.001 -24s-43 -44 -43 -84c0 -23.333 7.83301 -43 23.5 -59s40.5 -24 74.5 -24zM292.001 757h75l86 -144h-58l-74 75l-96 -75h-62z" />
    <glyph glyph-name="atilde" unicode="&#xe3;" horiz-adv-x="550" 
d="M203 -8c-54 0 -95.667 13.5 -125 40.5s-44 62.833 -44 107.5c0 32 6.83301 58.833 20.5 80.5s32 38.834 55 51.501s50 21.667 81 27s63.5 8 97.5 8h101l6 38c6.66699 40 2.5 69.667 -12.5 89s-43.5 29 -85.5 29c-34 0 -61.5 -7.5 -82.5 -22.5
s-35.167 -38.833 -42.5 -71.5h-83c6 31.333 16.5 57.5 31.5 78.5s32.167 37.667 51.5 50s40.166 21.166 62.499 26.499s44.166 8 65.499 8c29.333 0 56 -3.5 80 -10.5s44.167 -18.167 60.5 -33.5s27.833 -35.333 34.5 -60s7.33398 -54.667 2.00098 -90l-29 -182
c-5.33301 -34 -8.83301 -63 -10.5 -87s-1.16699 -47 1.5 -69h-78c-1.33301 14 -2.16602 28.5 -2.49902 43.5s0.166992 28.167 1.5 39.5c-18.667 -30 -41.5 -52.667 -68.5 -68s-56.5 -23 -88.5 -23zM214 57c39.333 0 73.334 10.833 102.001 32.5s46.667 55.5 54 101.5l9 57
h-89c-58.667 0 -102.334 -8 -131.001 -24s-43 -44 -43 -84c0 -23.333 7.83301 -43 23.5 -59s40.5 -24 74.5 -24zM382.001 619c-12 0 -23.166 2.16699 -33.499 6.5s-20 9.33301 -29 15s-17.5 10.667 -25.5 15s-15.667 6.5 -23 6.5c-9.33301 0 -18.5 -4 -27.5 -12
s-15.167 -19 -18.5 -33h-60c7.33301 36.667 20.5 65.167 39.5 85.5s41.5 30.5 67.5 30.5c11.333 0 22.166 -2.16699 32.499 -6.5s20 -9.33301 29 -15s17.5 -10.667 25.5 -15s15.667 -6.5 23 -6.5c9.33301 0 18.333 4 27 12s14.667 19 18 33h60
c-7.33301 -36.667 -20.333 -65.167 -39 -85.5s-40.667 -30.5 -66 -30.5z" />
    <glyph glyph-name="adieresis" unicode="&#xe4;" horiz-adv-x="550" 
d="M203 -8c-54 0 -95.667 13.5 -125 40.5s-44 62.833 -44 107.5c0 32 6.83301 58.833 20.5 80.5s32 38.834 55 51.501s50 21.667 81 27s63.5 8 97.5 8h101l6 38c6.66699 40 2.5 69.667 -12.5 89s-43.5 29 -85.5 29c-34 0 -61.5 -7.5 -82.5 -22.5
s-35.167 -38.833 -42.5 -71.5h-83c6 31.333 16.5 57.5 31.5 78.5s32.167 37.667 51.5 50s40.166 21.166 62.499 26.499s44.166 8 65.499 8c29.333 0 56 -3.5 80 -10.5s44.167 -18.167 60.5 -33.5s27.833 -35.333 34.5 -60s7.33398 -54.667 2.00098 -90l-29 -182
c-5.33301 -34 -8.83301 -63 -10.5 -87s-1.16699 -47 1.5 -69h-78c-1.33301 14 -2.16602 28.5 -2.49902 43.5s0.166992 28.167 1.5 39.5c-18.667 -30 -41.5 -52.667 -68.5 -68s-56.5 -23 -88.5 -23zM214 57c39.333 0 73.334 10.833 102.001 32.5s46.667 55.5 54 101.5l9 57
h-89c-58.667 0 -102.334 -8 -131.001 -24s-43 -44 -43 -84c0 -23.333 7.83301 -43 23.5 -59s40.5 -24 74.5 -24zM229.001 634c-14.667 0 -27.168 5 -37.501 15s-15.5 22.333 -15.5 37s5.33301 27.334 16 38.001s23.334 16 38.001 16s27 -5 37 -15s15 -22.333 15 -37
s-5.16699 -27.334 -15.5 -38.001s-22.833 -16 -37.5 -16zM417 634c-14.667 0 -27.168 5 -37.501 15s-15.5 22.333 -15.5 37s5.33301 27.334 16 38.001s23.334 16 38.001 16s27 -5 37 -15s15 -22.333 15 -37s-5.16699 -27.334 -15.5 -38.001s-22.833 -16 -37.5 -16z" />
    <glyph glyph-name="aring" unicode="&#xe5;" horiz-adv-x="550" 
d="M203 -8c-54 0 -95.667 13.5 -125 40.5s-44 62.833 -44 107.5c0 32 6.83301 58.833 20.5 80.5s32 38.834 55 51.501s50 21.667 81 27s63.5 8 97.5 8h101l6 38c6.66699 40 2.5 69.667 -12.5 89s-43.5 29 -85.5 29c-34 0 -61.5 -7.5 -82.5 -22.5
s-35.167 -38.833 -42.5 -71.5h-83c6 31.333 16.5 57.5 31.5 78.5s32.167 37.667 51.5 50s40.166 21.166 62.499 26.499s44.166 8 65.499 8c29.333 0 56 -3.5 80 -10.5s44.167 -18.167 60.5 -33.5s27.833 -35.333 34.5 -60s7.33398 -54.667 2.00098 -90l-29 -182
c-5.33301 -34 -8.83301 -63 -10.5 -87s-1.16699 -47 1.5 -69h-78c-1.33301 14 -2.16602 28.5 -2.49902 43.5s0.166992 28.167 1.5 39.5c-18.667 -30 -41.5 -52.667 -68.5 -68s-56.5 -23 -88.5 -23zM214 57c39.333 0 73.334 10.833 102.001 32.5s46.667 55.5 54 101.5l9 57
h-89c-58.667 0 -102.334 -8 -131.001 -24s-43 -44 -43 -84c0 -23.333 7.83301 -43 23.5 -59s40.5 -24 74.5 -24zM330.001 644c15.333 0 28.333 5.66699 39 17s16 25.666 16 42.999c0 16.667 -4.66699 30.167 -14 40.5s-21.666 15.5 -36.999 15.5s-28.333 -5.66699 -39 -17
s-16 -25.666 -16 -42.999c0 -16.667 4.66699 -30.167 14 -40.5s21.666 -15.5 36.999 -15.5zM330.001 598c-14.667 0 -28.334 2.66699 -41.001 8s-23.834 12.5 -33.501 21.5s-17.167 19.833 -22.5 32.5s-8 26 -8 40c0 14.667 2.83301 28.5 8.5 41.5s13.5 24.167 23.5 33.5
s21.667 16.833 35 22.5s27.333 8.5 42 8.5s28.334 -2.66699 41.001 -8s23.834 -12.5 33.501 -21.5s17.167 -19.833 22.5 -32.5s8 -26 8 -40c0 -14.667 -2.83301 -28.5 -8.5 -41.5s-13.5 -24.167 -23.5 -33.5s-21.667 -16.833 -35 -22.5s-27.333 -8.5 -42 -8.5z" />
    <glyph glyph-name="ae" unicode="&#xe6;" horiz-adv-x="887" 
d="M464 211c0 -48 10.5 -85.167 31.5 -111.5s56.5 -39.5 106.5 -39.5c72.667 0 119 30.333 139 91h81c-16 -54 -43.833 -94.167 -83.5 -120.5s-86.167 -39.5 -139.5 -39.5c-50 0 -91.333 10.667 -124 32s-56.667 50 -72 86c-20 -38 -47 -67 -81 -87s-73 -30 -117 -30
c-55.333 0 -97.666 12.5 -126.999 37.5s-44 59.833 -44 104.5c0 32 7 59.167 21 81.5s32.833 40.5 56.5 54.5s51.167 24.167 82.5 30.5s64.333 9.5 99 9.5h97l6 35c6.66699 40 2.33398 69.667 -12.999 89s-44 29 -86 29c-34 0 -61.5 -7.5 -82.5 -22.5
s-35.167 -38.833 -42.5 -71.5h-83c6 31.333 16.5 57.5 31.5 78.5s32.167 37.667 51.5 50s40.166 21.166 62.499 26.499s44.166 8 65.499 8c40 0 74.333 -6.66699 103 -20s48.667 -35.333 60 -66c23.333 26.667 50.5 47.5 81.5 62.5s64.833 22.5 101.5 22.5
c35.333 0 66.833 -5.5 94.5 -16.5s50.167 -27.667 67.5 -50s29 -50.166 35 -83.499s5.66699 -72.333 -1 -117l-3 -17h-374c-0.666992 -6 -1 -12 -1 -18v-18zM212 57c40.667 0 75.5 10.833 104.5 32.5s47.167 55.5 54.5 101.5l9 56h-90
c-58.667 0 -102.334 -8.33301 -131.001 -25s-43 -45 -43 -85c0 -23.333 7.83301 -42.5 23.5 -57.5s39.834 -22.5 72.501 -22.5zM641 463c-38 0 -72.167 -11.833 -102.5 -35.5s-51.833 -62.834 -64.5 -117.501h291c4 52.667 -3.66699 91.334 -23 116.001s-53 37 -101 37z" />
    <glyph glyph-name="ccedilla" unicode="&#xe7;" horiz-adv-x="566" 
d="M215 -214c-26 0 -48.3301 6.8291 -66.9971 20.4961s-29.334 34.834 -32.001 63.501h56c1.33301 -10 5.5 -18.5 12.5 -25.5s16.833 -10.5 29.5 -10.5c10.667 0 20 2.83301 28 8.5s12 15.5 12 29.5c0 10 -3.33301 17.833 -10 23.5s-15 8.5 -25 8.5
c-6 0 -11 -0.833008 -15 -2.5s-7.66699 -3.5 -11 -5.5l-27 30l56 73c-57.333 11.333 -101.166 37.833 -131.499 79.5s-45.5 92.167 -45.5 151.5c0 48 7.5 90.833 22.5 128.5s35 69.167 60 94.5s53.833 44.666 86.5 57.999s66.667 20 102 20c28.667 0 55.5 -3.66699 80.5 -11
s47 -18.5 66 -33.5s34.167 -34 45.5 -57s18 -50.5 20 -82.5h-79c-2.66699 22.667 -7.83398 41.334 -15.501 56.001s-17.5 26.334 -29.5 35.001s-25.833 14.834 -41.5 18.501s-32.5 5.5 -50.5 5.5c-26 0 -50.167 -5 -72.5 -15s-41.5 -24.833 -57.5 -44.5
s-28.667 -43.834 -38 -72.501s-14 -62 -14 -100c0 -55.333 13.333 -97.5 40 -126.5s67 -43.5 121 -43.5c36.667 0 69.167 10.833 97.5 32.5s46.166 52.834 53.499 93.501h78c-11.333 -62.667 -38 -110.667 -80 -144s-92.333 -50 -151 -50h-20l-33 -45
c20 2 38.5 -3.16699 55.5 -15.5s25.5 -31.166 25.5 -56.499c0 -29.333 -9.33301 -51.5 -28 -66.5s-43.334 -22.5 -74.001 -22.5z" />
    <glyph glyph-name="egrave" unicode="&#xe8;" horiz-adv-x="565" 
d="M129 211c0 -48 11.501 -85.168 34.501 -111.501s59.5 -39.5 109.5 -39.5c36.667 0 67.334 7.66699 92.001 23s42 38 52 68h83c-8 -27.333 -19.5 -51 -34.5 -71s-32.5 -36.5 -52.5 -49.5s-42.167 -22.833 -66.5 -29.5s-49.833 -10 -76.5 -10c-35.333 0 -67 5.5 -95 16.5
s-51.667 26.5 -71 46.5s-34.166 43.667 -44.499 71s-15.5 57.333 -15.5 90c0 46 7 88.333 21 127s33.167 72 57.5 100s53.166 49.833 86.499 65.5s69.333 23.5 108 23.5c35.333 0 67.166 -5.5 95.499 -16.5s51.666 -27.667 69.999 -50s30.833 -50.166 37.5 -83.499
s6.66699 -72.333 0 -117l-3 -19h-387c-0.666992 -5.33301 -1 -11 -1 -17v-17zM312.001 462.999c-18.667 0 -36.832 -2.83301 -54.499 -8.5s-34.167 -14.667 -49.5 -27s-28.833 -28 -40.5 -47s-20.834 -41.833 -27.501 -68.5h303c4 52.667 -4.83301 91 -26.5 115
s-56.5 36 -104.5 36zM212.003 759.999h102l47 -147h-61z" />
    <glyph glyph-name="eacute" unicode="&#xe9;" horiz-adv-x="565" 
d="M129 211c0 -48 11.501 -85.168 34.501 -111.501s59.5 -39.5 109.5 -39.5c36.667 0 67.334 7.66699 92.001 23s42 38 52 68h83c-8 -27.333 -19.5 -51 -34.5 -71s-32.5 -36.5 -52.5 -49.5s-42.167 -22.833 -66.5 -29.5s-49.833 -10 -76.5 -10c-35.333 0 -67 5.5 -95 16.5
s-51.667 26.5 -71 46.5s-34.166 43.667 -44.499 71s-15.5 57.333 -15.5 90c0 46 7 88.333 21 127s33.167 72 57.5 100s53.166 49.833 86.499 65.5s69.333 23.5 108 23.5c35.333 0 67.166 -5.5 95.499 -16.5s51.666 -27.667 69.999 -50s30.833 -50.166 37.5 -83.499
s6.66699 -72.333 0 -117l-3 -19h-387c-0.666992 -5.33301 -1 -11 -1 -17v-17zM312.001 462.999c-18.667 0 -36.832 -2.83301 -54.499 -8.5s-34.167 -14.667 -49.5 -27s-28.833 -28 -40.5 -47s-20.834 -41.833 -27.501 -68.5h303c4 52.667 -4.83301 91 -26.5 115
s-56.5 36 -104.5 36zM366.003 759.999h108l-121 -147h-66z" />
    <glyph glyph-name="ecircumflex" unicode="&#xea;" horiz-adv-x="565" 
d="M129 211c0 -48 11.501 -85.168 34.501 -111.501s59.5 -39.5 109.5 -39.5c36.667 0 67.334 7.66699 92.001 23s42 38 52 68h83c-8 -27.333 -19.5 -51 -34.5 -71s-32.5 -36.5 -52.5 -49.5s-42.167 -22.833 -66.5 -29.5s-49.833 -10 -76.5 -10c-35.333 0 -67 5.5 -95 16.5
s-51.667 26.5 -71 46.5s-34.166 43.667 -44.499 71s-15.5 57.333 -15.5 90c0 46 7 88.333 21 127s33.167 72 57.5 100s53.166 49.833 86.499 65.5s69.333 23.5 108 23.5c35.333 0 67.166 -5.5 95.499 -16.5s51.666 -27.667 69.999 -50s30.833 -50.166 37.5 -83.499
s6.66699 -72.333 0 -117l-3 -19h-387c-0.666992 -5.33301 -1 -11 -1 -17v-17zM312.001 462.999c-18.667 0 -36.832 -2.83301 -54.499 -8.5s-34.167 -14.667 -49.5 -27s-28.833 -28 -40.5 -47s-20.834 -41.833 -27.501 -68.5h303c4 52.667 -4.83301 91 -26.5 115
s-56.5 36 -104.5 36zM304.003 756.999h75l86 -144h-58l-74 75l-96 -75h-62z" />
    <glyph glyph-name="edieresis" unicode="&#xeb;" horiz-adv-x="565" 
d="M129 211c0 -48 11.501 -85.168 34.501 -111.501s59.5 -39.5 109.5 -39.5c36.667 0 67.334 7.66699 92.001 23s42 38 52 68h83c-8 -27.333 -19.5 -51 -34.5 -71s-32.5 -36.5 -52.5 -49.5s-42.167 -22.833 -66.5 -29.5s-49.833 -10 -76.5 -10c-35.333 0 -67 5.5 -95 16.5
s-51.667 26.5 -71 46.5s-34.166 43.667 -44.499 71s-15.5 57.333 -15.5 90c0 46 7 88.333 21 127s33.167 72 57.5 100s53.166 49.833 86.499 65.5s69.333 23.5 108 23.5c35.333 0 67.166 -5.5 95.499 -16.5s51.666 -27.667 69.999 -50s30.833 -50.166 37.5 -83.499
s6.66699 -72.333 0 -117l-3 -19h-387c-0.666992 -5.33301 -1 -11 -1 -17v-17zM312.001 462.999c-18.667 0 -36.832 -2.83301 -54.499 -8.5s-34.167 -14.667 -49.5 -27s-28.833 -28 -40.5 -47s-20.834 -41.833 -27.501 -68.5h303c4 52.667 -4.83301 91 -26.5 115
s-56.5 36 -104.5 36zM247.003 633.999c-14.667 0 -27.168 5 -37.501 15s-15.5 22.333 -15.5 37s5.33301 27.334 16 38.001s23.334 16 38.001 16s27 -5 37 -15s15 -22.333 15 -37s-5.16699 -27.334 -15.5 -38.001s-22.833 -16 -37.5 -16zM435.002 633.999
c-14.667 0 -27.168 5 -37.501 15s-15.5 22.333 -15.5 37s5.33301 27.334 16 38.001s23.334 16 38.001 16s27 -5 37 -15s15 -22.333 15 -37s-5.16699 -27.334 -15.5 -38.001s-22.833 -16 -37.5 -16z" />
    <glyph glyph-name="igrave" unicode="&#xec;" horiz-adv-x="267" 
d="M133 523h83l-83 -523h-83zM71 760h102l47 -147h-61z" />
    <glyph glyph-name="iacute" unicode="&#xed;" horiz-adv-x="267" 
d="M133 523h83l-83 -523h-83zM225 760h108l-121 -147h-66z" />
    <glyph glyph-name="icircumflex" unicode="&#xee;" horiz-adv-x="267" 
d="M133 523h83l-83 -523h-83zM163 757h75l86 -144h-58l-74 75l-96 -75h-62z" />
    <glyph glyph-name="idieresis" unicode="&#xef;" horiz-adv-x="267" 
d="M111 634c-14.667 0 -27.168 5 -37.501 15s-15.5 22.333 -15.5 37s5.33301 27.334 16 38.001s23.334 16 38.001 16s27 -5 37 -15s15 -22.333 15 -37s-5.16699 -27.334 -15.5 -38.001s-22.833 -16 -37.5 -16zM288.999 634c-14.667 0 -27.168 5 -37.501 15
s-15.5 22.333 -15.5 37s5.33301 27.334 16 38.001s23.334 16 38.001 16s27 -5 37 -15s15 -22.333 15 -37s-5.16699 -27.334 -15.5 -38.001s-22.833 -16 -37.5 -16zM132.998 523h83l-83 -523h-83z" />
    <glyph glyph-name="eth" unicode="&#xf0;" horiz-adv-x="604" 
d="M207 619l109 58.999c-17.333 17.333 -35.5 33.666 -54.5 48.999s-39.167 30.666 -60.5 45.999h106c24.667 -14.667 50.334 -34.334 77.001 -59.001l93 51l26 -46l-82 -44c18.667 -21.333 36.167 -44.666 52.5 -69.999s30.666 -52.5 42.999 -81.5s22 -59.833 29 -92.5
s10.5 -66.334 10.5 -101.001c0 -48 -6.33301 -92.5 -19 -133.5s-31 -76.833 -55 -107.5s-53.5 -54.667 -88.5 -72s-74.833 -26 -119.5 -26c-34 0 -65 5.5 -93 16.5s-52.167 26.833 -72.5 47.5s-36.166 45.334 -47.499 74.001s-17 60.667 -17 96
c0 38.667 6.33301 76.334 19 113.001s30.667 69.334 54 98.001s51.333 51.834 84 69.501s69 26.5 109 26.5c32.667 0 61.5 -6.33301 86.5 -19s46.167 -33 63.5 -61c-26.667 71.333 -62.334 133.333 -107.001 186l-120 -64zM130 221.999
c0 -21.333 2.66602 -41.667 7.99902 -61s13.833 -36.5 25.5 -51.5s26.834 -27 45.501 -36s41 -13.5 67 -13.5c30.667 0 58 6.5 82 19.5s44.167 30.333 60.5 52s28.833 47 37.5 76s13 59.5 13 91.5c0 20.667 -2.66699 41 -8 61s-14 37.5 -26 52.5s-27.5 27.167 -46.5 36.5
s-42.167 14 -69.5 14c-30 0 -56.833 -6.66699 -80.5 -20s-43.5 -31 -59.5 -53s-28.167 -47.5 -36.5 -76.5s-12.5 -59.5 -12.5 -91.5z" />
    <glyph glyph-name="ntilde" unicode="&#xf1;" horiz-adv-x="604" 
d="M106 367c5.33301 35.333 8.83008 64.6689 10.4971 88.002s2.83398 46 3.50098 68h78c0 -14.667 -0.5 -31.334 -1.5 -50.001s-2.5 -36.667 -4.5 -54c18 32 42.333 58.833 73 80.5s67.334 32.5 110.001 32.5c27.333 0 51.833 -4 73.5 -12s39.334 -20.833 53.001 -38.5
s22.834 -40.334 27.501 -68.001s4 -61.167 -2 -100.5l-50 -313h-83l53 332c14 86 -16 129 -90 129c-22 0 -42.833 -3.5 -62.5 -10.5s-37.334 -17.333 -53.001 -31s-29 -30.167 -40 -49.5s-18.5 -41.333 -22.5 -66l-48 -304h-83zM414.997 619.003
c-12 0 -23.166 2.16699 -33.499 6.5s-20 9.33301 -29 15s-17.5 10.667 -25.5 15s-15.667 6.5 -23 6.5c-9.33301 0 -18.5 -4 -27.5 -12s-15.167 -19 -18.5 -33h-60c7.33301 36.667 20.5 65.167 39.5 85.5s41.5 30.5 67.5 30.5c11.333 0 22.166 -2.16699 32.499 -6.5
s20 -9.33301 29 -15s17.5 -10.667 25.5 -15s15.667 -6.5 23 -6.5c9.33301 0 18.333 4 27 12s14.667 19 18 33h60c-7.33301 -36.667 -20.333 -65.167 -39 -85.5s-40.667 -30.5 -66 -30.5z" />
    <glyph glyph-name="ograve" unicode="&#xf2;" horiz-adv-x="601" 
d="M277 -8c-36 0 -68.499 5.83496 -97.499 17.502s-53.5 27.834 -73.5 48.501s-35.333 45.167 -46 73.5s-16 59.166 -16 92.499c0 44 7.16699 84.667 21.5 122s34 69.666 59 96.999s54.333 48.833 88 64.5s70.167 23.5 109.5 23.5c36 0 68.5 -5.66699 97.5 -17
s53.667 -27.166 74 -47.499s35.833 -44.5 46.5 -72.5s16 -59 16 -93c0 -44.667 -6.83301 -85.834 -20.5 -123.501s-32.834 -70.334 -57.501 -98.001s-54.167 -49.167 -88.5 -64.5s-71.833 -23 -112.5 -23zM281.001 60.002c29.333 0 55.667 6 79 18s43 28.833 59 50.5
s28.333 47 37 76s13 60.5 13 94.5c0 50 -12.833 89.833 -38.5 119.5s-63.5 44.5 -113.5 44.5c-28 0 -53.5 -6 -76.5 -18s-42.667 -28.833 -59 -50.5s-29 -47 -38 -76s-13.5 -60.5 -13.5 -94.5c0 -50 12.333 -89.833 37 -119.5s62.667 -44.5 114 -44.5zM225.002 760.002h102
l47 -147h-61z" />
    <glyph glyph-name="oacute" unicode="&#xf3;" horiz-adv-x="601" 
d="M277 -8c-36 0 -68.499 5.83496 -97.499 17.502s-53.5 27.834 -73.5 48.501s-35.333 45.167 -46 73.5s-16 59.166 -16 92.499c0 44 7.16699 84.667 21.5 122s34 69.666 59 96.999s54.333 48.833 88 64.5s70.167 23.5 109.5 23.5c36 0 68.5 -5.66699 97.5 -17
s53.667 -27.166 74 -47.499s35.833 -44.5 46.5 -72.5s16 -59 16 -93c0 -44.667 -6.83301 -85.834 -20.5 -123.501s-32.834 -70.334 -57.501 -98.001s-54.167 -49.167 -88.5 -64.5s-71.833 -23 -112.5 -23zM281.001 60.002c29.333 0 55.667 6 79 18s43 28.833 59 50.5
s28.333 47 37 76s13 60.5 13 94.5c0 50 -12.833 89.833 -38.5 119.5s-63.5 44.5 -113.5 44.5c-28 0 -53.5 -6 -76.5 -18s-42.667 -28.833 -59 -50.5s-29 -47 -38 -76s-13.5 -60.5 -13.5 -94.5c0 -50 12.333 -89.833 37 -119.5s62.667 -44.5 114 -44.5zM379.002 760.002h108
l-121 -147h-66z" />
    <glyph glyph-name="ocircumflex" unicode="&#xf4;" horiz-adv-x="601" 
d="M277 -8c-36 0 -68.499 5.83496 -97.499 17.502s-53.5 27.834 -73.5 48.501s-35.333 45.167 -46 73.5s-16 59.166 -16 92.499c0 44 7.16699 84.667 21.5 122s34 69.666 59 96.999s54.333 48.833 88 64.5s70.167 23.5 109.5 23.5c36 0 68.5 -5.66699 97.5 -17
s53.667 -27.166 74 -47.499s35.833 -44.5 46.5 -72.5s16 -59 16 -93c0 -44.667 -6.83301 -85.834 -20.5 -123.501s-32.834 -70.334 -57.501 -98.001s-54.167 -49.167 -88.5 -64.5s-71.833 -23 -112.5 -23zM281.001 60.002c29.333 0 55.667 6 79 18s43 28.833 59 50.5
s28.333 47 37 76s13 60.5 13 94.5c0 50 -12.833 89.833 -38.5 119.5s-63.5 44.5 -113.5 44.5c-28 0 -53.5 -6 -76.5 -18s-42.667 -28.833 -59 -50.5s-29 -47 -38 -76s-13.5 -60.5 -13.5 -94.5c0 -50 12.333 -89.833 37 -119.5s62.667 -44.5 114 -44.5zM317.002 757.002h75
l86 -144h-58l-74 75l-96 -75h-62z" />
    <glyph glyph-name="otilde" unicode="&#xf5;" horiz-adv-x="601" 
d="M277 -8c-36 0 -68.499 5.83496 -97.499 17.502s-53.5 27.834 -73.5 48.501s-35.333 45.167 -46 73.5s-16 59.166 -16 92.499c0 44 7.16699 84.667 21.5 122s34 69.666 59 96.999s54.333 48.833 88 64.5s70.167 23.5 109.5 23.5c36 0 68.5 -5.66699 97.5 -17
s53.667 -27.166 74 -47.499s35.833 -44.5 46.5 -72.5s16 -59 16 -93c0 -44.667 -6.83301 -85.834 -20.5 -123.501s-32.834 -70.334 -57.501 -98.001s-54.167 -49.167 -88.5 -64.5s-71.833 -23 -112.5 -23zM281.001 60.002c29.333 0 55.667 6 79 18s43 28.833 59 50.5
s28.333 47 37 76s13 60.5 13 94.5c0 50 -12.833 89.833 -38.5 119.5s-63.5 44.5 -113.5 44.5c-28 0 -53.5 -6 -76.5 -18s-42.667 -28.833 -59 -50.5s-29 -47 -38 -76s-13.5 -60.5 -13.5 -94.5c0 -50 12.333 -89.833 37 -119.5s62.667 -44.5 114 -44.5zM402.002 619.002
c-12 0 -23.166 2.16699 -33.499 6.5s-20 9.33301 -29 15s-17.5 10.667 -25.5 15s-15.667 6.5 -23 6.5c-9.33301 0 -18.5 -4 -27.5 -12s-15.167 -19 -18.5 -33h-60c7.33301 36.667 20.5 65.167 39.5 85.5s41.5 30.5 67.5 30.5c11.333 0 22.166 -2.16699 32.499 -6.5
s20 -9.33301 29 -15s17.5 -10.667 25.5 -15s15.667 -6.5 23 -6.5c9.33301 0 18.333 4 27 12s14.667 19 18 33h60c-7.33301 -36.667 -20.333 -65.167 -39 -85.5s-40.667 -30.5 -66 -30.5z" />
    <glyph glyph-name="odieresis" unicode="&#xf6;" horiz-adv-x="601" 
d="M277 -8c-36 0 -68.499 5.83496 -97.499 17.502s-53.5 27.834 -73.5 48.501s-35.333 45.167 -46 73.5s-16 59.166 -16 92.499c0 44 7.16699 84.667 21.5 122s34 69.666 59 96.999s54.333 48.833 88 64.5s70.167 23.5 109.5 23.5c36 0 68.5 -5.66699 97.5 -17
s53.667 -27.166 74 -47.499s35.833 -44.5 46.5 -72.5s16 -59 16 -93c0 -44.667 -6.83301 -85.834 -20.5 -123.501s-32.834 -70.334 -57.501 -98.001s-54.167 -49.167 -88.5 -64.5s-71.833 -23 -112.5 -23zM281.001 60.002c29.333 0 55.667 6 79 18s43 28.833 59 50.5
s28.333 47 37 76s13 60.5 13 94.5c0 50 -12.833 89.833 -38.5 119.5s-63.5 44.5 -113.5 44.5c-28 0 -53.5 -6 -76.5 -18s-42.667 -28.833 -59 -50.5s-29 -47 -38 -76s-13.5 -60.5 -13.5 -94.5c0 -50 12.333 -89.833 37 -119.5s62.667 -44.5 114 -44.5zM252.002 634.002
c-14.667 0 -27.168 5 -37.501 15s-15.5 22.333 -15.5 37s5.33301 27.334 16 38.001s23.334 16 38.001 16s27 -5 37 -15s15 -22.333 15 -37s-5.16699 -27.334 -15.5 -38.001s-22.833 -16 -37.5 -16zM440.001 634.002c-14.667 0 -27.168 5 -37.501 15s-15.5 22.333 -15.5 37
s5.33301 27.334 16 38.001s23.334 16 38.001 16s27 -5 37 -15s15 -22.333 15 -37s-5.16699 -27.334 -15.5 -38.001s-22.833 -16 -37.5 -16z" />
    <glyph glyph-name="divide" unicode="&#xf7;" horiz-adv-x="531" 
d="M59 377h447l-11 -70h-447zM253 89c-17.333 0 -32.333 6.16699 -45 18.5s-19 27.5 -19 45.5s6.33301 33.167 19 45.5s27.667 18.5 45 18.5s32.333 -6.16699 45 -18.5s19 -27.5 19 -45.5s-6.33301 -33.167 -19 -45.5s-27.667 -18.5 -45 -18.5zM301 467
c-17.333 0 -32.333 6.16699 -45 18.5s-19 27.5 -19 45.5s6.33301 33.167 19 45.5s27.667 18.5 45 18.5s32.333 -6.16699 45 -18.5s19 -27.5 19 -45.5s-6.33301 -33.167 -19 -45.5s-27.667 -18.5 -45 -18.5z" />
    <glyph glyph-name="oslash" unicode="&#xf8;" horiz-adv-x="601" 
d="M17 1l72.002 77.002c-14.667 19.333 -25.834 41.333 -33.501 66s-11.5 51.334 -11.5 80.001c0 44 7.16699 84.667 21.5 122s34 69.666 59 96.999s54.333 48.833 88 64.5s70.167 23.5 109.5 23.5c30 0 57.5 -4 82.5 -12s47.167 -19.667 66.5 -35l67 72l41 -38l-69 -73
c30.667 -38.667 46 -86.667 46 -144c0 -44.667 -6.83301 -85.834 -20.5 -123.501s-32.834 -70.334 -57.501 -98.001s-54.167 -49.167 -88.5 -64.5s-71.833 -23 -112.5 -23c-30 0 -57.5 4 -82.5 12s-47.167 19.667 -66.5 35l-71 -76zM281.002 60.002
c29.333 0 55.667 6.00098 79 18.001s43 28.833 59 50.5s28.333 47 37 76s13 60.5 13 94.5c0 33.333 -5.33301 61.666 -16 84.999l-275 -293c24.667 -20.667 59 -31 103 -31zM130.003 224.003c0 -16.667 1.16699 -32.167 3.5 -46.5s6.16602 -27.833 11.499 -40.5l275 293
c-25.333 22 -59.666 33 -102.999 33c-28 0 -53.5 -6 -76.5 -18s-42.667 -28.833 -59 -50.5s-29 -47 -38 -76s-13.5 -60.5 -13.5 -94.5z" />
    <glyph glyph-name="ugrave" unicode="&#xf9;" horiz-adv-x="600" 
d="M493 156c-5.33301 -35.333 -8.83496 -64.834 -10.502 -88.501s-1.83398 -46.167 -0.500977 -67.5h-79c-1.33301 15.333 -1.5 32.166 -0.5 50.499s2.83301 36.166 5.5 53.499c-18.667 -32 -43 -58.833 -73 -80.5s-66.333 -32.5 -109 -32.5
c-27.333 0 -51.666 4.33301 -72.999 13s-38.666 21.834 -51.999 39.501s-22.333 40.334 -27 68.001s-4 60.5 2 98.5l50 313h83l-53 -332c-6.66699 -41.333 -2.66699 -73.166 12 -95.499s40 -33.5 76 -33.5c22 0 42.667 3.5 62 10.5s36.833 17.333 52.5 31
s28.834 30.167 39.501 49.5s18 41.333 22 66l48 304h83zM236.998 759.999h102l47 -147h-61z" />
    <glyph glyph-name="uacute" unicode="&#xfa;" horiz-adv-x="600" 
d="M493 156c-5.33301 -35.333 -8.83496 -64.834 -10.502 -88.501s-1.83398 -46.167 -0.500977 -67.5h-79c-1.33301 15.333 -1.5 32.166 -0.5 50.499s2.83301 36.166 5.5 53.499c-18.667 -32 -43 -58.833 -73 -80.5s-66.333 -32.5 -109 -32.5
c-27.333 0 -51.666 4.33301 -72.999 13s-38.666 21.834 -51.999 39.501s-22.333 40.334 -27 68.001s-4 60.5 2 98.5l50 313h83l-53 -332c-6.66699 -41.333 -2.66699 -73.166 12 -95.499s40 -33.5 76 -33.5c22 0 42.667 3.5 62 10.5s36.833 17.333 52.5 31
s28.834 30.167 39.501 49.5s18 41.333 22 66l48 304h83zM384.998 759.999h108l-121 -147h-66z" />
    <glyph glyph-name="ucircumflex" unicode="&#xfb;" horiz-adv-x="600" 
d="M493 156c-5.33301 -35.333 -8.83496 -64.834 -10.502 -88.501s-1.83398 -46.167 -0.500977 -67.5h-79c-1.33301 15.333 -1.5 32.166 -0.5 50.499s2.83301 36.166 5.5 53.499c-18.667 -32 -43 -58.833 -73 -80.5s-66.333 -32.5 -109 -32.5
c-27.333 0 -51.666 4.33301 -72.999 13s-38.666 21.834 -51.999 39.501s-22.333 40.334 -27 68.001s-4 60.5 2 98.5l50 313h83l-53 -332c-6.66699 -41.333 -2.66699 -73.166 12 -95.499s40 -33.5 76 -33.5c22 0 42.667 3.5 62 10.5s36.833 17.333 52.5 31
s28.834 30.167 39.501 49.5s18 41.333 22 66l48 304h83zM328.998 756.999h75l86 -144h-58l-74 75l-96 -75h-62z" />
    <glyph glyph-name="udieresis" unicode="&#xfc;" horiz-adv-x="600" 
d="M493 156c-5.33301 -35.333 -8.83496 -64.834 -10.502 -88.501s-1.83398 -46.167 -0.500977 -67.5h-79c-1.33301 15.333 -1.5 32.166 -0.5 50.499s2.83301 36.166 5.5 53.499c-18.667 -32 -43 -58.833 -73 -80.5s-66.333 -32.5 -109 -32.5
c-27.333 0 -51.666 4.33301 -72.999 13s-38.666 21.834 -51.999 39.501s-22.333 40.334 -27 68.001s-4 60.5 2 98.5l50 313h83l-53 -332c-6.66699 -41.333 -2.66699 -73.166 12 -95.499s40 -33.5 76 -33.5c22 0 42.667 3.5 62 10.5s36.833 17.333 52.5 31
s28.834 30.167 39.501 49.5s18 41.333 22 66l48 304h83zM261.998 633.999c-14.667 0 -27.168 5 -37.501 15s-15.5 22.333 -15.5 37s5.33301 27.334 16 38.001s23.334 16 38.001 16s27 -5 37 -15s15 -22.333 15 -37s-5.16699 -27.334 -15.5 -38.001s-22.833 -16 -37.5 -16z
M449.997 633.999c-14.667 0 -27.168 5 -37.501 15s-15.5 22.333 -15.5 37s5.33301 27.334 16 38.001s23.334 16 38.001 16s27 -5 37 -15s15 -22.333 15 -37s-5.16699 -27.334 -15.5 -38.001s-22.833 -16 -37.5 -16z" />
    <glyph glyph-name="yacute" unicode="&#xfd;" horiz-adv-x="517" 
d="M190 59l-124 464h85l94 -375l199 375h89l-395 -705h-88zM348 760h108l-121 -147h-66z" />
    <glyph glyph-name="thorn" unicode="&#xfe;" horiz-adv-x="643" 
d="M170 773h82.999l-54 -342c17.333 29.333 42.5 53.5 75.5 72.5s68.833 28.5 107.5 28.5c30.667 0 58.834 -5.5 84.501 -16.5s47.834 -26.5 66.501 -46.5s33.167 -44.167 43.5 -72.5s15.5 -59.833 15.5 -94.5c0 -42 -5.83301 -81.833 -17.5 -119.5
s-28.834 -70.667 -51.501 -99s-50.167 -50.833 -82.5 -67.5s-68.833 -25 -109.5 -25c-26.667 0 -50.167 3.16699 -70.5 9.5s-38 14.666 -53 24.999s-27.333 21.833 -37 34.5s-17.5 25.334 -23.5 38.001l-45 -280h-83zM325.999 59c28.667 0 54.001 6 76.001 18
s40.5 28.667 55.5 50s26.5 46.5 34.5 75.5s12 60.5 12 94.5c0 54 -12.333 95.333 -37 124s-58.334 43 -101.001 43c-28 0 -54.333 -5.5 -79 -16.5s-46 -27 -64 -48s-32.167 -46.5 -42.5 -76.5s-15.5 -63.667 -15.5 -101c0 -50.667 14.333 -90.5 43 -119.5
s68 -43.5 118 -43.5z" />
    <glyph glyph-name="ydieresis" unicode="&#xff;" horiz-adv-x="517" 
d="M190 59l-124 464h85l94 -375l199 375h89l-395 -705h-88zM229 634c-14.667 0 -27.168 5 -37.501 15s-15.5 22.333 -15.5 37s5.33301 27.334 16 38.001s23.334 16 38.001 16s27 -5 37 -15s15 -22.333 15 -37s-5.16699 -27.334 -15.5 -38.001s-22.833 -16 -37.5 -16z
M416.999 634c-14.667 0 -27.168 5 -37.501 15s-15.5 22.333 -15.5 37s5.33301 27.334 16 38.001s23.334 16 38.001 16s27 -5 37 -15s15 -22.333 15 -37s-5.16699 -27.334 -15.5 -38.001s-22.833 -16 -37.5 -16z" />
    <glyph glyph-name="Amacron" unicode="&#x100;" horiz-adv-x="650" 
d="M469 206h-295l-102 -206h-84l359 715h114l129 -715h-84zM208 275h248l-66 368zM289 850h266l-10 -64h-266z" />
    <glyph glyph-name="amacron" unicode="&#x101;" horiz-adv-x="538" 
d="M203 -8c-54 0 -95.667 13.5 -125 40.5s-44 62.833 -44 107.5c0 32 6.83301 58.833 20.5 80.5s32 38.834 55 51.501s50 21.667 81 27s63.5 8 97.5 8h101l6 38c6.66699 40 2.5 69.667 -12.5 89s-43.5 29 -85.5 29c-34 0 -61.5 -7.5 -82.5 -22.5
s-35.167 -38.833 -42.5 -71.5h-83c6 31.333 16.5 57.5 31.5 78.5s32.167 37.667 51.5 50s40.166 21.166 62.499 26.499s44.166 8 65.499 8c29.333 0 56 -3.5 80 -10.5s44.167 -18.167 60.5 -33.5s27.833 -35.333 34.5 -60s7.33398 -54.667 2.00098 -90l-29 -182
c-5.33301 -34 -8.83301 -63 -10.5 -87s-1.16699 -47 1.5 -69h-78c-1.33301 14 -2.16602 28.5 -2.49902 43.5s0.166992 28.167 1.5 39.5c-18.667 -30 -41.5 -52.667 -68.5 -68s-56.5 -23 -88.5 -23zM214 57c39.333 0 73.334 10.833 102.001 32.5s46.667 55.5 54 101.5l9 57
h-89c-58.667 0 -102.334 -8 -131.001 -24s-43 -44 -43 -84c0 -23.333 7.83301 -43 23.5 -59s40.5 -24 74.5 -24zM202.001 712h262l-10 -64h-262z" />
    <glyph glyph-name="Abreve" unicode="&#x102;" horiz-adv-x="650" 
d="M469 206h-295l-102 -206h-84l359 715h114l129 -715h-84zM208 275h248l-66 368zM412 767c-37.333 0 -68.333 11.999 -93 35.999s-37 56 -37 96h66c2.66699 -21.333 9.16699 -37.333 19.5 -48s25.5 -16 45.5 -16c40.667 0 65 21.333 73 64h64
c-1.33301 -19.333 -6 -37.166 -14 -53.499s-18.333 -30.333 -31 -42s-27 -20.667 -43 -27s-32.667 -9.5 -50 -9.5z" />
    <glyph glyph-name="abreve" unicode="&#x103;" horiz-adv-x="538" 
d="M203 -8c-54 0 -95.667 13.5 -125 40.5s-44 62.833 -44 107.5c0 32 6.83301 58.833 20.5 80.5s32 38.834 55 51.501s50 21.667 81 27s63.5 8 97.5 8h101l6 38c6.66699 40 2.5 69.667 -12.5 89s-43.5 29 -85.5 29c-34 0 -61.5 -7.5 -82.5 -22.5
s-35.167 -38.833 -42.5 -71.5h-83c6 31.333 16.5 57.5 31.5 78.5s32.167 37.667 51.5 50s40.166 21.166 62.499 26.499s44.166 8 65.499 8c29.333 0 56 -3.5 80 -10.5s44.167 -18.167 60.5 -33.5s27.833 -35.333 34.5 -60s7.33398 -54.667 2.00098 -90l-29 -182
c-5.33301 -34 -8.83301 -63 -10.5 -87s-1.16699 -47 1.5 -69h-78c-1.33301 14 -2.16602 28.5 -2.49902 43.5s0.166992 28.167 1.5 39.5c-18.667 -30 -41.5 -52.667 -68.5 -68s-56.5 -23 -88.5 -23zM214 57c39.333 0 73.334 10.833 102.001 32.5s46.667 55.5 54 101.5l9 57
h-89c-58.667 0 -102.334 -8 -131.001 -24s-43 -44 -43 -84c0 -23.333 7.83301 -43 23.5 -59s40.5 -24 74.5 -24zM321.001 619c-37.333 0 -68.333 11.999 -93 35.999s-37 56 -37 96h66c2.66699 -21.333 9.16699 -37.333 19.5 -48s25.5 -16 45.5 -16c40.667 0 65 21.333 73 64
h64c-1.33301 -19.333 -6 -37.166 -14 -53.499s-18.333 -30.333 -31 -42s-27 -20.667 -43 -27s-32.667 -9.5 -50 -9.5z" />
    <glyph glyph-name="Aogonek" unicode="&#x104;" horiz-adv-x="650" 
d="M418 -101c0 23.333 8.66602 43.166 25.999 59.499s36 29.5 56 39.5l-37 208h-295l-102 -206h-84l359 715h114l129 -715l-27 -15.5c-10 -5.66699 -19.167 -12.167 -27.5 -19.5s-15.5 -15.666 -21.5 -24.999s-9 -19.666 -9 -30.999c0 -20.667 12.333 -31 37 -31
c16.667 0 32.667 3.33301 48 10l-9 -59c-6.66699 -2.66699 -14.667 -5.16699 -24 -7.5s-20.666 -3.5 -33.999 -3.5s-26 1.5 -38 4.5s-22.5 7.66699 -31.5 14s-16.167 14.666 -21.5 24.999s-8 22.833 -8 37.5zM201.999 275h248l-66 368z" />
    <glyph glyph-name="aogonek" unicode="&#x105;" horiz-adv-x="538" 
d="M370 -182c-13.333 0 -26.002 1.5 -38.002 4.5s-22.5 7.66699 -31.5 14s-16.167 14.666 -21.5 24.999s-8 22.833 -8 37.5c0 12 2.5 23 7.5 33s11.5 19.333 19.5 28s17 16.167 27 22.5s20 12.166 30 17.499c-1.33301 14 -2.16602 28.5 -2.49902 43.5
s0.166992 28.167 1.5 39.5c-18.667 -30 -41.5 -52.667 -68.5 -68s-56.5 -23 -88.5 -23c-54 0 -95.667 13.5 -125 40.5s-44 62.833 -44 107.5c0 32 6.83301 58.833 20.5 80.5s32 38.834 55 51.501s50 21.667 81 27s63.5 8 97.5 8h101l6 38c6.66699 40 2.5 69.667 -12.5 89
s-43.5 29 -85.5 29c-34 0 -61.5 -7.5 -82.5 -22.5s-35.167 -38.833 -42.5 -71.5h-83c6 31.333 16.5 57.5 31.5 78.5s32.167 37.667 51.5 50s40.166 21.166 62.499 26.499s44.166 8 65.499 8c29.333 0 56 -3.5 80 -10.5s44.167 -18.167 60.5 -33.5s27.833 -35.333 34.5 -60
s7.33398 -54.667 2.00098 -90l-29 -182c-5.33301 -34 -8.83301 -63 -10.5 -87s-1.16699 -47 1.5 -69l-25 -15.5c-9.33301 -5.66699 -18.166 -12.167 -26.499 -19.5s-15.333 -15.666 -21 -24.999s-8.5 -19.666 -8.5 -30.999c0 -20.667 12.333 -31 37 -31
c16.667 0 32.667 3.33301 48 10l-9 -59c-6.66699 -2.66699 -14.667 -5.16699 -24 -7.5s-20.666 -3.5 -33.999 -3.5zM207.998 57c39.333 0 73.334 10.833 102.001 32.5s46.667 55.5 54 101.5l9 57h-89c-58.667 0 -102.334 -8 -131.001 -24s-43 -44 -43 -84
c0 -23.333 7.83301 -43 23.5 -59s40.5 -24 74.5 -24z" />
    <glyph glyph-name="Cacute" unicode="&#x106;" horiz-adv-x="728" 
d="M392 -9c-49.333 0 -93.6699 7.33008 -133.003 21.9971s-72.666 35.667 -99.999 63s-48.333 60.333 -63 99s-22 81.667 -22 129c0 58.667 9.33301 113.667 28 165s44.667 96 78 134s73.333 68 120 90s98 33 154 33c36 0 69.667 -5 101 -15s58.833 -24.833 82.5 -44.5
s42.667 -44 57 -73s22.833 -62.833 25.5 -101.5h-82c-8.66699 54 -27.834 95 -57.501 123s-73.167 42 -130.5 42c-45.333 0 -85.666 -9.16699 -120.999 -27.5s-65.166 -43.333 -89.499 -75s-43 -69 -56 -112s-19.5 -89.167 -19.5 -138.5c0 -77.333 19 -137.166 57 -179.499
s95.333 -63.5 172 -63.5c58 0 105.667 16.167 143 48.5s64.333 74.833 81 127.5h83c-9.33301 -38 -23.666 -72.167 -42.999 -102.5s-42.333 -56.166 -69 -77.499s-56.5 -37.666 -89.5 -48.999s-68.5 -17 -106.5 -17zM494.996 897.997h106l-108 -127h-66z" />
    <glyph glyph-name="cacute" unicode="&#x107;" horiz-adv-x="554" 
d="M289 -8c-39.333 0 -74.1641 5.83105 -104.497 17.498s-55.833 28 -76.5 49s-36.334 46 -47.001 75s-16 61.167 -16 96.5c0 48 7.5 90.833 22.5 128.5s35 69.167 60 94.5s53.833 44.666 86.5 57.999s66.667 20 102 20c28.667 0 55.5 -3.66699 80.5 -11s47 -18.5 66 -33.5
s34.167 -34 45.5 -57s18 -50.5 20 -82.5h-79c-2.66699 22.667 -7.83398 41.334 -15.501 56.001s-17.5 26.334 -29.5 35.001s-25.833 14.834 -41.5 18.501s-32.5 5.5 -50.5 5.5c-26 0 -50.167 -5 -72.5 -15s-41.5 -24.833 -57.5 -44.5s-28.667 -43.834 -38 -72.501
s-14 -62 -14 -100c0 -55.333 13.333 -97.5 40 -126.5s67 -43.5 121 -43.5c36.667 0 69.167 10.833 97.5 32.5s46.166 52.834 53.499 93.501h78c-11.333 -62.667 -38 -110.667 -80 -144s-92.333 -50 -151 -50zM369.002 759.998h108l-121 -147h-66z" />
    <glyph glyph-name="Ccircumflex" unicode="&#x108;" horiz-adv-x="728" 
d="M392 -9c-49.333 0 -93.6699 7.33008 -133.003 21.9971s-72.666 35.667 -99.999 63s-48.333 60.333 -63 99s-22 81.667 -22 129c0 58.667 9.33301 113.667 28 165s44.667 96 78 134s73.333 68 120 90s98 33 154 33c36 0 69.667 -5 101 -15s58.833 -24.833 82.5 -44.5
s42.667 -44 57 -73s22.833 -62.833 25.5 -101.5h-82c-8.66699 54 -27.834 95 -57.501 123s-73.167 42 -130.5 42c-45.333 0 -85.666 -9.16699 -120.999 -27.5s-65.166 -43.333 -89.499 -75s-43 -69 -56 -112s-19.5 -89.167 -19.5 -138.5c0 -77.333 19 -137.166 57 -179.499
s95.333 -63.5 172 -63.5c58 0 105.667 16.167 143 48.5s64.333 74.833 81 127.5h83c-9.33301 -38 -23.666 -72.167 -42.999 -102.5s-42.333 -56.166 -69 -77.499s-56.5 -37.666 -89.5 -48.999s-68.5 -17 -106.5 -17zM439.996 897.997h75l91 -127h-58l-77 58l-93 -58h-62z
" />
    <glyph glyph-name="ccircumflex" unicode="&#x109;" horiz-adv-x="554" 
d="M289 -8c-39.333 0 -74.1641 5.83105 -104.497 17.498s-55.833 28 -76.5 49s-36.334 46 -47.001 75s-16 61.167 -16 96.5c0 48 7.5 90.833 22.5 128.5s35 69.167 60 94.5s53.833 44.666 86.5 57.999s66.667 20 102 20c28.667 0 55.5 -3.66699 80.5 -11s47 -18.5 66 -33.5
s34.167 -34 45.5 -57s18 -50.5 20 -82.5h-79c-2.66699 22.667 -7.83398 41.334 -15.501 56.001s-17.5 26.334 -29.5 35.001s-25.833 14.834 -41.5 18.501s-32.5 5.5 -50.5 5.5c-26 0 -50.167 -5 -72.5 -15s-41.5 -24.833 -57.5 -44.5s-28.667 -43.834 -38 -72.501
s-14 -62 -14 -100c0 -55.333 13.333 -97.5 40 -126.5s67 -43.5 121 -43.5c36.667 0 69.167 10.833 97.5 32.5s46.166 52.834 53.499 93.501h78c-11.333 -62.667 -38 -110.667 -80 -144s-92.333 -50 -151 -50zM307.002 756.998h75l86 -144h-58l-74 75l-96 -75h-62z" />
    <glyph glyph-name="Cdotaccent" unicode="&#x10a;" horiz-adv-x="728" 
d="M392 -9c-49.333 0 -93.6699 7.33008 -133.003 21.9971s-72.666 35.667 -99.999 63s-48.333 60.333 -63 99s-22 81.667 -22 129c0 58.667 9.33301 113.667 28 165s44.667 96 78 134s73.333 68 120 90s98 33 154 33c36 0 69.667 -5 101 -15s58.833 -24.833 82.5 -44.5
s42.667 -44 57 -73s22.833 -62.833 25.5 -101.5h-82c-8.66699 54 -27.834 95 -57.501 123s-73.167 42 -130.5 42c-45.333 0 -85.666 -9.16699 -120.999 -27.5s-65.166 -43.333 -89.499 -75s-43 -69 -56 -112s-19.5 -89.167 -19.5 -138.5c0 -77.333 19 -137.166 57 -179.499
s95.333 -63.5 172 -63.5c58 0 105.667 16.167 143 48.5s64.333 74.833 81 127.5h83c-9.33301 -38 -23.666 -72.167 -42.999 -102.5s-42.333 -56.166 -69 -77.499s-56.5 -37.666 -89.5 -48.999s-68.5 -17 -106.5 -17zM468.996 786.997
c-15.333 0 -28.332 5.16699 -38.999 15.5s-16 23.166 -16 38.499s5.5 28.5 16.5 39.5s24.167 16.5 39.5 16.5s28.166 -5.16699 38.499 -15.5s15.5 -23.166 15.5 -38.499s-5.33301 -28.5 -16 -39.5s-23.667 -16.5 -39 -16.5z" />
    <glyph glyph-name="cdotaccent" unicode="&#x10b;" horiz-adv-x="554" 
d="M289 -8c-39.333 0 -74.1641 5.83105 -104.497 17.498s-55.833 28 -76.5 49s-36.334 46 -47.001 75s-16 61.167 -16 96.5c0 48 7.5 90.833 22.5 128.5s35 69.167 60 94.5s53.833 44.666 86.5 57.999s66.667 20 102 20c28.667 0 55.5 -3.66699 80.5 -11s47 -18.5 66 -33.5
s34.167 -34 45.5 -57s18 -50.5 20 -82.5h-79c-2.66699 22.667 -7.83398 41.334 -15.501 56.001s-17.5 26.334 -29.5 35.001s-25.833 14.834 -41.5 18.501s-32.5 5.5 -50.5 5.5c-26 0 -50.167 -5 -72.5 -15s-41.5 -24.833 -57.5 -44.5s-28.667 -43.834 -38 -72.501
s-14 -62 -14 -100c0 -55.333 13.333 -97.5 40 -126.5s67 -43.5 121 -43.5c36.667 0 69.167 10.833 97.5 32.5s46.166 52.834 53.499 93.501h78c-11.333 -62.667 -38 -110.667 -80 -144s-92.333 -50 -151 -50zM346.002 631.998c-15.333 0 -28.332 5.16699 -38.999 15.5
s-16 23.166 -16 38.499s5.5 28.5 16.5 39.5s24.167 16.5 39.5 16.5s28.166 -5.16699 38.499 -15.5s15.5 -23.166 15.5 -38.499s-5.33301 -28.5 -16 -39.5s-23.667 -16.5 -39 -16.5z" />
    <glyph glyph-name="Ccaron" unicode="&#x10c;" horiz-adv-x="728" 
d="M392 -9c-49.333 0 -93.6699 7.33008 -133.003 21.9971s-72.666 35.667 -99.999 63s-48.333 60.333 -63 99s-22 81.667 -22 129c0 58.667 9.33301 113.667 28 165s44.667 96 78 134s73.333 68 120 90s98 33 154 33c36 0 69.667 -5 101 -15s58.833 -24.833 82.5 -44.5
s42.667 -44 57 -73s22.833 -62.833 25.5 -101.5h-82c-8.66699 54 -27.834 95 -57.501 123s-73.167 42 -130.5 42c-45.333 0 -85.666 -9.16699 -120.999 -27.5s-65.166 -43.333 -89.499 -75s-43 -69 -56 -112s-19.5 -89.167 -19.5 -138.5c0 -77.333 19 -137.166 57 -179.499
s95.333 -63.5 172 -63.5c58 0 105.667 16.167 143 48.5s64.333 74.833 81 127.5h83c-9.33301 -38 -23.666 -72.167 -42.999 -102.5s-42.333 -56.166 -69 -77.499s-56.5 -37.666 -89.5 -48.999s-68.5 -17 -106.5 -17zM492.996 770.997h-75l-91 127h58l77 -58l93 58h62z" />
    <glyph glyph-name="ccaron" unicode="&#x10d;" horiz-adv-x="554" 
d="M289 -8c-39.333 0 -74.1641 5.83105 -104.497 17.498s-55.833 28 -76.5 49s-36.334 46 -47.001 75s-16 61.167 -16 96.5c0 48 7.5 90.833 22.5 128.5s35 69.167 60 94.5s53.833 44.666 86.5 57.999s66.667 20 102 20c28.667 0 55.5 -3.66699 80.5 -11s47 -18.5 66 -33.5
s34.167 -34 45.5 -57s18 -50.5 20 -82.5h-79c-2.66699 22.667 -7.83398 41.334 -15.501 56.001s-17.5 26.334 -29.5 35.001s-25.833 14.834 -41.5 18.501s-32.5 5.5 -50.5 5.5c-26 0 -50.167 -5 -72.5 -15s-41.5 -24.833 -57.5 -44.5s-28.667 -43.834 -38 -72.501
s-14 -62 -14 -100c0 -55.333 13.333 -97.5 40 -126.5s67 -43.5 121 -43.5c36.667 0 69.167 10.833 97.5 32.5s46.166 52.834 53.499 93.501h78c-11.333 -62.667 -38 -110.667 -80 -144s-92.333 -50 -151 -50zM361.002 612.998h-75l-86 144h58l74 -75l96 75h62z" />
    <glyph glyph-name="Dcaron" unicode="&#x10e;" horiz-adv-x="698" 
d="M167 715l174 -0.000976562c58.667 0 109.167 -7.66699 151.5 -23s77 -36.666 104 -63.999s46.833 -59.5 59.5 -96.5s19 -77.5 19 -121.5c0 -56.667 -8.83301 -110 -26.5 -160s-44 -93.5 -79 -130.5s-78.167 -66.167 -129.5 -87.5s-110.333 -32 -177 -32h-209zM260 70.999
c51.333 0 97.168 7.66699 137.501 23s74.5 37.5 102.5 66.5s49.333 64.5 64 106.5s22 89.333 22 142c0 34 -4.5 65.333 -13.5 94s-23.5 53.5 -43.5 74.5s-45.833 37.5 -77.5 49.5s-69.834 18 -114.501 18h-94l-91 -574h108zM422.002 770.999h-75l-91 127h58l77 -58l93 58h62
z" />
    <glyph glyph-name="dcaron" unicode="&#x10f;" horiz-adv-x="622" 
d="M267 -9c-32.667 0 -62.498 5.50391 -89.498 16.5039s-50.333 26.5 -70 46.5s-34.834 44.167 -45.501 72.5s-16 60.166 -16 95.499c0 42 6.16699 81.667 18.5 119s30.333 70.166 54 98.499s52.167 50.833 85.5 67.5s71 25 113 25c24.667 0 46.667 -3 66 -9s36 -14 50 -24
s25.833 -21.167 35.5 -33.5s17.5 -24.833 23.5 -37.5l54 345h83l-97 -617c-5.33301 -35.333 -8.83301 -64.833 -10.5 -88.5s-1.83398 -46.167 -0.500977 -67.5h-79c-1.33301 15.333 -1.5 31.166 -0.5 47.499s2.5 32.166 4.5 47.499c-18.667 -31.333 -43.5 -56.5 -74.5 -75.5
s-65.833 -28.5 -104.5 -28.5zM277.002 60.0039c28 0 53.833 5.00098 77.5 15.001s44.334 25.167 62.001 45.5s31.5 45.666 41.5 75.999s15 65.833 15 106.5c0 50 -14.333 89.167 -43 117.5s-65.334 42.5 -110.001 42.5c-29.333 0 -55.5 -6 -78.5 -18
s-42.5 -28.5 -58.5 -49.5s-28.167 -46 -36.5 -75s-12.5 -60.5 -12.5 -94.5c0 -52 12.5 -92.667 37.5 -122s60.167 -44 105.5 -44zM689.002 773.005h91l-70 -175h-59z" />
    <glyph glyph-name="Dcroat" unicode="&#x110;" horiz-adv-x="718" 
d="M54 392l76 -0.000976562l51 323h174c58.667 0 109.167 -7.66699 151.5 -23s77 -36.666 104 -63.999s46.833 -59.5 59.5 -96.5s19 -77.5 19 -121.5c0 -56.667 -8.83301 -110 -26.5 -160s-44 -93.5 -79 -130.5s-78.167 -66.167 -129.5 -87.5s-110.333 -32 -177 -32h-209
l51 325h-76zM274 70.999c51.333 0 97.168 7.66699 137.501 23s74.5 37.5 102.5 66.5s49.333 64.5 64 106.5s22 89.333 22 142c0 34 -4.5 65.333 -13.5 94s-23.5 53.5 -43.5 74.5s-45.833 37.5 -77.5 49.5s-69.834 18 -114.501 18h-94l-40 -253h207l-11 -67h-207l-40 -254
h108z" />
    <glyph glyph-name="dcroat" unicode="&#x111;" horiz-adv-x="622" 
d="M347 676l178.002 0.00390625l15 97h83l-16 -97h76l-10 -61h-75l-72 -459c-5.33301 -35.333 -8.83301 -64.833 -10.5 -88.5s-1.83398 -46.167 -0.500977 -67.5h-79c-1.33301 15.333 -1.5 31.166 -0.5 47.499s2.5 32.166 4.5 47.499
c-18.667 -31.333 -43.5 -56.5 -74.5 -75.5s-65.833 -28.5 -104.5 -28.5c-32.667 0 -62.5 5.5 -89.5 16.5s-50.333 26.5 -70 46.5s-34.834 44.167 -45.501 72.5s-16 60.166 -16 95.499c0 42 6.16699 81.667 18.5 119s30.333 70.166 54 98.499s52.167 50.833 85.5 67.5
s71 25 113 25c24.667 0 46.667 -3 66 -9s36 -14 50 -24s25.833 -21.167 35.5 -33.5s17.5 -24.833 23.5 -37.5l29 187h-178zM314.002 463.004c-29.333 0 -55.501 -6.00098 -78.501 -18.001s-42.5 -28.5 -58.5 -49.5s-28.167 -46 -36.5 -75s-12.5 -60.5 -12.5 -94.5
c0 -54 12.333 -95.167 37 -123.5s60 -42.5 106 -42.5c28 0 53.833 5 77.5 15s44.334 25.333 62.001 46s31.5 46.334 41.5 77.001s15 66.667 15 108c0 50.667 -14 89.5 -42 116.5s-65 40.5 -111 40.5z" />
    <glyph glyph-name="Emacron" unicode="&#x112;" horiz-adv-x="572" 
d="M167 715h413l-12 -71h-326l-38 -243h266l-11 -71h-266l-41 -259h348l-11 -71h-435zM258 850h266l-10 -64h-266z" />
    <glyph glyph-name="emacron" unicode="&#x113;" horiz-adv-x="553" 
d="M129 211c0 -48 11.501 -85.168 34.501 -111.501s59.5 -39.5 109.5 -39.5c36.667 0 67.334 7.66699 92.001 23s42 38 52 68h83c-8 -27.333 -19.5 -51 -34.5 -71s-32.5 -36.5 -52.5 -49.5s-42.167 -22.833 -66.5 -29.5s-49.833 -10 -76.5 -10c-35.333 0 -67 5.5 -95 16.5
s-51.667 26.5 -71 46.5s-34.166 43.667 -44.499 71s-15.5 57.333 -15.5 90c0 46 7 88.333 21 127s33.167 72 57.5 100s53.166 49.833 86.499 65.5s69.333 23.5 108 23.5c35.333 0 67.166 -5.5 95.499 -16.5s51.666 -27.667 69.999 -50s30.833 -50.166 37.5 -83.499
s6.66699 -72.333 0 -117l-3 -19h-387c-0.666992 -5.33301 -1 -11 -1 -17v-17zM312.001 462.999c-18.667 0 -36.832 -2.83301 -54.499 -8.5s-34.167 -14.667 -49.5 -27s-28.833 -28 -40.5 -47s-20.834 -41.833 -27.501 -68.5h303c4 52.667 -4.83301 91 -26.5 115
s-56.5 36 -104.5 36zM214.003 711.999h262l-10 -64h-262z" />
    <glyph glyph-name="Ebreve" unicode="&#x114;" horiz-adv-x="572" 
d="M167 715h413l-12 -71h-326l-38 -243h266l-11 -71h-266l-41 -259h348l-11 -71h-435zM381 767c-37.333 0 -68.333 11.999 -93 35.999s-37 56 -37 96h66c2.66699 -21.333 9.16699 -37.333 19.5 -48s25.5 -16 45.5 -16c40.667 0 65 21.333 73 64h64
c-1.33301 -19.333 -6 -37.166 -14 -53.499s-18.333 -30.333 -31 -42s-27 -20.667 -43 -27s-32.667 -9.5 -50 -9.5z" />
    <glyph glyph-name="ebreve" unicode="&#x115;" horiz-adv-x="553" 
d="M129 211c0 -48 11.501 -85.168 34.501 -111.501s59.5 -39.5 109.5 -39.5c36.667 0 67.334 7.66699 92.001 23s42 38 52 68h83c-8 -27.333 -19.5 -51 -34.5 -71s-32.5 -36.5 -52.5 -49.5s-42.167 -22.833 -66.5 -29.5s-49.833 -10 -76.5 -10c-35.333 0 -67 5.5 -95 16.5
s-51.667 26.5 -71 46.5s-34.166 43.667 -44.499 71s-15.5 57.333 -15.5 90c0 46 7 88.333 21 127s33.167 72 57.5 100s53.166 49.833 86.499 65.5s69.333 23.5 108 23.5c35.333 0 67.166 -5.5 95.499 -16.5s51.666 -27.667 69.999 -50s30.833 -50.166 37.5 -83.499
s6.66699 -72.333 0 -117l-3 -19h-387c-0.666992 -5.33301 -1 -11 -1 -17v-17zM312.001 462.999c-18.667 0 -36.832 -2.83301 -54.499 -8.5s-34.167 -14.667 -49.5 -27s-28.833 -28 -40.5 -47s-20.834 -41.833 -27.501 -68.5h303c4 52.667 -4.83301 91 -26.5 115
s-56.5 36 -104.5 36zM333.003 618.999c-37.333 0 -68.333 11.999 -93 35.999s-37 56 -37 96h66c2.66699 -21.333 9.16699 -37.333 19.5 -48s25.5 -16 45.5 -16c40.667 0 65 21.333 73 64h64c-1.33301 -19.333 -6 -37.166 -14 -53.499s-18.333 -30.333 -31 -42
s-27 -20.667 -43 -27s-32.667 -9.5 -50 -9.5z" />
    <glyph glyph-name="Edotaccent" unicode="&#x116;" horiz-adv-x="572" 
d="M167 715h413l-12 -71h-326l-38 -243h266l-11 -71h-266l-41 -259h348l-11 -71h-435zM385 787c-15.333 0 -28.332 5.16699 -38.999 15.5s-16 23.166 -16 38.499s5.5 28.5 16.5 39.5s24.167 16.5 39.5 16.5s28.166 -5.16699 38.499 -15.5s15.5 -23.166 15.5 -38.499
s-5.33301 -28.5 -16 -39.5s-23.667 -16.5 -39 -16.5z" />
    <glyph glyph-name="edotaccent" unicode="&#x117;" horiz-adv-x="553" 
d="M129 211c0 -48 11.501 -85.168 34.501 -111.501s59.5 -39.5 109.5 -39.5c36.667 0 67.334 7.66699 92.001 23s42 38 52 68h83c-8 -27.333 -19.5 -51 -34.5 -71s-32.5 -36.5 -52.5 -49.5s-42.167 -22.833 -66.5 -29.5s-49.833 -10 -76.5 -10c-35.333 0 -67 5.5 -95 16.5
s-51.667 26.5 -71 46.5s-34.166 43.667 -44.499 71s-15.5 57.333 -15.5 90c0 46 7 88.333 21 127s33.167 72 57.5 100s53.166 49.833 86.499 65.5s69.333 23.5 108 23.5c35.333 0 67.166 -5.5 95.499 -16.5s51.666 -27.667 69.999 -50s30.833 -50.166 37.5 -83.499
s6.66699 -72.333 0 -117l-3 -19h-387c-0.666992 -5.33301 -1 -11 -1 -17v-17zM312.001 462.999c-18.667 0 -36.832 -2.83301 -54.499 -8.5s-34.167 -14.667 -49.5 -27s-28.833 -28 -40.5 -47s-20.834 -41.833 -27.501 -68.5h303c4 52.667 -4.83301 91 -26.5 115
s-56.5 36 -104.5 36zM343.003 631.999c-15.333 0 -28.332 5.16699 -38.999 15.5s-16 23.166 -16 38.499s5.5 28.5 16.5 39.5s24.167 16.5 39.5 16.5s28.166 -5.16699 38.499 -15.5s15.5 -23.166 15.5 -38.499s-5.33301 -28.5 -16 -39.5s-23.667 -16.5 -39 -16.5z" />
    <glyph glyph-name="Eogonek" unicode="&#x118;" horiz-adv-x="572" 
d="M161 715l412.998 -0.000976562l-12 -71h-326l-38 -243h266l-11 -71h-266l-41 -259h348l-11 -71h-31l-26.5 -15.5c-9.66699 -5.66699 -18.667 -12.334 -27 -20.001s-15.5 -16.167 -21.5 -25.5s-9 -20 -9 -32c0 -19.333 12.333 -29 37 -29c16.667 0 32.667 3.33301 48 10
l-9 -59c-6.66699 -2.66699 -14.667 -5.16699 -24 -7.5s-20.666 -3.5 -33.999 -3.5s-26 1.5 -38 4.5s-22.5 7.5 -31.5 13.5s-16.167 13.833 -21.5 23.5s-8 21.167 -8 34.5c0 12.667 2.33301 24.334 7 35.001s10.834 20.334 18.501 29.001s16.167 16.5 25.5 23.5
s19 13.167 29 18.5h-319z" />
    <glyph glyph-name="eogonek" unicode="&#x119;" horiz-adv-x="553" 
d="M316 -182c-13.333 0 -26.001 1.5 -38.001 4.5s-22.5 7.66699 -31.5 14s-16.167 14.666 -21.5 24.999s-8 22.833 -8 37.5c0 10.667 2.33301 20.5 7 29.5s10.667 17.5 18 25.5s15.5 15.167 24.5 21.5s18.167 12.166 27.5 17.499
c-5.33301 -0.666992 -10.333 -1.16699 -15 -1.5s-9.66699 -0.5 -15 -0.5c-35.333 0 -67 5.5 -95 16.5s-51.667 26.5 -71 46.5s-34.166 43.667 -44.499 71s-15.5 57.333 -15.5 90c0 46 7 88.333 21 127s33.167 72 57.5 100s53.166 49.833 86.499 65.5s69.333 23.5 108 23.5
c35.333 0 67.166 -5.5 95.499 -16.5s51.666 -27.667 69.999 -50s30.833 -50.166 37.5 -83.499s6.66699 -72.333 0 -117l-3 -19h-387c-0.666992 -5.33301 -1 -10.833 -1 -16.5v-17.5c0 -48 11.5 -85.167 34.5 -111.5s59.5 -39.5 109.5 -39.5
c36.667 0 67.334 7.66699 92.001 23s42 38 52 68h83c-6 -19.333 -13.333 -36.666 -22 -51.999s-20 -30.333 -34 -45c-12 -12 -26 -23.667 -42 -35s-31.167 -22.833 -45.5 -34.5s-26.666 -23.667 -36.999 -36s-15.5 -25.5 -15.5 -39.5c0 -20.667 12.333 -31 37 -31
c16.667 0 32.667 3.33301 48 10l-9 -59c-6.66699 -2.66699 -14.667 -5.16699 -24 -7.5s-20.666 -3.5 -33.999 -3.5zM305.999 463c-18.667 0 -36.832 -2.83301 -54.499 -8.5s-34.167 -14.667 -49.5 -27s-28.833 -28 -40.5 -47s-20.834 -41.833 -27.501 -68.5h303
c4 52.667 -4.83301 91 -26.5 115s-56.5 36 -104.5 36z" />
    <glyph glyph-name="Ecaron" unicode="&#x11a;" horiz-adv-x="572" 
d="M167 715h413l-12 -71h-326l-38 -243h266l-11 -71h-266l-41 -259h348l-11 -71h-435zM407 771h-75l-91 127h58l77 -58l93 58h62z" />
    <glyph glyph-name="ecaron" unicode="&#x11b;" horiz-adv-x="553" 
d="M129 211c0 -48 11.501 -85.168 34.501 -111.501s59.5 -39.5 109.5 -39.5c36.667 0 67.334 7.66699 92.001 23s42 38 52 68h83c-8 -27.333 -19.5 -51 -34.5 -71s-32.5 -36.5 -52.5 -49.5s-42.167 -22.833 -66.5 -29.5s-49.833 -10 -76.5 -10c-35.333 0 -67 5.5 -95 16.5
s-51.667 26.5 -71 46.5s-34.166 43.667 -44.499 71s-15.5 57.333 -15.5 90c0 46 7 88.333 21 127s33.167 72 57.5 100s53.166 49.833 86.499 65.5s69.333 23.5 108 23.5c35.333 0 67.166 -5.5 95.499 -16.5s51.666 -27.667 69.999 -50s30.833 -50.166 37.5 -83.499
s6.66699 -72.333 0 -117l-3 -19h-387c-0.666992 -5.33301 -1 -11 -1 -17v-17zM312.001 462.999c-18.667 0 -36.832 -2.83301 -54.499 -8.5s-34.167 -14.667 -49.5 -27s-28.833 -28 -40.5 -47s-20.834 -41.833 -27.501 -68.5h303c4 52.667 -4.83301 91 -26.5 115
s-56.5 36 -104.5 36zM361.003 612.999h-75l-86 144h58l74 -75l96 75h62z" />
    <glyph glyph-name="Gcircumflex" unicode="&#x11c;" horiz-adv-x="770" 
d="M400 -9c-52 0 -98.168 8.1709 -138.501 24.5039s-74.333 39 -102 68s-48.667 63.167 -63 102.5s-21.5 82 -21.5 128c0 56 9.33301 108.833 28 158.5s44.667 93.167 78 130.5s72.833 66.833 118.5 88.5s95.5 32.5 149.5 32.5c36 0 70.333 -4.5 103 -13.5
s61.667 -22.833 87 -41.5s45.833 -42.167 61.5 -70.5s24.834 -61.5 27.501 -99.5h-86c-5.33301 54 -25.833 93.5 -61.5 118.5s-80.167 37.5 -133.5 37.5c-44 0 -83.333 -9 -118 -27s-64.167 -42.333 -88.5 -73s-43 -66.834 -56 -108.501s-19.5 -85.834 -19.5 -132.501
c0 -38 5 -72.667 15 -104s24.833 -58 44.5 -80s44.334 -39 74.001 -51s64.167 -18 103.5 -18c36 0 67.667 5.66699 95 17s50.833 27.166 70.5 47.499s35.5 44.333 47.5 72s20.667 58.167 26 91.5h-212l12 72h295c-5.33301 -64.667 -16.833 -120.334 -34.5 -167.001
s-40.834 -85 -69.501 -115s-62.5 -52.167 -101.5 -66.5s-82.5 -21.5 -130.5 -21.5zM431.999 898.004h75l91 -127h-58l-77 58l-93 -58h-62z" />
    <glyph glyph-name="gcircumflex" unicode="&#x11d;" horiz-adv-x="623" 
d="M278 86c26 0 50.8291 5.16797 74.4961 15.501s44.334 25.166 62.001 44.499s31.834 42.833 42.501 70.5s16 59.167 16 94.5c0 24 -3.83301 45.333 -11.5 64s-18.5 34.5 -32.5 47.5s-30.5 23 -49.5 30s-39.5 10.5 -61.5 10.5c-28 0 -53.167 -5.83301 -75.5 -17.5
s-41.166 -27.5 -56.499 -47.5s-27.166 -43.167 -35.499 -69.5s-12.5 -53.833 -12.5 -82.5c0 -47.333 11.833 -85.833 35.5 -115.5s58.5 -44.5 104.5 -44.5zM511.996 26.001c-11.333 -72.667 -39.333 -126.83 -84 -162.497s-103.334 -53.5 -176.001 -53.5
c-42 0 -77.333 4.83301 -106 14.5s-52 22.167 -70 37.5s-31.333 32.5 -40 51.5s-14.334 37.833 -17.001 56.5h84c5.33301 -26.667 19.5 -48.334 42.5 -65.001s57.833 -25 104.5 -25c56 0 97.667 13 125 39s45.333 64.333 54 115l12 73
c-19.333 -28 -43.166 -49.667 -71.499 -65s-61.833 -23 -100.5 -23c-32 0 -61.333 5.5 -88 16.5s-49.667 26.167 -69 45.5s-34.333 42.666 -45 69.999s-16 57.666 -16 90.999c0 39.333 6.5 76.5 19.5 111.5s31.333 65.833 55 92.5s51.667 47.667 84 63s67.5 23 105.5 23
c24.667 0 46.667 -3 66 -9s36.333 -14 51 -24s26.834 -21.167 36.501 -33.5s17.5 -24.833 23.5 -37.5l15 95h83zM330.996 757.005h75l86 -144h-58l-74 75l-96 -75h-62z" />
    <glyph glyph-name="Gbreve" unicode="&#x11e;" horiz-adv-x="770" 
d="M400 -9c-52 0 -98.168 8.1709 -138.501 24.5039s-74.333 39 -102 68s-48.667 63.167 -63 102.5s-21.5 82 -21.5 128c0 56 9.33301 108.833 28 158.5s44.667 93.167 78 130.5s72.833 66.833 118.5 88.5s95.5 32.5 149.5 32.5c36 0 70.333 -4.5 103 -13.5
s61.667 -22.833 87 -41.5s45.833 -42.167 61.5 -70.5s24.834 -61.5 27.501 -99.5h-86c-5.33301 54 -25.833 93.5 -61.5 118.5s-80.167 37.5 -133.5 37.5c-44 0 -83.333 -9 -118 -27s-64.167 -42.333 -88.5 -73s-43 -66.834 -56 -108.501s-19.5 -85.834 -19.5 -132.501
c0 -38 5 -72.667 15 -104s24.833 -58 44.5 -80s44.334 -39 74.001 -51s64.167 -18 103.5 -18c36 0 67.667 5.66699 95 17s50.833 27.166 70.5 47.499s35.5 44.333 47.5 72s20.667 58.167 26 91.5h-212l12 72h295c-5.33301 -64.667 -16.833 -120.334 -34.5 -167.001
s-40.834 -85 -69.501 -115s-62.5 -52.167 -101.5 -66.5s-82.5 -21.5 -130.5 -21.5zM460.999 767.004c-37.333 0 -68.333 11.999 -93 35.999s-37 56 -37 96h66c2.66699 -21.333 9.16699 -37.333 19.5 -48s25.5 -16 45.5 -16c40.667 0 65 21.333 73 64h64
c-1.33301 -19.333 -6 -37.166 -14 -53.499s-18.333 -30.333 -31 -42s-27 -20.667 -43 -27s-32.667 -9.5 -50 -9.5z" />
    <glyph glyph-name="gbreve" unicode="&#x11f;" horiz-adv-x="623" 
d="M278 86c26 0 50.8291 5.16797 74.4961 15.501s44.334 25.166 62.001 44.499s31.834 42.833 42.501 70.5s16 59.167 16 94.5c0 24 -3.83301 45.333 -11.5 64s-18.5 34.5 -32.5 47.5s-30.5 23 -49.5 30s-39.5 10.5 -61.5 10.5c-28 0 -53.167 -5.83301 -75.5 -17.5
s-41.166 -27.5 -56.499 -47.5s-27.166 -43.167 -35.499 -69.5s-12.5 -53.833 -12.5 -82.5c0 -47.333 11.833 -85.833 35.5 -115.5s58.5 -44.5 104.5 -44.5zM511.996 26.001c-11.333 -72.667 -39.333 -126.83 -84 -162.497s-103.334 -53.5 -176.001 -53.5
c-42 0 -77.333 4.83301 -106 14.5s-52 22.167 -70 37.5s-31.333 32.5 -40 51.5s-14.334 37.833 -17.001 56.5h84c5.33301 -26.667 19.5 -48.334 42.5 -65.001s57.833 -25 104.5 -25c56 0 97.667 13 125 39s45.333 64.333 54 115l12 73
c-19.333 -28 -43.166 -49.667 -71.499 -65s-61.833 -23 -100.5 -23c-32 0 -61.333 5.5 -88 16.5s-49.667 26.167 -69 45.5s-34.333 42.666 -45 69.999s-16 57.666 -16 90.999c0 39.333 6.5 76.5 19.5 111.5s31.333 65.833 55 92.5s51.667 47.667 84 63s67.5 23 105.5 23
c24.667 0 46.667 -3 66 -9s36.333 -14 51 -24s26.834 -21.167 36.501 -33.5s17.5 -24.833 23.5 -37.5l15 95h83zM359.996 619.005c-37.333 0 -68.333 11.999 -93 35.999s-37 56 -37 96h66c2.66699 -21.333 9.16699 -37.333 19.5 -48s25.5 -16 45.5 -16
c40.667 0 65 21.333 73 64h64c-1.33301 -19.333 -6 -37.166 -14 -53.499s-18.333 -30.333 -31 -42s-27 -20.667 -43 -27s-32.667 -9.5 -50 -9.5z" />
    <glyph glyph-name="Gdotaccent" unicode="&#x120;" horiz-adv-x="770" 
d="M400 -9c-52 0 -98.168 8.1709 -138.501 24.5039s-74.333 39 -102 68s-48.667 63.167 -63 102.5s-21.5 82 -21.5 128c0 56 9.33301 108.833 28 158.5s44.667 93.167 78 130.5s72.833 66.833 118.5 88.5s95.5 32.5 149.5 32.5c36 0 70.333 -4.5 103 -13.5
s61.667 -22.833 87 -41.5s45.833 -42.167 61.5 -70.5s24.834 -61.5 27.501 -99.5h-86c-5.33301 54 -25.833 93.5 -61.5 118.5s-80.167 37.5 -133.5 37.5c-44 0 -83.333 -9 -118 -27s-64.167 -42.333 -88.5 -73s-43 -66.834 -56 -108.501s-19.5 -85.834 -19.5 -132.501
c0 -38 5 -72.667 15 -104s24.833 -58 44.5 -80s44.334 -39 74.001 -51s64.167 -18 103.5 -18c36 0 67.667 5.66699 95 17s50.833 27.166 70.5 47.499s35.5 44.333 47.5 72s20.667 58.167 26 91.5h-212l12 72h295c-5.33301 -64.667 -16.833 -120.334 -34.5 -167.001
s-40.834 -85 -69.501 -115s-62.5 -52.167 -101.5 -66.5s-82.5 -21.5 -130.5 -21.5zM462.999 787.004c-15.333 0 -28.332 5.16699 -38.999 15.5s-16 23.166 -16 38.499s5.5 28.5 16.5 39.5s24.167 16.5 39.5 16.5s28.166 -5.16699 38.499 -15.5s15.5 -23.166 15.5 -38.499
s-5.33301 -28.5 -16 -39.5s-23.667 -16.5 -39 -16.5z" />
    <glyph glyph-name="gdotaccent" unicode="&#x121;" horiz-adv-x="623" 
d="M278 86c26 0 50.8291 5.16797 74.4961 15.501s44.334 25.166 62.001 44.499s31.834 42.833 42.501 70.5s16 59.167 16 94.5c0 24 -3.83301 45.333 -11.5 64s-18.5 34.5 -32.5 47.5s-30.5 23 -49.5 30s-39.5 10.5 -61.5 10.5c-28 0 -53.167 -5.83301 -75.5 -17.5
s-41.166 -27.5 -56.499 -47.5s-27.166 -43.167 -35.499 -69.5s-12.5 -53.833 -12.5 -82.5c0 -47.333 11.833 -85.833 35.5 -115.5s58.5 -44.5 104.5 -44.5zM511.996 26.001c-11.333 -72.667 -39.333 -126.83 -84 -162.497s-103.334 -53.5 -176.001 -53.5
c-42 0 -77.333 4.83301 -106 14.5s-52 22.167 -70 37.5s-31.333 32.5 -40 51.5s-14.334 37.833 -17.001 56.5h84c5.33301 -26.667 19.5 -48.334 42.5 -65.001s57.833 -25 104.5 -25c56 0 97.667 13 125 39s45.333 64.333 54 115l12 73
c-19.333 -28 -43.166 -49.667 -71.499 -65s-61.833 -23 -100.5 -23c-32 0 -61.333 5.5 -88 16.5s-49.667 26.167 -69 45.5s-34.333 42.666 -45 69.999s-16 57.666 -16 90.999c0 39.333 6.5 76.5 19.5 111.5s31.333 65.833 55 92.5s51.667 47.667 84 63s67.5 23 105.5 23
c24.667 0 46.667 -3 66 -9s36.333 -14 51 -24s26.834 -21.167 36.501 -33.5s17.5 -24.833 23.5 -37.5l15 95h83zM370.996 632.005c-15.333 0 -28.332 5.16699 -38.999 15.5s-16 23.166 -16 38.499s5.5 28.5 16.5 39.5s24.167 16.5 39.5 16.5s28.166 -5.16699 38.499 -15.5
s15.5 -23.166 15.5 -38.499s-5.33301 -28.5 -16 -39.5s-23.667 -16.5 -39 -16.5z" />
    <glyph glyph-name="uni0122" unicode="&#x122;" horiz-adv-x="770" 
d="M400 -9c-52 0 -98.168 8.1709 -138.501 24.5039s-74.333 39 -102 68s-48.667 63.167 -63 102.5s-21.5 82 -21.5 128c0 56 9.33301 108.833 28 158.5s44.667 93.167 78 130.5s72.833 66.833 118.5 88.5s95.5 32.5 149.5 32.5c36 0 70.333 -4.5 103 -13.5
s61.667 -22.833 87 -41.5s45.833 -42.167 61.5 -70.5s24.834 -61.5 27.501 -99.5h-86c-5.33301 54 -25.833 93.5 -61.5 118.5s-80.167 37.5 -133.5 37.5c-44 0 -83.333 -9 -118 -27s-64.167 -42.333 -88.5 -73s-43 -66.834 -56 -108.501s-19.5 -85.834 -19.5 -132.501
c0 -38 5 -72.667 15 -104s24.833 -58 44.5 -80s44.334 -39 74.001 -51s64.167 -18 103.5 -18c36 0 67.667 5.66699 95 17s50.833 27.166 70.5 47.499s35.5 44.333 47.5 72s20.667 58.167 26 91.5h-212l12 72h295c-5.33301 -64.667 -16.833 -120.334 -34.5 -167.001
s-40.834 -85 -69.501 -115s-62.5 -52.167 -101.5 -66.5s-82.5 -21.5 -130.5 -21.5zM237.999 -193.996l72 157l78 -24l-101 -159z" />
    <glyph glyph-name="uni0123" unicode="&#x123;" horiz-adv-x="623" 
d="M278 86c26 0 50.8291 5.16797 74.4961 15.501s44.334 25.166 62.001 44.499s31.834 42.833 42.501 70.5s16 59.167 16 94.5c0 24 -3.83301 45.333 -11.5 64s-18.5 34.5 -32.5 47.5s-30.5 23 -49.5 30s-39.5 10.5 -61.5 10.5c-28 0 -53.167 -5.83301 -75.5 -17.5
s-41.166 -27.5 -56.499 -47.5s-27.166 -43.167 -35.499 -69.5s-12.5 -53.833 -12.5 -82.5c0 -47.333 11.833 -85.833 35.5 -115.5s58.5 -44.5 104.5 -44.5zM511.996 26.001c-11.333 -72.667 -39.333 -126.83 -84 -162.497s-103.334 -53.5 -176.001 -53.5
c-42 0 -77.333 4.83301 -106 14.5s-52 22.167 -70 37.5s-31.333 32.5 -40 51.5s-14.334 37.833 -17.001 56.5h84c5.33301 -26.667 19.5 -48.334 42.5 -65.001s57.833 -25 104.5 -25c56 0 97.667 13 125 39s45.333 64.333 54 115l12 73
c-19.333 -28 -43.166 -49.667 -71.499 -65s-61.833 -23 -100.5 -23c-32 0 -61.333 5.5 -88 16.5s-49.667 26.167 -69 45.5s-34.333 42.666 -45 69.999s-16 57.666 -16 90.999c0 39.333 6.5 76.5 19.5 111.5s31.333 65.833 55 92.5s51.667 47.667 84 63s67.5 23 105.5 23
c24.667 0 46.667 -3 66 -9s36.333 -14 51 -24s26.834 -21.167 36.501 -33.5s17.5 -24.833 23.5 -37.5l15 95h83zM441.996 759.005l-72 -157l-78 24l101 159z" />
    <glyph glyph-name="Hcircumflex" unicode="&#x124;" horiz-adv-x="730" 
d="M167 715h87l-52 -324h376l52 324h87l-113 -715h-87l50 318h-376l-50 -318h-87zM426 898h75l91 -127h-58l-77 58l-93 -58h-62z" />
    <glyph glyph-name="hcircumflex" unicode="&#x125;" horiz-adv-x="592" 
d="M170 773l83 0.00195312l-54 -343c8 12.667 17.667 25.167 29 37.5s24.333 23.166 39 32.499s31 17 49 23s37.667 9 59 9c27.333 0 51.833 -4 73.5 -12s39.334 -20.833 53.001 -38.5s22.834 -40.334 27.501 -68.001s4 -61.167 -2 -100.5l-50 -313h-83l53 332
c7.33301 44 3.16602 76.5 -12.501 97.5s-41.5 31.5 -77.5 31.5c-22 0 -42.833 -3.5 -62.5 -10.5s-37.334 -17.333 -53.001 -31s-29 -30.167 -40 -49.5s-18.5 -41.333 -22.5 -66l-48 -304h-83zM364 948.002h75l91 -127h-58l-77 58l-93 -58h-62z" />
    <glyph glyph-name="Hbar" unicode="&#x126;" horiz-adv-x="730" 
d="M66 560h70l25 155h87l-25 -155h376l25 155h87l-25 -155h70l-10 -67h-70l-78 -493h-87l50 318h-376l-50 -318h-87l78 493h-70zM572 391l16 102h-376l-16 -102h376z" />
    <glyph glyph-name="hbar" unicode="&#x127;" horiz-adv-x="592" 
d="M74 676l73.999 0.000976562l16 97h83l-16 -97h179l-10 -61h-178l-29 -185c8 12.667 17.667 25.167 29 37.5s24.333 23.166 39 32.499s31 17 49 23s37.667 9 59 9c27.333 0 51.833 -4 73.5 -12s39.334 -20.833 53.001 -38.5s22.834 -40.334 27.501 -68.001
s4 -61.167 -2 -100.5l-50 -313h-83l53 332c7.33301 46.667 3.5 79.834 -11.5 99.501s-41.167 29.5 -78.5 29.5c-22 0 -42.833 -3.5 -62.5 -10.5s-37.334 -17.333 -53.001 -31s-29 -30.167 -40 -49.5s-18.5 -41.333 -22.5 -66l-48 -304h-83l97 615h-75z" />
    <glyph glyph-name="Itilde" unicode="&#x128;" horiz-adv-x="279" 
d="M172 715h87l-113 -715h-87zM291 774c-12 0 -23.166 2.16699 -33.499 6.5s-20 9.33301 -29 15s-17.5 10.667 -25.5 15s-15.667 6.5 -23 6.5c-9.33301 0 -18.5 -4 -27.5 -12s-15.167 -19 -18.5 -33h-60c7.33301 36.667 20.5 65.167 39.5 85.5s41.5 30.5 67.5 30.5
c11.333 0 22.166 -2.16699 32.499 -6.5s20 -9.33301 29 -15s17.5 -10.667 25.5 -15s15.667 -6.5 23 -6.5c9.33301 0 18.333 4 27 12s14.667 19 18 33h60c-7.33301 -36.667 -20.333 -65.167 -39 -85.5s-40.667 -30.5 -66 -30.5z" />
    <glyph glyph-name="itilde" unicode="&#x129;" horiz-adv-x="255" 
d="M133 523h83l-83 -523h-83zM253 619c-12 0 -23.166 2.16699 -33.499 6.5s-20 9.33301 -29 15s-17.5 10.667 -25.5 15s-15.667 6.5 -23 6.5c-9.33301 0 -18.5 -4 -27.5 -12s-15.167 -19 -18.5 -33h-60c7.33301 36.667 20.5 65.167 39.5 85.5s41.5 30.5 67.5 30.5
c11.333 0 22.166 -2.16699 32.499 -6.5s20 -9.33301 29 -15s17.5 -10.667 25.5 -15s15.667 -6.5 23 -6.5c9.33301 0 18.333 4 27 12s14.667 19 18 33h60c-7.33301 -36.667 -20.333 -65.167 -39 -85.5s-40.667 -30.5 -66 -30.5z" />
    <glyph glyph-name="Imacron" unicode="&#x12a;" horiz-adv-x="279" 
d="M172 715h87l-113 -715h-87zM104 850h266l-10 -64h-266z" />
    <glyph glyph-name="imacron" unicode="&#x12b;" horiz-adv-x="255" 
d="M101 712h194l-10 -64h-194zM127 523h83l-83 -523h-83z" />
    <glyph glyph-name="Ibreve" unicode="&#x12c;" horiz-adv-x="279" 
d="M172 715h87l-113 -715h-87zM227 767c-37.333 0 -68.333 11.999 -93 35.999s-37 56 -37 96h66c2.66699 -21.333 9.16699 -37.333 19.5 -48s25.5 -16 45.5 -16c40.667 0 65 21.333 73 64h64c-1.33301 -19.333 -6 -37.166 -14 -53.499s-18.333 -30.333 -31 -42
s-27 -20.667 -43 -27s-32.667 -9.5 -50 -9.5z" />
    <glyph glyph-name="ibreve" unicode="&#x12d;" horiz-adv-x="255" 
d="M133 523h83l-83 -523h-83zM192 619c-37.333 0 -68.333 11.999 -93 35.999s-37 56 -37 96h66c2.66699 -21.333 9.16699 -37.333 19.5 -48s25.5 -16 45.5 -16c40.667 0 65 21.333 73 64h64c-1.33301 -19.333 -6 -37.166 -14 -53.499s-18.333 -30.333 -31 -42
s-27 -20.667 -43 -27s-32.667 -9.5 -50 -9.5z" />
    <glyph glyph-name="Iogonek" unicode="&#x12e;" horiz-adv-x="279" 
d="M71 -182c-13.333 0 -26.002 1.50098 -38.002 4.50098s-22.5 7.66699 -31.5 14s-16.167 14.666 -21.5 24.999s-8 22.833 -8 37.5c0 11.333 2.33301 22 7 32s10.834 19 18.501 27s16.167 15.167 25.5 21.5s19 12.166 29 17.499l114 718h87l-112 -709
c-8.66699 -5.33301 -18.167 -11.5 -28.5 -18.5s-19.833 -14.667 -28.5 -23s-16 -17.166 -22 -26.499s-9 -19 -9 -29c0 -20.667 12.333 -31 37 -31c16.667 0 32.667 3.33301 48 10l-9 -59c-6.66699 -2.66699 -14.667 -5.16699 -24 -7.5s-20.666 -3.5 -33.999 -3.5z" />
    <glyph glyph-name="iogonek" unicode="&#x12f;" horiz-adv-x="255" 
d="M127 523l83.001 0.00292969l-82 -517l-28 -18c-10 -6.66699 -19.333 -13.834 -28 -21.501s-15.834 -16.334 -21.501 -26.001s-8.5 -20.167 -8.5 -31.5c0 -20.667 11.667 -31 35 -31c16.667 0 32.667 3.33301 48 10l-9 -59c-6.66699 -2.66699 -14.667 -5.16699 -24 -7.5
s-20.666 -3.5 -33.999 -3.5c-12.667 0 -24.834 1.5 -36.501 4.5s-22 7.66699 -31 14s-16.167 14.666 -21.5 24.999s-8 22.833 -8 37.5c0 12 2.5 23.167 7.5 33.5s11.5 19.666 19.5 27.999s17 15.833 27 22.5s19.667 12.334 29 17.001zM192.001 632.003
c-15.333 0 -28.332 5.16699 -38.999 15.5s-16 23.166 -16 38.499s5.5 28.5 16.5 39.5s24.167 16.5 39.5 16.5s28.166 -5.16699 38.499 -15.5s15.5 -23.166 15.5 -38.499s-5.33301 -28.5 -16 -39.5s-23.667 -16.5 -39 -16.5z" />
    <glyph glyph-name="Idotaccent" unicode="&#x130;" horiz-adv-x="279" 
d="M172 715h87l-113 -715h-87zM231 787c-15.333 0 -28.332 5.16699 -38.999 15.5s-16 23.166 -16 38.499s5.5 28.5 16.5 39.5s24.167 16.5 39.5 16.5s28.166 -5.16699 38.499 -15.5s15.5 -23.166 15.5 -38.499s-5.33301 -28.5 -16 -39.5s-23.667 -16.5 -39 -16.5z" />
    <glyph glyph-name="dotlessi" unicode="&#x131;" horiz-adv-x="267" 
d="M133 523h83l-83 -523h-83z" />
    <glyph glyph-name="IJ" unicode="&#x132;" horiz-adv-x="657" 
d="M130 715h87l-113 -715h-87zM314 -9c-34 0 -59.334 3.00098 -76.001 9.00098s-29.667 11.667 -39 17l11 70c12.667 -6 26.834 -11.667 42.501 -17s35.167 -8 58.5 -8c36 0 64.333 10 85 30s34.667 52 42 96l83 527h87l-85 -535c-10.667 -66.667 -35 -114.834 -73 -144.501
s-83.333 -44.5 -136 -44.5z" />
    <glyph glyph-name="ij" unicode="&#x133;" horiz-adv-x="255" 
d="M198 632c-15.333 0 -28.332 5.16699 -38.999 15.5s-16 23.166 -16 38.499s5.5 28.5 16.5 39.5s24.167 16.5 39.5 16.5s28.166 -5.16699 38.499 -15.5s15.5 -23.166 15.5 -38.499s-5.33301 -28.5 -16 -39.5s-23.667 -16.5 -39 -16.5zM133.001 523h83l-83 -523h-83z
M209.001 -121c30 1.33301 51.499 8.83105 64.499 22.498s21.5 32.834 25.5 57.501l89 564h83l-90 -569c-7.33301 -45.333 -25.166 -80.666 -53.499 -105.999s-71.5 -38 -129.5 -38zM453 631.998c-15.333 0 -28.332 5.16699 -38.999 15.5s-16 23.166 -16 38.499
s5.5 28.5 16.5 39.5s24.167 16.5 39.5 16.5s28.166 -5.16699 38.499 -15.5s15.5 -23.166 15.5 -38.499s-5.33301 -28.5 -16 -39.5s-23.667 -16.5 -39 -16.5z" />
    <glyph glyph-name="Jcircumflex" unicode="&#x134;" horiz-adv-x="420" 
d="M119 -9c-34 0 -59.334 3.00098 -76.001 9.00098s-29.667 11.667 -39 17l11 70c12.667 -6 26.834 -11.667 42.501 -17s35.167 -8 58.5 -8c36 0 64.333 10 85 30s34.667 52 42 96l83 527h87l-85 -535c-10.667 -66.667 -35 -114.834 -73 -144.501s-83.333 -44.5 -136 -44.5z
M354.999 898.001h75l91 -127h-58l-77 58l-93 -58h-62z" />
    <glyph glyph-name="jcircumflex" unicode="&#x135;" horiz-adv-x="255" 
d="M-52 -121c30 1.33301 51.499 8.83105 64.499 22.498s21.5 32.834 25.5 57.501l89 564h83l-90 -569c-7.33301 -45.333 -25.166 -80.666 -53.499 -105.999s-71.5 -38 -129.5 -38zM162.999 756.998h75l86 -144h-58l-74 75l-96 -75h-62z" />
    <glyph glyph-name="uni0136" unicode="&#x136;" horiz-adv-x="616" 
d="M167 715h87l-54 -340l363 340h101l-373 -345l272 -370h-97l-268 359l-57 -359h-87zM181 -194l72 157l78 -24l-101 -159z" />
    <glyph glyph-name="uni0137" unicode="&#x137;" horiz-adv-x="511" 
d="M170 773h83l-76 -481l249 231h103l-264 -240l195 -283h-95l-190 279l-44 -279h-83zM135 -194l72 157l78 -24l-101 -159z" />
    <glyph glyph-name="Lacute" unicode="&#x139;" horiz-adv-x="535" 
d="M167 715h87l-102 -644h327l-11 -71h-414zM250 898h106l-108 -127h-66z" />
    <glyph glyph-name="lacute" unicode="&#x13a;" horiz-adv-x="256" 
d="M172 773h84l-122 -773h-84zM253 948h106l-108 -127h-66z" />
    <glyph glyph-name="uni013B" unicode="&#x13b;" horiz-adv-x="535" 
d="M167 715h87l-102 -644h327l-11 -71h-414zM147 -194l72 157l78 -24l-101 -159z" />
    <glyph glyph-name="uni013C" unicode="&#x13c;" horiz-adv-x="256" 
d="M172 773h84l-122 -773h-84zM-20 -194l72 157l78 -24l-101 -159z" />
    <glyph glyph-name="Lcaron" unicode="&#x13d;" horiz-adv-x="535" 
d="M427 715h95l-79 -157h-59zM161 715h87l-102 -644h327l-11 -71h-414z" />
    <glyph glyph-name="lcaron" unicode="&#x13e;" horiz-adv-x="256" 
d="M172 773h84l-122 -773h-84zM316 773h91l-70 -175h-59z" />
    <glyph glyph-name="Ldot" unicode="&#x13f;" horiz-adv-x="535" 
d="M167 715h87l-102 -644h327l-11 -71h-414zM454 320c-17.333 0 -32.332 6.16699 -44.999 18.5s-19 27.5 -19 45.5s6.16699 33.167 18.5 45.5s27.166 18.5 44.499 18.5s32.5 -6.16699 45.5 -18.5s19.5 -27.5 19.5 -45.5s-6.33301 -33.167 -19 -45.5s-27.667 -18.5 -45 -18.5
z" />
    <glyph glyph-name="ldot" unicode="&#x140;" horiz-adv-x="328" 
d="M172 773h84l-122 -773h-84zM313 303c-17.333 0 -32.332 6.16699 -44.999 18.5s-19 27.5 -19 45.5s6.16699 33.167 18.5 45.5s27.166 18.5 44.499 18.5s32.5 -6.16699 45.5 -18.5s19.5 -27.5 19.5 -45.5s-6.33301 -33.167 -19 -45.5s-27.667 -18.5 -45 -18.5z" />
    <glyph glyph-name="Lslash" unicode="&#x141;" horiz-adv-x="567" 
d="M56 319l72 25l59 371h87l-54 -339l211 73l-11 -71l-211 -73l-37 -234h327l-11 -71h-414l43 273l-72 -25z" />
    <glyph glyph-name="lslash" unicode="&#x142;" horiz-adv-x="288" 
d="M45 384l82 42l55 347h84l-48 -300l88 45l-13 -73l-86 -45l-63 -400h-84l56 353l-83 -42z" />
    <glyph glyph-name="Nacute" unicode="&#x143;" horiz-adv-x="724" 
d="M167 715h111l256 -591l94 591h83l-113 -715h-98l-266 613l-97 -613h-83zM488 898h106l-108 -127h-66z" />
    <glyph glyph-name="nacute" unicode="&#x144;" horiz-adv-x="592" 
d="M106 367c5.33301 35.333 8.83008 64.6689 10.4971 88.002s2.83398 46 3.50098 68h78c0 -14.667 -0.5 -31.334 -1.5 -50.001s-2.5 -36.667 -4.5 -54c18 32 42.333 58.833 73 80.5s67.334 32.5 110.001 32.5c27.333 0 51.833 -4 73.5 -12s39.334 -20.833 53.001 -38.5
s22.834 -40.334 27.501 -68.001s4 -61.167 -2 -100.5l-50 -313h-83l53 332c14 86 -16 129 -90 129c-22 0 -42.833 -3.5 -62.5 -10.5s-37.334 -17.333 -53.001 -31s-29 -30.167 -40 -49.5s-18.5 -41.333 -22.5 -66l-48 -304h-83zM387.997 760.003h108l-121 -147h-66z" />
    <glyph glyph-name="uni0145" unicode="&#x145;" horiz-adv-x="724" 
d="M167 715h111l256 -591l94 591h83l-113 -715h-98l-266 613l-97 -613h-83zM219 -194l72 157l78 -24l-101 -159z" />
    <glyph glyph-name="uni0146" unicode="&#x146;" horiz-adv-x="592" 
d="M106 367c5.33301 35.333 8.83008 64.6689 10.4971 88.002s2.83398 46 3.50098 68h78c0 -14.667 -0.5 -31.334 -1.5 -50.001s-2.5 -36.667 -4.5 -54c18 32 42.333 58.833 73 80.5s67.334 32.5 110.001 32.5c27.333 0 51.833 -4 73.5 -12s39.334 -20.833 53.001 -38.5
s22.834 -40.334 27.501 -68.001s4 -61.167 -2 -100.5l-50 -313h-83l53 332c14 86 -16 129 -90 129c-22 0 -42.833 -3.5 -62.5 -10.5s-37.334 -17.333 -53.001 -31s-29 -30.167 -40 -49.5s-18.5 -41.333 -22.5 -66l-48 -304h-83zM141.997 -193.997l72 157l78 -24l-101 -159z
" />
    <glyph glyph-name="Ncaron" unicode="&#x147;" horiz-adv-x="724" 
d="M167 715h111l256 -591l94 591h83l-113 -715h-98l-266 613l-97 -613h-83zM488 771h-75l-91 127h58l77 -58l93 58h62z" />
    <glyph glyph-name="ncaron" unicode="&#x148;" horiz-adv-x="592" 
d="M106 367c5.33301 35.333 8.83008 64.6689 10.4971 88.002s2.83398 46 3.50098 68h78c0 -14.667 -0.5 -31.334 -1.5 -50.001s-2.5 -36.667 -4.5 -54c18 32 42.333 58.833 73 80.5s67.334 32.5 110.001 32.5c27.333 0 51.833 -4 73.5 -12s39.334 -20.833 53.001 -38.5
s22.834 -40.334 27.501 -68.001s4 -61.167 -2 -100.5l-50 -313h-83l53 332c14 86 -16 129 -90 129c-22 0 -42.833 -3.5 -62.5 -10.5s-37.334 -17.333 -53.001 -31s-29 -30.167 -40 -49.5s-18.5 -41.333 -22.5 -66l-48 -304h-83zM381.997 613.003h-75l-86 144h58l74 -75
l96 75h62z" />
    <glyph glyph-name="napostrophe" unicode="&#x149;" horiz-adv-x="598" 
d="M112 367c5.33301 35.333 8.83008 64.6689 10.4971 88.002s2.83398 46 3.50098 68h78c0 -14.667 -0.5 -31.334 -1.5 -50.001s-2.5 -36.667 -4.5 -54c18 32 42.333 58.833 73 80.5s67.334 32.5 110.001 32.5c27.333 0 51.833 -4 73.5 -12s39.334 -20.833 53.001 -38.5
s22.834 -40.334 27.501 -68.001s4 -61.167 -2 -100.5l-50 -313h-83l53 332c14 86 -16 129 -90 129c-22 0 -42.833 -3.5 -62.5 -10.5s-37.334 -17.333 -53.001 -31s-29 -30.167 -40 -49.5s-18.5 -41.333 -22.5 -66l-48 -304h-83zM-2.00293 514.003l103 212l77 -36l-131 -202z
" />
    <glyph glyph-name="Eng" unicode="&#x14a;" horiz-adv-x="724" 
d="M374 -122c35.333 0 63.668 8.66797 85.001 26.001s36.333 46.333 45 87l-276 622l-97 -613h-83l113 715h114l256 -573l91 573h83l-112 -705c-6 -37.333 -15.333 -69 -28 -95s-28 -47 -46 -63s-38.5 -27.5 -61.5 -34.5s-47.833 -10.5 -74.5 -10.5
c-31.333 0 -55.5 2.66699 -72.5 8s-29.833 10.666 -38.5 15.999l11 70c12.667 -6.66699 25.667 -12.167 39 -16.5s30.666 -6.5 51.999 -6.5z" />
    <glyph glyph-name="eng" unicode="&#x14b;" horiz-adv-x="592" 
d="M100 367c5.33301 35.333 8.83203 64.6689 10.499 88.002s2.83398 46 3.50098 68h78c0 -14.667 -0.5 -31.334 -1.5 -50.001s-2.5 -36.667 -4.5 -54c18 32 42.333 58.833 73 80.5s67.334 32.5 110.001 32.5c27.333 0 51.833 -4 73.5 -12s39.334 -20.833 53.001 -38.5
s22.834 -40.334 27.501 -68.001s4 -61.167 -2 -100.5l-57 -359c-3.33301 -22 -9 -41.833 -17 -59.5s-19.167 -32.667 -33.5 -45s-32.333 -22 -54 -29s-47.834 -10.833 -78.501 -11.5l11 70c30 2 51.5 9.66699 64.5 23s21.5 33 25.5 59l59 371
c7.33301 44 3.16602 76.5 -12.501 97.5s-41.5 31.5 -77.5 31.5c-22 0 -42.833 -3.5 -62.5 -10.5s-37.334 -17.333 -53.001 -31s-29 -30.167 -40 -49.5s-18.5 -41.333 -22.5 -66l-48 -304h-83z" />
    <glyph glyph-name="Omacron" unicode="&#x14c;" horiz-adv-x="811" 
d="M779 402c0 -59.333 -9.83398 -114.166 -29.501 -164.499s-46.5 -93.666 -80.5 -129.999s-74 -64.833 -120 -85.5s-95.333 -31 -148 -31c-49.333 0 -94.166 8.16699 -134.499 24.5s-74.833 38.666 -103.5 66.999s-50.667 62.166 -66 101.499s-23 82 -23 128
c0 56.667 9.83301 110.167 29.5 160.5s46.667 94 81 131s75 66.333 122 88s97.5 32.5 151.5 32.5c51.333 0 97 -8.5 137 -25.5s73.667 -40.167 101 -69.5s48 -63.5 62 -102.5s21 -80.5 21 -124.5zM688.999 402c0 34.667 -5 67.332 -15 97.999s-24.833 57.334 -44.5 80.001
s-44 40.667 -73 54s-62.167 20 -99.5 20c-45.333 0 -86 -9.16699 -122 -27.5s-66.667 -43 -92 -74s-44.833 -67.333 -58.5 -109s-20.5 -85.5 -20.5 -131.5c0 -39.333 5.83301 -74.333 17.5 -105s28 -56.834 49 -78.501s46.167 -38.167 75.5 -49.5s61.333 -17 96 -17
c42.667 0 81.5 8.5 116.5 25.5s65.167 40.667 90.5 71s45 66.333 59 108s21 86.834 21 135.501zM365.999 849.998h266l-10 -64h-266z" />
    <glyph glyph-name="omacron" unicode="&#x14d;" horiz-adv-x="589" 
d="M277 -8c-36 0 -68.499 5.83496 -97.499 17.502s-53.5 27.834 -73.5 48.501s-35.333 45.167 -46 73.5s-16 59.166 -16 92.499c0 44 7.16699 84.667 21.5 122s34 69.666 59 96.999s54.333 48.833 88 64.5s70.167 23.5 109.5 23.5c36 0 68.5 -5.66699 97.5 -17
s53.667 -27.166 74 -47.499s35.833 -44.5 46.5 -72.5s16 -59 16 -93c0 -44.667 -6.83301 -85.834 -20.5 -123.501s-32.834 -70.334 -57.501 -98.001s-54.167 -49.167 -88.5 -64.5s-71.833 -23 -112.5 -23zM281.001 60.002c29.333 0 55.667 6 79 18s43 28.833 59 50.5
s28.333 47 37 76s13 60.5 13 94.5c0 50 -12.833 89.833 -38.5 119.5s-63.5 44.5 -113.5 44.5c-28 0 -53.5 -6 -76.5 -18s-42.667 -28.833 -59 -50.5s-29 -47 -38 -76s-13.5 -60.5 -13.5 -94.5c0 -50 12.333 -89.833 37 -119.5s62.667 -44.5 114 -44.5zM227.002 712.002h262
l-10 -64h-262z" />
    <glyph glyph-name="Obreve" unicode="&#x14e;" horiz-adv-x="811" 
d="M779 402c0 -59.333 -9.83398 -114.166 -29.501 -164.499s-46.5 -93.666 -80.5 -129.999s-74 -64.833 -120 -85.5s-95.333 -31 -148 -31c-49.333 0 -94.166 8.16699 -134.499 24.5s-74.833 38.666 -103.5 66.999s-50.667 62.166 -66 101.499s-23 82 -23 128
c0 56.667 9.83301 110.167 29.5 160.5s46.667 94 81 131s75 66.333 122 88s97.5 32.5 151.5 32.5c51.333 0 97 -8.5 137 -25.5s73.667 -40.167 101 -69.5s48 -63.5 62 -102.5s21 -80.5 21 -124.5zM688.999 402c0 34.667 -5 67.332 -15 97.999s-24.833 57.334 -44.5 80.001
s-44 40.667 -73 54s-62.167 20 -99.5 20c-45.333 0 -86 -9.16699 -122 -27.5s-66.667 -43 -92 -74s-44.833 -67.333 -58.5 -109s-20.5 -85.5 -20.5 -131.5c0 -39.333 5.83301 -74.333 17.5 -105s28 -56.834 49 -78.501s46.167 -38.167 75.5 -49.5s61.333 -17 96 -17
c42.667 0 81.5 8.5 116.5 25.5s65.167 40.667 90.5 71s45 66.333 59 108s21 86.834 21 135.501zM488.999 766.998c-37.333 0 -68.333 11.999 -93 35.999s-37 56 -37 96h66c2.66699 -21.333 9.16699 -37.333 19.5 -48s25.5 -16 45.5 -16c40.667 0 65 21.333 73 64h64
c-1.33301 -19.333 -6 -37.166 -14 -53.499s-18.333 -30.333 -31 -42s-27 -20.667 -43 -27s-32.667 -9.5 -50 -9.5z" />
    <glyph glyph-name="obreve" unicode="&#x14f;" horiz-adv-x="589" 
d="M277 -8c-36 0 -68.499 5.83496 -97.499 17.502s-53.5 27.834 -73.5 48.501s-35.333 45.167 -46 73.5s-16 59.166 -16 92.499c0 44 7.16699 84.667 21.5 122s34 69.666 59 96.999s54.333 48.833 88 64.5s70.167 23.5 109.5 23.5c36 0 68.5 -5.66699 97.5 -17
s53.667 -27.166 74 -47.499s35.833 -44.5 46.5 -72.5s16 -59 16 -93c0 -44.667 -6.83301 -85.834 -20.5 -123.501s-32.834 -70.334 -57.501 -98.001s-54.167 -49.167 -88.5 -64.5s-71.833 -23 -112.5 -23zM281.001 60.002c29.333 0 55.667 6 79 18s43 28.833 59 50.5
s28.333 47 37 76s13 60.5 13 94.5c0 50 -12.833 89.833 -38.5 119.5s-63.5 44.5 -113.5 44.5c-28 0 -53.5 -6 -76.5 -18s-42.667 -28.833 -59 -50.5s-29 -47 -38 -76s-13.5 -60.5 -13.5 -94.5c0 -50 12.333 -89.833 37 -119.5s62.667 -44.5 114 -44.5zM346.002 619.002
c-37.333 0 -68.333 11.999 -93 35.999s-37 56 -37 96h66c2.66699 -21.333 9.16699 -37.333 19.5 -48s25.5 -16 45.5 -16c40.667 0 65 21.333 73 64h64c-1.33301 -19.333 -6 -37.166 -14 -53.499s-18.333 -30.333 -31 -42s-27 -20.667 -43 -27s-32.667 -9.5 -50 -9.5z" />
    <glyph glyph-name="Ohungarumlaut" unicode="&#x150;" horiz-adv-x="811" 
d="M779 402c0 -59.333 -9.83398 -114.166 -29.501 -164.499s-46.5 -93.666 -80.5 -129.999s-74 -64.833 -120 -85.5s-95.333 -31 -148 -31c-49.333 0 -94.166 8.16699 -134.499 24.5s-74.833 38.666 -103.5 66.999s-50.667 62.166 -66 101.499s-23 82 -23 128
c0 56.667 9.83301 110.167 29.5 160.5s46.667 94 81 131s75 66.333 122 88s97.5 32.5 151.5 32.5c51.333 0 97 -8.5 137 -25.5s73.667 -40.167 101 -69.5s48 -63.5 62 -102.5s21 -80.5 21 -124.5zM688.999 402c0 34.667 -5 67.332 -15 97.999s-24.833 57.334 -44.5 80.001
s-44 40.667 -73 54s-62.167 20 -99.5 20c-45.333 0 -86 -9.16699 -122 -27.5s-66.667 -43 -92 -74s-44.833 -67.333 -58.5 -109s-20.5 -85.5 -20.5 -131.5c0 -39.333 5.83301 -74.333 17.5 -105s28 -56.834 49 -78.501s46.167 -38.167 75.5 -49.5s61.333 -17 96 -17
c42.667 0 81.5 8.5 116.5 25.5s65.167 40.667 90.5 71s45 66.333 59 108s21 86.834 21 135.501zM413.999 897.998h96l-81 -127h-61zM567.999 897.998h96l-81 -127h-61z" />
    <glyph glyph-name="ohungarumlaut" unicode="&#x151;" horiz-adv-x="589" 
d="M277 -8c-36 0 -68.499 5.83496 -97.499 17.502s-53.5 27.834 -73.5 48.501s-35.333 45.167 -46 73.5s-16 59.166 -16 92.499c0 44 7.16699 84.667 21.5 122s34 69.666 59 96.999s54.333 48.833 88 64.5s70.167 23.5 109.5 23.5c36 0 68.5 -5.66699 97.5 -17
s53.667 -27.166 74 -47.499s35.833 -44.5 46.5 -72.5s16 -59 16 -93c0 -44.667 -6.83301 -85.834 -20.5 -123.501s-32.834 -70.334 -57.501 -98.001s-54.167 -49.167 -88.5 -64.5s-71.833 -23 -112.5 -23zM281.001 60.002c29.333 0 55.667 6 79 18s43 28.833 59 50.5
s28.333 47 37 76s13 60.5 13 94.5c0 50 -12.833 89.833 -38.5 119.5s-63.5 44.5 -113.5 44.5c-28 0 -53.5 -6 -76.5 -18s-42.667 -28.833 -59 -50.5s-29 -47 -38 -76s-13.5 -60.5 -13.5 -94.5c0 -50 12.333 -89.833 37 -119.5s62.667 -44.5 114 -44.5zM287.002 760.002h96
l-88 -147h-61zM441.002 760.002h96l-88 -147h-61z" />
    <glyph glyph-name="OE" unicode="&#x152;" horiz-adv-x="972" 
d="M412 0c-59.333 0 -110.168 7.66797 -152.501 23.001s-77.166 36.666 -104.499 63.999s-47.666 59.666 -60.999 96.999s-20 78 -20 122c0 56.667 9 109.834 27 159.501s44.5 93 79.5 130s78.167 66.167 129.5 87.5s110.666 32 177.999 32h486l-12 -71h-310l-38 -243h250
l-11 -71h-250l-41 -259h332l-11 -71h-471zM490.998 644.001c-51.333 0 -97.334 -7.66602 -138.001 -22.999s-75 -37.5 -103 -66.5s-49.5 -64.333 -64.5 -106s-22.5 -88.834 -22.5 -141.501c0 -34 4.66699 -65.5 14 -94.5s24.333 -54 45 -75s46.834 -37.5 78.501 -49.5
s70.167 -18 115.5 -18h59l90 574h-74z" />
    <glyph glyph-name="oe" unicode="&#x153;" horiz-adv-x="986" 
d="M550 211c0 -48 11.5029 -85.165 34.5029 -111.498s59.5 -39.5 109.5 -39.5c36.667 0 67.334 7.66699 92.001 23s42 38 52 68h83c-8 -27.333 -19.5 -51 -34.5 -71s-32.5 -36.5 -52.5 -49.5s-42.167 -22.833 -66.5 -29.5s-49.833 -10 -76.5 -10
c-51.333 0 -93.333 10.833 -126 32.5s-56.334 51.5 -71.001 89.5c-23.333 -38 -53.5 -67.667 -90.5 -89s-79.167 -32 -126.5 -32c-36 0 -68.5 5.83301 -97.5 17.5s-53.5 27.834 -73.5 48.501s-35.333 45.167 -46 73.5s-16 59.166 -16 92.499c0 44 7.16699 84.667 21.5 122
s34 69.666 59 96.999s54.333 48.833 88 64.5s70.167 23.5 109.5 23.5c50 0 92.167 -11.333 126.5 -34s59.5 -53.334 75.5 -92.001c23.333 39.333 53.166 70.166 89.499 92.499s77.833 33.5 124.5 33.5c35.333 0 67.166 -5.5 95.499 -16.5s51.666 -27.667 69.999 -50
s30.833 -50.166 37.5 -83.499s6.66699 -72.333 0 -117l-3 -19h-387c-0.666992 -5.33301 -1 -11 -1 -17v-17zM281.003 60.002c29.333 0 55.667 6 79 18s43 28.833 59 50.5s28.333 47 37 76s13 60.5 13 94.5c0 50 -12.833 89.833 -38.5 119.5s-63.5 44.5 -113.5 44.5
c-28 0 -53.5 -6 -76.5 -18s-42.667 -28.833 -59 -50.5s-29 -47 -38 -76s-13.5 -60.5 -13.5 -94.5c0 -50 12.333 -89.833 37 -119.5s62.667 -44.5 114 -44.5zM733.004 463.002c-18.667 0 -36.832 -2.83301 -54.499 -8.5s-34.167 -14.667 -49.5 -27s-28.833 -28 -40.5 -47
s-20.834 -41.833 -27.501 -68.5h303c4 52.667 -4.83301 91 -26.5 115s-56.5 36 -104.5 36z" />
    <glyph glyph-name="Racute" unicode="&#x154;" horiz-adv-x="628" 
d="M167 715l210.999 0.000976562c31.333 0 60.333 -3.83301 87 -11.5s49.834 -19 69.501 -34s35 -34 46 -57s16.167 -49.5 15.5 -79.5c0 -32.667 -5.33301 -61.5 -16 -86.5s-25.167 -46.333 -43.5 -64s-40 -31.834 -65 -42.501s-51.5 -18 -79.5 -22l175 -318h-94l-170 311
h-113l-49 -311h-87zM334.999 380.001c116.667 0 175 51 175 153c0.666992 40 -11 68.667 -35 86s-58 26 -102 26h-130l-42 -265h134zM406.999 898.001h106l-108 -127h-66z" />
    <glyph glyph-name="racute" unicode="&#x155;" horiz-adv-x="374" 
d="M106 367c5.33301 35.333 8.83105 64.666 10.498 87.999s2.83398 46 3.50098 68h78c0 -14.667 -0.5 -31.167 -1.5 -49.5s-2.5 -37.5 -4.5 -57.5c10.667 17.333 22 33 34 47s25.5 26 40.5 36s32 17.833 51 23.5s41.5 8.83398 67.5 9.50098l-12 -78
c-26 -1.33301 -50.167 -5.33301 -72.5 -12s-42 -17 -59 -31s-31.167 -32.333 -42.5 -55s-19.666 -50.667 -24.999 -84l-43 -272h-83zM309.998 760h108l-121 -147h-66z" />
    <glyph glyph-name="uni0156" unicode="&#x156;" horiz-adv-x="628" 
d="M167 715l210.999 0.000976562c31.333 0 60.333 -3.83301 87 -11.5s49.834 -19 69.501 -34s35 -34 46 -57s16.167 -49.5 15.5 -79.5c0 -32.667 -5.33301 -61.5 -16 -86.5s-25.167 -46.333 -43.5 -64s-40 -31.834 -65 -42.501s-51.5 -18 -79.5 -22l175 -318h-94l-170 311
h-113l-49 -311h-87zM334.999 380.001c116.667 0 175 51 175 153c0.666992 40 -11 68.667 -35 86s-58 26 -102 26h-130l-42 -265h134zM185.999 -193.999l72 157l78 -24l-101 -159z" />
    <glyph glyph-name="uni0157" unicode="&#x157;" horiz-adv-x="374" 
d="M106 367c5.33301 35.333 8.83105 64.666 10.498 87.999s2.83398 46 3.50098 68h78c0 -14.667 -0.5 -31.167 -1.5 -49.5s-2.5 -37.5 -4.5 -57.5c10.667 17.333 22 33 34 47s25.5 26 40.5 36s32 17.833 51 23.5s41.5 8.83398 67.5 9.50098l-12 -78
c-26 -1.33301 -50.167 -5.33301 -72.5 -12s-42 -17 -59 -31s-31.167 -32.333 -42.5 -55s-19.666 -50.667 -24.999 -84l-43 -272h-83zM-26.002 -194l72 157l78 -24l-101 -159z" />
    <glyph glyph-name="Rcaron" unicode="&#x158;" horiz-adv-x="628" 
d="M167 715l210.999 0.000976562c31.333 0 60.333 -3.83301 87 -11.5s49.834 -19 69.501 -34s35 -34 46 -57s16.167 -49.5 15.5 -79.5c0 -32.667 -5.33301 -61.5 -16 -86.5s-25.167 -46.333 -43.5 -64s-40 -31.834 -65 -42.501s-51.5 -18 -79.5 -22l175 -318h-94l-170 311
h-113l-49 -311h-87zM334.999 380.001c116.667 0 175 51 175 153c0.666992 40 -11 68.667 -35 86s-58 26 -102 26h-130l-42 -265h134zM399.999 771.001h-75l-91 127h58l77 -58l93 58h62z" />
    <glyph glyph-name="rcaron" unicode="&#x159;" horiz-adv-x="374" 
d="M106 367c5.33301 35.333 8.83105 64.666 10.498 87.999s2.83398 46 3.50098 68h78c0 -14.667 -0.5 -31.167 -1.5 -49.5s-2.5 -37.5 -4.5 -57.5c10.667 17.333 22 33 34 47s25.5 26 40.5 36s32 17.833 51 23.5s41.5 8.83398 67.5 9.50098l-12 -78
c-26 -1.33301 -50.167 -5.33301 -72.5 -12s-42 -17 -59 -31s-31.167 -32.333 -42.5 -55s-19.666 -50.667 -24.999 -84l-43 -272h-83zM298.998 613h-75l-86 144h58l74 -75l96 75h62z" />
    <glyph glyph-name="Sacute" unicode="&#x15a;" horiz-adv-x="627" 
d="M306 -9c-45.333 0 -84.498 6.33301 -117.498 19s-60.5 29.5 -82.5 50.5s-38.5 45.167 -49.5 72.5s-16.5 55.666 -16.5 84.999h86c0.666992 -20 4.66699 -39.5 12 -58.5s18.333 -35.667 33 -50s33.5 -26 56.5 -35s50.833 -13.5 83.5 -13.5
c54 -0.666992 95.5 11.833 124.5 37.5s43.5 60.167 43.5 103.5c0 16 -2.33301 30.333 -7 43s-13 24 -25 34s-27.833 19.333 -47.5 28s-44.5 17.334 -74.5 26.001c-34 10 -63.833 20.5 -89.5 31.5s-47.334 23.833 -65.001 38.5s-31 32 -40 52s-13.5 43.667 -13.5 71
c0 26.667 5.66699 52 17 76s27.333 45 48 63s45.834 32.333 75.501 43s62.834 16 99.501 16c34.667 0 66 -4.33301 94 -13s52 -21.334 72 -38.001s35.667 -37.167 47 -61.5s17.333 -52.5 18 -84.5h-80c-4.66699 47.333 -21.167 80.333 -49.5 99s-64.833 28 -109.5 28
c-26 0 -48.333 -3.16699 -67 -9.5s-34 -15.166 -46 -26.499s-21 -24.666 -27 -39.999s-9 -31.666 -9 -48.999c0 -14 2.33301 -26.5 7 -37.5s12.667 -21.167 24 -30.5s27 -18.333 47 -27s45.667 -17.667 77 -27c35.333 -10.667 66.166 -21.834 92.499 -33.501
s48.166 -25.167 65.499 -40.5s30.166 -32.833 38.499 -52.5s12.5 -42.834 12.5 -69.501c0 -31.333 -6 -60.5 -18 -87.5s-29.167 -50.333 -51.5 -70s-49.333 -35 -81 -46s-67.5 -16.5 -107.5 -16.5zM413.002 898h106l-108 -127h-66z" />
    <glyph glyph-name="sacute" unicode="&#x15b;" horiz-adv-x="480" 
d="M235 -9c-34.667 0 -64.6729 4.66797 -90.0059 14.001s-46.333 21.833 -63 37.5s-29.167 33.667 -37.5 54s-12.833 41.833 -13.5 64.5h81c0.666992 -14 3.33398 -27.167 8.00098 -39.5s11.834 -23 21.501 -32s22.334 -16.167 38.001 -21.5s35.167 -8 58.5 -8
c36.667 0 63.667 7.5 81 22.5s26 36.167 26 63.5c0 22.667 -7.83301 40 -23.5 52s-43.167 23 -82.5 33c-29.333 7.33301 -54.166 15.5 -74.499 24.5s-36.666 19.5 -48.999 31.5s-21.333 25.5 -27 40.5s-8.5 32.5 -8.5 52.5c0 24.667 5 46.5 15 65.5s23.5 35 40.5 48
s36.5 22.667 58.5 29s44.667 9.5 68 9.5c25.333 0 49 -2.83301 71 -8.5s41.167 -14.667 57.5 -27s29.5 -28 39.5 -47s15.667 -41.833 17 -68.5h-78c-1.33301 25.333 -11.666 45.333 -30.999 60s-45.333 22 -78 22s-57.834 -6.83301 -75.501 -20.5
s-26.5 -32.834 -26.5 -57.501c0 -10 1.66699 -18.833 5 -26.5s9 -14.667 17 -21s18.833 -12.166 32.5 -17.499s30.834 -10.333 51.501 -15c26 -6.66699 49 -14 69 -22s37 -17.833 51 -29.5s24.5 -25.834 31.5 -42.501s10.5 -37 10.5 -61c0 -48 -17.167 -86.5 -51.5 -115.5
s-80.833 -43.5 -139.5 -43.5zM323.994 760.001h108l-121 -147h-66z" />
    <glyph glyph-name="Scircumflex" unicode="&#x15c;" horiz-adv-x="627" 
d="M306 -9c-45.333 0 -84.498 6.33301 -117.498 19s-60.5 29.5 -82.5 50.5s-38.5 45.167 -49.5 72.5s-16.5 55.666 -16.5 84.999h86c0.666992 -20 4.66699 -39.5 12 -58.5s18.333 -35.667 33 -50s33.5 -26 56.5 -35s50.833 -13.5 83.5 -13.5
c54 -0.666992 95.5 11.833 124.5 37.5s43.5 60.167 43.5 103.5c0 16 -2.33301 30.333 -7 43s-13 24 -25 34s-27.833 19.333 -47.5 28s-44.5 17.334 -74.5 26.001c-34 10 -63.833 20.5 -89.5 31.5s-47.334 23.833 -65.001 38.5s-31 32 -40 52s-13.5 43.667 -13.5 71
c0 26.667 5.66699 52 17 76s27.333 45 48 63s45.834 32.333 75.501 43s62.834 16 99.501 16c34.667 0 66 -4.33301 94 -13s52 -21.334 72 -38.001s35.667 -37.167 47 -61.5s17.333 -52.5 18 -84.5h-80c-4.66699 47.333 -21.167 80.333 -49.5 99s-64.833 28 -109.5 28
c-26 0 -48.333 -3.16699 -67 -9.5s-34 -15.166 -46 -26.499s-21 -24.666 -27 -39.999s-9 -31.666 -9 -48.999c0 -14 2.33301 -26.5 7 -37.5s12.667 -21.167 24 -30.5s27 -18.333 47 -27s45.667 -17.667 77 -27c35.333 -10.667 66.166 -21.834 92.499 -33.501
s48.166 -25.167 65.499 -40.5s30.166 -32.833 38.499 -52.5s12.5 -42.834 12.5 -69.501c0 -31.333 -6 -60.5 -18 -87.5s-29.167 -50.333 -51.5 -70s-49.333 -35 -81 -46s-67.5 -16.5 -107.5 -16.5zM358.002 898h75l91 -127h-58l-77 58l-93 -58h-62z" />
    <glyph glyph-name="scircumflex" unicode="&#x15d;" horiz-adv-x="480" 
d="M235 -9c-34.667 0 -64.6729 4.66797 -90.0059 14.001s-46.333 21.833 -63 37.5s-29.167 33.667 -37.5 54s-12.833 41.833 -13.5 64.5h81c0.666992 -14 3.33398 -27.167 8.00098 -39.5s11.834 -23 21.501 -32s22.334 -16.167 38.001 -21.5s35.167 -8 58.5 -8
c36.667 0 63.667 7.5 81 22.5s26 36.167 26 63.5c0 22.667 -7.83301 40 -23.5 52s-43.167 23 -82.5 33c-29.333 7.33301 -54.166 15.5 -74.499 24.5s-36.666 19.5 -48.999 31.5s-21.333 25.5 -27 40.5s-8.5 32.5 -8.5 52.5c0 24.667 5 46.5 15 65.5s23.5 35 40.5 48
s36.5 22.667 58.5 29s44.667 9.5 68 9.5c25.333 0 49 -2.83301 71 -8.5s41.167 -14.667 57.5 -27s29.5 -28 39.5 -47s15.667 -41.833 17 -68.5h-78c-1.33301 25.333 -11.666 45.333 -30.999 60s-45.333 22 -78 22s-57.834 -6.83301 -75.501 -20.5
s-26.5 -32.834 -26.5 -57.501c0 -10 1.66699 -18.833 5 -26.5s9 -14.667 17 -21s18.833 -12.166 32.5 -17.499s30.834 -10.333 51.501 -15c26 -6.66699 49 -14 69 -22s37 -17.833 51 -29.5s24.5 -25.834 31.5 -42.501s10.5 -37 10.5 -61c0 -48 -17.167 -86.5 -51.5 -115.5
s-80.833 -43.5 -139.5 -43.5zM261.994 757.001h75l86 -144h-58l-74 75l-96 -75h-62z" />
    <glyph glyph-name="uni015E" unicode="&#x15e;" horiz-adv-x="627" 
d="M232 -214c-26 0 -48.3291 6.83008 -66.9961 20.4971s-29.334 34.834 -32.001 63.501h56c1.33301 -10 5.5 -18.5 12.5 -25.5s16.833 -10.5 29.5 -10.5c10.667 0 20 2.83301 28 8.5s12 15.5 12 29.5c0 10 -3.33301 17.833 -10 23.5s-15 8.5 -25 8.5
c-6 0 -11 -0.833008 -15 -2.5s-7.66699 -3.5 -11 -5.5l-27 30l54 70c-34 5.33301 -63.667 15 -89 29s-46.5 31 -63.5 51s-29.667 42.167 -38 66.5s-12.5 49.5 -12.5 75.5h86c0.666992 -20 4.66699 -39.5 12 -58.5s18.333 -35.667 33 -50s33.5 -26 56.5 -35
s50.833 -13.5 83.5 -13.5c54 -0.666992 95.5 11.833 124.5 37.5s43.5 60.167 43.5 103.5c0 16 -2.33301 30.333 -7 43s-13 24 -25 34s-27.833 19.333 -47.5 28s-44.5 17.334 -74.5 26.001c-34 10 -63.833 20.5 -89.5 31.5s-47.334 23.833 -65.001 38.5s-31 32 -40 52
s-13.5 43.667 -13.5 71c0 26.667 5.66699 52 17 76s27.333 45 48 63s45.834 32.333 75.501 43s62.834 16 99.501 16c34.667 0 66 -4.33301 94 -13s52 -21.334 72 -38.001s35.667 -37.167 47 -61.5s17.333 -52.5 18 -84.5h-80c-4.66699 47.333 -21.167 80.333 -49.5 99
s-64.833 28 -109.5 28c-26 0 -48.333 -3.16699 -67 -9.5s-34 -15.166 -46 -26.499s-21 -24.666 -27 -39.999s-9 -31.666 -9 -48.999c0 -14 2.33301 -26.5 7 -37.5s12.667 -21.167 24 -30.5s27 -18.333 47 -27s45.667 -17.667 77 -27
c35.333 -10.667 66.166 -21.834 92.499 -33.501s48.166 -25.167 65.499 -40.5s30.166 -32.833 38.499 -52.5s12.5 -42.834 12.5 -69.501c0 -31.333 -6 -60.5 -18 -87.5s-29.167 -50.333 -51.5 -70s-49.333 -35 -81 -46s-67.5 -16.5 -107.5 -16.5h-14l-33 -44
c20 2 38.5 -3.16699 55.5 -15.5s25.5 -31.166 25.5 -56.499c0 -29.333 -9.33301 -51.5 -28 -66.5s-43.334 -22.5 -74.001 -22.5z" />
    <glyph glyph-name="uni015F" unicode="&#x15f;" horiz-adv-x="480" 
d="M169 -214c-26 0 -48.3369 6.83203 -67.0039 20.499s-29.334 34.834 -32.001 63.501h56c1.33301 -10 5.5 -18.5 12.5 -25.5s16.833 -10.5 29.5 -10.5c10.667 0 20 2.83301 28 8.5s12 15.5 12 29.5c0 10 -3.33301 17.833 -10 23.5s-15 8.5 -25 8.5
c-6 0 -11 -0.833008 -15 -2.5s-7.66699 -3.5 -11 -5.5l-27 30l53 70c-50 9.33301 -87 29.5 -111 60.5s-36.333 65.833 -37 104.5h81c0.666992 -14 3.33398 -27.167 8.00098 -39.5s11.834 -23 21.501 -32s22.334 -16.167 38.001 -21.5s35.167 -8 58.5 -8
c36.667 0 63.667 7.5 81 22.5s26 36.167 26 63.5c0 22.667 -7.83301 40 -23.5 52s-43.167 23 -82.5 33c-29.333 7.33301 -54.166 15.5 -74.499 24.5s-36.666 19.5 -48.999 31.5s-21.333 25.5 -27 40.5s-8.5 32.5 -8.5 52.5c0 24.667 5 46.5 15 65.5s23.5 35 40.5 48
s36.5 22.667 58.5 29s44.667 9.5 68 9.5c25.333 0 49 -2.83301 71 -8.5s41.167 -14.667 57.5 -27s29.5 -28 39.5 -47s15.667 -41.833 17 -68.5h-78c-1.33301 25.333 -11.666 45.333 -30.999 60s-45.333 22 -78 22s-57.834 -6.83301 -75.501 -20.5
s-26.5 -32.834 -26.5 -57.501c0 -10 1.66699 -18.833 5 -26.5s9 -14.667 17 -21s18.833 -12.166 32.5 -17.499s30.834 -10.333 51.501 -15c26 -6.66699 49 -14 69 -22s37 -17.833 51 -29.5s24.5 -25.834 31.5 -42.501s10.5 -37 10.5 -61c0 -48 -17.167 -86.5 -51.5 -115.5
s-80.833 -43.5 -139.5 -43.5h-6l-33 -44c20 2 38.5 -3.16699 55.5 -15.5s25.5 -31.166 25.5 -56.499c0 -29.333 -9.33301 -51.5 -28 -66.5s-43.334 -22.5 -74.001 -22.5z" />
    <glyph glyph-name="Scaron" unicode="&#x160;" horiz-adv-x="639" 
d="M306 -9c-45.333 0 -84.498 6.33301 -117.498 19s-60.5 29.5 -82.5 50.5s-38.5 45.167 -49.5 72.5s-16.5 55.666 -16.5 84.999h86c0.666992 -20 4.66699 -39.5 12 -58.5s18.333 -35.667 33 -50s33.5 -26 56.5 -35s50.833 -13.5 83.5 -13.5
c54 -0.666992 95.5 11.833 124.5 37.5s43.5 60.167 43.5 103.5c0 16 -2.33301 30.333 -7 43s-13 24 -25 34s-27.833 19.333 -47.5 28s-44.5 17.334 -74.5 26.001c-34 10 -63.833 20.5 -89.5 31.5s-47.334 23.833 -65.001 38.5s-31 32 -40 52s-13.5 43.667 -13.5 71
c0 26.667 5.66699 52 17 76s27.333 45 48 63s45.834 32.333 75.501 43s62.834 16 99.501 16c34.667 0 66 -4.33301 94 -13s52 -21.334 72 -38.001s35.667 -37.167 47 -61.5s17.333 -52.5 18 -84.5h-80c-4.66699 47.333 -21.167 80.333 -49.5 99s-64.833 28 -109.5 28
c-26 0 -48.333 -3.16699 -67 -9.5s-34 -15.166 -46 -26.499s-21 -24.666 -27 -39.999s-9 -31.666 -9 -48.999c0 -14 2.33301 -26.5 7 -37.5s12.667 -21.167 24 -30.5s27 -18.333 47 -27s45.667 -17.667 77 -27c35.333 -10.667 66.166 -21.834 92.499 -33.501
s48.166 -25.167 65.499 -40.5s30.166 -32.833 38.499 -52.5s12.5 -42.834 12.5 -69.501c0 -31.333 -6 -60.5 -18 -87.5s-29.167 -50.333 -51.5 -70s-49.333 -35 -81 -46s-67.5 -16.5 -107.5 -16.5zM402.002 771h-75l-91 127h58l77 -58l93 58h62z" />
    <glyph glyph-name="scaron" unicode="&#x161;" horiz-adv-x="492" 
d="M235 -9c-34.667 0 -64.6729 4.66797 -90.0059 14.001s-46.333 21.833 -63 37.5s-29.167 33.667 -37.5 54s-12.833 41.833 -13.5 64.5h81c0.666992 -14 3.33398 -27.167 8.00098 -39.5s11.834 -23 21.501 -32s22.334 -16.167 38.001 -21.5s35.167 -8 58.5 -8
c36.667 0 63.667 7.5 81 22.5s26 36.167 26 63.5c0 22.667 -7.83301 40 -23.5 52s-43.167 23 -82.5 33c-29.333 7.33301 -54.166 15.5 -74.499 24.5s-36.666 19.5 -48.999 31.5s-21.333 25.5 -27 40.5s-8.5 32.5 -8.5 52.5c0 24.667 5 46.5 15 65.5s23.5 35 40.5 48
s36.5 22.667 58.5 29s44.667 9.5 68 9.5c25.333 0 49 -2.83301 71 -8.5s41.167 -14.667 57.5 -27s29.5 -28 39.5 -47s15.667 -41.833 17 -68.5h-78c-1.33301 25.333 -11.666 45.333 -30.999 60s-45.333 22 -78 22s-57.834 -6.83301 -75.501 -20.5
s-26.5 -32.834 -26.5 -57.501c0 -10 1.66699 -18.833 5 -26.5s9 -14.667 17 -21s18.833 -12.166 32.5 -17.499s30.834 -10.333 51.501 -15c26 -6.66699 49 -14 69 -22s37 -17.833 51 -29.5s24.5 -25.834 31.5 -42.501s10.5 -37 10.5 -61c0 -48 -17.167 -86.5 -51.5 -115.5
s-80.833 -43.5 -139.5 -43.5zM318.994 613.001h-75l-86 144h58l74 -75l96 75h62z" />
    <glyph glyph-name="Tcommaaccent" unicode="&#x162;" horiz-adv-x="561" 
d="M301 644h-208l12 71h503l-12 -71h-208l-101 -644h-87zM131 -194l72 157l78 -24l-101 -159z" />
    <glyph glyph-name="tcommaaccent" unicode="&#x163;" horiz-adv-x="343" 
d="M210 -7c-26 0 -47.833 3.83496 -65.5 11.502s-31.5 18.167 -41.5 31.5s-16.667 29.166 -20 47.499s-3.33301 38.166 0 59.499l49 310h-75l11 70h75l19 119h83l-19 -119h119l-11 -70h-119l-50 -313c-4.66699 -28.667 -2 -48.667 8 -60s26.667 -17 50 -17
c21.333 0 42 3.66699 62 11l-11 -69c-18 -8 -39.333 -12 -64 -12zM47 -193.998l72 157l78 -24l-101 -159z" />
    <glyph glyph-name="Tcaron" unicode="&#x164;" horiz-adv-x="561" 
d="M301 644h-208l12 71h503l-12 -71h-208l-101 -644h-87zM393 771h-75l-91 127h58l77 -58l93 58h62z" />
    <glyph glyph-name="tcaron" unicode="&#x165;" horiz-adv-x="343" 
d="M210 -7c-26 0 -47.833 3.83496 -65.5 11.502s-31.5 18.167 -41.5 31.5s-16.667 29.166 -20 47.499s-3.33301 38.166 0 59.499l49 310h-75l11 70h75l19 119h83l-19 -119h119l-11 -70h-119l-50 -313c-4.66699 -28.667 -2 -48.667 8 -60s26.667 -17 50 -17
c21.333 0 42 3.66699 62 11l-11 -69c-18 -8 -39.333 -12 -64 -12zM355 773.002h91l-70 -175h-59z" />
    <glyph glyph-name="Tbar" unicode="&#x166;" horiz-adv-x="561" 
d="M114 404h143l38 240h-208l12 71h503l-12 -71h-208l-38 -240h145l-10 -66h-145l-53 -338h-87l53 338h-143z" />
    <glyph glyph-name="tbar" unicode="&#x167;" horiz-adv-x="343" 
d="M33 339l75 0.00195312l18 114h-75l11 70h75l19 119h83l-19 -119h119l-11 -70h-119l-18 -114h119l-9 -59h-120l-22 -140c-4.66699 -28.667 -2 -48.667 8 -60s26.667 -17 50 -17c21.333 0 42 3.66699 62 11l-11 -69c-18 -8 -39.333 -12 -64 -12
c-26 0 -47.833 3.83301 -65.5 11.5s-31.5 18.167 -41.5 31.5s-16.667 29.166 -20 47.499s-3.33301 38.166 0 59.499l21 137h-74z" />
    <glyph glyph-name="Utilde" unicode="&#x168;" horiz-adv-x="696" 
d="M331 -9c-90.667 0 -157 24.3311 -199 72.998s-55.333 121.667 -40 219l69 432h87l-69 -433c-12.667 -79.333 -5.66699 -135.666 21 -168.999s71.667 -50 135 -50c53.333 0 96.333 15 129 45s54.667 81 66 153l72 454h87l-74 -466
c-6 -39.333 -16.167 -74.833 -30.5 -106.5s-33.166 -58.667 -56.499 -81s-51.333 -39.666 -84 -51.999s-70.334 -18.5 -113.001 -18.5zM496 773.998c-12 0 -23.166 2.16699 -33.499 6.5s-20 9.33301 -29 15s-17.5 10.667 -25.5 15s-15.667 6.5 -23 6.5
c-9.33301 0 -18.5 -4 -27.5 -12s-15.167 -19 -18.5 -33h-60c7.33301 36.667 20.5 65.167 39.5 85.5s41.5 30.5 67.5 30.5c11.333 0 22.166 -2.16699 32.499 -6.5s20 -9.33301 29 -15s17.5 -10.667 25.5 -15s15.667 -6.5 23 -6.5c9.33301 0 18.333 4 27 12s14.667 19 18 33
h60c-7.33301 -36.667 -20.333 -65.167 -39 -85.5s-40.667 -30.5 -66 -30.5z" />
    <glyph glyph-name="utilde" unicode="&#x169;" horiz-adv-x="588" 
d="M493 156c-5.33301 -35.333 -8.83496 -64.834 -10.502 -88.501s-1.83398 -46.167 -0.500977 -67.5h-79c-1.33301 15.333 -1.5 32.166 -0.5 50.499s2.83301 36.166 5.5 53.499c-18.667 -32 -43 -58.833 -73 -80.5s-66.333 -32.5 -109 -32.5
c-27.333 0 -51.666 4.33301 -72.999 13s-38.666 21.834 -51.999 39.501s-22.333 40.334 -27 68.001s-4 60.5 2 98.5l50 313h83l-53 -332c-6.66699 -41.333 -2.66699 -73.166 12 -95.499s40 -33.5 76 -33.5c22 0 42.667 3.5 62 10.5s36.833 17.333 52.5 31
s28.834 30.167 39.501 49.5s18 41.333 22 66l48 304h83zM407.998 618.999c-12 0 -23.166 2.16699 -33.499 6.5s-20 9.33301 -29 15s-17.5 10.667 -25.5 15s-15.667 6.5 -23 6.5c-9.33301 0 -18.5 -4 -27.5 -12s-15.167 -19 -18.5 -33h-60
c7.33301 36.667 20.5 65.167 39.5 85.5s41.5 30.5 67.5 30.5c11.333 0 22.166 -2.16699 32.499 -6.5s20 -9.33301 29 -15s17.5 -10.667 25.5 -15s15.667 -6.5 23 -6.5c9.33301 0 18.333 4 27 12s14.667 19 18 33h60c-7.33301 -36.667 -20.333 -65.167 -39 -85.5
s-40.667 -30.5 -66 -30.5z" />
    <glyph glyph-name="Umacron" unicode="&#x16a;" horiz-adv-x="696" 
d="M331 -9c-90.667 0 -157 24.3311 -199 72.998s-55.333 121.667 -40 219l69 432h87l-69 -433c-12.667 -79.333 -5.66699 -135.666 21 -168.999s71.667 -50 135 -50c53.333 0 96.333 15 129 45s54.667 81 66 153l72 454h87l-74 -466
c-6 -39.333 -16.167 -74.833 -30.5 -106.5s-33.166 -58.667 -56.499 -81s-51.333 -39.666 -84 -51.999s-70.334 -18.5 -113.001 -18.5zM309 849.998h266l-10 -64h-266z" />
    <glyph glyph-name="umacron" unicode="&#x16b;" horiz-adv-x="588" 
d="M493 156c-5.33301 -35.333 -8.83496 -64.834 -10.502 -88.501s-1.83398 -46.167 -0.500977 -67.5h-79c-1.33301 15.333 -1.5 32.166 -0.5 50.499s2.83301 36.166 5.5 53.499c-18.667 -32 -43 -58.833 -73 -80.5s-66.333 -32.5 -109 -32.5
c-27.333 0 -51.666 4.33301 -72.999 13s-38.666 21.834 -51.999 39.501s-22.333 40.334 -27 68.001s-4 60.5 2 98.5l50 313h83l-53 -332c-6.66699 -41.333 -2.66699 -73.166 12 -95.499s40 -33.5 76 -33.5c22 0 42.667 3.5 62 10.5s36.833 17.333 52.5 31
s28.834 30.167 39.501 49.5s18 41.333 22 66l48 304h83zM228.998 711.999h262l-10 -64h-262z" />
    <glyph glyph-name="Ubreve" unicode="&#x16c;" horiz-adv-x="696" 
d="M331 -9c-90.667 0 -157 24.3311 -199 72.998s-55.333 121.667 -40 219l69 432h87l-69 -433c-12.667 -79.333 -5.66699 -135.666 21 -168.999s71.667 -50 135 -50c53.333 0 96.333 15 129 45s54.667 81 66 153l72 454h87l-74 -466
c-6 -39.333 -16.167 -74.833 -30.5 -106.5s-33.166 -58.667 -56.499 -81s-51.333 -39.666 -84 -51.999s-70.334 -18.5 -113.001 -18.5zM432 766.998c-37.333 0 -68.333 11.999 -93 35.999s-37 56 -37 96h66c2.66699 -21.333 9.16699 -37.333 19.5 -48s25.5 -16 45.5 -16
c40.667 0 65 21.333 73 64h64c-1.33301 -19.333 -6 -37.166 -14 -53.499s-18.333 -30.333 -31 -42s-27 -20.667 -43 -27s-32.667 -9.5 -50 -9.5z" />
    <glyph glyph-name="ubreve" unicode="&#x16d;" horiz-adv-x="588" 
d="M493 156c-5.33301 -35.333 -8.83496 -64.834 -10.502 -88.501s-1.83398 -46.167 -0.500977 -67.5h-79c-1.33301 15.333 -1.5 32.166 -0.5 50.499s2.83301 36.166 5.5 53.499c-18.667 -32 -43 -58.833 -73 -80.5s-66.333 -32.5 -109 -32.5
c-27.333 0 -51.666 4.33301 -72.999 13s-38.666 21.834 -51.999 39.501s-22.333 40.334 -27 68.001s-4 60.5 2 98.5l50 313h83l-53 -332c-6.66699 -41.333 -2.66699 -73.166 12 -95.499s40 -33.5 76 -33.5c22 0 42.667 3.5 62 10.5s36.833 17.333 52.5 31
s28.834 30.167 39.501 49.5s18 41.333 22 66l48 304h83zM352.998 618.999c-37.333 0 -68.333 11.999 -93 35.999s-37 56 -37 96h66c2.66699 -21.333 9.16699 -37.333 19.5 -48s25.5 -16 45.5 -16c40.667 0 65 21.333 73 64h64c-1.33301 -19.333 -6 -37.166 -14 -53.499
s-18.333 -30.333 -31 -42s-27 -20.667 -43 -27s-32.667 -9.5 -50 -9.5z" />
    <glyph glyph-name="Uring" unicode="&#x16e;" horiz-adv-x="696" 
d="M331 -9c-90.667 0 -157 24.3311 -199 72.998s-55.333 121.667 -40 219l69 432h87l-69 -433c-12.667 -79.333 -5.66699 -135.666 21 -168.999s71.667 -50 135 -50c53.333 0 96.333 15 129 45s54.667 81 66 153l72 454h87l-74 -466
c-6 -39.333 -16.167 -74.833 -30.5 -106.5s-33.166 -58.667 -56.499 -81s-51.333 -39.666 -84 -51.999s-70.334 -18.5 -113.001 -18.5zM439 784.998c15.333 0 28.333 5.66699 39 17s16 25.666 16 42.999c0 16.667 -4.66699 30.167 -14 40.5s-21.666 15.5 -36.999 15.5
s-28.333 -5.66699 -39 -17s-16 -25.666 -16 -42.999c0 -16.667 4.66699 -30.167 14 -40.5s21.666 -15.5 36.999 -15.5zM439 738.998c-14.667 0 -28.334 2.66699 -41.001 8s-23.834 12.5 -33.501 21.5s-17.167 19.833 -22.5 32.5s-8 26 -8 40c0 14.667 2.83301 28.5 8.5 41.5
s13.5 24.167 23.5 33.5s21.667 16.833 35 22.5s27.333 8.5 42 8.5s28.334 -2.66699 41.001 -8s23.834 -12.5 33.501 -21.5s17.167 -19.833 22.5 -32.5s8 -26 8 -40c0 -14.667 -2.83301 -28.5 -8.5 -41.5s-13.5 -24.167 -23.5 -33.5s-21.667 -16.833 -35 -22.5
s-27.333 -8.5 -42 -8.5z" />
    <glyph glyph-name="uring" unicode="&#x16f;" horiz-adv-x="588" 
d="M493 156c-5.33301 -35.333 -8.83496 -64.834 -10.502 -88.501s-1.83398 -46.167 -0.500977 -67.5h-79c-1.33301 15.333 -1.5 32.166 -0.5 50.499s2.83301 36.166 5.5 53.499c-18.667 -32 -43 -58.833 -73 -80.5s-66.333 -32.5 -109 -32.5
c-27.333 0 -51.666 4.33301 -72.999 13s-38.666 21.834 -51.999 39.501s-22.333 40.334 -27 68.001s-4 60.5 2 98.5l50 313h83l-53 -332c-6.66699 -41.333 -2.66699 -73.166 12 -95.499s40 -33.5 76 -33.5c22 0 42.667 3.5 62 10.5s36.833 17.333 52.5 31
s28.834 30.167 39.501 49.5s18 41.333 22 66l48 304h83zM352.998 643.999c15.333 0 28.333 5.66699 39 17s16 25.666 16 42.999c0 16.667 -4.66699 30.167 -14 40.5s-21.666 15.5 -36.999 15.5s-28.333 -5.66699 -39 -17s-16 -25.666 -16 -42.999
c0 -16.667 4.66699 -30.167 14 -40.5s21.666 -15.5 36.999 -15.5zM352.998 597.999c-14.667 0 -28.334 2.66699 -41.001 8s-23.834 12.5 -33.501 21.5s-17.167 19.833 -22.5 32.5s-8 26 -8 40c0 14.667 2.83301 28.5 8.5 41.5s13.5 24.167 23.5 33.5s21.667 16.833 35 22.5
s27.333 8.5 42 8.5s28.334 -2.66699 41.001 -8s23.834 -12.5 33.501 -21.5s17.167 -19.833 22.5 -32.5s8 -26 8 -40c0 -14.667 -2.83301 -28.5 -8.5 -41.5s-13.5 -24.167 -23.5 -33.5s-21.667 -16.833 -35 -22.5s-27.333 -8.5 -42 -8.5z" />
    <glyph glyph-name="Uhungarumlaut" unicode="&#x170;" horiz-adv-x="696" 
d="M331 -9c-90.667 0 -157 24.3311 -199 72.998s-55.333 121.667 -40 219l69 432h87l-69 -433c-12.667 -79.333 -5.66699 -135.666 21 -168.999s71.667 -50 135 -50c53.333 0 96.333 15 129 45s54.667 81 66 153l72 454h87l-74 -466
c-6 -39.333 -16.167 -74.833 -30.5 -106.5s-33.166 -58.667 -56.499 -81s-51.333 -39.666 -84 -51.999s-70.334 -18.5 -113.001 -18.5zM365 897.998h96l-81 -127h-61zM519 897.998h96l-81 -127h-61z" />
    <glyph glyph-name="uhungarumlaut" unicode="&#x171;" horiz-adv-x="588" 
d="M493 156c-5.33301 -35.333 -8.83496 -64.834 -10.502 -88.501s-1.83398 -46.167 -0.500977 -67.5h-79c-1.33301 15.333 -1.5 32.166 -0.5 50.499s2.83301 36.166 5.5 53.499c-18.667 -32 -43 -58.833 -73 -80.5s-66.333 -32.5 -109 -32.5
c-27.333 0 -51.666 4.33301 -72.999 13s-38.666 21.834 -51.999 39.501s-22.333 40.334 -27 68.001s-4 60.5 2 98.5l50 313h83l-53 -332c-6.66699 -41.333 -2.66699 -73.166 12 -95.499s40 -33.5 76 -33.5c22 0 42.667 3.5 62 10.5s36.833 17.333 52.5 31
s28.834 30.167 39.501 49.5s18 41.333 22 66l48 304h83zM297.998 759.999h96l-88 -147h-61zM451.998 759.999h96l-88 -147h-61z" />
    <glyph glyph-name="Uogonek" unicode="&#x172;" horiz-adv-x="696" 
d="M344 -182c-13.333 0 -26.002 1.50195 -38.002 4.50195s-22.5 7.66699 -31.5 14s-16.167 14.666 -21.5 24.999s-8 22.833 -8 37.5c0 21.333 7.16699 39.5 21.5 54.5s30.5 27.5 48.5 37.5c-87.333 1.33301 -151.166 26.5 -191.499 75.5s-52.833 121.167 -37.5 216.5l69 432
h87l-69 -433c-12.667 -79.333 -5.83398 -135.666 20.499 -168.999s71.166 -50 134.499 -50c53.333 0 96.5 15 129.5 45s55.167 81 66.5 153l72 454h87l-74 -466c-7.33301 -49.333 -21.666 -93.333 -42.999 -132s-53.666 -70 -96.999 -94
c-10.667 -6 -24.167 -12.167 -40.5 -18.5s-32 -13.833 -47 -22.5s-28 -18.834 -39 -30.501s-16.5 -25.834 -16.5 -42.501c0 -20.667 12.333 -31 37 -31c16.667 0 32.667 3.33301 48 10l-9 -59c-6.66699 -2.66699 -14.667 -5.16699 -24 -7.5s-20.666 -3.5 -33.999 -3.5z" />
    <glyph glyph-name="uogonek" unicode="&#x173;" horiz-adv-x="588" 
d="M487 156c-5.33301 -35.333 -8.83496 -64.833 -10.502 -88.5s-1.83398 -46.167 -0.500977 -67.5c-8 -4.66699 -16.667 -10 -26 -16s-18.333 -12.667 -27 -20s-15.834 -15.666 -21.501 -24.999s-8.5 -19.333 -8.5 -30c0 -20.667 12.333 -31 37 -31
c16.667 0 32.667 3.33301 48 10l-9 -59c-6.66699 -2.66699 -14.667 -5.16699 -24 -7.5s-20.666 -3.5 -33.999 -3.5s-26 1.5 -38 4.5s-22.5 7.66699 -31.5 14s-16.167 14.666 -21.5 24.999s-8 22.833 -8 37.5c0 12 2.5 23 7.5 33s11.667 19.333 20 28s17.5 16.167 27.5 22.5
s20 12.166 30 17.499c-1.33301 15.333 -1.5 32.166 -0.5 50.499s2.83301 36.166 5.5 53.499c-18.667 -32 -43 -58.833 -73 -80.5s-66.333 -32.5 -109 -32.5c-27.333 0 -51.666 4.33301 -72.999 13s-38.666 21.834 -51.999 39.501s-22.333 40.334 -27 68.001s-4 60.5 2 98.5
l50 313h83l-53 -332c-6.66699 -41.333 -2.66699 -73.166 12 -95.499s40 -33.5 76 -33.5c22 0 42.667 3.5 62 10.5s36.833 17.333 52.5 31s28.834 30.167 39.501 49.5s18 41.333 22 66l48 304h83z" />
    <glyph glyph-name="Wcircumflex" unicode="&#x174;" horiz-adv-x="890" 
d="M99 715h87l54 -583l253 583h56l78 -585l235 585h83l-295 -715h-81l-72 561l-247 -561h-78zM501 898h75l91 -127h-58l-77 58l-93 -58h-62z" />
    <glyph glyph-name="wcircumflex" unicode="&#x175;" horiz-adv-x="767" 
d="M70 523h88l48 -426l192 426h72l50 -426l184 426h87l-240 -523h-92l-45 397l-182 -397h-91zM424 757h75l86 -144h-58l-74 75l-96 -75h-62z" />
    <glyph glyph-name="Ycircumflex" unicode="&#x176;" horiz-adv-x="592" 
d="M272 312l-175 403h93l138 -332l232 332h89l-291 -410l-48 -305h-87zM352 898h75l91 -127h-58l-77 58l-93 -58h-62z" />
    <glyph glyph-name="ycircumflex" unicode="&#x177;" horiz-adv-x="505" 
d="M190 59l-124 464h85l94 -375l199 375h89l-395 -705h-88zM286 757h75l86 -144h-58l-74 75l-96 -75h-62z" />
    <glyph glyph-name="Ydieresis" unicode="&#x178;" horiz-adv-x="604" 
d="M272 312l-175 403h93l138 -332l232 332h89l-291 -410l-48 -305h-87zM287 789c-14.667 0 -27.168 5 -37.501 15s-15.5 22.333 -15.5 37s5.33301 27.334 16 38.001s23.334 16 38.001 16s27 -5 37 -15s15 -22.333 15 -37s-5.16699 -27.334 -15.5 -38.001
s-22.833 -16 -37.5 -16zM489.999 789c-14.667 0 -27.168 5 -37.501 15s-15.5 22.333 -15.5 37s5.33301 27.334 16 38.001s23.334 16 38.001 16s27 -5 37 -15s15 -22.333 15 -37s-5.16699 -27.334 -15.5 -38.001s-22.833 -16 -37.5 -16z" />
    <glyph glyph-name="Zacute" unicode="&#x179;" horiz-adv-x="595" 
d="M-6 14l501 633h-365l11 68h489l-2 -13l-492 -631h386l-11 -71h-519zM411 898h106l-108 -127h-66z" />
    <glyph glyph-name="zacute" unicode="&#x17a;" horiz-adv-x="475" 
d="M-13 12l366 441h-269l11 70h399l-3 -15l-357 -435h288l-12 -73h-425zM337 760h108l-121 -147h-66z" />
    <glyph glyph-name="Zdotaccent" unicode="&#x17b;" horiz-adv-x="595" 
d="M-6 14l501 633h-365l11 68h489l-2 -13l-492 -631h386l-11 -71h-519zM389 787c-15.333 0 -28.332 5.16699 -38.999 15.5s-16 23.166 -16 38.499s5.5 28.5 16.5 39.5s24.167 16.5 39.5 16.5s28.166 -5.16699 38.499 -15.5s15.5 -23.166 15.5 -38.499
s-5.33301 -28.5 -16 -39.5s-23.667 -16.5 -39 -16.5z" />
    <glyph glyph-name="zdotaccent" unicode="&#x17c;" horiz-adv-x="475" 
d="M-13 12l366 441h-269l11 70h399l-3 -15l-357 -435h288l-12 -73h-425zM310 632c-15.333 0 -28.332 5.16699 -38.999 15.5s-16 23.166 -16 38.499s5.5 28.5 16.5 39.5s24.167 16.5 39.5 16.5s28.166 -5.16699 38.499 -15.5s15.5 -23.166 15.5 -38.499
s-5.33301 -28.5 -16 -39.5s-23.667 -16.5 -39 -16.5z" />
    <glyph glyph-name="Zcaron" unicode="&#x17d;" horiz-adv-x="607" 
d="M-6 14l501 633h-365l11 68h489l-2 -13l-492 -631h386l-11 -71h-519zM415 771h-75l-91 127h58l77 -58l93 58h62z" />
    <glyph glyph-name="zcaron" unicode="&#x17e;" horiz-adv-x="487" 
d="M-13 12l366 441h-269l11 70h399l-3 -15l-357 -435h288l-12 -73h-425zM328 613h-75l-86 144h58l74 -75l96 75h62z" />
    <glyph glyph-name="uni0192" unicode="&#x192;" horiz-adv-x="397" 
d="M49 413l95.998 0.000976562l29 152c9.33301 52 28.5 91.5 57.5 118.5s66.5 40.5 112.5 40.5c18.667 0 33.667 -1.5 45 -4.5s21 -6.83301 29 -11.5l-10 -65c-8.66699 3.33301 -17.667 6.16602 -27 8.49902s-21.333 3.5 -36 3.5c-25.333 0 -45.166 -8.16699 -59.499 -24.5
s-24.166 -39.5 -29.499 -69.5l-28 -148h132l-11 -68h-133l-99 -527h-83l99 527h-95z" />
    <glyph glyph-name="Aringacute" unicode="&#x1fa;" horiz-adv-x="650" 
d="M469 206h-295l-102 -206h-84l359 715h114l129 -715h-84zM208 275h248l-66 368zM416 795c15.333 0 28.333 5.66699 39 17s16 25.666 16 42.999c0 16.667 -4.66699 30.167 -14 40.5s-21.666 15.5 -36.999 15.5s-28.333 -5.66699 -39 -17s-16 -25.666 -16 -42.999
c0 -16.667 4.66699 -30.167 14 -40.5s21.666 -15.5 36.999 -15.5zM416 749c-14.667 0 -28.334 2.66699 -41.001 8s-23.834 12.5 -33.501 21.5s-17.167 19.833 -22.5 32.5s-8 26 -8 40c0 14.667 2.83301 28.5 8.5 41.5s13.5 24.167 23.5 33.5s21.667 16.833 35 22.5
s27.333 8.5 42 8.5s28.334 -2.66699 41.001 -8s23.834 -12.5 33.501 -21.5s17.167 -19.833 22.5 -32.5s8 -26 8 -40c0 -14.667 -2.83301 -28.5 -8.5 -41.5s-13.5 -24.167 -23.5 -33.5s-21.667 -16.833 -35 -22.5s-27.333 -8.5 -42 -8.5zM465 1113h106l-108 -127h-66z" />
    <glyph glyph-name="aringacute" unicode="&#x1fb;" horiz-adv-x="538" 
d="M203 -8c-54 0 -95.667 13.5 -125 40.5s-44 62.833 -44 107.5c0 32 6.83301 58.833 20.5 80.5s32 38.834 55 51.501s50 21.667 81 27s63.5 8 97.5 8h101l6 38c6.66699 40 2.5 69.667 -12.5 89s-43.5 29 -85.5 29c-34 0 -61.5 -7.5 -82.5 -22.5
s-35.167 -38.833 -42.5 -71.5h-83c6 31.333 16.5 57.5 31.5 78.5s32.167 37.667 51.5 50s40.166 21.166 62.499 26.499s44.166 8 65.499 8c29.333 0 56 -3.5 80 -10.5s44.167 -18.167 60.5 -33.5s27.833 -35.333 34.5 -60s7.33398 -54.667 2.00098 -90l-29 -182
c-5.33301 -34 -8.83301 -63 -10.5 -87s-1.16699 -47 1.5 -69h-78c-1.33301 14 -2.16602 28.5 -2.49902 43.5s0.166992 28.167 1.5 39.5c-18.667 -30 -41.5 -52.667 -68.5 -68s-56.5 -23 -88.5 -23zM214 57c39.333 0 73.334 10.833 102.001 32.5s46.667 55.5 54 101.5l9 57
h-89c-58.667 0 -102.334 -8 -131.001 -24s-43 -44 -43 -84c0 -23.333 7.83301 -43 23.5 -59s40.5 -24 74.5 -24zM332.001 624c15.333 0 28.333 5.66699 39 17s16 25.666 16 42.999c0 16.667 -4.66699 30.167 -14 40.5s-21.666 15.5 -36.999 15.5s-28.333 -5.66699 -39 -17
s-16 -25.666 -16 -42.999c0 -16.667 4.66699 -30.167 14 -40.5s21.666 -15.5 36.999 -15.5zM332.001 578c-14.667 0 -28.334 2.66699 -41.001 8s-23.834 12.5 -33.501 21.5s-17.167 19.833 -22.5 32.5s-8 26 -8 40c0 14.667 2.83301 28.5 8.5 41.5s13.5 24.167 23.5 33.5
s21.667 16.833 35 22.5s27.333 8.5 42 8.5s28.334 -2.66699 41.001 -8s23.834 -12.5 33.501 -21.5s17.167 -19.833 22.5 -32.5s8 -26 8 -40c0 -14.667 -2.83301 -28.5 -8.5 -41.5s-13.5 -24.167 -23.5 -33.5s-21.667 -16.833 -35 -22.5s-27.333 -8.5 -42 -8.5zM386.001 956
h106l-108 -127h-66z" />
    <glyph glyph-name="AEacute" unicode="&#x1fc;" horiz-adv-x="950" 
d="M459 715h505l-12 -71h-326l-38 -243h266l-11 -71h-266l-41 -259h348l-11 -71h-435l32 207h-253l-133 -207h-91zM261 275h220l58 369h-40zM736 898h106l-108 -127h-66z" />
    <glyph glyph-name="aeacute" unicode="&#x1fd;" horiz-adv-x="875" 
d="M464 211c0 -48 10.5 -85.167 31.5 -111.5s56.5 -39.5 106.5 -39.5c72.667 0 119 30.333 139 91h81c-16 -54 -43.833 -94.167 -83.5 -120.5s-86.167 -39.5 -139.5 -39.5c-50 0 -91.333 10.667 -124 32s-56.667 50 -72 86c-20 -38 -47 -67 -81 -87s-73 -30 -117 -30
c-55.333 0 -97.666 12.5 -126.999 37.5s-44 59.833 -44 104.5c0 32 7 59.167 21 81.5s32.833 40.5 56.5 54.5s51.167 24.167 82.5 30.5s64.333 9.5 99 9.5h97l6 35c6.66699 40 2.33398 69.667 -12.999 89s-44 29 -86 29c-34 0 -61.5 -7.5 -82.5 -22.5
s-35.167 -38.833 -42.5 -71.5h-83c6 31.333 16.5 57.5 31.5 78.5s32.167 37.667 51.5 50s40.166 21.166 62.499 26.499s44.166 8 65.499 8c40 0 74.333 -6.66699 103 -20s48.667 -35.333 60 -66c23.333 26.667 50.5 47.5 81.5 62.5s64.833 22.5 101.5 22.5
c35.333 0 66.833 -5.5 94.5 -16.5s50.167 -27.667 67.5 -50s29 -50.166 35 -83.499s5.66699 -72.333 -1 -117l-3 -17h-374c-0.666992 -6 -1 -12 -1 -18v-18zM212 57c40.667 0 75.5 10.833 104.5 32.5s47.167 55.5 54.5 101.5l9 56h-90
c-58.667 0 -102.334 -8.33301 -131.001 -25s-43 -45 -43 -85c0 -23.333 7.83301 -42.5 23.5 -57.5s39.834 -22.5 72.501 -22.5zM641 463c-38 0 -72.167 -11.833 -102.5 -35.5s-51.833 -62.834 -64.5 -117.501h291c4 52.667 -3.66699 91.334 -23 116.001s-53 37 -101 37z
M531 760h108l-121 -147h-66z" />
    <glyph glyph-name="Oslashacute" unicode="&#x1fe;" horiz-adv-x="811" 
d="M36 12l99.999 101.999c-20 27.333 -35.333 57.666 -46 90.999s-16 69 -16 107c0 56.667 9.83301 110.167 29.5 160.5s46.667 94 81 131s75 66.333 122 88s97.5 32.5 151.5 32.5c42.667 0 81.334 -6 116.001 -18s65 -28.667 91 -50l84 86l43 -45l-83 -84
c23.333 -28.667 40.833 -61 52.5 -97s17.5 -74 17.5 -114c0 -59.333 -9.83301 -114.166 -29.5 -164.499s-46.5 -93.666 -80.5 -129.999s-74 -64.833 -120 -85.5s-95.333 -31 -148 -31c-46 0 -87.667 6.66699 -125 20s-70 32.333 -98 57l-99 -101zM688.999 401.999
c0 59.333 -12.668 109.666 -38.001 150.999l-419 -429c42.667 -41.333 99.334 -62 170.001 -62c42.667 0 81.5 8.5 116.5 25.5s65.167 40.667 90.5 71s45 66.333 59 108s21 86.834 21 135.501zM163.998 311.999c0 -54 10.333 -100 31 -138l417 427
c-19.333 17.333 -42 30.5 -68 39.5s-55 13.5 -87 13.5c-45.333 0 -86 -9.16699 -122 -27.5s-66.667 -43 -92 -74s-44.833 -67.333 -58.5 -109s-20.5 -85.5 -20.5 -131.5zM514.998 897.999h106l-108 -127h-66z" />
    <glyph glyph-name="oslashacute" unicode="&#x1ff;" horiz-adv-x="589" 
d="M17 1l72.002 77.002c-14.667 19.333 -25.834 41.333 -33.501 66s-11.5 51.334 -11.5 80.001c0 44 7.16699 84.667 21.5 122s34 69.666 59 96.999s54.333 48.833 88 64.5s70.167 23.5 109.5 23.5c30 0 57.5 -4 82.5 -12s47.167 -19.667 66.5 -35l67 72l41 -38l-69 -73
c30.667 -38.667 46 -86.667 46 -144c0 -44.667 -6.83301 -85.834 -20.5 -123.501s-32.834 -70.334 -57.501 -98.001s-54.167 -49.167 -88.5 -64.5s-71.833 -23 -112.5 -23c-30 0 -57.5 4 -82.5 12s-47.167 19.667 -66.5 35l-71 -76zM281.002 60.002
c29.333 0 55.667 6.00098 79 18.001s43 28.833 59 50.5s28.333 47 37 76s13 60.5 13 94.5c0 33.333 -5.33301 61.666 -16 84.999l-275 -293c24.667 -20.667 59 -31 103 -31zM130.003 224.003c0 -16.667 1.16699 -32.167 3.5 -46.5s6.16602 -27.833 11.499 -40.5l275 293
c-25.333 22 -59.666 33 -102.999 33c-28 0 -53.5 -6 -76.5 -18s-42.667 -28.833 -59 -50.5s-29 -47 -38 -76s-13.5 -60.5 -13.5 -94.5zM379.003 760.003h108l-121 -147h-66z" />
    <glyph glyph-name="uni0218" unicode="&#x218;" horiz-adv-x="627" 
d="M306 -9c-45.333 0 -84.498 6.33301 -117.498 19s-60.5 29.5 -82.5 50.5s-38.5 45.167 -49.5 72.5s-16.5 55.666 -16.5 84.999h86c0.666992 -20 4.66699 -39.5 12 -58.5s18.333 -35.667 33 -50s33.5 -26 56.5 -35s50.833 -13.5 83.5 -13.5
c54 -0.666992 95.5 11.833 124.5 37.5s43.5 60.167 43.5 103.5c0 16 -2.33301 30.333 -7 43s-13 24 -25 34s-27.833 19.333 -47.5 28s-44.5 17.334 -74.5 26.001c-34 10 -63.833 20.5 -89.5 31.5s-47.334 23.833 -65.001 38.5s-31 32 -40 52s-13.5 43.667 -13.5 71
c0 26.667 5.66699 52 17 76s27.333 45 48 63s45.834 32.333 75.501 43s62.834 16 99.501 16c34.667 0 66 -4.33301 94 -13s52 -21.334 72 -38.001s35.667 -37.167 47 -61.5s17.333 -52.5 18 -84.5h-80c-4.66699 47.333 -21.167 80.333 -49.5 99s-64.833 28 -109.5 28
c-26 0 -48.333 -3.16699 -67 -9.5s-34 -15.166 -46 -26.499s-21 -24.666 -27 -39.999s-9 -31.666 -9 -48.999c0 -14 2.33301 -26.5 7 -37.5s12.667 -21.167 24 -30.5s27 -18.333 47 -27s45.667 -17.667 77 -27c35.333 -10.667 66.166 -21.834 92.499 -33.501
s48.166 -25.167 65.499 -40.5s30.166 -32.833 38.499 -52.5s12.5 -42.834 12.5 -69.501c0 -31.333 -6 -60.5 -18 -87.5s-29.167 -50.333 -51.5 -70s-49.333 -35 -81 -46s-67.5 -16.5 -107.5 -16.5zM151.002 -194l72 157l78 -24l-101 -159z" />
    <glyph glyph-name="uni0219" unicode="&#x219;" horiz-adv-x="480" 
d="M235 -9c-34.667 0 -64.6729 4.66797 -90.0059 14.001s-46.333 21.833 -63 37.5s-29.167 33.667 -37.5 54s-12.833 41.833 -13.5 64.5h81c0.666992 -14 3.33398 -27.167 8.00098 -39.5s11.834 -23 21.501 -32s22.334 -16.167 38.001 -21.5s35.167 -8 58.5 -8
c36.667 0 63.667 7.5 81 22.5s26 36.167 26 63.5c0 22.667 -7.83301 40 -23.5 52s-43.167 23 -82.5 33c-29.333 7.33301 -54.166 15.5 -74.499 24.5s-36.666 19.5 -48.999 31.5s-21.333 25.5 -27 40.5s-8.5 32.5 -8.5 52.5c0 24.667 5 46.5 15 65.5s23.5 35 40.5 48
s36.5 22.667 58.5 29s44.667 9.5 68 9.5c25.333 0 49 -2.83301 71 -8.5s41.167 -14.667 57.5 -27s29.5 -28 39.5 -47s15.667 -41.833 17 -68.5h-78c-1.33301 25.333 -11.666 45.333 -30.999 60s-45.333 22 -78 22s-57.834 -6.83301 -75.501 -20.5
s-26.5 -32.834 -26.5 -57.501c0 -10 1.66699 -18.833 5 -26.5s9 -14.667 17 -21s18.833 -12.166 32.5 -17.499s30.834 -10.333 51.501 -15c26 -6.66699 49 -14 69 -22s37 -17.833 51 -29.5s24.5 -25.834 31.5 -42.501s10.5 -37 10.5 -61c0 -48 -17.167 -86.5 -51.5 -115.5
s-80.833 -43.5 -139.5 -43.5zM86.9941 -193.999l72 157l78 -24l-101 -159z" />
    <glyph glyph-name="uni021A" unicode="&#x21a;" horiz-adv-x="561" 
d="M301 644h-208l12 71h503l-12 -71h-208l-101 -644h-87zM131 -194l72 157l78 -24l-101 -159z" />
    <glyph glyph-name="uni021B" unicode="&#x21b;" horiz-adv-x="343" 
d="M210 -7c-26 0 -47.833 3.83496 -65.5 11.502s-31.5 18.167 -41.5 31.5s-16.667 29.166 -20 47.499s-3.33301 38.166 0 59.499l49 310h-75l11 70h75l19 119h83l-19 -119h119l-11 -70h-119l-50 -313c-4.66699 -28.667 -2 -48.667 8 -60s26.667 -17 50 -17
c21.333 0 42 3.66699 62 11l-11 -69c-18 -8 -39.333 -12 -64 -12zM47 -193.998l72 157l78 -24l-101 -159z" />
    <glyph glyph-name="uni0237" unicode="&#x237;" horiz-adv-x="255" 
d="M-52 -121c30 1.33301 51.499 8.83105 64.499 22.498s21.5 32.834 25.5 57.501l89 564h83l-90 -569c-7.33301 -45.333 -25.166 -80.666 -53.499 -105.999s-71.5 -38 -129.5 -38z" />
    <glyph glyph-name="uni02BC" unicode="&#x2bc;" horiz-adv-x="253" 
d="M93 514l103 212l77 -36l-131 -202z" />
    <glyph glyph-name="circumflex" unicode="&#x2c6;" horiz-adv-x="412" 
d="M245 757h75l86 -144h-58l-74 75l-96 -75h-62z" />
    <glyph glyph-name="caron" unicode="&#x2c7;" horiz-adv-x="412" 
d="M299 613h-75l-86 144h58l74 -75l96 75h62z" />
    <glyph glyph-name="breve" unicode="&#x2d8;" horiz-adv-x="412" 
d="M274 619c-37.333 0 -68.333 11.999 -93 35.999s-37 56 -37 96h66c2.66699 -21.333 9.16699 -37.333 19.5 -48s25.5 -16 45.5 -16c40.667 0 65 21.333 73 64h64c-1.33301 -19.333 -6 -37.166 -14 -53.499s-18.333 -30.333 -31 -42s-27 -20.667 -43 -27
s-32.667 -9.5 -50 -9.5z" />
    <glyph glyph-name="dotaccent" unicode="&#x2d9;" horiz-adv-x="412" 
d="M272 632c-15.333 0 -28.332 5.16699 -38.999 15.5s-16 23.166 -16 38.499s5.5 28.5 16.5 39.5s24.167 16.5 39.5 16.5s28.166 -5.16699 38.499 -15.5s15.5 -23.166 15.5 -38.499s-5.33301 -28.5 -16 -39.5s-23.667 -16.5 -39 -16.5z" />
    <glyph glyph-name="ring" unicode="&#x2da;" horiz-adv-x="412" 
d="M273 644c15.333 0 28.333 5.66699 39 17s16 25.666 16 42.999c0 16.667 -4.66699 30.167 -14 40.5s-21.666 15.5 -36.999 15.5s-28.333 -5.66699 -39 -17s-16 -25.666 -16 -42.999c0 -16.667 4.66699 -30.167 14 -40.5s21.666 -15.5 36.999 -15.5zM273 598
c-14.667 0 -28.334 2.66699 -41.001 8s-23.834 12.5 -33.501 21.5s-17.167 19.833 -22.5 32.5s-8 26 -8 40c0 14.667 2.83301 28.5 8.5 41.5s13.5 24.167 23.5 33.5s21.667 16.833 35 22.5s27.333 8.5 42 8.5s28.334 -2.66699 41.001 -8s23.834 -12.5 33.501 -21.5
s17.167 -19.833 22.5 -32.5s8 -26 8 -40c0 -14.667 -2.83301 -28.5 -8.5 -41.5s-13.5 -24.167 -23.5 -33.5s-21.667 -16.833 -35 -22.5s-27.333 -8.5 -42 -8.5z" />
    <glyph glyph-name="ogonek" unicode="&#x2db;" horiz-adv-x="412" 
d="M167 -182c-13.333 0 -25.999 1.5 -37.999 4.5s-22.5 7.66699 -31.5 14s-16.167 14.666 -21.5 24.999s-8 22.833 -8 37.5c0 12 2.66699 23 8 33s12.166 19.333 20.499 28s17.666 16.167 27.999 22.5s20.5 12.166 30.5 17.499h78l-26.5 -15.5
c-9.66699 -5.66699 -18.667 -12.167 -27 -19.5s-15.5 -15.666 -21.5 -24.999s-9 -19.666 -9 -30.999c0 -20.667 12.333 -31 37 -31c16.667 0 32.667 3.33301 48 10l-9 -59c-6.66699 -2.66699 -14.667 -5.16699 -24 -7.5s-20.666 -3.5 -33.999 -3.5z" />
    <glyph glyph-name="tilde" unicode="&#x2dc;" horiz-adv-x="412" 
d="M325 619c-12 0 -23.166 2.16699 -33.499 6.5s-20 9.33301 -29 15s-17.5 10.667 -25.5 15s-15.667 6.5 -23 6.5c-9.33301 0 -18.5 -4 -27.5 -12s-15.167 -19 -18.5 -33h-60c7.33301 36.667 20.5 65.167 39.5 85.5s41.5 30.5 67.5 30.5
c11.333 0 22.166 -2.16699 32.499 -6.5s20 -9.33301 29 -15s17.5 -10.667 25.5 -15s15.667 -6.5 23 -6.5c9.33301 0 18.333 4 27 12s14.667 19 18 33h60c-7.33301 -36.667 -20.333 -65.167 -39 -85.5s-40.667 -30.5 -66 -30.5z" />
    <glyph glyph-name="hungarumlaut" unicode="&#x2dd;" horiz-adv-x="412" 
d="M205 760h96l-88 -147h-61zM359 760h96l-88 -147h-61z" />
    <glyph glyph-name="uni037E" unicode="&#x37e;" horiz-adv-x="292" 
d="M-18 -95l118 219l75 -38l-143 -209zM174 292c-17.333 0 -32.332 6.16699 -44.999 18.5s-19 27.5 -19 45.5s6.16699 33.167 18.5 45.5s27.166 18.5 44.499 18.5s32.5 -6.16699 45.5 -18.5s19.5 -27.5 19.5 -45.5s-6.33301 -33.167 -19 -45.5s-27.667 -18.5 -45 -18.5z" />
    <glyph glyph-name="uni0401" unicode="&#x401;" horiz-adv-x="572" 
d="M167 715h413l-12 -71h-326l-38 -243h266l-11 -71h-266l-41 -259h348l-11 -71h-435zM284 789c-14.667 0 -27.168 5 -37.501 15s-15.5 22.333 -15.5 37s5.33301 27.334 16 38.001s23.334 16 38.001 16s27 -5 37 -15s15 -22.333 15 -37s-5.16699 -27.334 -15.5 -38.001
s-22.833 -16 -37.5 -16zM486.999 789c-14.667 0 -27.168 5 -37.501 15s-15.5 22.333 -15.5 37s5.33301 27.334 16 38.001s23.334 16 38.001 16s27 -5 37 -15s15 -22.333 15 -37s-5.16699 -27.334 -15.5 -38.001s-22.833 -16 -37.5 -16z" />
    </font>
</defs>
</svg>
